<?xml version="1.0" encoding="utf-8" standalone="no"?>
<!DOCTYPE svg PUBLIC "-//W3C//DTD SVG 1.1//EN"
  "http://www.w3.org/Graphics/SVG/1.1/DTD/svg11.dtd">
<svg xmlns:xlink="http://www.w3.org/1999/xlink" width="504pt" height="504pt" viewBox="0 0 504 504" xmlns="http://www.w3.org/2000/svg" version="1.1">
 <metadata>
  <rdf:RDF xmlns:dc="http://purl.org/dc/elements/1.1/" xmlns:cc="http://creativecommons.org/ns#" xmlns:rdf="http://www.w3.org/1999/02/22-rdf-syntax-ns#">
   <cc:Work>
    <dc:type rdf:resource="http://purl.org/dc/dcmitype/StillImage"/>
    <dc:date>2023-06-04T23:27:12.909450</dc:date>
    <dc:format>image/svg+xml</dc:format>
    <dc:creator>
     <cc:Agent>
      <dc:title>Matplotlib v3.7.1, https://matplotlib.org/</dc:title>
     </cc:Agent>
    </dc:creator>
   </cc:Work>
  </rdf:RDF>
 </metadata>
 <defs>
  <style type="text/css">*{stroke-linejoin: round; stroke-linecap: butt}</style>
 </defs>
 <g id="figure_1">
  <g id="patch_1">
   <path d="M 0 504 
L 504 504 
L 504 0 
L 0 0 
L 0 504 
z
" style="fill: none"/>
  </g>
  <g id="axes_1">
   <g id="patch_2">
    <path d="M 63 441 
L 453.6 441 
L 453.6 60.48 
L 63 60.48 
z
" style="fill: #eaeaf2"/>
   </g>
   <g id="matplotlib.axis_1">
    <g id="xtick_1">
     <g id="line2d_1">
      <path d="M 63 441 
L 63 60.48 
" clip-path="url(#p7be21fa42f)" style="fill: none; stroke: #ffffff; stroke-width: 0.8; stroke-linecap: round"/>
     </g>
     <g id="text_1">
      <!-- 0.0 -->
      <g style="fill: #262626" transform="translate(53.811641 458.391875) scale(0.13 -0.13)">
       <defs>
        <path id="MicrosoftYaHei-30" d="M 284 2325 
Q 284 3606 709 4264 
Q 1134 4922 1941 4922 
Q 3478 4922 3478 2441 
Q 3478 1216 3045 567 
Q 2613 -81 1831 -81 
Q 1094 -81 689 534 
Q 284 1150 284 2325 
z
M 909 2353 
Q 909 425 1888 425 
Q 2850 425 2850 2384 
Q 2850 4413 1906 4413 
Q 909 4413 909 2353 
z
" transform="scale(0.015625)"/>
        <path id="MicrosoftYaHei-2e" d="M 372 322 
Q 372 491 487 606 
Q 603 722 775 722 
Q 950 722 1065 605 
Q 1181 488 1181 322 
Q 1181 159 1065 42 
Q 950 -75 772 -75 
Q 600 -75 486 42 
Q 372 159 372 322 
z
" transform="scale(0.015625)"/>
       </defs>
       <use xlink:href="#MicrosoftYaHei-30"/>
       <use xlink:href="#MicrosoftYaHei-2e" x="58.642578"/>
       <use xlink:href="#MicrosoftYaHei-30" x="82.714844"/>
      </g>
     </g>
    </g>
    <g id="xtick_2">
     <g id="line2d_2">
      <path d="M 111.825 441 
L 111.825 60.48 
" clip-path="url(#p7be21fa42f)" style="fill: none; stroke: #ffffff; stroke-width: 0.8; stroke-linecap: round"/>
     </g>
     <g id="text_2">
      <!-- 0.1 -->
      <g style="fill: #262626" transform="translate(102.636641 458.391875) scale(0.13 -0.13)">
       <defs>
        <path id="MicrosoftYaHei-31" d="M 1781 0 
L 1781 4141 
Q 1638 3997 1295 3819 
Q 953 3641 663 3569 
L 663 4169 
Q 1047 4275 1484 4508 
Q 1922 4741 2156 4947 
L 2388 4947 
L 2388 0 
L 1781 0 
z
" transform="scale(0.015625)"/>
       </defs>
       <use xlink:href="#MicrosoftYaHei-30"/>
       <use xlink:href="#MicrosoftYaHei-2e" x="58.642578"/>
       <use xlink:href="#MicrosoftYaHei-31" x="82.714844"/>
      </g>
     </g>
    </g>
    <g id="xtick_3">
     <g id="line2d_3">
      <path d="M 160.65 441 
L 160.65 60.48 
" clip-path="url(#p7be21fa42f)" style="fill: none; stroke: #ffffff; stroke-width: 0.8; stroke-linecap: round"/>
     </g>
     <g id="text_3">
      <!-- 0.2 -->
      <g style="fill: #262626" transform="translate(151.461641 458.391875) scale(0.13 -0.13)">
       <defs>
        <path id="MicrosoftYaHei-32" d="M 2666 3572 
Q 2666 3963 2419 4186 
Q 2172 4409 1747 4409 
Q 1447 4409 1140 4256 
Q 834 4103 569 3819 
L 569 4413 
Q 806 4659 1107 4790 
Q 1409 4922 1816 4922 
Q 2472 4922 2872 4570 
Q 3272 4219 3272 3619 
Q 3272 3084 3026 2693 
Q 2781 2303 2188 1894 
Q 1581 1475 1376 1294 
Q 1172 1113 1090 947 
Q 1009 781 1009 544 
L 3416 544 
L 3416 0 
L 372 0 
L 372 241 
Q 372 659 486 951 
Q 600 1244 862 1520 
Q 1125 1797 1681 2184 
Q 2250 2584 2458 2886 
Q 2666 3188 2666 3572 
z
" transform="scale(0.015625)"/>
       </defs>
       <use xlink:href="#MicrosoftYaHei-30"/>
       <use xlink:href="#MicrosoftYaHei-2e" x="58.642578"/>
       <use xlink:href="#MicrosoftYaHei-32" x="82.714844"/>
      </g>
     </g>
    </g>
    <g id="xtick_4">
     <g id="line2d_4">
      <path d="M 209.475 441 
L 209.475 60.48 
" clip-path="url(#p7be21fa42f)" style="fill: none; stroke: #ffffff; stroke-width: 0.8; stroke-linecap: round"/>
     </g>
     <g id="text_4">
      <!-- 0.3 -->
      <g style="fill: #262626" transform="translate(200.286641 458.391875) scale(0.13 -0.13)">
       <defs>
        <path id="MicrosoftYaHei-33" d="M 447 809 
Q 944 425 1569 425 
Q 2069 425 2361 670 
Q 2653 916 2653 1328 
Q 2653 2247 1338 2247 
L 934 2247 
L 934 2753 
L 1319 2753 
Q 2484 2753 2484 3616 
Q 2484 4413 1594 4413 
Q 1084 4413 634 4069 
L 634 4647 
Q 1109 4922 1744 4922 
Q 2363 4922 2738 4598 
Q 3113 4275 3113 3759 
Q 3113 2809 2144 2538 
L 2144 2525 
Q 2669 2469 2973 2155 
Q 3278 1841 3278 1372 
Q 3278 719 2808 319 
Q 2338 -81 1556 -81 
Q 869 -81 447 175 
L 447 809 
z
" transform="scale(0.015625)"/>
       </defs>
       <use xlink:href="#MicrosoftYaHei-30"/>
       <use xlink:href="#MicrosoftYaHei-2e" x="58.642578"/>
       <use xlink:href="#MicrosoftYaHei-33" x="82.714844"/>
      </g>
     </g>
    </g>
    <g id="xtick_5">
     <g id="line2d_5">
      <path d="M 258.3 441 
L 258.3 60.48 
" clip-path="url(#p7be21fa42f)" style="fill: none; stroke: #ffffff; stroke-width: 0.8; stroke-linecap: round"/>
     </g>
     <g id="text_5">
      <!-- 0.4 -->
      <g style="fill: #262626" transform="translate(249.111641 458.391875) scale(0.13 -0.13)">
       <defs>
        <path id="MicrosoftYaHei-34" d="M 2906 4841 
L 2906 1644 
L 3631 1644 
L 3631 1138 
L 2906 1138 
L 2906 0 
L 2313 0 
L 2313 1138 
L 53 1138 
L 53 1616 
Q 656 2294 1265 3178 
Q 1875 4063 2272 4841 
L 2906 4841 
z
M 741 1644 
L 2313 1644 
L 2313 3950 
Q 1988 3366 1616 2817 
Q 1244 2269 741 1644 
z
" transform="scale(0.015625)"/>
       </defs>
       <use xlink:href="#MicrosoftYaHei-30"/>
       <use xlink:href="#MicrosoftYaHei-2e" x="58.642578"/>
       <use xlink:href="#MicrosoftYaHei-34" x="82.714844"/>
      </g>
     </g>
    </g>
    <g id="xtick_6">
     <g id="line2d_6">
      <path d="M 307.125 441 
L 307.125 60.48 
" clip-path="url(#p7be21fa42f)" style="fill: none; stroke: #ffffff; stroke-width: 0.8; stroke-linecap: round"/>
     </g>
     <g id="text_6">
      <!-- 0.5 -->
      <g style="fill: #262626" transform="translate(297.936641 458.391875) scale(0.13 -0.13)">
       <defs>
        <path id="MicrosoftYaHei-35" d="M 3294 1494 
Q 3294 784 2823 350 
Q 2353 -84 1559 -84 
Q 878 -84 544 119 
L 544 744 
Q 1034 425 1544 425 
Q 2050 425 2361 704 
Q 2672 984 2672 1447 
Q 2672 1909 2348 2167 
Q 2025 2425 1434 2425 
Q 978 2425 613 2384 
L 791 4841 
L 3053 4841 
L 3053 4303 
L 1306 4303 
L 1206 2931 
L 1647 2950 
Q 2416 2950 2855 2567 
Q 3294 2184 3294 1494 
z
" transform="scale(0.015625)"/>
       </defs>
       <use xlink:href="#MicrosoftYaHei-30"/>
       <use xlink:href="#MicrosoftYaHei-2e" x="58.642578"/>
       <use xlink:href="#MicrosoftYaHei-35" x="82.714844"/>
      </g>
     </g>
    </g>
    <g id="xtick_7">
     <g id="line2d_7">
      <path d="M 355.95 441 
L 355.95 60.48 
" clip-path="url(#p7be21fa42f)" style="fill: none; stroke: #ffffff; stroke-width: 0.8; stroke-linecap: round"/>
     </g>
     <g id="text_7">
      <!-- 0.6 -->
      <g style="fill: #262626" transform="translate(346.761641 458.391875) scale(0.13 -0.13)">
       <defs>
        <path id="MicrosoftYaHei-36" d="M 3181 4219 
Q 2803 4413 2391 4413 
Q 1763 4413 1381 3866 
Q 1000 3319 994 2372 
L 1009 2372 
Q 1353 3038 2106 3038 
Q 2734 3038 3109 2628 
Q 3484 2219 3484 1541 
Q 3484 831 3051 375 
Q 2619 -81 1947 -81 
Q 1209 -81 789 495 
Q 369 1072 369 2131 
Q 369 3413 920 4167 
Q 1472 4922 2372 4922 
Q 2888 4922 3181 4781 
L 3181 4219 
z
M 1031 1584 
Q 1031 1106 1286 765 
Q 1541 425 1963 425 
Q 2363 425 2613 719 
Q 2863 1013 2863 1475 
Q 2863 1975 2627 2253 
Q 2391 2531 1956 2531 
Q 1544 2531 1287 2250 
Q 1031 1969 1031 1584 
z
" transform="scale(0.015625)"/>
       </defs>
       <use xlink:href="#MicrosoftYaHei-30"/>
       <use xlink:href="#MicrosoftYaHei-2e" x="58.642578"/>
       <use xlink:href="#MicrosoftYaHei-36" x="82.714844"/>
      </g>
     </g>
    </g>
    <g id="xtick_8">
     <g id="line2d_8">
      <path d="M 404.775 441 
L 404.775 60.48 
" clip-path="url(#p7be21fa42f)" style="fill: none; stroke: #ffffff; stroke-width: 0.8; stroke-linecap: round"/>
     </g>
     <g id="text_8">
      <!-- 0.7 -->
      <g style="fill: #262626" transform="translate(395.586641 458.391875) scale(0.13 -0.13)">
       <defs>
        <path id="MicrosoftYaHei-37" d="M 3422 4463 
Q 2659 3131 2223 1998 
Q 1788 866 1684 0 
L 1047 0 
Q 1163 853 1594 1947 
Q 2025 3041 2747 4300 
L 347 4300 
L 347 4841 
L 3422 4841 
L 3422 4463 
z
" transform="scale(0.015625)"/>
       </defs>
       <use xlink:href="#MicrosoftYaHei-30"/>
       <use xlink:href="#MicrosoftYaHei-2e" x="58.642578"/>
       <use xlink:href="#MicrosoftYaHei-37" x="82.714844"/>
      </g>
     </g>
    </g>
    <g id="xtick_9">
     <g id="line2d_9">
      <path d="M 453.6 441 
L 453.6 60.48 
" clip-path="url(#p7be21fa42f)" style="fill: none; stroke: #ffffff; stroke-width: 0.8; stroke-linecap: round"/>
     </g>
     <g id="text_9">
      <!-- 0.8 -->
      <g style="fill: #262626" transform="translate(444.411641 458.391875) scale(0.13 -0.13)">
       <defs>
        <path id="MicrosoftYaHei-38" d="M 306 1350 
Q 306 1769 556 2122 
Q 806 2475 1200 2625 
Q 884 2803 700 3081 
Q 516 3359 516 3684 
Q 516 4028 692 4312 
Q 869 4597 1183 4759 
Q 1497 4922 1875 4922 
Q 2256 4922 2572 4761 
Q 2888 4600 3063 4315 
Q 3238 4031 3238 3684 
Q 3238 3366 3058 3086 
Q 2878 2806 2559 2625 
Q 2953 2472 3200 2119 
Q 3447 1766 3447 1350 
Q 3447 938 3250 611 
Q 3053 284 2690 103 
Q 2328 -78 1875 -78 
Q 1425 -78 1065 103 
Q 706 284 506 612 
Q 306 941 306 1350 
z
M 906 1378 
Q 906 947 1172 687 
Q 1438 428 1878 428 
Q 2309 428 2582 692 
Q 2856 956 2856 1378 
Q 2856 1778 2579 2051 
Q 2303 2325 1878 2325 
Q 1456 2325 1181 2058 
Q 906 1791 906 1378 
z
M 1081 3634 
Q 1081 3309 1312 3076 
Q 1544 2844 1878 2844 
Q 2206 2844 2445 3078 
Q 2684 3313 2684 3634 
Q 2684 3963 2454 4191 
Q 2225 4419 1878 4419 
Q 1534 4419 1307 4195 
Q 1081 3972 1081 3634 
z
" transform="scale(0.015625)"/>
       </defs>
       <use xlink:href="#MicrosoftYaHei-30"/>
       <use xlink:href="#MicrosoftYaHei-2e" x="58.642578"/>
       <use xlink:href="#MicrosoftYaHei-38" x="82.714844"/>
      </g>
     </g>
    </g>
    <g id="text_10">
     <!-- 重要性 -->
     <g style="fill: #262626" transform="translate(238.8 476.015469) scale(0.13 -0.13)">
      <defs>
       <path id="MicrosoftYaHei-91cd" d="M 113 -203 
L 2975 -203 
L 2975 259 
L 600 259 
L 600 628 
L 2975 628 
L 2975 1153 
L 1288 1153 
L 1288 928 
L 850 928 
L 850 3278 
L 2975 3278 
L 2975 3728 
L 163 3728 
L 163 4116 
L 2975 4116 
L 2975 4606 
Q 1841 4572 625 4547 
Q 588 4747 538 4972 
Q 3706 5009 5669 5141 
L 5744 4716 
Q 4631 4663 3425 4619 
L 3425 4116 
L 6263 4116 
L 6263 3728 
L 3425 3728 
L 3425 3278 
L 5569 3278 
L 5569 934 
L 5131 934 
L 5131 1153 
L 3425 1153 
L 3425 628 
L 5806 628 
L 5806 259 
L 3425 259 
L 3425 -203 
L 6263 -203 
L 6263 -591 
L 113 -591 
L 113 -203 
z
M 3425 1516 
L 5131 1516 
L 5131 2053 
L 3425 2053 
L 3425 1516 
z
M 1288 1516 
L 2975 1516 
L 2975 2053 
L 1288 2053 
L 1288 1516 
z
M 5131 2916 
L 3425 2916 
L 3425 2384 
L 5131 2384 
L 5131 2916 
z
M 1288 2384 
L 2975 2384 
L 2975 2916 
L 1288 2916 
L 1288 2384 
z
" transform="scale(0.015625)"/>
       <path id="MicrosoftYaHei-8981" d="M 613 3978 
L 2181 3978 
L 2181 4659 
L 313 4659 
L 313 5084 
L 6088 5084 
L 6088 4659 
L 4213 4659 
L 4213 3978 
L 5781 3978 
L 5781 2116 
L 5319 2116 
L 5319 2353 
L 1075 2353 
L 1075 2116 
L 613 2116 
L 613 3978 
z
M 94 1741 
L 1959 1741 
Q 2150 2038 2319 2341 
L 2800 2147 
Q 2663 1941 2528 1741 
L 6300 1741 
L 6300 1316 
L 4856 1316 
Q 4497 681 3925 247 
Q 4853 -31 5875 -347 
L 5600 -834 
Q 4550 -469 3394 -81 
Q 2300 -650 531 -872 
Q 419 -641 288 -391 
Q 1809 -253 2750 134 
Q 1991 388 1188 653 
Q 1447 981 1675 1316 
L 94 1316 
L 94 1741 
z
M 1900 853 
Q 2584 650 3328 428 
Q 3938 797 4269 1316 
L 2231 1316 
Q 2066 1078 1900 853 
z
M 2644 2753 
L 3750 2753 
L 3750 3578 
L 2644 3578 
L 2644 2753 
z
M 5319 3578 
L 4213 3578 
L 4213 2753 
L 5319 2753 
L 5319 3578 
z
M 1075 2753 
L 2181 2753 
L 2181 3578 
L 1075 3578 
L 1075 2753 
z
M 2644 3978 
L 3750 3978 
L 3750 4659 
L 2644 4659 
L 2644 3978 
z
" transform="scale(0.015625)"/>
       <path id="MicrosoftYaHei-6027" d="M 1963 -153 
L 3988 -153 
L 3988 1522 
L 2375 1522 
L 2375 1959 
L 3988 1959 
L 3988 3472 
L 2975 3472 
Q 2744 2878 2438 2291 
Q 2169 2509 2019 2578 
Q 2644 3709 2894 4891 
L 3388 4759 
Q 3281 4328 3138 3909 
L 3988 3909 
L 3988 5284 
L 4481 5284 
L 4481 3909 
L 6125 3909 
L 6125 3472 
L 4481 3472 
L 4481 1959 
L 6000 1959 
L 6000 1522 
L 4481 1522 
L 4481 -153 
L 6319 -153 
L 6319 -591 
L 1963 -591 
L 1963 -153 
z
M 988 5291 
L 1469 5291 
L 1469 4091 
L 1738 4241 
Q 2063 3734 2294 3291 
L 1906 3041 
Q 1688 3503 1469 3859 
L 1469 -872 
L 988 -872 
L 988 5291 
z
M 406 3878 
L 819 3784 
Q 706 3028 506 2178 
Q 338 2241 75 2297 
Q 263 2978 406 3878 
z
" transform="scale(0.015625)"/>
      </defs>
      <use xlink:href="#MicrosoftYaHei-91cd"/>
      <use xlink:href="#MicrosoftYaHei-8981" x="100"/>
      <use xlink:href="#MicrosoftYaHei-6027" x="200"/>
     </g>
    </g>
   </g>
   <g id="matplotlib.axis_2">
    <g id="ytick_1">
     <g id="line2d_10">
      <path d="M 63 441 
L 453.6 441 
" clip-path="url(#p7be21fa42f)" style="fill: none; stroke: #ffffff; stroke-width: 0.8; stroke-linecap: round"/>
     </g>
     <g id="text_11">
      <!-- 3.8 -->
      <g style="fill: #262626" transform="translate(37.623281 446.195937) scale(0.13 -0.13)">
       <use xlink:href="#MicrosoftYaHei-33"/>
       <use xlink:href="#MicrosoftYaHei-2e" x="58.642578"/>
       <use xlink:href="#MicrosoftYaHei-38" x="82.714844"/>
      </g>
     </g>
    </g>
    <g id="ytick_2">
     <g id="line2d_11">
      <path d="M 63 377.58 
L 453.6 377.58 
" clip-path="url(#p7be21fa42f)" style="fill: none; stroke: #ffffff; stroke-width: 0.8; stroke-linecap: round"/>
     </g>
     <g id="text_12">
      <!-- 4.0 -->
      <g style="fill: #262626" transform="translate(37.623281 382.775937) scale(0.13 -0.13)">
       <use xlink:href="#MicrosoftYaHei-34"/>
       <use xlink:href="#MicrosoftYaHei-2e" x="58.642578"/>
       <use xlink:href="#MicrosoftYaHei-30" x="82.714844"/>
      </g>
     </g>
    </g>
    <g id="ytick_3">
     <g id="line2d_12">
      <path d="M 63 314.16 
L 453.6 314.16 
" clip-path="url(#p7be21fa42f)" style="fill: none; stroke: #ffffff; stroke-width: 0.8; stroke-linecap: round"/>
     </g>
     <g id="text_13">
      <!-- 4.2 -->
      <g style="fill: #262626" transform="translate(37.623281 319.355937) scale(0.13 -0.13)">
       <use xlink:href="#MicrosoftYaHei-34"/>
       <use xlink:href="#MicrosoftYaHei-2e" x="58.642578"/>
       <use xlink:href="#MicrosoftYaHei-32" x="82.714844"/>
      </g>
     </g>
    </g>
    <g id="ytick_4">
     <g id="line2d_13">
      <path d="M 63 250.74 
L 453.6 250.74 
" clip-path="url(#p7be21fa42f)" style="fill: none; stroke: #ffffff; stroke-width: 0.8; stroke-linecap: round"/>
     </g>
     <g id="text_14">
      <!-- 4.4 -->
      <g style="fill: #262626" transform="translate(37.623281 255.935937) scale(0.13 -0.13)">
       <use xlink:href="#MicrosoftYaHei-34"/>
       <use xlink:href="#MicrosoftYaHei-2e" x="58.642578"/>
       <use xlink:href="#MicrosoftYaHei-34" x="82.714844"/>
      </g>
     </g>
    </g>
    <g id="ytick_5">
     <g id="line2d_14">
      <path d="M 63 187.32 
L 453.6 187.32 
" clip-path="url(#p7be21fa42f)" style="fill: none; stroke: #ffffff; stroke-width: 0.8; stroke-linecap: round"/>
     </g>
     <g id="text_15">
      <!-- 4.6 -->
      <g style="fill: #262626" transform="translate(37.623281 192.515938) scale(0.13 -0.13)">
       <use xlink:href="#MicrosoftYaHei-34"/>
       <use xlink:href="#MicrosoftYaHei-2e" x="58.642578"/>
       <use xlink:href="#MicrosoftYaHei-36" x="82.714844"/>
      </g>
     </g>
    </g>
    <g id="ytick_6">
     <g id="line2d_15">
      <path d="M 63 123.9 
L 453.6 123.9 
" clip-path="url(#p7be21fa42f)" style="fill: none; stroke: #ffffff; stroke-width: 0.8; stroke-linecap: round"/>
     </g>
     <g id="text_16">
      <!-- 4.8 -->
      <g style="fill: #262626" transform="translate(37.623281 129.095937) scale(0.13 -0.13)">
       <use xlink:href="#MicrosoftYaHei-34"/>
       <use xlink:href="#MicrosoftYaHei-2e" x="58.642578"/>
       <use xlink:href="#MicrosoftYaHei-38" x="82.714844"/>
      </g>
     </g>
    </g>
    <g id="ytick_7">
     <g id="line2d_16">
      <path d="M 63 60.48 
L 453.6 60.48 
" clip-path="url(#p7be21fa42f)" style="fill: none; stroke: #ffffff; stroke-width: 0.8; stroke-linecap: round"/>
     </g>
     <g id="text_17">
      <!-- 5.0 -->
      <g style="fill: #262626" transform="translate(37.623281 65.675938) scale(0.13 -0.13)">
       <use xlink:href="#MicrosoftYaHei-35"/>
       <use xlink:href="#MicrosoftYaHei-2e" x="58.642578"/>
       <use xlink:href="#MicrosoftYaHei-30" x="82.714844"/>
      </g>
     </g>
    </g>
    <g id="text_18">
     <!-- 满意度 -->
     <g style="fill: #262626" transform="translate(30.391562 270.24) rotate(-90) scale(0.13 -0.13)">
      <defs>
       <path id="MicrosoftYaHei-6ee1" d="M 1594 3516 
L 6263 3516 
L 6263 3091 
L 4881 3091 
Q 4881 2769 4875 2459 
L 6075 2459 
L 6075 -28 
Q 6075 -759 5369 -759 
Q 5063 -759 4688 -741 
Q 4656 -503 4594 -259 
Q 5000 -309 5256 -309 
Q 5619 -309 5619 53 
L 5619 488 
Q 5497 375 5306 197 
Q 4969 631 4653 988 
Q 4406 278 3881 -191 
Q 3744 -22 3563 153 
Q 4309 797 4409 2034 
L 3384 2034 
Q 3372 1784 3328 1556 
Q 3678 1241 4013 891 
Q 3956 841 3675 559 
Q 3438 834 3206 1084 
Q 2975 403 2456 -66 
Q 2350 63 2225 209 
L 2225 -809 
L 1769 -809 
L 1769 2459 
L 2956 2459 
Q 2963 2784 2963 3091 
L 1594 3091 
L 1594 3516 
z
M 1600 4622 
L 2794 4622 
L 2794 5316 
L 3269 5316 
L 3269 4622 
L 4594 4622 
L 4594 5322 
L 5069 5322 
L 5069 4622 
L 6275 4622 
L 6275 4197 
L 5069 4197 
L 5069 3659 
L 4594 3659 
L 4594 4197 
L 3269 4197 
L 3269 3653 
L 2794 3653 
L 2794 4197 
L 1600 4197 
L 1600 4622 
z
M 788 1772 
Q 1050 1647 1294 1566 
Q 1019 453 738 -784 
L 188 -622 
Q 500 366 788 1772 
z
M 2225 350 
Q 2869 953 2941 2034 
L 2225 2034 
L 2225 350 
z
M 5619 2034 
L 4856 2034 
Q 4838 1738 4781 1469 
Q 5284 953 5619 578 
L 5619 2034 
z
M 356 3578 
Q 925 3147 1381 2741 
Q 1150 2484 1019 2341 
Q 525 2816 44 3222 
L 356 3578 
z
M 3397 2459 
L 4428 2459 
Q 4434 2753 4438 3091 
L 3406 3091 
Q 3403 2819 3397 2459 
z
M 575 5216 
Q 1006 4878 1469 4466 
Q 1275 4266 1113 4084 
Q 700 4516 263 4878 
L 575 5216 
z
" transform="scale(0.015625)"/>
       <path id="MicrosoftYaHei-610f" d="M 2706 759 
L 3022 1028 
L 1419 1028 
L 1419 834 
L 956 834 
L 956 2997 
L 5406 2997 
L 5406 834 
L 4944 834 
L 4944 1028 
L 3038 1028 
Q 3447 681 3756 353 
L 3388 47 
Q 3125 353 2706 759 
z
M 150 3722 
L 1906 3722 
Q 1659 3956 1406 4172 
L 1594 4347 
L 538 4347 
L 538 4722 
L 3028 4722 
Q 2900 4984 2763 5216 
L 3188 5397 
Q 3391 5044 3538 4722 
L 5863 4722 
L 5863 4347 
L 4772 4347 
L 4988 4184 
Q 4738 3953 4472 3722 
L 6250 3722 
L 6250 3347 
L 150 3347 
L 150 3722 
z
M 1650 791 
L 2125 791 
L 2125 78 
Q 2125 -284 2538 -284 
L 3819 -284 
Q 4269 -284 4350 59 
Q 4413 297 4463 622 
Q 4681 528 4931 447 
Q 4856 91 4794 -128 
Q 4644 -709 3950 -709 
L 2438 -709 
Q 1650 -709 1650 34 
L 1650 791 
z
M 1419 1391 
L 4944 1391 
L 4944 1841 
L 1419 1841 
L 1419 1391 
z
M 4944 2634 
L 1419 2634 
L 1419 2191 
L 4944 2191 
L 4944 2634 
z
M 3925 3834 
Q 4178 4047 4481 4347 
L 1838 4347 
Q 2116 4141 2381 3909 
L 2191 3722 
L 4038 3722 
L 3925 3834 
z
M 656 759 
L 1094 591 
Q 869 22 569 -559 
Q 381 -472 131 -366 
Q 388 97 656 759 
z
M 5175 503 
L 5531 778 
Q 5975 303 6325 -116 
L 5931 -428 
Q 5550 72 5175 503 
z
" transform="scale(0.015625)"/>
       <path id="MicrosoftYaHei-5ea6" d="M 1550 1216 
L 1550 1628 
L 5469 1628 
L 5469 1222 
Q 4903 613 4147 163 
Q 5050 -200 6263 -309 
L 6019 -797 
Q 4625 -603 3644 -109 
Q 2600 -619 1250 -866 
Q 1150 -666 994 -416 
Q 2231 -222 3166 166 
Q 2497 600 2066 1216 
L 1550 1216 
z
M 1363 3541 
L 2294 3541 
L 2294 4066 
L 2769 4066 
L 2769 3541 
L 4538 3541 
L 4538 4072 
L 5013 4072 
L 5013 3541 
L 6150 3541 
L 6150 3128 
L 5013 3128 
L 5013 1928 
L 4538 1928 
L 4538 2147 
L 2769 2147 
L 2769 1922 
L 2294 1922 
L 2294 3128 
L 1363 3128 
L 1363 3541 
z
M 3025 5172 
L 3481 5391 
Q 3694 5056 3909 4634 
L 6213 4634 
L 6213 4197 
L 1225 4197 
L 1225 2316 
Q 1225 178 394 -872 
Q 238 -666 38 -447 
Q 725 397 738 2347 
L 738 4634 
L 3331 4634 
Q 3188 4909 3025 5172 
z
M 2769 2547 
L 4538 2547 
L 4538 3128 
L 2769 3128 
L 2769 2547 
z
M 4819 1216 
L 2588 1216 
Q 3031 728 3656 391 
Q 4334 741 4819 1216 
z
" transform="scale(0.015625)"/>
      </defs>
      <use xlink:href="#MicrosoftYaHei-6ee1"/>
      <use xlink:href="#MicrosoftYaHei-610f" x="100"/>
      <use xlink:href="#MicrosoftYaHei-5ea6" x="200"/>
     </g>
    </g>
   </g>
   <g id="PathCollection_1">
    <defs>
     <path id="m6f68699775" d="M 0 4.1833 
L 4.1833 0 
L 0 -4.1833 
L -4.1833 0 
z
" style="stroke: #92c6ff"/>
    </defs>
    <g clip-path="url(#p7be21fa42f)">
     <use xlink:href="#m6f68699775" x="158.834848" y="246.607291" style="fill: #92c6ff; stroke: #92c6ff"/>
    </g>
   </g>
   <g id="PathCollection_2">
    <defs>
     <path id="mae28b3e329" d="M 0 4.1833 
L 4.1833 0 
L 0 -4.1833 
L -4.1833 0 
z
" style="stroke: #97f0aa"/>
    </defs>
    <g clip-path="url(#p7be21fa42f)">
     <use xlink:href="#mae28b3e329" x="98.198815" y="272.86522" style="fill: #97f0aa; stroke: #97f0aa"/>
    </g>
   </g>
   <g id="PathCollection_3">
    <defs>
     <path id="m4979868737" d="M 0 4.1833 
L 4.1833 0 
L 0 -4.1833 
L -4.1833 0 
z
" style="stroke: #ff9f9a"/>
    </defs>
    <g clip-path="url(#p7be21fa42f)">
     <use xlink:href="#m4979868737" x="96.063351" y="307.892832" style="fill: #ff9f9a; stroke: #ff9f9a"/>
    </g>
   </g>
   <g id="PathCollection_4">
    <defs>
     <path id="md4de13ce4f" d="M 0 4.1833 
L 4.1833 0 
L 0 -4.1833 
L -4.1833 0 
z
" style="stroke: #d0bbff"/>
    </defs>
    <g clip-path="url(#p7be21fa42f)">
     <use xlink:href="#md4de13ce4f" x="387.152986" y="169.364581" style="fill: #d0bbff; stroke: #d0bbff"/>
    </g>
   </g>
   <g id="line2d_17">
    <path d="M 185.0625 441 
L 185.0625 60.48 
" clip-path="url(#p7be21fa42f)" style="fill: none; stroke: #fffea3; stroke-width: 1.5; stroke-linecap: round"/>
   </g>
   <g id="line2d_18">
    <path d="M 63 292.041961 
L 453.6 292.041961 
" clip-path="url(#p7be21fa42f)" style="fill: none; stroke: #fffea3; stroke-width: 1.5; stroke-linecap: round"/>
   </g>
   <g id="patch_3">
    <path d="M 63 441 
L 63 60.48 
" style="fill: none; stroke: #ffffff; stroke-width: 0.8; stroke-linejoin: miter; stroke-linecap: square"/>
   </g>
   <g id="patch_4">
    <path d="M 453.6 441 
L 453.6 60.48 
" style="fill: none; stroke: #ffffff; stroke-width: 0.8; stroke-linejoin: miter; stroke-linecap: square"/>
   </g>
   <g id="patch_5">
    <path d="M 63 441 
L 453.6 441 
" style="fill: none; stroke: #ffffff; stroke-width: 0.8; stroke-linejoin: miter; stroke-linecap: square"/>
   </g>
   <g id="patch_6">
    <path d="M 63 60.48 
L 453.6 60.48 
" style="fill: none; stroke: #ffffff; stroke-width: 0.8; stroke-linejoin: miter; stroke-linecap: square"/>
   </g>
   <g id="text_19">
    <!-- (0.20, 4.41) -->
    <g style="fill: #262626" transform="translate(176.75313 246.607291) scale(0.1 -0.1)">
     <defs>
      <path id="MicrosoftYaHei-28" d="M 1531 -1100 
Q 478 100 478 1847 
Q 478 3594 1531 4841 
L 2072 4841 
Q 1016 3544 1016 1853 
Q 1016 166 2066 -1100 
L 1531 -1100 
z
" transform="scale(0.015625)"/>
      <path id="MicrosoftYaHei-2c" d="M 1109 778 
L 575 -888 
L 131 -888 
L 519 778 
L 1109 778 
z
" transform="scale(0.015625)"/>
      <path id="MicrosoftYaHei-20" transform="scale(0.015625)"/>
      <path id="MicrosoftYaHei-29" d="M 78 -1100 
Q 1131 163 1131 1853 
Q 1131 3547 72 4841 
L 616 4841 
Q 1672 3603 1672 1847 
Q 1672 91 616 -1100 
L 78 -1100 
z
" transform="scale(0.015625)"/>
     </defs>
     <use xlink:href="#MicrosoftYaHei-28"/>
     <use xlink:href="#MicrosoftYaHei-30" x="33.398438"/>
     <use xlink:href="#MicrosoftYaHei-2e" x="92.041016"/>
     <use xlink:href="#MicrosoftYaHei-32" x="116.113281"/>
     <use xlink:href="#MicrosoftYaHei-30" x="174.755859"/>
     <use xlink:href="#MicrosoftYaHei-2c" x="233.398438"/>
     <use xlink:href="#MicrosoftYaHei-20" x="257.470703"/>
     <use xlink:href="#MicrosoftYaHei-34" x="287.060547"/>
     <use xlink:href="#MicrosoftYaHei-2e" x="345.703125"/>
     <use xlink:href="#MicrosoftYaHei-34" x="369.775391"/>
     <use xlink:href="#MicrosoftYaHei-31" x="428.417969"/>
     <use xlink:href="#MicrosoftYaHei-29" x="487.060547"/>
    </g>
   </g>
   <g id="text_20">
    <!-- (0.07, 4.33) -->
    <g style="fill: #262626" transform="translate(116.117096 272.86522) scale(0.1 -0.1)">
     <use xlink:href="#MicrosoftYaHei-28"/>
     <use xlink:href="#MicrosoftYaHei-30" x="33.398438"/>
     <use xlink:href="#MicrosoftYaHei-2e" x="92.041016"/>
     <use xlink:href="#MicrosoftYaHei-30" x="116.113281"/>
     <use xlink:href="#MicrosoftYaHei-37" x="174.755859"/>
     <use xlink:href="#MicrosoftYaHei-2c" x="233.398438"/>
     <use xlink:href="#MicrosoftYaHei-20" x="257.470703"/>
     <use xlink:href="#MicrosoftYaHei-34" x="287.060547"/>
     <use xlink:href="#MicrosoftYaHei-2e" x="345.703125"/>
     <use xlink:href="#MicrosoftYaHei-33" x="369.775391"/>
     <use xlink:href="#MicrosoftYaHei-33" x="428.417969"/>
     <use xlink:href="#MicrosoftYaHei-29" x="487.060547"/>
    </g>
   </g>
   <g id="text_21">
    <!-- (0.07, 4.22) -->
    <g style="fill: #262626" transform="translate(113.981633 307.892832) scale(0.1 -0.1)">
     <use xlink:href="#MicrosoftYaHei-28"/>
     <use xlink:href="#MicrosoftYaHei-30" x="33.398438"/>
     <use xlink:href="#MicrosoftYaHei-2e" x="92.041016"/>
     <use xlink:href="#MicrosoftYaHei-30" x="116.113281"/>
     <use xlink:href="#MicrosoftYaHei-37" x="174.755859"/>
     <use xlink:href="#MicrosoftYaHei-2c" x="233.398438"/>
     <use xlink:href="#MicrosoftYaHei-20" x="257.470703"/>
     <use xlink:href="#MicrosoftYaHei-34" x="287.060547"/>
     <use xlink:href="#MicrosoftYaHei-2e" x="345.703125"/>
     <use xlink:href="#MicrosoftYaHei-32" x="369.775391"/>
     <use xlink:href="#MicrosoftYaHei-32" x="428.417969"/>
     <use xlink:href="#MicrosoftYaHei-29" x="487.060547"/>
    </g>
   </g>
   <g id="text_22">
    <!-- (0.66, 4.66) -->
    <g style="fill: #262626" transform="translate(405.071267 169.364581) scale(0.1 -0.1)">
     <use xlink:href="#MicrosoftYaHei-28"/>
     <use xlink:href="#MicrosoftYaHei-30" x="33.398438"/>
     <use xlink:href="#MicrosoftYaHei-2e" x="92.041016"/>
     <use xlink:href="#MicrosoftYaHei-36" x="116.113281"/>
     <use xlink:href="#MicrosoftYaHei-36" x="174.755859"/>
     <use xlink:href="#MicrosoftYaHei-2c" x="233.398438"/>
     <use xlink:href="#MicrosoftYaHei-20" x="257.470703"/>
     <use xlink:href="#MicrosoftYaHei-34" x="287.060547"/>
     <use xlink:href="#MicrosoftYaHei-2e" x="345.703125"/>
     <use xlink:href="#MicrosoftYaHei-36" x="369.775391"/>
     <use xlink:href="#MicrosoftYaHei-36" x="428.417969"/>
     <use xlink:href="#MicrosoftYaHei-29" x="487.060547"/>
    </g>
   </g>
   <g id="legend_1">
    <g id="patch_7">
     <path d="M 72.1 151.374375 
L 243.7 151.374375 
Q 246.3 151.374375 246.3 148.774375 
L 246.3 69.58 
Q 246.3 66.98 243.7 66.98 
L 72.1 66.98 
Q 69.5 66.98 69.5 69.58 
L 69.5 148.774375 
Q 69.5 151.374375 72.1 151.374375 
z
" style="fill: #eaeaf2; opacity: 0.8; stroke: #cccccc; stroke-linejoin: miter"/>
    </g>
    <g id="PathCollection_5">
     <g>
      <use xlink:href="#m6f68699775" x="87.7" y="79.159375" style="fill: #92c6ff; stroke: #92c6ff"/>
     </g>
    </g>
    <g id="text_23">
     <!-- 基础设施 -->
     <g style="fill: #262626" transform="translate(111.1 82.571875) scale(0.13 -0.13)">
      <defs>
       <path id="MicrosoftYaHei-57fa" d="M 6319 697 
Q 6113 441 5981 247 
Q 5406 519 4925 897 
L 4925 553 
L 3431 553 
L 3431 -97 
L 5875 -97 
L 5875 -503 
L 519 -503 
L 519 -97 
L 2963 -97 
L 2963 553 
L 1450 553 
L 1450 894 
Q 953 478 413 172 
Q 294 341 88 566 
Q 1050 1034 1753 1753 
L 156 1753 
L 156 2159 
L 1400 2159 
L 1400 4253 
L 350 4253 
L 350 4659 
L 1400 4659 
L 1400 5334 
L 1869 5334 
L 1869 4659 
L 4550 4659 
L 4550 5334 
L 5019 5334 
L 5019 4659 
L 6069 4659 
L 6069 4253 
L 5019 4253 
L 5019 2159 
L 6244 2159 
L 6244 1753 
L 4600 1753 
Q 5303 1053 6319 697 
z
M 2963 1553 
L 3431 1553 
L 3431 947 
L 4863 947 
Q 4416 1306 4047 1753 
L 2325 1753 
Q 1934 1309 1513 947 
L 2963 947 
L 2963 1553 
z
M 1869 2159 
L 4550 2159 
L 4550 2603 
L 1869 2603 
L 1869 2159 
z
M 1869 2991 
L 4550 2991 
L 4550 3428 
L 1869 3428 
L 1869 2991 
z
M 1869 3816 
L 4550 3816 
L 4550 4253 
L 1869 4253 
L 1869 3816 
z
" transform="scale(0.015625)"/>
       <path id="MicrosoftYaHei-7840" d="M 5500 2222 
L 5500 2516 
L 4594 2516 
L 4594 3 
L 5613 3 
L 5613 1803 
L 6075 1803 
L 6075 -728 
L 5613 -728 
L 5613 -447 
L 2663 -447 
L 2663 1803 
L 3125 1803 
L 3125 3 
L 4131 3 
L 4131 2516 
L 2775 2516 
L 2775 4622 
L 3238 4622 
L 3238 2966 
L 4131 2966 
L 4131 5272 
L 4594 5272 
L 4594 2966 
L 5500 2966 
L 5500 4616 
L 5963 4616 
L 5963 2222 
L 5500 2222 
z
M 19 1784 
Q 725 2956 1038 4366 
L 225 4366 
L 225 4778 
L 2444 4778 
L 2444 4366 
L 1453 4366 
Q 1294 3641 1059 2991 
L 2200 2991 
L 2200 -197 
L 1788 -197 
L 1788 222 
L 1100 222 
L 1100 -372 
L 688 -372 
L 688 2106 
Q 522 1763 331 1447 
Q 200 1616 19 1784 
z
M 1788 2591 
L 1100 2591 
L 1100 622 
L 1788 622 
L 1788 2591 
z
" transform="scale(0.015625)"/>
       <path id="MicrosoftYaHei-8bbe" d="M 2231 2116 
L 2231 2547 
L 5638 2547 
L 5638 2116 
Q 5144 1031 4419 416 
Q 5216 -109 6338 -316 
Q 6119 -597 5956 -822 
Q 4841 -500 4013 113 
Q 3163 -463 1863 -872 
Q 1700 -641 1538 -422 
Q 2778 -88 3613 431 
Q 2888 1131 2559 2116 
L 2231 2116 
z
M 4856 4553 
L 3294 4553 
L 3294 4372 
Q 3294 3222 2244 2659 
Q 2075 2866 1881 3047 
Q 2806 3522 2806 4359 
L 2806 5016 
L 5344 5016 
L 5344 3741 
Q 5344 3459 5631 3459 
L 6319 3459 
Q 6288 3203 6269 2997 
L 5444 2997 
Q 4856 2997 4856 3647 
L 4856 4553 
z
M 2250 1028 
Q 2263 734 2294 472 
Q 1438 -84 1019 -422 
L 719 -9 
Q 931 197 931 553 
L 931 2778 
L 138 2778 
L 138 3228 
L 1406 3228 
L 1406 453 
Q 1813 722 2250 1028 
z
M 988 5128 
Q 1469 4653 1906 4166 
L 1469 3803 
Q 1013 4391 613 4803 
L 988 5128 
z
M 3031 2116 
Q 3347 1319 4022 713 
Q 4684 1225 5081 2116 
L 3031 2116 
z
" transform="scale(0.015625)"/>
       <path id="MicrosoftYaHei-65bd" d="M 4113 3897 
L 4556 3897 
L 4556 2850 
L 5919 3122 
Q 5888 2334 5850 1659 
Q 5813 797 5175 797 
Q 4956 797 4713 803 
Q 4675 1034 4619 1278 
Q 4900 1247 5081 1247 
Q 5381 1247 5400 1647 
Q 5431 2097 5444 2584 
L 4556 2406 
L 4556 328 
L 4113 328 
L 4113 2319 
L 3375 2175 
L 3375 297 
Q 3375 -166 3856 -166 
L 5225 -166 
Q 5719 -166 5781 247 
Q 5819 466 5856 909 
Q 6081 816 6313 734 
Q 6250 284 6194 34 
Q 6063 -628 5281 -628 
L 3756 -628 
Q 2931 -628 2931 228 
L 2931 2088 
L 2500 2003 
L 2425 2422 
L 2931 2522 
L 2931 3334 
L 3375 3334 
L 3375 2613 
L 4113 2759 
L 4113 3897 
z
M 194 4259 
L 2513 4259 
L 2513 3828 
L 1203 3828 
Q 1197 3378 1181 2897 
L 2306 2897 
Q 2269 1434 2213 216 
Q 2175 -616 1481 -616 
Q 1263 -616 938 -609 
Q 900 -403 844 -134 
Q 1200 -172 1388 -172 
Q 1738 -172 1763 291 
Q 1813 1328 1838 2466 
L 1169 2466 
Q 1175 228 375 -772 
Q 250 -603 56 -397 
Q 650 372 706 2091 
Q 741 3009 753 3828 
L 194 3828 
L 194 4259 
z
M 2331 3397 
Q 2913 4222 3294 5341 
L 3750 5184 
Q 3613 4834 3472 4516 
L 6219 4516 
L 6219 4084 
L 3272 4084 
Q 3025 3581 2763 3166 
Q 2513 3309 2331 3397 
z
M 938 5109 
L 1313 5347 
Q 1613 4991 1875 4553 
L 1475 4297 
Q 1163 4803 938 5109 
z
" transform="scale(0.015625)"/>
      </defs>
      <use xlink:href="#MicrosoftYaHei-57fa"/>
      <use xlink:href="#MicrosoftYaHei-7840" x="100"/>
      <use xlink:href="#MicrosoftYaHei-8bbe" x="200"/>
      <use xlink:href="#MicrosoftYaHei-65bd" x="300"/>
     </g>
    </g>
    <g id="PathCollection_6">
     <g>
      <use xlink:href="#mae28b3e329" x="87.7" y="99.282969" style="fill: #97f0aa; stroke: #97f0aa"/>
     </g>
    </g>
    <g id="text_24">
     <!-- 景区服务与非自然环境 -->
     <g style="fill: #262626" transform="translate(111.1 102.695469) scale(0.13 -0.13)">
      <defs>
       <path id="MicrosoftYaHei-666f" d="M 900 5084 
L 5500 5084 
L 5500 2984 
L 5050 2984 
L 5050 3209 
L 1350 3209 
L 1350 2984 
L 900 2984 
L 900 5084 
z
M 1013 2003 
L 5438 2003 
L 5438 566 
L 4988 566 
L 4988 766 
L 3481 766 
L 3481 -103 
Q 3488 -766 2825 -766 
Q 2406 -766 2131 -759 
Q 2119 -666 2038 -266 
Q 2431 -303 2713 -303 
Q 3013 -303 3019 9 
L 3019 766 
L 1463 766 
L 1463 566 
L 1013 566 
L 1013 2003 
z
M 338 2759 
L 2950 2759 
Q 2878 2888 2800 3022 
L 3219 3197 
Q 3350 2969 3459 2759 
L 6075 2759 
L 6075 2372 
L 338 2372 
L 338 2759 
z
M 4988 1628 
L 1463 1628 
L 1463 1141 
L 4988 1141 
L 4988 1628 
z
M 1350 3584 
L 5050 3584 
L 5050 3966 
L 1350 3966 
L 1350 3584 
z
M 5050 4709 
L 1350 4709 
L 1350 4328 
L 5050 4328 
L 5050 4709 
z
M 4000 103 
L 4213 497 
Q 5181 134 6113 -247 
L 5881 -678 
Q 5025 -278 4000 103 
z
M 2175 503 
L 2438 122 
Q 1531 -322 588 -741 
Q 494 -559 338 -341 
Q 1406 97 2175 503 
z
" transform="scale(0.015625)"/>
       <path id="MicrosoftYaHei-533a" d="M 600 4872 
L 5975 4872 
L 5975 4384 
L 1131 4384 
L 1131 22 
L 6075 22 
L 6075 -453 
L 600 -453 
L 600 4872 
z
M 1613 3697 
L 1963 4028 
Q 2744 3384 3597 2616 
Q 4250 3322 4850 4153 
L 5306 3847 
Q 4650 2997 3975 2272 
Q 4753 1563 5588 753 
L 5156 316 
Q 4400 1106 3600 1878 
Q 2697 963 1763 266 
Q 1613 459 1363 672 
Q 2344 1341 3228 2231 
Q 2444 2972 1613 3697 
z
" transform="scale(0.015625)"/>
       <path id="MicrosoftYaHei-670d" d="M 2819 4941 
L 5906 4941 
Q 5875 4434 5856 4141 
Q 5806 3172 4869 3191 
Q 4613 3197 4063 3216 
Q 4025 3459 3981 3709 
Q 4444 3653 4813 3641 
Q 5350 3622 5394 4153 
Q 5413 4316 5425 4509 
L 3294 4509 
L 3294 2709 
L 5931 2709 
L 5931 2341 
Q 5681 1244 5016 431 
Q 5556 -81 6356 -366 
Q 6144 -616 5994 -816 
Q 5225 -456 4691 78 
Q 4213 -394 3569 -753 
Q 3450 -547 3313 -341 
Q 3938 -22 4391 422 
Q 3781 1203 3588 2303 
L 3294 2303 
L 3294 -803 
L 2819 -803 
L 2819 4941 
z
M 538 4966 
L 2300 4966 
L 2300 -103 
Q 2300 -728 1719 -728 
Q 1400 -728 1125 -709 
Q 1100 -522 1050 -266 
Q 1369 -316 1600 -316 
Q 1856 -316 1856 -59 
L 1856 1378 
L 981 1378 
Q 1000 -59 463 -816 
Q 325 -634 119 -466 
Q 538 178 538 1359 
L 538 4966 
z
M 5438 2303 
L 4016 2303 
Q 4209 1403 4706 772 
Q 5222 1425 5438 2303 
z
M 981 1766 
L 1856 1766 
L 1856 2972 
L 981 2972 
L 981 1766 
z
M 1856 4559 
L 981 4559 
L 981 3359 
L 1856 3359 
L 1856 4559 
z
" transform="scale(0.015625)"/>
       <path id="MicrosoftYaHei-52a1" d="M 1900 5391 
L 2369 5191 
Q 2228 4959 2075 4741 
L 5456 4741 
L 5456 4322 
Q 4875 3616 3866 3088 
Q 4916 2706 6369 2616 
Q 6169 2334 6019 2091 
Q 4391 2306 3288 2819 
Q 2047 2291 288 1984 
Q 181 2178 31 2422 
Q 1597 2663 2750 3103 
Q 2038 3538 1609 4131 
Q 1125 3556 538 3066 
Q 350 3266 194 3403 
Q 1344 4316 1900 5391 
z
M 588 1728 
L 2406 1728 
Q 2450 2031 2481 2403 
L 2988 2403 
Q 2947 2031 2903 1728 
L 5425 1728 
Q 5363 609 5306 159 
Q 5206 -722 4256 -728 
Q 3888 -734 3150 -703 
Q 3113 -472 3056 -184 
Q 3775 -247 4244 -253 
Q 4775 -241 4831 284 
Q 4888 753 4913 1284 
L 2828 1284 
Q 2497 -219 500 -897 
Q 356 -691 194 -478 
Q 1988 103 2319 1284 
L 588 1284 
L 588 1728 
z
M 4788 4328 
L 1997 4328 
Q 2500 3725 3291 3334 
Q 4194 3756 4788 4328 
z
" transform="scale(0.015625)"/>
       <path id="MicrosoftYaHei-4e0e" d="M 1163 2384 
L 1163 2859 
L 1413 5328 
L 1931 5328 
L 1834 4334 
L 6269 4334 
L 6269 3859 
L 1791 3859 
L 1694 2859 
L 5813 2859 
Q 5738 1547 5644 416 
Q 5556 -247 5263 -478 
Q 4981 -703 4322 -703 
Q 3706 -697 2900 -678 
Q 2863 -466 2794 -134 
Q 3744 -203 4213 -209 
Q 5050 -266 5125 447 
Q 5206 1278 5263 2384 
L 1163 2384 
z
M 106 1409 
L 4738 1409 
L 4738 934 
L 106 934 
L 106 1409 
z
" transform="scale(0.015625)"/>
       <path id="MicrosoftYaHei-975e" d="M 3688 5284 
L 4188 5284 
L 4188 4391 
L 6131 4391 
L 6131 3941 
L 4188 3941 
L 4188 2716 
L 6038 2716 
L 6038 2266 
L 4188 2266 
L 4188 1016 
L 6269 1016 
L 6269 566 
L 4188 566 
L 4188 -797 
L 3688 -797 
L 3688 5284 
z
M 150 1016 
L 2206 1016 
L 2206 2266 
L 375 2266 
L 375 2716 
L 2206 2716 
L 2206 3941 
L 275 3941 
L 275 4391 
L 2206 4391 
L 2206 5284 
L 2706 5284 
L 2706 -797 
L 2206 -797 
L 2206 566 
L 150 566 
L 150 1016 
z
" transform="scale(0.015625)"/>
       <path id="MicrosoftYaHei-81ea" d="M 775 4466 
L 2391 4466 
Q 2525 4828 2688 5328 
L 3219 5166 
Q 3059 4778 2909 4466 
L 5625 4466 
L 5625 -822 
L 5125 -822 
L 5125 -447 
L 1275 -447 
L 1275 -822 
L 775 -822 
L 775 4466 
z
M 1275 3 
L 5125 3 
L 5125 1053 
L 1275 1053 
L 1275 3 
z
M 1275 1497 
L 5125 1497 
L 5125 2534 
L 1275 2534 
L 1275 1497 
z
M 5125 4016 
L 1275 4016 
L 1275 2978 
L 5125 2978 
L 5125 4016 
z
" transform="scale(0.015625)"/>
       <path id="MicrosoftYaHei-7136" d="M 31 2834 
Q 956 3959 1400 5341 
L 1869 5184 
Q 1775 4934 1675 4697 
L 3163 4697 
L 3163 4241 
Q 2731 1866 556 666 
Q 419 828 206 1041 
Q 1063 1497 1606 2097 
Q 1200 2409 806 2678 
L 1025 3003 
Q 1463 2734 1881 2428 
Q 2056 2672 2181 2897 
Q 1781 3191 1331 3447 
L 1538 3784 
Q 1981 3547 2375 3284 
Q 2581 3753 2669 4247 
L 1469 4247 
Q 1000 3309 375 2478 
Q 231 2641 31 2834 
z
M 3175 3841 
L 4181 3841 
Q 4200 4466 4200 5278 
L 4675 5278 
Q 4675 4434 4656 3841 
L 6213 3841 
L 6213 3391 
L 4725 3391 
Q 5081 1934 6356 1297 
Q 6156 1078 5969 866 
Q 4875 1522 4469 2841 
Q 4131 1634 2719 797 
Q 2594 984 2406 1209 
Q 3931 2053 4144 3391 
L 3175 3391 
L 3175 3841 
z
M 5044 609 
L 5444 847 
Q 5919 141 6250 -422 
L 5806 -684 
Q 5481 -109 5044 609 
z
M 919 716 
L 1369 553 
Q 1131 -28 694 -816 
Q 481 -716 244 -622 
Q 706 153 919 716 
z
M 1956 447 
L 2369 634 
Q 2663 97 2963 -528 
L 2500 -728 
Q 2275 -172 1956 447 
z
M 3519 491 
L 3931 672 
Q 4256 122 4538 -472 
L 4088 -666 
Q 3813 -41 3519 491 
z
M 4950 4891 
L 5244 5172 
Q 5681 4784 6056 4447 
L 5725 4122 
Q 5394 4478 4950 4891 
z
" transform="scale(0.015625)"/>
       <path id="MicrosoftYaHei-73af" d="M 2606 4447 
L 2606 4916 
L 6050 4916 
L 6050 4447 
L 4441 4447 
Q 4228 3716 3959 3053 
L 4369 3053 
L 4369 -816 
L 3875 -816 
L 3875 2850 
Q 3247 1381 2338 259 
Q 2175 422 1944 566 
Q 3284 2200 3925 4447 
L 2606 4447 
z
M 94 922 
Q 544 1031 1050 1166 
L 1050 2641 
L 213 2641 
L 213 3091 
L 1050 3091 
L 1050 4241 
L 169 4241 
L 169 4691 
L 2375 4691 
L 2375 4241 
L 1544 4241 
L 1544 3091 
L 2369 3091 
L 2369 2641 
L 1544 2641 
L 1544 1297 
Q 1922 1400 2331 1516 
Q 2313 1284 2325 1084 
Q 1081 691 175 391 
L 94 922 
z
M 4856 2909 
Q 5813 1628 6313 834 
L 5888 509 
Q 5225 1622 4469 2653 
L 4856 2909 
z
" transform="scale(0.015625)"/>
       <path id="MicrosoftYaHei-5883" d="M 2338 2722 
L 5756 2722 
L 5756 591 
L 5325 591 
L 5325 734 
L 4738 734 
L 4738 59 
Q 4738 -284 5063 -284 
L 5456 -284 
Q 5763 -284 5806 28 
Q 5844 272 5856 603 
Q 6094 497 6319 416 
Q 6275 28 6225 -172 
Q 6119 -703 5519 -703 
L 4950 -703 
Q 4294 -703 4294 -78 
L 4294 734 
L 3709 734 
Q 3628 50 3175 -284 
Q 2794 -591 1838 -866 
Q 1706 -653 1550 -434 
Q 2525 -228 2888 66 
Q 3188 300 3250 734 
L 2769 734 
L 2769 591 
L 2338 591 
L 2338 2722 
z
M 106 678 
Q 441 756 881 869 
L 881 3259 
L 169 3259 
L 169 3703 
L 881 3703 
L 881 5266 
L 1338 5266 
L 1338 3703 
L 1981 3703 
L 1981 3259 
L 1338 3259 
L 1338 991 
Q 1688 1084 2094 1197 
Q 2100 928 2113 728 
Q 1150 466 200 159 
L 106 678 
z
M 2113 3522 
L 3238 3522 
Q 3066 3794 2856 4066 
L 3225 4297 
Q 3481 3984 3700 3678 
L 3466 3522 
L 4409 3522 
Q 4663 3909 4881 4303 
L 5331 4053 
Q 5119 3781 4909 3522 
L 6200 3522 
L 6200 3147 
L 2113 3147 
L 2113 3522 
z
M 2263 4703 
L 3913 4703 
Q 3800 4928 3663 5159 
L 4100 5341 
Q 4291 5006 4425 4703 
L 5988 4703 
L 5988 4328 
L 2263 4328 
L 2263 4703 
z
M 2769 1097 
L 5325 1097 
L 5325 1559 
L 2769 1559 
L 2769 1097 
z
M 5325 2359 
L 2769 2359 
L 2769 1909 
L 5325 1909 
L 5325 2359 
z
" transform="scale(0.015625)"/>
      </defs>
      <use xlink:href="#MicrosoftYaHei-666f"/>
      <use xlink:href="#MicrosoftYaHei-533a" x="100"/>
      <use xlink:href="#MicrosoftYaHei-670d" x="200"/>
      <use xlink:href="#MicrosoftYaHei-52a1" x="300"/>
      <use xlink:href="#MicrosoftYaHei-4e0e" x="400"/>
      <use xlink:href="#MicrosoftYaHei-975e" x="500"/>
      <use xlink:href="#MicrosoftYaHei-81ea" x="600"/>
      <use xlink:href="#MicrosoftYaHei-7136" x="700"/>
      <use xlink:href="#MicrosoftYaHei-73af" x="800"/>
      <use xlink:href="#MicrosoftYaHei-5883" x="900"/>
     </g>
    </g>
    <g id="PathCollection_7">
     <g>
      <use xlink:href="#m4979868737" x="87.7" y="119.406563" style="fill: #ff9f9a; stroke: #ff9f9a"/>
     </g>
    </g>
    <g id="text_25">
     <!-- 景区价格 -->
     <g style="fill: #262626" transform="translate(111.1 122.819063) scale(0.13 -0.13)">
      <defs>
       <path id="MicrosoftYaHei-4ef7" d="M 69 2166 
Q 913 3484 1388 5259 
L 1875 5109 
Q 1650 4391 1400 3766 
L 1400 -853 
L 931 -853 
L 931 2722 
Q 619 2109 281 1622 
Q 163 1959 69 2166 
z
M 4319 5272 
L 4231 5116 
Q 5006 3747 6319 3141 
Q 6156 2953 5975 2703 
Q 4706 3434 3975 4703 
Q 3275 3497 2000 2603 
Q 1850 2822 1675 2997 
Q 3088 3884 3756 5272 
L 4319 5272 
z
M 3313 2828 
L 3313 1941 
Q 3313 134 2275 -891 
Q 2094 -709 1856 -541 
Q 2825 347 2825 1897 
L 2825 2828 
L 3313 2828 
z
M 4631 2828 
L 5119 2828 
L 5119 -828 
L 4631 -828 
L 4631 2828 
z
" transform="scale(0.015625)"/>
       <path id="MicrosoftYaHei-683c" d="M 2250 3278 
Q 3063 4309 3438 5341 
L 3906 5184 
Q 3788 4903 3644 4628 
L 5906 4628 
L 5906 4184 
Q 5481 3447 4731 2809 
Q 5450 2409 6313 2247 
Q 6169 1947 6106 1703 
Q 5163 1991 4313 2503 
Q 3481 1972 2306 1528 
Q 2206 1759 2094 1966 
Q 3088 2284 3919 2816 
Q 3450 3253 3163 3791 
Q 2888 3366 2563 2947 
Q 2444 3084 2250 3278 
z
M 2713 1559 
L 5800 1559 
L 5800 -872 
L 5319 -872 
L 5319 -559 
L 3194 -559 
L 3194 -872 
L 2713 -872 
L 2713 1559 
z
M 88 1378 
Q 756 2422 1025 3641 
L 131 3641 
L 131 4078 
L 1031 4078 
L 1031 5297 
L 1500 5297 
L 1500 4078 
L 2300 4078 
L 2300 3641 
L 1500 3641 
L 1500 2953 
L 1675 3122 
Q 2013 2797 2419 2384 
L 2094 2078 
Q 1763 2466 1500 2747 
L 1500 -866 
L 1031 -866 
L 1031 2453 
Q 713 1422 288 828 
Q 206 1097 88 1378 
z
M 5319 1109 
L 3194 1109 
L 3194 -109 
L 5319 -109 
L 5319 1109 
z
M 5338 4203 
L 3413 4203 
Q 3775 3491 4300 3078 
Q 4938 3566 5338 4203 
z
" transform="scale(0.015625)"/>
      </defs>
      <use xlink:href="#MicrosoftYaHei-666f"/>
      <use xlink:href="#MicrosoftYaHei-533a" x="100"/>
      <use xlink:href="#MicrosoftYaHei-4ef7" x="200"/>
      <use xlink:href="#MicrosoftYaHei-683c" x="300"/>
     </g>
    </g>
    <g id="PathCollection_8">
     <g>
      <use xlink:href="#md4de13ce4f" x="87.7" y="139.530156" style="fill: #d0bbff; stroke: #d0bbff"/>
     </g>
    </g>
    <g id="text_26">
     <!-- 景区自然环境 -->
     <g style="fill: #262626" transform="translate(111.1 142.942656) scale(0.13 -0.13)">
      <use xlink:href="#MicrosoftYaHei-666f"/>
      <use xlink:href="#MicrosoftYaHei-533a" x="100"/>
      <use xlink:href="#MicrosoftYaHei-81ea" x="200"/>
      <use xlink:href="#MicrosoftYaHei-7136" x="300"/>
      <use xlink:href="#MicrosoftYaHei-73af" x="400"/>
      <use xlink:href="#MicrosoftYaHei-5883" x="500"/>
     </g>
    </g>
   </g>
  </g>
 </g>
 <defs>
  <clipPath id="p7be21fa42f">
   <rect x="63" y="60.48" width="390.6" height="380.52"/>
  </clipPath>
 </defs>
</svg>
