<?xml version="1.0" encoding="utf-8" standalone="no"?>
<!DOCTYPE svg PUBLIC "-//W3C//DTD SVG 1.1//EN"
  "http://www.w3.org/Graphics/SVG/1.1/DTD/svg11.dtd">
<svg xmlns:xlink="http://www.w3.org/1999/xlink" width="864pt" height="432pt" viewBox="0 0 864 432" xmlns="http://www.w3.org/2000/svg" version="1.1">
 <metadata>
  <rdf:RDF xmlns:dc="http://purl.org/dc/elements/1.1/" xmlns:cc="http://creativecommons.org/ns#" xmlns:rdf="http://www.w3.org/1999/02/22-rdf-syntax-ns#">
   <cc:Work>
    <dc:type rdf:resource="http://purl.org/dc/dcmitype/StillImage"/>
    <dc:date>2023-06-04T11:49:25.981860</dc:date>
    <dc:format>image/svg+xml</dc:format>
    <dc:creator>
     <cc:Agent>
      <dc:title>Matplotlib v3.7.1, https://matplotlib.org/</dc:title>
     </cc:Agent>
    </dc:creator>
   </cc:Work>
  </rdf:RDF>
 </metadata>
 <defs>
  <style type="text/css">*{stroke-linejoin: round; stroke-linecap: butt}</style>
 </defs>
 <g id="figure_1">
  <g id="patch_1">
   <path d="M 0 432 
L 864 432 
L 864 0 
L 0 0 
L 0 432 
z
" style="fill: none"/>
  </g>
  <g id="axes_1">
   <g id="patch_2">
    <path d="M 108 378 
L 777.6 378 
L 777.6 51.84 
L 108 51.84 
z
" style="fill: #eaeaf2"/>
   </g>
   <g id="matplotlib.axis_1">
    <g id="xtick_1">
     <g id="line2d_1">
      <path d="M 175.55388 378 
L 175.55388 51.84 
" clip-path="url(#p15d2cfb38f)" style="fill: none; stroke: #ffffff; stroke-width: 0.8; stroke-linecap: round"/>
     </g>
     <g id="text_1">
      <!-- 东北地区 -->
      <g style="fill: #262626" transform="translate(155.55388 392.99375) scale(0.1 -0.1)">
       <defs>
        <path id="MicrosoftYaHei-4e1c" d="M 706 1884 
L 706 2359 
L 1422 4022 
L 194 4022 
L 194 4497 
L 1625 4497 
L 1994 5353 
L 2531 5241 
L 2206 4497 
L 6206 4497 
L 6206 4022 
L 2000 4022 
L 1275 2359 
L 3156 2359 
L 3156 3728 
L 3681 3728 
L 3681 2359 
L 5913 2359 
L 5913 1884 
L 3681 1884 
L 3681 41 
Q 3681 -741 2869 -741 
Q 2456 -741 1931 -734 
Q 1894 -491 1838 -172 
Q 2250 -225 2725 -228 
Q 3156 -231 3156 216 
L 3156 1884 
L 706 1884 
z
M 1619 1509 
L 2038 1191 
Q 1325 353 413 -534 
Q 250 -359 56 -184 
Q 888 603 1619 1509 
z
M 4288 1091 
L 4638 1434 
Q 5500 722 6363 -59 
L 5975 -453 
Q 5119 391 4288 1091 
z
" transform="scale(0.015625)"/>
        <path id="MicrosoftYaHei-5317" d="M 3763 5247 
L 4269 5247 
L 4269 3131 
Q 5122 3569 5863 4091 
L 6175 3641 
Q 5500 3216 4269 2600 
L 4269 303 
Q 4269 -122 4738 -122 
L 5175 -122 
Q 5625 -122 5681 303 
Q 5738 697 5781 1328 
Q 6056 1216 6313 1128 
Q 6250 534 6175 116 
Q 6056 -597 5294 -597 
L 4619 -597 
Q 3763 -597 3763 247 
L 3763 5247 
z
M 81 309 
Q 897 591 2013 1047 
L 2013 3016 
L 213 3016 
L 213 3478 
L 2013 3478 
L 2013 5234 
L 2519 5234 
L 2519 -772 
L 2013 -772 
L 2013 525 
Q 1413 281 281 -184 
L 81 309 
z
" transform="scale(0.015625)"/>
        <path id="MicrosoftYaHei-5730" d="M 3975 5303 
L 4463 5303 
L 4463 3688 
L 5981 4147 
Q 5944 2916 5906 2134 
Q 5869 1291 5231 1284 
Q 4944 1278 4669 1284 
Q 4631 1516 4575 1803 
Q 4875 1766 5094 1766 
Q 5419 1759 5431 2241 
Q 5469 2809 5475 3534 
L 4463 3219 
L 4463 509 
L 3975 509 
L 3975 3069 
L 3031 2775 
L 3031 353 
Q 3031 -134 3563 -134 
L 5094 -134 
Q 5669 -134 5731 328 
Q 5806 728 5856 1259 
Q 6106 1159 6375 1078 
Q 6288 478 6206 103 
Q 6056 -609 5225 -609 
L 3444 -609 
Q 2544 -609 2544 272 
L 2544 2622 
L 2075 2478 
L 1994 2941 
L 2544 3106 
L 2544 4566 
L 3031 4566 
L 3031 3253 
L 3975 3538 
L 3975 5303 
z
M 44 303 
Q 491 447 944 597 
L 944 3091 
L 138 3091 
L 138 3528 
L 944 3528 
L 944 5272 
L 1406 5272 
L 1406 3528 
L 2131 3528 
L 2131 3091 
L 1406 3091 
L 1406 753 
Q 1803 891 2206 1034 
Q 2219 772 2250 572 
Q 1225 203 219 -178 
L 44 303 
z
" transform="scale(0.015625)"/>
        <path id="MicrosoftYaHei-533a" d="M 600 4872 
L 5975 4872 
L 5975 4384 
L 1131 4384 
L 1131 22 
L 6075 22 
L 6075 -453 
L 600 -453 
L 600 4872 
z
M 1613 3697 
L 1963 4028 
Q 2744 3384 3597 2616 
Q 4250 3322 4850 4153 
L 5306 3847 
Q 4650 2997 3975 2272 
Q 4753 1563 5588 753 
L 5156 316 
Q 4400 1106 3600 1878 
Q 2697 963 1763 266 
Q 1613 459 1363 672 
Q 2344 1341 3228 2231 
Q 2444 2972 1613 3697 
z
" transform="scale(0.015625)"/>
       </defs>
       <use xlink:href="#MicrosoftYaHei-4e1c"/>
       <use xlink:href="#MicrosoftYaHei-5317" x="100"/>
       <use xlink:href="#MicrosoftYaHei-5730" x="200"/>
       <use xlink:href="#MicrosoftYaHei-533a" x="300"/>
      </g>
     </g>
    </g>
    <g id="xtick_2">
     <g id="line2d_2">
      <path d="M 264.63592 378 
L 264.63592 51.84 
" clip-path="url(#p15d2cfb38f)" style="fill: none; stroke: #ffffff; stroke-width: 0.8; stroke-linecap: round"/>
     </g>
     <g id="text_2">
      <!-- 华东地区 -->
      <g style="fill: #262626" transform="translate(244.63592 392.99375) scale(0.1 -0.1)">
       <defs>
        <path id="MicrosoftYaHei-534e" d="M 1950 3153 
Q 2756 3366 3456 3663 
L 3456 5234 
L 3944 5234 
L 3944 3884 
Q 4859 4338 5569 4947 
L 5900 4572 
Q 5063 3922 3944 3384 
L 3944 2872 
Q 3944 2453 4463 2453 
L 5125 2453 
Q 5600 2453 5669 2859 
Q 5738 3209 5756 3584 
Q 6063 3453 6244 3397 
Q 6188 2991 6125 2697 
Q 6006 2009 5231 2009 
L 4288 2009 
Q 3456 2009 3456 2784 
L 3456 3163 
Q 2875 2909 2225 2684 
Q 2113 2916 1950 3153 
z
M 181 1178 
L 2944 1178 
L 2944 2009 
L 3444 2009 
L 3444 1178 
L 6213 1178 
L 6213 728 
L 3444 728 
L 3444 -866 
L 2944 -866 
L 2944 728 
L 181 728 
L 181 1178 
z
M 138 3434 
Q 1250 4209 1906 5347 
L 2350 5122 
Q 2075 4678 1756 4281 
L 1756 1841 
L 1269 1841 
L 1269 3734 
Q 856 3316 381 2966 
Q 269 3203 138 3434 
z
" transform="scale(0.015625)"/>
       </defs>
       <use xlink:href="#MicrosoftYaHei-534e"/>
       <use xlink:href="#MicrosoftYaHei-4e1c" x="100"/>
       <use xlink:href="#MicrosoftYaHei-5730" x="200"/>
       <use xlink:href="#MicrosoftYaHei-533a" x="300"/>
      </g>
     </g>
    </g>
    <g id="xtick_3">
     <g id="line2d_3">
      <path d="M 353.71796 378 
L 353.71796 51.84 
" clip-path="url(#p15d2cfb38f)" style="fill: none; stroke: #ffffff; stroke-width: 0.8; stroke-linecap: round"/>
     </g>
     <g id="text_3">
      <!-- 华中地区 -->
      <g style="fill: #262626" transform="translate(333.71796 392.99375) scale(0.1 -0.1)">
       <defs>
        <path id="MicrosoftYaHei-4e2d" d="M 525 3972 
L 2931 3972 
L 2931 5334 
L 3469 5334 
L 3469 3972 
L 5900 3972 
L 5900 1122 
L 5388 1122 
L 5388 1459 
L 3469 1459 
L 3469 -866 
L 2931 -866 
L 2931 1459 
L 1038 1459 
L 1038 1122 
L 525 1122 
L 525 3972 
z
M 5388 3509 
L 3469 3509 
L 3469 1922 
L 5388 1922 
L 5388 3509 
z
M 1038 1922 
L 2931 1922 
L 2931 3509 
L 1038 3509 
L 1038 1922 
z
" transform="scale(0.015625)"/>
       </defs>
       <use xlink:href="#MicrosoftYaHei-534e"/>
       <use xlink:href="#MicrosoftYaHei-4e2d" x="100"/>
       <use xlink:href="#MicrosoftYaHei-5730" x="200"/>
       <use xlink:href="#MicrosoftYaHei-533a" x="300"/>
      </g>
     </g>
    </g>
    <g id="xtick_4">
     <g id="line2d_4">
      <path d="M 442.8 378 
L 442.8 51.84 
" clip-path="url(#p15d2cfb38f)" style="fill: none; stroke: #ffffff; stroke-width: 0.8; stroke-linecap: round"/>
     </g>
     <g id="text_4">
      <!-- 华北地区 -->
      <g style="fill: #262626" transform="translate(422.8 392.99375) scale(0.1 -0.1)">
       <use xlink:href="#MicrosoftYaHei-534e"/>
       <use xlink:href="#MicrosoftYaHei-5317" x="100"/>
       <use xlink:href="#MicrosoftYaHei-5730" x="200"/>
       <use xlink:href="#MicrosoftYaHei-533a" x="300"/>
      </g>
     </g>
    </g>
    <g id="xtick_5">
     <g id="line2d_5">
      <path d="M 531.88204 378 
L 531.88204 51.84 
" clip-path="url(#p15d2cfb38f)" style="fill: none; stroke: #ffffff; stroke-width: 0.8; stroke-linecap: round"/>
     </g>
     <g id="text_5">
      <!-- 华南地区 -->
      <g style="fill: #262626" transform="translate(511.88204 392.99375) scale(0.1 -0.1)">
       <defs>
        <path id="MicrosoftYaHei-5357" d="M 163 4553 
L 2969 4553 
L 2969 5259 
L 3481 5259 
L 3481 4553 
L 6219 4553 
L 6219 4109 
L 3481 4109 
L 3481 3472 
L 5875 3472 
L 5875 -72 
Q 5875 -803 5150 -809 
Q 4738 -816 4119 -791 
Q 4081 -559 4025 -278 
Q 4644 -316 4969 -316 
Q 5381 -316 5381 47 
L 5381 3034 
L 1056 3034 
L 1056 -834 
L 563 -834 
L 563 3472 
L 2969 3472 
L 2969 4109 
L 163 4109 
L 163 4553 
z
M 1300 909 
L 2975 909 
L 2975 1591 
L 1500 1591 
L 1500 2003 
L 3463 2003 
Q 3763 2453 4069 2991 
L 4531 2734 
Q 4225 2316 3975 2003 
L 4938 2003 
L 4938 1591 
L 3463 1591 
L 3463 909 
L 5138 909 
L 5138 497 
L 3463 497 
L 3463 -703 
L 2975 -703 
L 2975 497 
L 1300 497 
L 1300 909 
z
M 1913 2741 
L 2281 2991 
Q 2600 2622 2863 2272 
L 2450 2016 
Q 2200 2378 1913 2741 
z
" transform="scale(0.015625)"/>
       </defs>
       <use xlink:href="#MicrosoftYaHei-534e"/>
       <use xlink:href="#MicrosoftYaHei-5357" x="100"/>
       <use xlink:href="#MicrosoftYaHei-5730" x="200"/>
       <use xlink:href="#MicrosoftYaHei-533a" x="300"/>
      </g>
     </g>
    </g>
    <g id="xtick_6">
     <g id="line2d_6">
      <path d="M 620.96408 378 
L 620.96408 51.84 
" clip-path="url(#p15d2cfb38f)" style="fill: none; stroke: #ffffff; stroke-width: 0.8; stroke-linecap: round"/>
     </g>
     <g id="text_6">
      <!-- 西北地区 -->
      <g style="fill: #262626" transform="translate(600.96408 392.99375) scale(0.1 -0.1)">
       <defs>
        <path id="MicrosoftYaHei-897f" d="M 175 4916 
L 6250 4916 
L 6250 4466 
L 4231 4466 
L 4231 3541 
L 6000 3541 
L 6000 -847 
L 5500 -847 
L 5500 -459 
L 1050 -459 
L 1050 -847 
L 550 -847 
L 550 3541 
L 2256 3541 
Q 2269 3984 2275 4466 
L 175 4466 
L 175 4916 
z
M 4531 1528 
L 5500 1528 
L 5500 3091 
L 4231 3091 
L 4231 1841 
Q 4231 1528 4531 1528 
z
M 2756 3541 
L 3738 3541 
L 3738 4466 
L 2769 4466 
Q 2763 3966 2756 3541 
z
M 5500 -9 
L 5500 1078 
L 4344 1078 
Q 3738 1078 3738 1766 
L 3738 3091 
L 2738 3091 
Q 2675 1628 1525 778 
Q 1369 972 1150 1178 
Q 2163 1841 2238 3091 
L 1050 3091 
L 1050 -9 
L 5500 -9 
z
" transform="scale(0.015625)"/>
       </defs>
       <use xlink:href="#MicrosoftYaHei-897f"/>
       <use xlink:href="#MicrosoftYaHei-5317" x="100"/>
       <use xlink:href="#MicrosoftYaHei-5730" x="200"/>
       <use xlink:href="#MicrosoftYaHei-533a" x="300"/>
      </g>
     </g>
    </g>
    <g id="xtick_7">
     <g id="line2d_7">
      <path d="M 710.04612 378 
L 710.04612 51.84 
" clip-path="url(#p15d2cfb38f)" style="fill: none; stroke: #ffffff; stroke-width: 0.8; stroke-linecap: round"/>
     </g>
     <g id="text_7">
      <!-- 西南地区 -->
      <g style="fill: #262626" transform="translate(690.04612 392.99375) scale(0.1 -0.1)">
       <use xlink:href="#MicrosoftYaHei-897f"/>
       <use xlink:href="#MicrosoftYaHei-5357" x="100"/>
       <use xlink:href="#MicrosoftYaHei-5730" x="200"/>
       <use xlink:href="#MicrosoftYaHei-533a" x="300"/>
      </g>
     </g>
    </g>
   </g>
   <g id="matplotlib.axis_2">
    <g id="ytick_1">
     <g id="line2d_8">
      <path d="M 108 378 
L 777.6 378 
" clip-path="url(#p15d2cfb38f)" style="fill: none; stroke: #ffffff; stroke-width: 0.8; stroke-linecap: round"/>
     </g>
     <g id="text_8">
      <!-- 0.0 -->
      <g style="fill: #262626" transform="translate(86.864063 381.996875) scale(0.1 -0.1)">
       <defs>
        <path id="MicrosoftYaHei-30" d="M 284 2325 
Q 284 3606 709 4264 
Q 1134 4922 1941 4922 
Q 3478 4922 3478 2441 
Q 3478 1216 3045 567 
Q 2613 -81 1831 -81 
Q 1094 -81 689 534 
Q 284 1150 284 2325 
z
M 909 2353 
Q 909 425 1888 425 
Q 2850 425 2850 2384 
Q 2850 4413 1906 4413 
Q 909 4413 909 2353 
z
" transform="scale(0.015625)"/>
        <path id="MicrosoftYaHei-2e" d="M 372 322 
Q 372 491 487 606 
Q 603 722 775 722 
Q 950 722 1065 605 
Q 1181 488 1181 322 
Q 1181 159 1065 42 
Q 950 -75 772 -75 
Q 600 -75 486 42 
Q 372 159 372 322 
z
" transform="scale(0.015625)"/>
       </defs>
       <use xlink:href="#MicrosoftYaHei-30"/>
       <use xlink:href="#MicrosoftYaHei-2e" x="58.642578"/>
       <use xlink:href="#MicrosoftYaHei-30" x="82.714844"/>
      </g>
     </g>
    </g>
    <g id="ytick_2">
     <g id="line2d_9">
      <path d="M 108 312.768 
L 777.6 312.768 
" clip-path="url(#p15d2cfb38f)" style="fill: none; stroke: #ffffff; stroke-width: 0.8; stroke-linecap: round"/>
     </g>
     <g id="text_9">
      <!-- 0.2 -->
      <g style="fill: #262626" transform="translate(86.864063 316.764875) scale(0.1 -0.1)">
       <defs>
        <path id="MicrosoftYaHei-32" d="M 2666 3572 
Q 2666 3963 2419 4186 
Q 2172 4409 1747 4409 
Q 1447 4409 1140 4256 
Q 834 4103 569 3819 
L 569 4413 
Q 806 4659 1107 4790 
Q 1409 4922 1816 4922 
Q 2472 4922 2872 4570 
Q 3272 4219 3272 3619 
Q 3272 3084 3026 2693 
Q 2781 2303 2188 1894 
Q 1581 1475 1376 1294 
Q 1172 1113 1090 947 
Q 1009 781 1009 544 
L 3416 544 
L 3416 0 
L 372 0 
L 372 241 
Q 372 659 486 951 
Q 600 1244 862 1520 
Q 1125 1797 1681 2184 
Q 2250 2584 2458 2886 
Q 2666 3188 2666 3572 
z
" transform="scale(0.015625)"/>
       </defs>
       <use xlink:href="#MicrosoftYaHei-30"/>
       <use xlink:href="#MicrosoftYaHei-2e" x="58.642578"/>
       <use xlink:href="#MicrosoftYaHei-32" x="82.714844"/>
      </g>
     </g>
    </g>
    <g id="ytick_3">
     <g id="line2d_10">
      <path d="M 108 247.536 
L 777.6 247.536 
" clip-path="url(#p15d2cfb38f)" style="fill: none; stroke: #ffffff; stroke-width: 0.8; stroke-linecap: round"/>
     </g>
     <g id="text_10">
      <!-- 0.4 -->
      <g style="fill: #262626" transform="translate(86.864063 251.532875) scale(0.1 -0.1)">
       <defs>
        <path id="MicrosoftYaHei-34" d="M 2906 4841 
L 2906 1644 
L 3631 1644 
L 3631 1138 
L 2906 1138 
L 2906 0 
L 2313 0 
L 2313 1138 
L 53 1138 
L 53 1616 
Q 656 2294 1265 3178 
Q 1875 4063 2272 4841 
L 2906 4841 
z
M 741 1644 
L 2313 1644 
L 2313 3950 
Q 1988 3366 1616 2817 
Q 1244 2269 741 1644 
z
" transform="scale(0.015625)"/>
       </defs>
       <use xlink:href="#MicrosoftYaHei-30"/>
       <use xlink:href="#MicrosoftYaHei-2e" x="58.642578"/>
       <use xlink:href="#MicrosoftYaHei-34" x="82.714844"/>
      </g>
     </g>
    </g>
    <g id="ytick_4">
     <g id="line2d_11">
      <path d="M 108 182.304 
L 777.6 182.304 
" clip-path="url(#p15d2cfb38f)" style="fill: none; stroke: #ffffff; stroke-width: 0.8; stroke-linecap: round"/>
     </g>
     <g id="text_11">
      <!-- 0.6 -->
      <g style="fill: #262626" transform="translate(86.864063 186.300875) scale(0.1 -0.1)">
       <defs>
        <path id="MicrosoftYaHei-36" d="M 3181 4219 
Q 2803 4413 2391 4413 
Q 1763 4413 1381 3866 
Q 1000 3319 994 2372 
L 1009 2372 
Q 1353 3038 2106 3038 
Q 2734 3038 3109 2628 
Q 3484 2219 3484 1541 
Q 3484 831 3051 375 
Q 2619 -81 1947 -81 
Q 1209 -81 789 495 
Q 369 1072 369 2131 
Q 369 3413 920 4167 
Q 1472 4922 2372 4922 
Q 2888 4922 3181 4781 
L 3181 4219 
z
M 1031 1584 
Q 1031 1106 1286 765 
Q 1541 425 1963 425 
Q 2363 425 2613 719 
Q 2863 1013 2863 1475 
Q 2863 1975 2627 2253 
Q 2391 2531 1956 2531 
Q 1544 2531 1287 2250 
Q 1031 1969 1031 1584 
z
" transform="scale(0.015625)"/>
       </defs>
       <use xlink:href="#MicrosoftYaHei-30"/>
       <use xlink:href="#MicrosoftYaHei-2e" x="58.642578"/>
       <use xlink:href="#MicrosoftYaHei-36" x="82.714844"/>
      </g>
     </g>
    </g>
    <g id="ytick_5">
     <g id="line2d_12">
      <path d="M 108 117.072 
L 777.6 117.072 
" clip-path="url(#p15d2cfb38f)" style="fill: none; stroke: #ffffff; stroke-width: 0.8; stroke-linecap: round"/>
     </g>
     <g id="text_12">
      <!-- 0.8 -->
      <g style="fill: #262626" transform="translate(86.864063 121.068875) scale(0.1 -0.1)">
       <defs>
        <path id="MicrosoftYaHei-38" d="M 306 1350 
Q 306 1769 556 2122 
Q 806 2475 1200 2625 
Q 884 2803 700 3081 
Q 516 3359 516 3684 
Q 516 4028 692 4312 
Q 869 4597 1183 4759 
Q 1497 4922 1875 4922 
Q 2256 4922 2572 4761 
Q 2888 4600 3063 4315 
Q 3238 4031 3238 3684 
Q 3238 3366 3058 3086 
Q 2878 2806 2559 2625 
Q 2953 2472 3200 2119 
Q 3447 1766 3447 1350 
Q 3447 938 3250 611 
Q 3053 284 2690 103 
Q 2328 -78 1875 -78 
Q 1425 -78 1065 103 
Q 706 284 506 612 
Q 306 941 306 1350 
z
M 906 1378 
Q 906 947 1172 687 
Q 1438 428 1878 428 
Q 2309 428 2582 692 
Q 2856 956 2856 1378 
Q 2856 1778 2579 2051 
Q 2303 2325 1878 2325 
Q 1456 2325 1181 2058 
Q 906 1791 906 1378 
z
M 1081 3634 
Q 1081 3309 1312 3076 
Q 1544 2844 1878 2844 
Q 2206 2844 2445 3078 
Q 2684 3313 2684 3634 
Q 2684 3963 2454 4191 
Q 2225 4419 1878 4419 
Q 1534 4419 1307 4195 
Q 1081 3972 1081 3634 
z
" transform="scale(0.015625)"/>
       </defs>
       <use xlink:href="#MicrosoftYaHei-30"/>
       <use xlink:href="#MicrosoftYaHei-2e" x="58.642578"/>
       <use xlink:href="#MicrosoftYaHei-38" x="82.714844"/>
      </g>
     </g>
    </g>
    <g id="ytick_6">
     <g id="line2d_13">
      <path d="M 108 51.84 
L 777.6 51.84 
" clip-path="url(#p15d2cfb38f)" style="fill: none; stroke: #ffffff; stroke-width: 0.8; stroke-linecap: round"/>
     </g>
     <g id="text_13">
      <!-- 1.0 -->
      <g style="fill: #262626" transform="translate(86.864063 55.836875) scale(0.1 -0.1)">
       <defs>
        <path id="MicrosoftYaHei-31" d="M 1781 0 
L 1781 4141 
Q 1638 3997 1295 3819 
Q 953 3641 663 3569 
L 663 4169 
Q 1047 4275 1484 4508 
Q 1922 4741 2156 4947 
L 2388 4947 
L 2388 0 
L 1781 0 
z
" transform="scale(0.015625)"/>
       </defs>
       <use xlink:href="#MicrosoftYaHei-31"/>
       <use xlink:href="#MicrosoftYaHei-2e" x="58.642578"/>
       <use xlink:href="#MicrosoftYaHei-30" x="82.714844"/>
      </g>
     </g>
    </g>
   </g>
   <g id="patch_3">
    <path d="M 138.436364 378 
L 153.28337 378 
L 153.28337 370.758386 
L 138.436364 370.758386 
z
" clip-path="url(#p15d2cfb38f)" style="fill: #92c6ff; stroke: #ffffff; stroke-linejoin: miter"/>
   </g>
   <g id="patch_4">
    <path d="M 227.518404 378 
L 242.36541 378 
L 242.36541 368.869131 
L 227.518404 368.869131 
z
" clip-path="url(#p15d2cfb38f)" style="fill: #92c6ff; stroke: #ffffff; stroke-linejoin: miter"/>
   </g>
   <g id="patch_5">
    <path d="M 316.600443 378 
L 331.44745 378 
L 331.44745 365.372718 
L 316.600443 365.372718 
z
" clip-path="url(#p15d2cfb38f)" style="fill: #92c6ff; stroke: #ffffff; stroke-linejoin: miter"/>
   </g>
   <g id="patch_6">
    <path d="M 405.682483 378 
L 420.52949 378 
L 420.52949 364.766778 
L 405.682483 364.766778 
z
" clip-path="url(#p15d2cfb38f)" style="fill: #92c6ff; stroke: #ffffff; stroke-linejoin: miter"/>
   </g>
   <g id="patch_7">
    <path d="M 494.764523 378 
L 509.61153 378 
L 509.61153 370.835327 
L 494.764523 370.835327 
z
" clip-path="url(#p15d2cfb38f)" style="fill: #92c6ff; stroke: #ffffff; stroke-linejoin: miter"/>
   </g>
   <g id="patch_8">
    <path d="M 583.846563 378 
L 598.69357 378 
L 598.69357 366.15732 
L 583.846563 366.15732 
z
" clip-path="url(#p15d2cfb38f)" style="fill: #92c6ff; stroke: #ffffff; stroke-linejoin: miter"/>
   </g>
   <g id="patch_9">
    <path d="M 672.928603 378 
L 687.77561 378 
L 687.77561 363.785155 
L 672.928603 363.785155 
z
" clip-path="url(#p15d2cfb38f)" style="fill: #92c6ff; stroke: #ffffff; stroke-linejoin: miter"/>
   </g>
   <g id="patch_10">
    <path d="M 153.28337 378 
L 168.130377 378 
L 168.130377 375.24129 
L 153.28337 375.24129 
z
" clip-path="url(#p15d2cfb38f)" style="fill: #97f0aa; stroke: #ffffff; stroke-linejoin: miter"/>
   </g>
   <g id="patch_11">
    <path d="M 242.36541 378 
L 257.212417 378 
L 257.212417 371.778477 
L 242.36541 371.778477 
z
" clip-path="url(#p15d2cfb38f)" style="fill: #97f0aa; stroke: #ffffff; stroke-linejoin: miter"/>
   </g>
   <g id="patch_12">
    <path d="M 331.44745 378 
L 346.294457 378 
L 346.294457 372.716244 
L 331.44745 372.716244 
z
" clip-path="url(#p15d2cfb38f)" style="fill: #97f0aa; stroke: #ffffff; stroke-linejoin: miter"/>
   </g>
   <g id="patch_13">
    <path d="M 420.52949 378 
L 435.376497 378 
L 435.376497 371.059045 
L 420.52949 371.059045 
z
" clip-path="url(#p15d2cfb38f)" style="fill: #97f0aa; stroke: #ffffff; stroke-linejoin: miter"/>
   </g>
   <g id="patch_14">
    <path d="M 509.61153 378 
L 524.458537 378 
L 524.458537 375.187699 
L 509.61153 375.187699 
z
" clip-path="url(#p15d2cfb38f)" style="fill: #97f0aa; stroke: #ffffff; stroke-linejoin: miter"/>
   </g>
   <g id="patch_15">
    <path d="M 598.69357 378 
L 613.540576 378 
L 613.540576 374.796183 
L 598.69357 374.796183 
z
" clip-path="url(#p15d2cfb38f)" style="fill: #97f0aa; stroke: #ffffff; stroke-linejoin: miter"/>
   </g>
   <g id="patch_16">
    <path d="M 687.77561 378 
L 702.622616 378 
L 702.622616 370.557673 
L 687.77561 370.557673 
z
" clip-path="url(#p15d2cfb38f)" style="fill: #97f0aa; stroke: #ffffff; stroke-linejoin: miter"/>
   </g>
   <g id="patch_17">
    <path d="M 168.130377 378 
L 182.977384 378 
L 182.977384 357.252201 
L 168.130377 357.252201 
z
" clip-path="url(#p15d2cfb38f)" style="fill: #ff9f9a; stroke: #ffffff; stroke-linejoin: miter"/>
   </g>
   <g id="patch_18">
    <path d="M 257.212417 378 
L 272.059424 378 
L 272.059424 348.951305 
L 257.212417 348.951305 
z
" clip-path="url(#p15d2cfb38f)" style="fill: #ff9f9a; stroke: #ffffff; stroke-linejoin: miter"/>
   </g>
   <g id="patch_19">
    <path d="M 346.294457 378 
L 361.141463 378 
L 361.141463 357.581417 
L 346.294457 357.581417 
z
" clip-path="url(#p15d2cfb38f)" style="fill: #ff9f9a; stroke: #ffffff; stroke-linejoin: miter"/>
   </g>
   <g id="patch_20">
    <path d="M 435.376497 378 
L 450.223503 378 
L 450.223503 352.830931 
L 435.376497 352.830931 
z
" clip-path="url(#p15d2cfb38f)" style="fill: #ff9f9a; stroke: #ffffff; stroke-linejoin: miter"/>
   </g>
   <g id="patch_21">
    <path d="M 524.458537 378 
L 539.305543 378 
L 539.305543 352.756247 
L 524.458537 352.756247 
z
" clip-path="url(#p15d2cfb38f)" style="fill: #ff9f9a; stroke: #ffffff; stroke-linejoin: miter"/>
   </g>
   <g id="patch_22">
    <path d="M 613.540576 378 
L 628.387583 378 
L 628.387583 364.040512 
L 613.540576 364.040512 
z
" clip-path="url(#p15d2cfb38f)" style="fill: #ff9f9a; stroke: #ffffff; stroke-linejoin: miter"/>
   </g>
   <g id="patch_23">
    <path d="M 702.622616 378 
L 717.469623 378 
L 717.469623 348.45396 
L 702.622616 348.45396 
z
" clip-path="url(#p15d2cfb38f)" style="fill: #ff9f9a; stroke: #ffffff; stroke-linejoin: miter"/>
   </g>
   <g id="patch_24">
    <path d="M 182.977384 378 
L 197.82439 378 
L 197.82439 315.066925 
L 182.977384 315.066925 
z
" clip-path="url(#p15d2cfb38f)" style="fill: #d0bbff; stroke: #ffffff; stroke-linejoin: miter"/>
   </g>
   <g id="patch_25">
    <path d="M 272.059424 378 
L 286.90643 378 
L 286.90643 301.685632 
L 272.059424 301.685632 
z
" clip-path="url(#p15d2cfb38f)" style="fill: #d0bbff; stroke: #ffffff; stroke-linejoin: miter"/>
   </g>
   <g id="patch_26">
    <path d="M 361.141463 378 
L 375.98847 378 
L 375.98847 324.983328 
L 361.141463 324.983328 
z
" clip-path="url(#p15d2cfb38f)" style="fill: #d0bbff; stroke: #ffffff; stroke-linejoin: miter"/>
   </g>
   <g id="patch_27">
    <path d="M 450.223503 378 
L 465.07051 378 
L 465.07051 312.87179 
L 450.223503 312.87179 
z
" clip-path="url(#p15d2cfb38f)" style="fill: #d0bbff; stroke: #ffffff; stroke-linejoin: miter"/>
   </g>
   <g id="patch_28">
    <path d="M 539.305543 378 
L 554.15255 378 
L 554.15255 299.255561 
L 539.305543 299.255561 
z
" clip-path="url(#p15d2cfb38f)" style="fill: #d0bbff; stroke: #ffffff; stroke-linejoin: miter"/>
   </g>
   <g id="patch_29">
    <path d="M 628.387583 378 
L 643.23459 378 
L 643.23459 325.423077 
L 628.387583 325.423077 
z
" clip-path="url(#p15d2cfb38f)" style="fill: #d0bbff; stroke: #ffffff; stroke-linejoin: miter"/>
   </g>
   <g id="patch_30">
    <path d="M 717.469623 378 
L 732.31663 378 
L 732.31663 309.270106 
L 717.469623 309.270106 
z
" clip-path="url(#p15d2cfb38f)" style="fill: #d0bbff; stroke: #ffffff; stroke-linejoin: miter"/>
   </g>
   <g id="patch_31">
    <path d="M 197.82439 378 
L 212.671397 378 
L 212.671397 145.521198 
L 197.82439 145.521198 
z
" clip-path="url(#p15d2cfb38f)" style="fill: #fffea3; stroke: #ffffff; stroke-linejoin: miter"/>
   </g>
   <g id="patch_32">
    <path d="M 286.90643 378 
L 301.753437 378 
L 301.753437 172.555455 
L 286.90643 172.555455 
z
" clip-path="url(#p15d2cfb38f)" style="fill: #fffea3; stroke: #ffffff; stroke-linejoin: miter"/>
   </g>
   <g id="patch_33">
    <path d="M 375.98847 378 
L 390.835477 378 
L 390.835477 143.186293 
L 375.98847 143.186293 
z
" clip-path="url(#p15d2cfb38f)" style="fill: #fffea3; stroke: #ffffff; stroke-linejoin: miter"/>
   </g>
   <g id="patch_34">
    <path d="M 465.07051 378 
L 479.917517 378 
L 479.917517 162.311456 
L 465.07051 162.311456 
z
" clip-path="url(#p15d2cfb38f)" style="fill: #fffea3; stroke: #ffffff; stroke-linejoin: miter"/>
   </g>
   <g id="patch_35">
    <path d="M 554.15255 378 
L 568.999557 378 
L 568.999557 165.805165 
L 554.15255 165.805165 
z
" clip-path="url(#p15d2cfb38f)" style="fill: #fffea3; stroke: #ffffff; stroke-linejoin: miter"/>
   </g>
   <g id="patch_36">
    <path d="M 643.23459 378 
L 658.081596 378 
L 658.081596 133.422908 
L 643.23459 133.422908 
z
" clip-path="url(#p15d2cfb38f)" style="fill: #fffea3; stroke: #ffffff; stroke-linejoin: miter"/>
   </g>
   <g id="patch_37">
    <path d="M 732.31663 378 
L 747.163636 378 
L 747.163636 171.773107 
L 732.31663 171.773107 
z
" clip-path="url(#p15d2cfb38f)" style="fill: #fffea3; stroke: #ffffff; stroke-linejoin: miter"/>
   </g>
   <g id="patch_38">
    <path d="M 108 378 
L 108 51.84 
" style="fill: none; stroke: #ffffff; stroke-width: 0.8; stroke-linejoin: miter; stroke-linecap: square"/>
   </g>
   <g id="patch_39">
    <path d="M 777.6 378 
L 777.6 51.84 
" style="fill: none; stroke: #ffffff; stroke-width: 0.8; stroke-linejoin: miter; stroke-linecap: square"/>
   </g>
   <g id="patch_40">
    <path d="M 108 378 
L 777.6 378 
" style="fill: none; stroke: #ffffff; stroke-width: 0.8; stroke-linejoin: miter; stroke-linecap: square"/>
   </g>
   <g id="patch_41">
    <path d="M 108 51.84 
L 777.6 51.84 
" style="fill: none; stroke: #ffffff; stroke-width: 0.8; stroke-linejoin: miter; stroke-linecap: square"/>
   </g>
   <g id="text_14">
    <!-- 0.02% -->
    <g style="fill: #262626" transform="translate(135.745961 367.496786) scale(0.07 -0.07)">
     <defs>
      <path id="MicrosoftYaHei-25" d="M 272 3619 
Q 272 4213 589 4563 
Q 906 4913 1444 4913 
Q 1959 4913 2248 4591 
Q 2538 4269 2538 3694 
Q 2538 3122 2219 2765 
Q 1900 2409 1372 2409 
Q 872 2409 572 2740 
Q 272 3072 272 3619 
z
M 753 3650 
Q 753 3247 928 3028 
Q 1103 2809 1406 2809 
Q 1719 2809 1889 3036 
Q 2059 3263 2059 3675 
Q 2059 4078 1892 4298 
Q 1725 4519 1422 4519 
Q 1113 4519 933 4289 
Q 753 4059 753 3650 
z
M 4647 4841 
L 1538 -31 
L 1016 -31 
L 4125 4841 
L 4647 4841 
z
M 3172 1134 
Q 3172 1728 3489 2083 
Q 3806 2438 4341 2438 
Q 4853 2438 5143 2114 
Q 5434 1791 5434 1203 
Q 5434 634 5112 279 
Q 4791 -75 4272 -75 
Q 3769 -75 3470 261 
Q 3172 597 3172 1134 
z
M 3650 1163 
Q 3650 769 3825 548 
Q 4000 328 4303 328 
Q 4616 328 4786 556 
Q 4956 784 4956 1194 
Q 4956 1600 4786 1815 
Q 4616 2031 4319 2031 
Q 4000 2031 3825 1801 
Q 3650 1572 3650 1163 
z
" transform="scale(0.015625)"/>
     </defs>
     <use xlink:href="#MicrosoftYaHei-30"/>
     <use xlink:href="#MicrosoftYaHei-2e" x="58.642578"/>
     <use xlink:href="#MicrosoftYaHei-30" x="82.714844"/>
     <use xlink:href="#MicrosoftYaHei-32" x="141.357422"/>
     <use xlink:href="#MicrosoftYaHei-25" x="200"/>
    </g>
   </g>
   <g id="text_15">
    <!-- 0.03% -->
    <g style="fill: #262626" transform="translate(224.828001 365.607531) scale(0.07 -0.07)">
     <defs>
      <path id="MicrosoftYaHei-33" d="M 447 809 
Q 944 425 1569 425 
Q 2069 425 2361 670 
Q 2653 916 2653 1328 
Q 2653 2247 1338 2247 
L 934 2247 
L 934 2753 
L 1319 2753 
Q 2484 2753 2484 3616 
Q 2484 4413 1594 4413 
Q 1084 4413 634 4069 
L 634 4647 
Q 1109 4922 1744 4922 
Q 2363 4922 2738 4598 
Q 3113 4275 3113 3759 
Q 3113 2809 2144 2538 
L 2144 2525 
Q 2669 2469 2973 2155 
Q 3278 1841 3278 1372 
Q 3278 719 2808 319 
Q 2338 -81 1556 -81 
Q 869 -81 447 175 
L 447 809 
z
" transform="scale(0.015625)"/>
     </defs>
     <use xlink:href="#MicrosoftYaHei-30"/>
     <use xlink:href="#MicrosoftYaHei-2e" x="58.642578"/>
     <use xlink:href="#MicrosoftYaHei-30" x="82.714844"/>
     <use xlink:href="#MicrosoftYaHei-33" x="141.357422"/>
     <use xlink:href="#MicrosoftYaHei-25" x="200"/>
    </g>
   </g>
   <g id="text_16">
    <!-- 0.04% -->
    <g style="fill: #262626" transform="translate(313.910041 362.111118) scale(0.07 -0.07)">
     <use xlink:href="#MicrosoftYaHei-30"/>
     <use xlink:href="#MicrosoftYaHei-2e" x="58.642578"/>
     <use xlink:href="#MicrosoftYaHei-30" x="82.714844"/>
     <use xlink:href="#MicrosoftYaHei-34" x="141.357422"/>
     <use xlink:href="#MicrosoftYaHei-25" x="200"/>
    </g>
   </g>
   <g id="text_17">
    <!-- 0.04% -->
    <g style="fill: #262626" transform="translate(402.99208 361.505178) scale(0.07 -0.07)">
     <use xlink:href="#MicrosoftYaHei-30"/>
     <use xlink:href="#MicrosoftYaHei-2e" x="58.642578"/>
     <use xlink:href="#MicrosoftYaHei-30" x="82.714844"/>
     <use xlink:href="#MicrosoftYaHei-34" x="141.357422"/>
     <use xlink:href="#MicrosoftYaHei-25" x="200"/>
    </g>
   </g>
   <g id="text_18">
    <!-- 0.02% -->
    <g style="fill: #262626" transform="translate(492.07412 367.573727) scale(0.07 -0.07)">
     <use xlink:href="#MicrosoftYaHei-30"/>
     <use xlink:href="#MicrosoftYaHei-2e" x="58.642578"/>
     <use xlink:href="#MicrosoftYaHei-30" x="82.714844"/>
     <use xlink:href="#MicrosoftYaHei-32" x="141.357422"/>
     <use xlink:href="#MicrosoftYaHei-25" x="200"/>
    </g>
   </g>
   <g id="text_19">
    <!-- 0.04% -->
    <g style="fill: #262626" transform="translate(581.15616 362.89572) scale(0.07 -0.07)">
     <use xlink:href="#MicrosoftYaHei-30"/>
     <use xlink:href="#MicrosoftYaHei-2e" x="58.642578"/>
     <use xlink:href="#MicrosoftYaHei-30" x="82.714844"/>
     <use xlink:href="#MicrosoftYaHei-34" x="141.357422"/>
     <use xlink:href="#MicrosoftYaHei-25" x="200"/>
    </g>
   </g>
   <g id="text_20">
    <!-- 0.04% -->
    <g style="fill: #262626" transform="translate(670.2382 360.523555) scale(0.07 -0.07)">
     <use xlink:href="#MicrosoftYaHei-30"/>
     <use xlink:href="#MicrosoftYaHei-2e" x="58.642578"/>
     <use xlink:href="#MicrosoftYaHei-30" x="82.714844"/>
     <use xlink:href="#MicrosoftYaHei-34" x="141.357422"/>
     <use xlink:href="#MicrosoftYaHei-25" x="200"/>
    </g>
   </g>
   <g id="text_21">
    <!-- 0.01% -->
    <g style="fill: #262626" transform="translate(150.592967 371.97969) scale(0.07 -0.07)">
     <use xlink:href="#MicrosoftYaHei-30"/>
     <use xlink:href="#MicrosoftYaHei-2e" x="58.642578"/>
     <use xlink:href="#MicrosoftYaHei-30" x="82.714844"/>
     <use xlink:href="#MicrosoftYaHei-31" x="141.357422"/>
     <use xlink:href="#MicrosoftYaHei-25" x="200"/>
    </g>
   </g>
   <g id="text_22">
    <!-- 0.02% -->
    <g style="fill: #262626" transform="translate(239.675007 368.516877) scale(0.07 -0.07)">
     <use xlink:href="#MicrosoftYaHei-30"/>
     <use xlink:href="#MicrosoftYaHei-2e" x="58.642578"/>
     <use xlink:href="#MicrosoftYaHei-30" x="82.714844"/>
     <use xlink:href="#MicrosoftYaHei-32" x="141.357422"/>
     <use xlink:href="#MicrosoftYaHei-25" x="200"/>
    </g>
   </g>
   <g id="text_23">
    <!-- 0.02% -->
    <g style="fill: #262626" transform="translate(328.757047 369.454644) scale(0.07 -0.07)">
     <use xlink:href="#MicrosoftYaHei-30"/>
     <use xlink:href="#MicrosoftYaHei-2e" x="58.642578"/>
     <use xlink:href="#MicrosoftYaHei-30" x="82.714844"/>
     <use xlink:href="#MicrosoftYaHei-32" x="141.357422"/>
     <use xlink:href="#MicrosoftYaHei-25" x="200"/>
    </g>
   </g>
   <g id="text_24">
    <!-- 0.02% -->
    <g style="fill: #262626" transform="translate(417.839087 367.797445) scale(0.07 -0.07)">
     <use xlink:href="#MicrosoftYaHei-30"/>
     <use xlink:href="#MicrosoftYaHei-2e" x="58.642578"/>
     <use xlink:href="#MicrosoftYaHei-30" x="82.714844"/>
     <use xlink:href="#MicrosoftYaHei-32" x="141.357422"/>
     <use xlink:href="#MicrosoftYaHei-25" x="200"/>
    </g>
   </g>
   <g id="text_25">
    <!-- 0.01% -->
    <g style="fill: #262626" transform="translate(506.921127 371.926099) scale(0.07 -0.07)">
     <use xlink:href="#MicrosoftYaHei-30"/>
     <use xlink:href="#MicrosoftYaHei-2e" x="58.642578"/>
     <use xlink:href="#MicrosoftYaHei-30" x="82.714844"/>
     <use xlink:href="#MicrosoftYaHei-31" x="141.357422"/>
     <use xlink:href="#MicrosoftYaHei-25" x="200"/>
    </g>
   </g>
   <g id="text_26">
    <!-- 0.01% -->
    <g style="fill: #262626" transform="translate(596.003167 371.534583) scale(0.07 -0.07)">
     <use xlink:href="#MicrosoftYaHei-30"/>
     <use xlink:href="#MicrosoftYaHei-2e" x="58.642578"/>
     <use xlink:href="#MicrosoftYaHei-30" x="82.714844"/>
     <use xlink:href="#MicrosoftYaHei-31" x="141.357422"/>
     <use xlink:href="#MicrosoftYaHei-25" x="200"/>
    </g>
   </g>
   <g id="text_27">
    <!-- 0.02% -->
    <g style="fill: #262626" transform="translate(685.085207 367.296073) scale(0.07 -0.07)">
     <use xlink:href="#MicrosoftYaHei-30"/>
     <use xlink:href="#MicrosoftYaHei-2e" x="58.642578"/>
     <use xlink:href="#MicrosoftYaHei-30" x="82.714844"/>
     <use xlink:href="#MicrosoftYaHei-32" x="141.357422"/>
     <use xlink:href="#MicrosoftYaHei-25" x="200"/>
    </g>
   </g>
   <g id="text_28">
    <!-- 0.06% -->
    <g style="fill: #262626" transform="translate(165.439974 353.990601) scale(0.07 -0.07)">
     <use xlink:href="#MicrosoftYaHei-30"/>
     <use xlink:href="#MicrosoftYaHei-2e" x="58.642578"/>
     <use xlink:href="#MicrosoftYaHei-30" x="82.714844"/>
     <use xlink:href="#MicrosoftYaHei-36" x="141.357422"/>
     <use xlink:href="#MicrosoftYaHei-25" x="200"/>
    </g>
   </g>
   <g id="text_29">
    <!-- 0.09% -->
    <g style="fill: #262626" transform="translate(254.522014 345.689705) scale(0.07 -0.07)">
     <defs>
      <path id="MicrosoftYaHei-39" d="M 578 656 
Q 978 425 1441 425 
Q 2091 425 2448 937 
Q 2806 1450 2806 2394 
Q 2800 2388 2794 2394 
Q 2475 1788 1722 1788 
Q 1113 1788 713 2206 
Q 313 2625 313 3294 
Q 313 4006 750 4464 
Q 1188 4922 1884 4922 
Q 2606 4922 3012 4355 
Q 3419 3788 3419 2703 
Q 3419 1363 2894 641 
Q 2369 -81 1441 -81 
Q 931 -81 578 84 
L 578 656 
z
M 931 3372 
Q 931 2884 1181 2598 
Q 1431 2313 1872 2313 
Q 2253 2313 2512 2573 
Q 2772 2834 2772 3206 
Q 2772 3728 2514 4070 
Q 2256 4413 1834 4413 
Q 1444 4413 1187 4116 
Q 931 3819 931 3372 
z
" transform="scale(0.015625)"/>
     </defs>
     <use xlink:href="#MicrosoftYaHei-30"/>
     <use xlink:href="#MicrosoftYaHei-2e" x="58.642578"/>
     <use xlink:href="#MicrosoftYaHei-30" x="82.714844"/>
     <use xlink:href="#MicrosoftYaHei-39" x="141.357422"/>
     <use xlink:href="#MicrosoftYaHei-25" x="200"/>
    </g>
   </g>
   <g id="text_30">
    <!-- 0.06% -->
    <g style="fill: #262626" transform="translate(343.604054 354.319817) scale(0.07 -0.07)">
     <use xlink:href="#MicrosoftYaHei-30"/>
     <use xlink:href="#MicrosoftYaHei-2e" x="58.642578"/>
     <use xlink:href="#MicrosoftYaHei-30" x="82.714844"/>
     <use xlink:href="#MicrosoftYaHei-36" x="141.357422"/>
     <use xlink:href="#MicrosoftYaHei-25" x="200"/>
    </g>
   </g>
   <g id="text_31">
    <!-- 0.08% -->
    <g style="fill: #262626" transform="translate(432.686094 349.569331) scale(0.07 -0.07)">
     <use xlink:href="#MicrosoftYaHei-30"/>
     <use xlink:href="#MicrosoftYaHei-2e" x="58.642578"/>
     <use xlink:href="#MicrosoftYaHei-30" x="82.714844"/>
     <use xlink:href="#MicrosoftYaHei-38" x="141.357422"/>
     <use xlink:href="#MicrosoftYaHei-25" x="200"/>
    </g>
   </g>
   <g id="text_32">
    <!-- 0.08% -->
    <g style="fill: #262626" transform="translate(521.768134 349.494647) scale(0.07 -0.07)">
     <use xlink:href="#MicrosoftYaHei-30"/>
     <use xlink:href="#MicrosoftYaHei-2e" x="58.642578"/>
     <use xlink:href="#MicrosoftYaHei-30" x="82.714844"/>
     <use xlink:href="#MicrosoftYaHei-38" x="141.357422"/>
     <use xlink:href="#MicrosoftYaHei-25" x="200"/>
    </g>
   </g>
   <g id="text_33">
    <!-- 0.04% -->
    <g style="fill: #262626" transform="translate(610.850174 360.778912) scale(0.07 -0.07)">
     <use xlink:href="#MicrosoftYaHei-30"/>
     <use xlink:href="#MicrosoftYaHei-2e" x="58.642578"/>
     <use xlink:href="#MicrosoftYaHei-30" x="82.714844"/>
     <use xlink:href="#MicrosoftYaHei-34" x="141.357422"/>
     <use xlink:href="#MicrosoftYaHei-25" x="200"/>
    </g>
   </g>
   <g id="text_34">
    <!-- 0.09% -->
    <g style="fill: #262626" transform="translate(699.932213 345.19236) scale(0.07 -0.07)">
     <use xlink:href="#MicrosoftYaHei-30"/>
     <use xlink:href="#MicrosoftYaHei-2e" x="58.642578"/>
     <use xlink:href="#MicrosoftYaHei-30" x="82.714844"/>
     <use xlink:href="#MicrosoftYaHei-39" x="141.357422"/>
     <use xlink:href="#MicrosoftYaHei-25" x="200"/>
    </g>
   </g>
   <g id="text_35">
    <!-- 0.19% -->
    <g style="fill: #262626" transform="translate(180.286981 311.805325) scale(0.07 -0.07)">
     <use xlink:href="#MicrosoftYaHei-30"/>
     <use xlink:href="#MicrosoftYaHei-2e" x="58.642578"/>
     <use xlink:href="#MicrosoftYaHei-31" x="82.714844"/>
     <use xlink:href="#MicrosoftYaHei-39" x="141.357422"/>
     <use xlink:href="#MicrosoftYaHei-25" x="200"/>
    </g>
   </g>
   <g id="text_36">
    <!-- 0.23% -->
    <g style="fill: #262626" transform="translate(269.369021 298.424032) scale(0.07 -0.07)">
     <use xlink:href="#MicrosoftYaHei-30"/>
     <use xlink:href="#MicrosoftYaHei-2e" x="58.642578"/>
     <use xlink:href="#MicrosoftYaHei-32" x="82.714844"/>
     <use xlink:href="#MicrosoftYaHei-33" x="141.357422"/>
     <use xlink:href="#MicrosoftYaHei-25" x="200"/>
    </g>
   </g>
   <g id="text_37">
    <!-- 0.16% -->
    <g style="fill: #262626" transform="translate(358.45106 321.721728) scale(0.07 -0.07)">
     <use xlink:href="#MicrosoftYaHei-30"/>
     <use xlink:href="#MicrosoftYaHei-2e" x="58.642578"/>
     <use xlink:href="#MicrosoftYaHei-31" x="82.714844"/>
     <use xlink:href="#MicrosoftYaHei-36" x="141.357422"/>
     <use xlink:href="#MicrosoftYaHei-25" x="200"/>
    </g>
   </g>
   <g id="text_38">
    <!-- 0.20% -->
    <g style="fill: #262626" transform="translate(447.5331 309.61019) scale(0.07 -0.07)">
     <use xlink:href="#MicrosoftYaHei-30"/>
     <use xlink:href="#MicrosoftYaHei-2e" x="58.642578"/>
     <use xlink:href="#MicrosoftYaHei-32" x="82.714844"/>
     <use xlink:href="#MicrosoftYaHei-30" x="141.357422"/>
     <use xlink:href="#MicrosoftYaHei-25" x="200"/>
    </g>
   </g>
   <g id="text_39">
    <!-- 0.24% -->
    <g style="fill: #262626" transform="translate(536.61514 295.993961) scale(0.07 -0.07)">
     <use xlink:href="#MicrosoftYaHei-30"/>
     <use xlink:href="#MicrosoftYaHei-2e" x="58.642578"/>
     <use xlink:href="#MicrosoftYaHei-32" x="82.714844"/>
     <use xlink:href="#MicrosoftYaHei-34" x="141.357422"/>
     <use xlink:href="#MicrosoftYaHei-25" x="200"/>
    </g>
   </g>
   <g id="text_40">
    <!-- 0.16% -->
    <g style="fill: #262626" transform="translate(625.69718 322.161477) scale(0.07 -0.07)">
     <use xlink:href="#MicrosoftYaHei-30"/>
     <use xlink:href="#MicrosoftYaHei-2e" x="58.642578"/>
     <use xlink:href="#MicrosoftYaHei-31" x="82.714844"/>
     <use xlink:href="#MicrosoftYaHei-36" x="141.357422"/>
     <use xlink:href="#MicrosoftYaHei-25" x="200"/>
    </g>
   </g>
   <g id="text_41">
    <!-- 0.21% -->
    <g style="fill: #262626" transform="translate(714.77922 306.008506) scale(0.07 -0.07)">
     <use xlink:href="#MicrosoftYaHei-30"/>
     <use xlink:href="#MicrosoftYaHei-2e" x="58.642578"/>
     <use xlink:href="#MicrosoftYaHei-32" x="82.714844"/>
     <use xlink:href="#MicrosoftYaHei-31" x="141.357422"/>
     <use xlink:href="#MicrosoftYaHei-25" x="200"/>
    </g>
   </g>
   <g id="text_42">
    <!-- 0.71% -->
    <g style="fill: #262626" transform="translate(195.133987 142.259598) scale(0.07 -0.07)">
     <defs>
      <path id="MicrosoftYaHei-37" d="M 3422 4463 
Q 2659 3131 2223 1998 
Q 1788 866 1684 0 
L 1047 0 
Q 1163 853 1594 1947 
Q 2025 3041 2747 4300 
L 347 4300 
L 347 4841 
L 3422 4841 
L 3422 4463 
z
" transform="scale(0.015625)"/>
     </defs>
     <use xlink:href="#MicrosoftYaHei-30"/>
     <use xlink:href="#MicrosoftYaHei-2e" x="58.642578"/>
     <use xlink:href="#MicrosoftYaHei-37" x="82.714844"/>
     <use xlink:href="#MicrosoftYaHei-31" x="141.357422"/>
     <use xlink:href="#MicrosoftYaHei-25" x="200"/>
    </g>
   </g>
   <g id="text_43">
    <!-- 0.63% -->
    <g style="fill: #262626" transform="translate(284.216027 169.293855) scale(0.07 -0.07)">
     <use xlink:href="#MicrosoftYaHei-30"/>
     <use xlink:href="#MicrosoftYaHei-2e" x="58.642578"/>
     <use xlink:href="#MicrosoftYaHei-36" x="82.714844"/>
     <use xlink:href="#MicrosoftYaHei-33" x="141.357422"/>
     <use xlink:href="#MicrosoftYaHei-25" x="200"/>
    </g>
   </g>
   <g id="text_44">
    <!-- 0.72% -->
    <g style="fill: #262626" transform="translate(373.298067 139.924693) scale(0.07 -0.07)">
     <use xlink:href="#MicrosoftYaHei-30"/>
     <use xlink:href="#MicrosoftYaHei-2e" x="58.642578"/>
     <use xlink:href="#MicrosoftYaHei-37" x="82.714844"/>
     <use xlink:href="#MicrosoftYaHei-32" x="141.357422"/>
     <use xlink:href="#MicrosoftYaHei-25" x="200"/>
    </g>
   </g>
   <g id="text_45">
    <!-- 0.66% -->
    <g style="fill: #262626" transform="translate(462.380107 159.049856) scale(0.07 -0.07)">
     <use xlink:href="#MicrosoftYaHei-30"/>
     <use xlink:href="#MicrosoftYaHei-2e" x="58.642578"/>
     <use xlink:href="#MicrosoftYaHei-36" x="82.714844"/>
     <use xlink:href="#MicrosoftYaHei-36" x="141.357422"/>
     <use xlink:href="#MicrosoftYaHei-25" x="200"/>
    </g>
   </g>
   <g id="text_46">
    <!-- 0.65% -->
    <g style="fill: #262626" transform="translate(551.462147 162.543565) scale(0.07 -0.07)">
     <defs>
      <path id="MicrosoftYaHei-35" d="M 3294 1494 
Q 3294 784 2823 350 
Q 2353 -84 1559 -84 
Q 878 -84 544 119 
L 544 744 
Q 1034 425 1544 425 
Q 2050 425 2361 704 
Q 2672 984 2672 1447 
Q 2672 1909 2348 2167 
Q 2025 2425 1434 2425 
Q 978 2425 613 2384 
L 791 4841 
L 3053 4841 
L 3053 4303 
L 1306 4303 
L 1206 2931 
L 1647 2950 
Q 2416 2950 2855 2567 
Q 3294 2184 3294 1494 
z
" transform="scale(0.015625)"/>
     </defs>
     <use xlink:href="#MicrosoftYaHei-30"/>
     <use xlink:href="#MicrosoftYaHei-2e" x="58.642578"/>
     <use xlink:href="#MicrosoftYaHei-36" x="82.714844"/>
     <use xlink:href="#MicrosoftYaHei-35" x="141.357422"/>
     <use xlink:href="#MicrosoftYaHei-25" x="200"/>
    </g>
   </g>
   <g id="text_47">
    <!-- 0.75% -->
    <g style="fill: #262626" transform="translate(640.544187 130.161308) scale(0.07 -0.07)">
     <use xlink:href="#MicrosoftYaHei-30"/>
     <use xlink:href="#MicrosoftYaHei-2e" x="58.642578"/>
     <use xlink:href="#MicrosoftYaHei-37" x="82.714844"/>
     <use xlink:href="#MicrosoftYaHei-35" x="141.357422"/>
     <use xlink:href="#MicrosoftYaHei-25" x="200"/>
    </g>
   </g>
   <g id="text_48">
    <!-- 0.63% -->
    <g style="fill: #262626" transform="translate(729.626227 168.511507) scale(0.07 -0.07)">
     <use xlink:href="#MicrosoftYaHei-30"/>
     <use xlink:href="#MicrosoftYaHei-2e" x="58.642578"/>
     <use xlink:href="#MicrosoftYaHei-36" x="82.714844"/>
     <use xlink:href="#MicrosoftYaHei-33" x="141.357422"/>
     <use xlink:href="#MicrosoftYaHei-25" x="200"/>
    </g>
   </g>
   <g id="legend_1">
    <g id="patch_42">
     <path d="M 724.464063 137.238438 
L 770.6 137.238438 
Q 772.6 137.238438 772.6 135.238438 
L 772.6 58.84 
Q 772.6 56.84 770.6 56.84 
L 724.464063 56.84 
Q 722.464063 56.84 722.464063 58.84 
L 722.464063 135.238438 
Q 722.464063 137.238438 724.464063 137.238438 
z
" style="fill: #eaeaf2; opacity: 0.8; stroke: #cccccc; stroke-linejoin: miter"/>
    </g>
    <g id="patch_43">
     <path d="M 726.464063 68.83375 
L 746.464063 68.83375 
L 746.464063 61.83375 
L 726.464063 61.83375 
z
" style="fill: #92c6ff; stroke: #ffffff; stroke-linejoin: miter"/>
    </g>
    <g id="text_49">
     <!-- 1.0 -->
     <g style="fill: #262626" transform="translate(754.464063 68.83375) scale(0.1 -0.1)">
      <use xlink:href="#MicrosoftYaHei-31"/>
      <use xlink:href="#MicrosoftYaHei-2e" x="58.642578"/>
      <use xlink:href="#MicrosoftYaHei-30" x="82.714844"/>
     </g>
    </g>
    <g id="patch_44">
     <path d="M 726.464063 84.313438 
L 746.464063 84.313438 
L 746.464063 77.313438 
L 726.464063 77.313438 
z
" style="fill: #97f0aa; stroke: #ffffff; stroke-linejoin: miter"/>
    </g>
    <g id="text_50">
     <!-- 2.0 -->
     <g style="fill: #262626" transform="translate(754.464063 84.313438) scale(0.1 -0.1)">
      <use xlink:href="#MicrosoftYaHei-32"/>
      <use xlink:href="#MicrosoftYaHei-2e" x="58.642578"/>
      <use xlink:href="#MicrosoftYaHei-30" x="82.714844"/>
     </g>
    </g>
    <g id="patch_45">
     <path d="M 726.464063 99.793125 
L 746.464063 99.793125 
L 746.464063 92.793125 
L 726.464063 92.793125 
z
" style="fill: #ff9f9a; stroke: #ffffff; stroke-linejoin: miter"/>
    </g>
    <g id="text_51">
     <!-- 3.0 -->
     <g style="fill: #262626" transform="translate(754.464063 99.793125) scale(0.1 -0.1)">
      <use xlink:href="#MicrosoftYaHei-33"/>
      <use xlink:href="#MicrosoftYaHei-2e" x="58.642578"/>
      <use xlink:href="#MicrosoftYaHei-30" x="82.714844"/>
     </g>
    </g>
    <g id="patch_46">
     <path d="M 726.464063 115.272812 
L 746.464063 115.272812 
L 746.464063 108.272812 
L 726.464063 108.272812 
z
" style="fill: #d0bbff; stroke: #ffffff; stroke-linejoin: miter"/>
    </g>
    <g id="text_52">
     <!-- 4.0 -->
     <g style="fill: #262626" transform="translate(754.464063 115.272812) scale(0.1 -0.1)">
      <use xlink:href="#MicrosoftYaHei-34"/>
      <use xlink:href="#MicrosoftYaHei-2e" x="58.642578"/>
      <use xlink:href="#MicrosoftYaHei-30" x="82.714844"/>
     </g>
    </g>
    <g id="patch_47">
     <path d="M 726.464063 130.7525 
L 746.464063 130.7525 
L 746.464063 123.7525 
L 726.464063 123.7525 
z
" style="fill: #fffea3; stroke: #ffffff; stroke-linejoin: miter"/>
    </g>
    <g id="text_53">
     <!-- 5.0 -->
     <g style="fill: #262626" transform="translate(754.464063 130.7525) scale(0.1 -0.1)">
      <use xlink:href="#MicrosoftYaHei-35"/>
      <use xlink:href="#MicrosoftYaHei-2e" x="58.642578"/>
      <use xlink:href="#MicrosoftYaHei-30" x="82.714844"/>
     </g>
    </g>
   </g>
  </g>
 </g>
 <defs>
  <clipPath id="p15d2cfb38f">
   <rect x="108" y="51.84" width="669.6" height="326.16"/>
  </clipPath>
 </defs>
</svg>
