<?xml version="1.0" encoding="utf-8" standalone="no"?>
<!DOCTYPE svg PUBLIC "-//W3C//DTD SVG 1.1//EN"
  "http://www.w3.org/Graphics/SVG/1.1/DTD/svg11.dtd">
<svg xmlns:xlink="http://www.w3.org/1999/xlink" width="720pt" height="432pt" viewBox="0 0 720 432" xmlns="http://www.w3.org/2000/svg" version="1.1">
 <metadata>
  <rdf:RDF xmlns:dc="http://purl.org/dc/elements/1.1/" xmlns:cc="http://creativecommons.org/ns#" xmlns:rdf="http://www.w3.org/1999/02/22-rdf-syntax-ns#">
   <cc:Work>
    <dc:type rdf:resource="http://purl.org/dc/dcmitype/StillImage"/>
    <dc:date>2023-06-04T11:41:51.588308</dc:date>
    <dc:format>image/svg+xml</dc:format>
    <dc:creator>
     <cc:Agent>
      <dc:title>Matplotlib v3.7.1, https://matplotlib.org/</dc:title>
     </cc:Agent>
    </dc:creator>
   </cc:Work>
  </rdf:RDF>
 </metadata>
 <defs>
  <style type="text/css">*{stroke-linejoin: round; stroke-linecap: butt}</style>
 </defs>
 <g id="figure_1">
  <g id="patch_1">
   <path d="M 0 432 
L 720 432 
L 720 0 
L 0 0 
L 0 432 
z
" style="fill: none"/>
  </g>
  <g id="axes_1">
   <g id="patch_2">
    <path d="M 90 378 
L 648 378 
L 648 51.84 
L 90 51.84 
z
" style="fill: #eaeaf2"/>
   </g>
   <g id="matplotlib.axis_1">
    <g id="xtick_1">
     <g id="line2d_1">
      <path d="M 146.2949 378 
L 146.2949 51.84 
" clip-path="url(#p649001374d)" style="fill: none; stroke: #ffffff; stroke-width: 0.8; stroke-linecap: round"/>
     </g>
     <g id="text_1">
      <!-- 东北地区 -->
      <g style="fill: #262626" transform="translate(126.2949 392.99375) scale(0.1 -0.1)">
       <defs>
        <path id="MicrosoftYaHei-4e1c" d="M 706 1884 
L 706 2359 
L 1422 4022 
L 194 4022 
L 194 4497 
L 1625 4497 
L 1994 5353 
L 2531 5241 
L 2206 4497 
L 6206 4497 
L 6206 4022 
L 2000 4022 
L 1275 2359 
L 3156 2359 
L 3156 3728 
L 3681 3728 
L 3681 2359 
L 5913 2359 
L 5913 1884 
L 3681 1884 
L 3681 41 
Q 3681 -741 2869 -741 
Q 2456 -741 1931 -734 
Q 1894 -491 1838 -172 
Q 2250 -225 2725 -228 
Q 3156 -231 3156 216 
L 3156 1884 
L 706 1884 
z
M 1619 1509 
L 2038 1191 
Q 1325 353 413 -534 
Q 250 -359 56 -184 
Q 888 603 1619 1509 
z
M 4288 1091 
L 4638 1434 
Q 5500 722 6363 -59 
L 5975 -453 
Q 5119 391 4288 1091 
z
" transform="scale(0.015625)"/>
        <path id="MicrosoftYaHei-5317" d="M 3763 5247 
L 4269 5247 
L 4269 3131 
Q 5122 3569 5863 4091 
L 6175 3641 
Q 5500 3216 4269 2600 
L 4269 303 
Q 4269 -122 4738 -122 
L 5175 -122 
Q 5625 -122 5681 303 
Q 5738 697 5781 1328 
Q 6056 1216 6313 1128 
Q 6250 534 6175 116 
Q 6056 -597 5294 -597 
L 4619 -597 
Q 3763 -597 3763 247 
L 3763 5247 
z
M 81 309 
Q 897 591 2013 1047 
L 2013 3016 
L 213 3016 
L 213 3478 
L 2013 3478 
L 2013 5234 
L 2519 5234 
L 2519 -772 
L 2013 -772 
L 2013 525 
Q 1413 281 281 -184 
L 81 309 
z
" transform="scale(0.015625)"/>
        <path id="MicrosoftYaHei-5730" d="M 3975 5303 
L 4463 5303 
L 4463 3688 
L 5981 4147 
Q 5944 2916 5906 2134 
Q 5869 1291 5231 1284 
Q 4944 1278 4669 1284 
Q 4631 1516 4575 1803 
Q 4875 1766 5094 1766 
Q 5419 1759 5431 2241 
Q 5469 2809 5475 3534 
L 4463 3219 
L 4463 509 
L 3975 509 
L 3975 3069 
L 3031 2775 
L 3031 353 
Q 3031 -134 3563 -134 
L 5094 -134 
Q 5669 -134 5731 328 
Q 5806 728 5856 1259 
Q 6106 1159 6375 1078 
Q 6288 478 6206 103 
Q 6056 -609 5225 -609 
L 3444 -609 
Q 2544 -609 2544 272 
L 2544 2622 
L 2075 2478 
L 1994 2941 
L 2544 3106 
L 2544 4566 
L 3031 4566 
L 3031 3253 
L 3975 3538 
L 3975 5303 
z
M 44 303 
Q 491 447 944 597 
L 944 3091 
L 138 3091 
L 138 3528 
L 944 3528 
L 944 5272 
L 1406 5272 
L 1406 3528 
L 2131 3528 
L 2131 3091 
L 1406 3091 
L 1406 753 
Q 1803 891 2206 1034 
Q 2219 772 2250 572 
Q 1225 203 219 -178 
L 44 303 
z
" transform="scale(0.015625)"/>
        <path id="MicrosoftYaHei-533a" d="M 600 4872 
L 5975 4872 
L 5975 4384 
L 1131 4384 
L 1131 22 
L 6075 22 
L 6075 -453 
L 600 -453 
L 600 4872 
z
M 1613 3697 
L 1963 4028 
Q 2744 3384 3597 2616 
Q 4250 3322 4850 4153 
L 5306 3847 
Q 4650 2997 3975 2272 
Q 4753 1563 5588 753 
L 5156 316 
Q 4400 1106 3600 1878 
Q 2697 963 1763 266 
Q 1613 459 1363 672 
Q 2344 1341 3228 2231 
Q 2444 2972 1613 3697 
z
" transform="scale(0.015625)"/>
       </defs>
       <use xlink:href="#MicrosoftYaHei-4e1c"/>
       <use xlink:href="#MicrosoftYaHei-5317" x="100"/>
       <use xlink:href="#MicrosoftYaHei-5730" x="200"/>
       <use xlink:href="#MicrosoftYaHei-533a" x="300"/>
      </g>
     </g>
    </g>
    <g id="xtick_2">
     <g id="line2d_2">
      <path d="M 220.529933 378 
L 220.529933 51.84 
" clip-path="url(#p649001374d)" style="fill: none; stroke: #ffffff; stroke-width: 0.8; stroke-linecap: round"/>
     </g>
     <g id="text_2">
      <!-- 华东地区 -->
      <g style="fill: #262626" transform="translate(200.529933 392.99375) scale(0.1 -0.1)">
       <defs>
        <path id="MicrosoftYaHei-534e" d="M 1950 3153 
Q 2756 3366 3456 3663 
L 3456 5234 
L 3944 5234 
L 3944 3884 
Q 4859 4338 5569 4947 
L 5900 4572 
Q 5063 3922 3944 3384 
L 3944 2872 
Q 3944 2453 4463 2453 
L 5125 2453 
Q 5600 2453 5669 2859 
Q 5738 3209 5756 3584 
Q 6063 3453 6244 3397 
Q 6188 2991 6125 2697 
Q 6006 2009 5231 2009 
L 4288 2009 
Q 3456 2009 3456 2784 
L 3456 3163 
Q 2875 2909 2225 2684 
Q 2113 2916 1950 3153 
z
M 181 1178 
L 2944 1178 
L 2944 2009 
L 3444 2009 
L 3444 1178 
L 6213 1178 
L 6213 728 
L 3444 728 
L 3444 -866 
L 2944 -866 
L 2944 728 
L 181 728 
L 181 1178 
z
M 138 3434 
Q 1250 4209 1906 5347 
L 2350 5122 
Q 2075 4678 1756 4281 
L 1756 1841 
L 1269 1841 
L 1269 3734 
Q 856 3316 381 2966 
Q 269 3203 138 3434 
z
" transform="scale(0.015625)"/>
       </defs>
       <use xlink:href="#MicrosoftYaHei-534e"/>
       <use xlink:href="#MicrosoftYaHei-4e1c" x="100"/>
       <use xlink:href="#MicrosoftYaHei-5730" x="200"/>
       <use xlink:href="#MicrosoftYaHei-533a" x="300"/>
      </g>
     </g>
    </g>
    <g id="xtick_3">
     <g id="line2d_3">
      <path d="M 294.764967 378 
L 294.764967 51.84 
" clip-path="url(#p649001374d)" style="fill: none; stroke: #ffffff; stroke-width: 0.8; stroke-linecap: round"/>
     </g>
     <g id="text_3">
      <!-- 华中地区 -->
      <g style="fill: #262626" transform="translate(274.764967 392.99375) scale(0.1 -0.1)">
       <defs>
        <path id="MicrosoftYaHei-4e2d" d="M 525 3972 
L 2931 3972 
L 2931 5334 
L 3469 5334 
L 3469 3972 
L 5900 3972 
L 5900 1122 
L 5388 1122 
L 5388 1459 
L 3469 1459 
L 3469 -866 
L 2931 -866 
L 2931 1459 
L 1038 1459 
L 1038 1122 
L 525 1122 
L 525 3972 
z
M 5388 3509 
L 3469 3509 
L 3469 1922 
L 5388 1922 
L 5388 3509 
z
M 1038 1922 
L 2931 1922 
L 2931 3509 
L 1038 3509 
L 1038 1922 
z
" transform="scale(0.015625)"/>
       </defs>
       <use xlink:href="#MicrosoftYaHei-534e"/>
       <use xlink:href="#MicrosoftYaHei-4e2d" x="100"/>
       <use xlink:href="#MicrosoftYaHei-5730" x="200"/>
       <use xlink:href="#MicrosoftYaHei-533a" x="300"/>
      </g>
     </g>
    </g>
    <g id="xtick_4">
     <g id="line2d_4">
      <path d="M 369 378 
L 369 51.84 
" clip-path="url(#p649001374d)" style="fill: none; stroke: #ffffff; stroke-width: 0.8; stroke-linecap: round"/>
     </g>
     <g id="text_4">
      <!-- 华北地区 -->
      <g style="fill: #262626" transform="translate(349 392.99375) scale(0.1 -0.1)">
       <use xlink:href="#MicrosoftYaHei-534e"/>
       <use xlink:href="#MicrosoftYaHei-5317" x="100"/>
       <use xlink:href="#MicrosoftYaHei-5730" x="200"/>
       <use xlink:href="#MicrosoftYaHei-533a" x="300"/>
      </g>
     </g>
    </g>
    <g id="xtick_5">
     <g id="line2d_5">
      <path d="M 443.235033 378 
L 443.235033 51.84 
" clip-path="url(#p649001374d)" style="fill: none; stroke: #ffffff; stroke-width: 0.8; stroke-linecap: round"/>
     </g>
     <g id="text_5">
      <!-- 华南地区 -->
      <g style="fill: #262626" transform="translate(423.235033 392.99375) scale(0.1 -0.1)">
       <defs>
        <path id="MicrosoftYaHei-5357" d="M 163 4553 
L 2969 4553 
L 2969 5259 
L 3481 5259 
L 3481 4553 
L 6219 4553 
L 6219 4109 
L 3481 4109 
L 3481 3472 
L 5875 3472 
L 5875 -72 
Q 5875 -803 5150 -809 
Q 4738 -816 4119 -791 
Q 4081 -559 4025 -278 
Q 4644 -316 4969 -316 
Q 5381 -316 5381 47 
L 5381 3034 
L 1056 3034 
L 1056 -834 
L 563 -834 
L 563 3472 
L 2969 3472 
L 2969 4109 
L 163 4109 
L 163 4553 
z
M 1300 909 
L 2975 909 
L 2975 1591 
L 1500 1591 
L 1500 2003 
L 3463 2003 
Q 3763 2453 4069 2991 
L 4531 2734 
Q 4225 2316 3975 2003 
L 4938 2003 
L 4938 1591 
L 3463 1591 
L 3463 909 
L 5138 909 
L 5138 497 
L 3463 497 
L 3463 -703 
L 2975 -703 
L 2975 497 
L 1300 497 
L 1300 909 
z
M 1913 2741 
L 2281 2991 
Q 2600 2622 2863 2272 
L 2450 2016 
Q 2200 2378 1913 2741 
z
" transform="scale(0.015625)"/>
       </defs>
       <use xlink:href="#MicrosoftYaHei-534e"/>
       <use xlink:href="#MicrosoftYaHei-5357" x="100"/>
       <use xlink:href="#MicrosoftYaHei-5730" x="200"/>
       <use xlink:href="#MicrosoftYaHei-533a" x="300"/>
      </g>
     </g>
    </g>
    <g id="xtick_6">
     <g id="line2d_6">
      <path d="M 517.470067 378 
L 517.470067 51.84 
" clip-path="url(#p649001374d)" style="fill: none; stroke: #ffffff; stroke-width: 0.8; stroke-linecap: round"/>
     </g>
     <g id="text_6">
      <!-- 西北地区 -->
      <g style="fill: #262626" transform="translate(497.470067 392.99375) scale(0.1 -0.1)">
       <defs>
        <path id="MicrosoftYaHei-897f" d="M 175 4916 
L 6250 4916 
L 6250 4466 
L 4231 4466 
L 4231 3541 
L 6000 3541 
L 6000 -847 
L 5500 -847 
L 5500 -459 
L 1050 -459 
L 1050 -847 
L 550 -847 
L 550 3541 
L 2256 3541 
Q 2269 3984 2275 4466 
L 175 4466 
L 175 4916 
z
M 4531 1528 
L 5500 1528 
L 5500 3091 
L 4231 3091 
L 4231 1841 
Q 4231 1528 4531 1528 
z
M 2756 3541 
L 3738 3541 
L 3738 4466 
L 2769 4466 
Q 2763 3966 2756 3541 
z
M 5500 -9 
L 5500 1078 
L 4344 1078 
Q 3738 1078 3738 1766 
L 3738 3091 
L 2738 3091 
Q 2675 1628 1525 778 
Q 1369 972 1150 1178 
Q 2163 1841 2238 3091 
L 1050 3091 
L 1050 -9 
L 5500 -9 
z
" transform="scale(0.015625)"/>
       </defs>
       <use xlink:href="#MicrosoftYaHei-897f"/>
       <use xlink:href="#MicrosoftYaHei-5317" x="100"/>
       <use xlink:href="#MicrosoftYaHei-5730" x="200"/>
       <use xlink:href="#MicrosoftYaHei-533a" x="300"/>
      </g>
     </g>
    </g>
    <g id="xtick_7">
     <g id="line2d_7">
      <path d="M 591.7051 378 
L 591.7051 51.84 
" clip-path="url(#p649001374d)" style="fill: none; stroke: #ffffff; stroke-width: 0.8; stroke-linecap: round"/>
     </g>
     <g id="text_7">
      <!-- 西南地区 -->
      <g style="fill: #262626" transform="translate(571.7051 392.99375) scale(0.1 -0.1)">
       <use xlink:href="#MicrosoftYaHei-897f"/>
       <use xlink:href="#MicrosoftYaHei-5357" x="100"/>
       <use xlink:href="#MicrosoftYaHei-5730" x="200"/>
       <use xlink:href="#MicrosoftYaHei-533a" x="300"/>
      </g>
     </g>
    </g>
   </g>
   <g id="matplotlib.axis_2">
    <g id="ytick_1">
     <g id="line2d_8">
      <path d="M 90 378 
L 648 378 
" clip-path="url(#p649001374d)" style="fill: none; stroke: #ffffff; stroke-width: 0.8; stroke-linecap: round"/>
     </g>
     <g id="text_8">
      <!-- 0.0 -->
      <g style="fill: #262626" transform="translate(68.864063 381.996875) scale(0.1 -0.1)">
       <defs>
        <path id="MicrosoftYaHei-30" d="M 284 2325 
Q 284 3606 709 4264 
Q 1134 4922 1941 4922 
Q 3478 4922 3478 2441 
Q 3478 1216 3045 567 
Q 2613 -81 1831 -81 
Q 1094 -81 689 534 
Q 284 1150 284 2325 
z
M 909 2353 
Q 909 425 1888 425 
Q 2850 425 2850 2384 
Q 2850 4413 1906 4413 
Q 909 4413 909 2353 
z
" transform="scale(0.015625)"/>
        <path id="MicrosoftYaHei-2e" d="M 372 322 
Q 372 491 487 606 
Q 603 722 775 722 
Q 950 722 1065 605 
Q 1181 488 1181 322 
Q 1181 159 1065 42 
Q 950 -75 772 -75 
Q 600 -75 486 42 
Q 372 159 372 322 
z
" transform="scale(0.015625)"/>
       </defs>
       <use xlink:href="#MicrosoftYaHei-30"/>
       <use xlink:href="#MicrosoftYaHei-2e" x="58.642578"/>
       <use xlink:href="#MicrosoftYaHei-30" x="82.714844"/>
      </g>
     </g>
    </g>
    <g id="ytick_2">
     <g id="line2d_9">
      <path d="M 90 312.768 
L 648 312.768 
" clip-path="url(#p649001374d)" style="fill: none; stroke: #ffffff; stroke-width: 0.8; stroke-linecap: round"/>
     </g>
     <g id="text_9">
      <!-- 0.2 -->
      <g style="fill: #262626" transform="translate(68.864063 316.764875) scale(0.1 -0.1)">
       <defs>
        <path id="MicrosoftYaHei-32" d="M 2666 3572 
Q 2666 3963 2419 4186 
Q 2172 4409 1747 4409 
Q 1447 4409 1140 4256 
Q 834 4103 569 3819 
L 569 4413 
Q 806 4659 1107 4790 
Q 1409 4922 1816 4922 
Q 2472 4922 2872 4570 
Q 3272 4219 3272 3619 
Q 3272 3084 3026 2693 
Q 2781 2303 2188 1894 
Q 1581 1475 1376 1294 
Q 1172 1113 1090 947 
Q 1009 781 1009 544 
L 3416 544 
L 3416 0 
L 372 0 
L 372 241 
Q 372 659 486 951 
Q 600 1244 862 1520 
Q 1125 1797 1681 2184 
Q 2250 2584 2458 2886 
Q 2666 3188 2666 3572 
z
" transform="scale(0.015625)"/>
       </defs>
       <use xlink:href="#MicrosoftYaHei-30"/>
       <use xlink:href="#MicrosoftYaHei-2e" x="58.642578"/>
       <use xlink:href="#MicrosoftYaHei-32" x="82.714844"/>
      </g>
     </g>
    </g>
    <g id="ytick_3">
     <g id="line2d_10">
      <path d="M 90 247.536 
L 648 247.536 
" clip-path="url(#p649001374d)" style="fill: none; stroke: #ffffff; stroke-width: 0.8; stroke-linecap: round"/>
     </g>
     <g id="text_10">
      <!-- 0.4 -->
      <g style="fill: #262626" transform="translate(68.864063 251.532875) scale(0.1 -0.1)">
       <defs>
        <path id="MicrosoftYaHei-34" d="M 2906 4841 
L 2906 1644 
L 3631 1644 
L 3631 1138 
L 2906 1138 
L 2906 0 
L 2313 0 
L 2313 1138 
L 53 1138 
L 53 1616 
Q 656 2294 1265 3178 
Q 1875 4063 2272 4841 
L 2906 4841 
z
M 741 1644 
L 2313 1644 
L 2313 3950 
Q 1988 3366 1616 2817 
Q 1244 2269 741 1644 
z
" transform="scale(0.015625)"/>
       </defs>
       <use xlink:href="#MicrosoftYaHei-30"/>
       <use xlink:href="#MicrosoftYaHei-2e" x="58.642578"/>
       <use xlink:href="#MicrosoftYaHei-34" x="82.714844"/>
      </g>
     </g>
    </g>
    <g id="ytick_4">
     <g id="line2d_11">
      <path d="M 90 182.304 
L 648 182.304 
" clip-path="url(#p649001374d)" style="fill: none; stroke: #ffffff; stroke-width: 0.8; stroke-linecap: round"/>
     </g>
     <g id="text_11">
      <!-- 0.6 -->
      <g style="fill: #262626" transform="translate(68.864063 186.300875) scale(0.1 -0.1)">
       <defs>
        <path id="MicrosoftYaHei-36" d="M 3181 4219 
Q 2803 4413 2391 4413 
Q 1763 4413 1381 3866 
Q 1000 3319 994 2372 
L 1009 2372 
Q 1353 3038 2106 3038 
Q 2734 3038 3109 2628 
Q 3484 2219 3484 1541 
Q 3484 831 3051 375 
Q 2619 -81 1947 -81 
Q 1209 -81 789 495 
Q 369 1072 369 2131 
Q 369 3413 920 4167 
Q 1472 4922 2372 4922 
Q 2888 4922 3181 4781 
L 3181 4219 
z
M 1031 1584 
Q 1031 1106 1286 765 
Q 1541 425 1963 425 
Q 2363 425 2613 719 
Q 2863 1013 2863 1475 
Q 2863 1975 2627 2253 
Q 2391 2531 1956 2531 
Q 1544 2531 1287 2250 
Q 1031 1969 1031 1584 
z
" transform="scale(0.015625)"/>
       </defs>
       <use xlink:href="#MicrosoftYaHei-30"/>
       <use xlink:href="#MicrosoftYaHei-2e" x="58.642578"/>
       <use xlink:href="#MicrosoftYaHei-36" x="82.714844"/>
      </g>
     </g>
    </g>
    <g id="ytick_5">
     <g id="line2d_12">
      <path d="M 90 117.072 
L 648 117.072 
" clip-path="url(#p649001374d)" style="fill: none; stroke: #ffffff; stroke-width: 0.8; stroke-linecap: round"/>
     </g>
     <g id="text_12">
      <!-- 0.8 -->
      <g style="fill: #262626" transform="translate(68.864063 121.068875) scale(0.1 -0.1)">
       <defs>
        <path id="MicrosoftYaHei-38" d="M 306 1350 
Q 306 1769 556 2122 
Q 806 2475 1200 2625 
Q 884 2803 700 3081 
Q 516 3359 516 3684 
Q 516 4028 692 4312 
Q 869 4597 1183 4759 
Q 1497 4922 1875 4922 
Q 2256 4922 2572 4761 
Q 2888 4600 3063 4315 
Q 3238 4031 3238 3684 
Q 3238 3366 3058 3086 
Q 2878 2806 2559 2625 
Q 2953 2472 3200 2119 
Q 3447 1766 3447 1350 
Q 3447 938 3250 611 
Q 3053 284 2690 103 
Q 2328 -78 1875 -78 
Q 1425 -78 1065 103 
Q 706 284 506 612 
Q 306 941 306 1350 
z
M 906 1378 
Q 906 947 1172 687 
Q 1438 428 1878 428 
Q 2309 428 2582 692 
Q 2856 956 2856 1378 
Q 2856 1778 2579 2051 
Q 2303 2325 1878 2325 
Q 1456 2325 1181 2058 
Q 906 1791 906 1378 
z
M 1081 3634 
Q 1081 3309 1312 3076 
Q 1544 2844 1878 2844 
Q 2206 2844 2445 3078 
Q 2684 3313 2684 3634 
Q 2684 3963 2454 4191 
Q 2225 4419 1878 4419 
Q 1534 4419 1307 4195 
Q 1081 3972 1081 3634 
z
" transform="scale(0.015625)"/>
       </defs>
       <use xlink:href="#MicrosoftYaHei-30"/>
       <use xlink:href="#MicrosoftYaHei-2e" x="58.642578"/>
       <use xlink:href="#MicrosoftYaHei-38" x="82.714844"/>
      </g>
     </g>
    </g>
    <g id="ytick_6">
     <g id="line2d_13">
      <path d="M 90 51.84 
L 648 51.84 
" clip-path="url(#p649001374d)" style="fill: none; stroke: #ffffff; stroke-width: 0.8; stroke-linecap: round"/>
     </g>
     <g id="text_13">
      <!-- 1.0 -->
      <g style="fill: #262626" transform="translate(68.864063 55.836875) scale(0.1 -0.1)">
       <defs>
        <path id="MicrosoftYaHei-31" d="M 1781 0 
L 1781 4141 
Q 1638 3997 1295 3819 
Q 953 3641 663 3569 
L 663 4169 
Q 1047 4275 1484 4508 
Q 1922 4741 2156 4947 
L 2388 4947 
L 2388 0 
L 1781 0 
z
" transform="scale(0.015625)"/>
       </defs>
       <use xlink:href="#MicrosoftYaHei-31"/>
       <use xlink:href="#MicrosoftYaHei-2e" x="58.642578"/>
       <use xlink:href="#MicrosoftYaHei-30" x="82.714844"/>
      </g>
     </g>
    </g>
   </g>
   <g id="patch_3">
    <path d="M 115.363636 378 
L 127.736142 378 
L 127.736142 370.758386 
L 115.363636 370.758386 
z
" clip-path="url(#p649001374d)" style="fill: url(#h942149b3db); stroke: #ffffff; stroke-linejoin: miter"/>
   </g>
   <g id="patch_4">
    <path d="M 189.59867 378 
L 201.971175 378 
L 201.971175 368.869131 
L 189.59867 368.869131 
z
" clip-path="url(#p649001374d)" style="fill: url(#h942149b3db); stroke: #ffffff; stroke-linejoin: miter"/>
   </g>
   <g id="patch_5">
    <path d="M 263.833703 378 
L 276.206208 378 
L 276.206208 365.372718 
L 263.833703 365.372718 
z
" clip-path="url(#p649001374d)" style="fill: url(#h942149b3db); stroke: #ffffff; stroke-linejoin: miter"/>
   </g>
   <g id="patch_6">
    <path d="M 338.068736 378 
L 350.441242 378 
L 350.441242 364.766778 
L 338.068736 364.766778 
z
" clip-path="url(#p649001374d)" style="fill: url(#h942149b3db); stroke: #ffffff; stroke-linejoin: miter"/>
   </g>
   <g id="patch_7">
    <path d="M 412.303769 378 
L 424.676275 378 
L 424.676275 370.835327 
L 412.303769 370.835327 
z
" clip-path="url(#p649001374d)" style="fill: url(#h942149b3db); stroke: #ffffff; stroke-linejoin: miter"/>
   </g>
   <g id="patch_8">
    <path d="M 486.538803 378 
L 498.911308 378 
L 498.911308 366.15732 
L 486.538803 366.15732 
z
" clip-path="url(#p649001374d)" style="fill: url(#h942149b3db); stroke: #ffffff; stroke-linejoin: miter"/>
   </g>
   <g id="patch_9">
    <path d="M 560.773836 378 
L 573.146341 378 
L 573.146341 363.785155 
L 560.773836 363.785155 
z
" clip-path="url(#p649001374d)" style="fill: url(#h942149b3db); stroke: #ffffff; stroke-linejoin: miter"/>
   </g>
   <g id="patch_10">
    <path d="M 127.736142 378 
L 140.108647 378 
L 140.108647 375.24129 
L 127.736142 375.24129 
z
" clip-path="url(#p649001374d)" style="fill: url(#h9546a8ccac); stroke: #ffffff; stroke-linejoin: miter"/>
   </g>
   <g id="patch_11">
    <path d="M 201.971175 378 
L 214.343681 378 
L 214.343681 371.778477 
L 201.971175 371.778477 
z
" clip-path="url(#p649001374d)" style="fill: url(#h9546a8ccac); stroke: #ffffff; stroke-linejoin: miter"/>
   </g>
   <g id="patch_12">
    <path d="M 276.206208 378 
L 288.578714 378 
L 288.578714 372.716244 
L 276.206208 372.716244 
z
" clip-path="url(#p649001374d)" style="fill: url(#h9546a8ccac); stroke: #ffffff; stroke-linejoin: miter"/>
   </g>
   <g id="patch_13">
    <path d="M 350.441242 378 
L 362.813747 378 
L 362.813747 371.059045 
L 350.441242 371.059045 
z
" clip-path="url(#p649001374d)" style="fill: url(#h9546a8ccac); stroke: #ffffff; stroke-linejoin: miter"/>
   </g>
   <g id="patch_14">
    <path d="M 424.676275 378 
L 437.04878 378 
L 437.04878 375.187699 
L 424.676275 375.187699 
z
" clip-path="url(#p649001374d)" style="fill: url(#h9546a8ccac); stroke: #ffffff; stroke-linejoin: miter"/>
   </g>
   <g id="patch_15">
    <path d="M 498.911308 378 
L 511.283814 378 
L 511.283814 374.796183 
L 498.911308 374.796183 
z
" clip-path="url(#p649001374d)" style="fill: url(#h9546a8ccac); stroke: #ffffff; stroke-linejoin: miter"/>
   </g>
   <g id="patch_16">
    <path d="M 573.146341 378 
L 585.518847 378 
L 585.518847 370.557673 
L 573.146341 370.557673 
z
" clip-path="url(#p649001374d)" style="fill: url(#h9546a8ccac); stroke: #ffffff; stroke-linejoin: miter"/>
   </g>
   <g id="patch_17">
    <path d="M 140.108647 378 
L 152.481153 378 
L 152.481153 357.252201 
L 140.108647 357.252201 
z
" clip-path="url(#p649001374d)" style="fill: url(#h23604cf603); stroke: #ffffff; stroke-linejoin: miter"/>
   </g>
   <g id="patch_18">
    <path d="M 214.343681 378 
L 226.716186 378 
L 226.716186 348.951305 
L 214.343681 348.951305 
z
" clip-path="url(#p649001374d)" style="fill: url(#h23604cf603); stroke: #ffffff; stroke-linejoin: miter"/>
   </g>
   <g id="patch_19">
    <path d="M 288.578714 378 
L 300.95122 378 
L 300.95122 357.581417 
L 288.578714 357.581417 
z
" clip-path="url(#p649001374d)" style="fill: url(#h23604cf603); stroke: #ffffff; stroke-linejoin: miter"/>
   </g>
   <g id="patch_20">
    <path d="M 362.813747 378 
L 375.186253 378 
L 375.186253 352.830931 
L 362.813747 352.830931 
z
" clip-path="url(#p649001374d)" style="fill: url(#h23604cf603); stroke: #ffffff; stroke-linejoin: miter"/>
   </g>
   <g id="patch_21">
    <path d="M 437.04878 378 
L 449.421286 378 
L 449.421286 352.756247 
L 437.04878 352.756247 
z
" clip-path="url(#p649001374d)" style="fill: url(#h23604cf603); stroke: #ffffff; stroke-linejoin: miter"/>
   </g>
   <g id="patch_22">
    <path d="M 511.283814 378 
L 523.656319 378 
L 523.656319 364.040512 
L 511.283814 364.040512 
z
" clip-path="url(#p649001374d)" style="fill: url(#h23604cf603); stroke: #ffffff; stroke-linejoin: miter"/>
   </g>
   <g id="patch_23">
    <path d="M 585.518847 378 
L 597.891353 378 
L 597.891353 348.45396 
L 585.518847 348.45396 
z
" clip-path="url(#p649001374d)" style="fill: url(#h23604cf603); stroke: #ffffff; stroke-linejoin: miter"/>
   </g>
   <g id="patch_24">
    <path d="M 152.481153 378 
L 164.853659 378 
L 164.853659 315.066925 
L 152.481153 315.066925 
z
" clip-path="url(#p649001374d)" style="fill: url(#h08d69b31c5); stroke: #ffffff; stroke-linejoin: miter"/>
   </g>
   <g id="patch_25">
    <path d="M 226.716186 378 
L 239.088692 378 
L 239.088692 301.685632 
L 226.716186 301.685632 
z
" clip-path="url(#p649001374d)" style="fill: url(#h08d69b31c5); stroke: #ffffff; stroke-linejoin: miter"/>
   </g>
   <g id="patch_26">
    <path d="M 300.95122 378 
L 313.323725 378 
L 313.323725 324.983328 
L 300.95122 324.983328 
z
" clip-path="url(#p649001374d)" style="fill: url(#h08d69b31c5); stroke: #ffffff; stroke-linejoin: miter"/>
   </g>
   <g id="patch_27">
    <path d="M 375.186253 378 
L 387.558758 378 
L 387.558758 312.87179 
L 375.186253 312.87179 
z
" clip-path="url(#p649001374d)" style="fill: url(#h08d69b31c5); stroke: #ffffff; stroke-linejoin: miter"/>
   </g>
   <g id="patch_28">
    <path d="M 449.421286 378 
L 461.793792 378 
L 461.793792 299.255561 
L 449.421286 299.255561 
z
" clip-path="url(#p649001374d)" style="fill: url(#h08d69b31c5); stroke: #ffffff; stroke-linejoin: miter"/>
   </g>
   <g id="patch_29">
    <path d="M 523.656319 378 
L 536.028825 378 
L 536.028825 325.423077 
L 523.656319 325.423077 
z
" clip-path="url(#p649001374d)" style="fill: url(#h08d69b31c5); stroke: #ffffff; stroke-linejoin: miter"/>
   </g>
   <g id="patch_30">
    <path d="M 597.891353 378 
L 610.263858 378 
L 610.263858 309.270106 
L 597.891353 309.270106 
z
" clip-path="url(#p649001374d)" style="fill: url(#h08d69b31c5); stroke: #ffffff; stroke-linejoin: miter"/>
   </g>
   <g id="patch_31">
    <path d="M 164.853659 378 
L 177.226164 378 
L 177.226164 145.521198 
L 164.853659 145.521198 
z
" clip-path="url(#p649001374d)" style="fill: url(#h4748570f0f); stroke: #ffffff; stroke-linejoin: miter"/>
   </g>
   <g id="patch_32">
    <path d="M 239.088692 378 
L 251.461197 378 
L 251.461197 172.555455 
L 239.088692 172.555455 
z
" clip-path="url(#p649001374d)" style="fill: url(#h4748570f0f); stroke: #ffffff; stroke-linejoin: miter"/>
   </g>
   <g id="patch_33">
    <path d="M 313.323725 378 
L 325.696231 378 
L 325.696231 143.186293 
L 313.323725 143.186293 
z
" clip-path="url(#p649001374d)" style="fill: url(#h4748570f0f); stroke: #ffffff; stroke-linejoin: miter"/>
   </g>
   <g id="patch_34">
    <path d="M 387.558758 378 
L 399.931264 378 
L 399.931264 162.311456 
L 387.558758 162.311456 
z
" clip-path="url(#p649001374d)" style="fill: url(#h4748570f0f); stroke: #ffffff; stroke-linejoin: miter"/>
   </g>
   <g id="patch_35">
    <path d="M 461.793792 378 
L 474.166297 378 
L 474.166297 165.805165 
L 461.793792 165.805165 
z
" clip-path="url(#p649001374d)" style="fill: url(#h4748570f0f); stroke: #ffffff; stroke-linejoin: miter"/>
   </g>
   <g id="patch_36">
    <path d="M 536.028825 378 
L 548.40133 378 
L 548.40133 133.422908 
L 536.028825 133.422908 
z
" clip-path="url(#p649001374d)" style="fill: url(#h4748570f0f); stroke: #ffffff; stroke-linejoin: miter"/>
   </g>
   <g id="patch_37">
    <path d="M 610.263858 378 
L 622.636364 378 
L 622.636364 171.773107 
L 610.263858 171.773107 
z
" clip-path="url(#p649001374d)" style="fill: url(#h4748570f0f); stroke: #ffffff; stroke-linejoin: miter"/>
   </g>
   <g id="patch_38">
    <path d="M 90 378 
L 90 51.84 
" style="fill: none; stroke: #ffffff; stroke-width: 0.8; stroke-linejoin: miter; stroke-linecap: square"/>
   </g>
   <g id="patch_39">
    <path d="M 648 378 
L 648 51.84 
" style="fill: none; stroke: #ffffff; stroke-width: 0.8; stroke-linejoin: miter; stroke-linecap: square"/>
   </g>
   <g id="patch_40">
    <path d="M 90 378 
L 648 378 
" style="fill: none; stroke: #ffffff; stroke-width: 0.8; stroke-linejoin: miter; stroke-linecap: square"/>
   </g>
   <g id="patch_41">
    <path d="M 90 51.84 
L 648 51.84 
" style="fill: none; stroke: #ffffff; stroke-width: 0.8; stroke-linejoin: miter; stroke-linecap: square"/>
   </g>
   <g id="text_14">
    <!-- 0.02 -->
    <g style="fill: #262626" transform="translate(114.549889 367.496786) scale(0.07 -0.07)">
     <use xlink:href="#MicrosoftYaHei-30"/>
     <use xlink:href="#MicrosoftYaHei-2e" x="58.642578"/>
     <use xlink:href="#MicrosoftYaHei-30" x="82.714844"/>
     <use xlink:href="#MicrosoftYaHei-32" x="141.357422"/>
    </g>
   </g>
   <g id="text_15">
    <!-- 0.03 -->
    <g style="fill: #262626" transform="translate(188.784922 365.607531) scale(0.07 -0.07)">
     <defs>
      <path id="MicrosoftYaHei-33" d="M 447 809 
Q 944 425 1569 425 
Q 2069 425 2361 670 
Q 2653 916 2653 1328 
Q 2653 2247 1338 2247 
L 934 2247 
L 934 2753 
L 1319 2753 
Q 2484 2753 2484 3616 
Q 2484 4413 1594 4413 
Q 1084 4413 634 4069 
L 634 4647 
Q 1109 4922 1744 4922 
Q 2363 4922 2738 4598 
Q 3113 4275 3113 3759 
Q 3113 2809 2144 2538 
L 2144 2525 
Q 2669 2469 2973 2155 
Q 3278 1841 3278 1372 
Q 3278 719 2808 319 
Q 2338 -81 1556 -81 
Q 869 -81 447 175 
L 447 809 
z
" transform="scale(0.015625)"/>
     </defs>
     <use xlink:href="#MicrosoftYaHei-30"/>
     <use xlink:href="#MicrosoftYaHei-2e" x="58.642578"/>
     <use xlink:href="#MicrosoftYaHei-30" x="82.714844"/>
     <use xlink:href="#MicrosoftYaHei-33" x="141.357422"/>
    </g>
   </g>
   <g id="text_16">
    <!-- 0.04 -->
    <g style="fill: #262626" transform="translate(263.019956 362.111118) scale(0.07 -0.07)">
     <use xlink:href="#MicrosoftYaHei-30"/>
     <use xlink:href="#MicrosoftYaHei-2e" x="58.642578"/>
     <use xlink:href="#MicrosoftYaHei-30" x="82.714844"/>
     <use xlink:href="#MicrosoftYaHei-34" x="141.357422"/>
    </g>
   </g>
   <g id="text_17">
    <!-- 0.04 -->
    <g style="fill: #262626" transform="translate(337.254989 361.505178) scale(0.07 -0.07)">
     <use xlink:href="#MicrosoftYaHei-30"/>
     <use xlink:href="#MicrosoftYaHei-2e" x="58.642578"/>
     <use xlink:href="#MicrosoftYaHei-30" x="82.714844"/>
     <use xlink:href="#MicrosoftYaHei-34" x="141.357422"/>
    </g>
   </g>
   <g id="text_18">
    <!-- 0.02 -->
    <g style="fill: #262626" transform="translate(411.490022 367.573727) scale(0.07 -0.07)">
     <use xlink:href="#MicrosoftYaHei-30"/>
     <use xlink:href="#MicrosoftYaHei-2e" x="58.642578"/>
     <use xlink:href="#MicrosoftYaHei-30" x="82.714844"/>
     <use xlink:href="#MicrosoftYaHei-32" x="141.357422"/>
    </g>
   </g>
   <g id="text_19">
    <!-- 0.04 -->
    <g style="fill: #262626" transform="translate(485.725055 362.89572) scale(0.07 -0.07)">
     <use xlink:href="#MicrosoftYaHei-30"/>
     <use xlink:href="#MicrosoftYaHei-2e" x="58.642578"/>
     <use xlink:href="#MicrosoftYaHei-30" x="82.714844"/>
     <use xlink:href="#MicrosoftYaHei-34" x="141.357422"/>
    </g>
   </g>
   <g id="text_20">
    <!-- 0.04 -->
    <g style="fill: #262626" transform="translate(559.960089 360.523555) scale(0.07 -0.07)">
     <use xlink:href="#MicrosoftYaHei-30"/>
     <use xlink:href="#MicrosoftYaHei-2e" x="58.642578"/>
     <use xlink:href="#MicrosoftYaHei-30" x="82.714844"/>
     <use xlink:href="#MicrosoftYaHei-34" x="141.357422"/>
    </g>
   </g>
   <g id="text_21">
    <!-- 0.01 -->
    <g style="fill: #262626" transform="translate(126.922395 371.97969) scale(0.07 -0.07)">
     <use xlink:href="#MicrosoftYaHei-30"/>
     <use xlink:href="#MicrosoftYaHei-2e" x="58.642578"/>
     <use xlink:href="#MicrosoftYaHei-30" x="82.714844"/>
     <use xlink:href="#MicrosoftYaHei-31" x="141.357422"/>
    </g>
   </g>
   <g id="text_22">
    <!-- 0.02 -->
    <g style="fill: #262626" transform="translate(201.157428 368.516877) scale(0.07 -0.07)">
     <use xlink:href="#MicrosoftYaHei-30"/>
     <use xlink:href="#MicrosoftYaHei-2e" x="58.642578"/>
     <use xlink:href="#MicrosoftYaHei-30" x="82.714844"/>
     <use xlink:href="#MicrosoftYaHei-32" x="141.357422"/>
    </g>
   </g>
   <g id="text_23">
    <!-- 0.02 -->
    <g style="fill: #262626" transform="translate(275.392461 369.454644) scale(0.07 -0.07)">
     <use xlink:href="#MicrosoftYaHei-30"/>
     <use xlink:href="#MicrosoftYaHei-2e" x="58.642578"/>
     <use xlink:href="#MicrosoftYaHei-30" x="82.714844"/>
     <use xlink:href="#MicrosoftYaHei-32" x="141.357422"/>
    </g>
   </g>
   <g id="text_24">
    <!-- 0.02 -->
    <g style="fill: #262626" transform="translate(349.627494 367.797445) scale(0.07 -0.07)">
     <use xlink:href="#MicrosoftYaHei-30"/>
     <use xlink:href="#MicrosoftYaHei-2e" x="58.642578"/>
     <use xlink:href="#MicrosoftYaHei-30" x="82.714844"/>
     <use xlink:href="#MicrosoftYaHei-32" x="141.357422"/>
    </g>
   </g>
   <g id="text_25">
    <!-- 0.01 -->
    <g style="fill: #262626" transform="translate(423.862528 371.926099) scale(0.07 -0.07)">
     <use xlink:href="#MicrosoftYaHei-30"/>
     <use xlink:href="#MicrosoftYaHei-2e" x="58.642578"/>
     <use xlink:href="#MicrosoftYaHei-30" x="82.714844"/>
     <use xlink:href="#MicrosoftYaHei-31" x="141.357422"/>
    </g>
   </g>
   <g id="text_26">
    <!-- 0.01 -->
    <g style="fill: #262626" transform="translate(498.097561 371.534583) scale(0.07 -0.07)">
     <use xlink:href="#MicrosoftYaHei-30"/>
     <use xlink:href="#MicrosoftYaHei-2e" x="58.642578"/>
     <use xlink:href="#MicrosoftYaHei-30" x="82.714844"/>
     <use xlink:href="#MicrosoftYaHei-31" x="141.357422"/>
    </g>
   </g>
   <g id="text_27">
    <!-- 0.02 -->
    <g style="fill: #262626" transform="translate(572.332594 367.296073) scale(0.07 -0.07)">
     <use xlink:href="#MicrosoftYaHei-30"/>
     <use xlink:href="#MicrosoftYaHei-2e" x="58.642578"/>
     <use xlink:href="#MicrosoftYaHei-30" x="82.714844"/>
     <use xlink:href="#MicrosoftYaHei-32" x="141.357422"/>
    </g>
   </g>
   <g id="text_28">
    <!-- 0.06 -->
    <g style="fill: #262626" transform="translate(139.2949 353.990601) scale(0.07 -0.07)">
     <use xlink:href="#MicrosoftYaHei-30"/>
     <use xlink:href="#MicrosoftYaHei-2e" x="58.642578"/>
     <use xlink:href="#MicrosoftYaHei-30" x="82.714844"/>
     <use xlink:href="#MicrosoftYaHei-36" x="141.357422"/>
    </g>
   </g>
   <g id="text_29">
    <!-- 0.09 -->
    <g style="fill: #262626" transform="translate(213.529933 345.689705) scale(0.07 -0.07)">
     <defs>
      <path id="MicrosoftYaHei-39" d="M 578 656 
Q 978 425 1441 425 
Q 2091 425 2448 937 
Q 2806 1450 2806 2394 
Q 2800 2388 2794 2394 
Q 2475 1788 1722 1788 
Q 1113 1788 713 2206 
Q 313 2625 313 3294 
Q 313 4006 750 4464 
Q 1188 4922 1884 4922 
Q 2606 4922 3012 4355 
Q 3419 3788 3419 2703 
Q 3419 1363 2894 641 
Q 2369 -81 1441 -81 
Q 931 -81 578 84 
L 578 656 
z
M 931 3372 
Q 931 2884 1181 2598 
Q 1431 2313 1872 2313 
Q 2253 2313 2512 2573 
Q 2772 2834 2772 3206 
Q 2772 3728 2514 4070 
Q 2256 4413 1834 4413 
Q 1444 4413 1187 4116 
Q 931 3819 931 3372 
z
" transform="scale(0.015625)"/>
     </defs>
     <use xlink:href="#MicrosoftYaHei-30"/>
     <use xlink:href="#MicrosoftYaHei-2e" x="58.642578"/>
     <use xlink:href="#MicrosoftYaHei-30" x="82.714844"/>
     <use xlink:href="#MicrosoftYaHei-39" x="141.357422"/>
    </g>
   </g>
   <g id="text_30">
    <!-- 0.06 -->
    <g style="fill: #262626" transform="translate(287.764967 354.319817) scale(0.07 -0.07)">
     <use xlink:href="#MicrosoftYaHei-30"/>
     <use xlink:href="#MicrosoftYaHei-2e" x="58.642578"/>
     <use xlink:href="#MicrosoftYaHei-30" x="82.714844"/>
     <use xlink:href="#MicrosoftYaHei-36" x="141.357422"/>
    </g>
   </g>
   <g id="text_31">
    <!-- 0.08 -->
    <g style="fill: #262626" transform="translate(362 349.569331) scale(0.07 -0.07)">
     <use xlink:href="#MicrosoftYaHei-30"/>
     <use xlink:href="#MicrosoftYaHei-2e" x="58.642578"/>
     <use xlink:href="#MicrosoftYaHei-30" x="82.714844"/>
     <use xlink:href="#MicrosoftYaHei-38" x="141.357422"/>
    </g>
   </g>
   <g id="text_32">
    <!-- 0.08 -->
    <g style="fill: #262626" transform="translate(436.235033 349.494647) scale(0.07 -0.07)">
     <use xlink:href="#MicrosoftYaHei-30"/>
     <use xlink:href="#MicrosoftYaHei-2e" x="58.642578"/>
     <use xlink:href="#MicrosoftYaHei-30" x="82.714844"/>
     <use xlink:href="#MicrosoftYaHei-38" x="141.357422"/>
    </g>
   </g>
   <g id="text_33">
    <!-- 0.04 -->
    <g style="fill: #262626" transform="translate(510.470067 360.778912) scale(0.07 -0.07)">
     <use xlink:href="#MicrosoftYaHei-30"/>
     <use xlink:href="#MicrosoftYaHei-2e" x="58.642578"/>
     <use xlink:href="#MicrosoftYaHei-30" x="82.714844"/>
     <use xlink:href="#MicrosoftYaHei-34" x="141.357422"/>
    </g>
   </g>
   <g id="text_34">
    <!-- 0.09 -->
    <g style="fill: #262626" transform="translate(584.7051 345.19236) scale(0.07 -0.07)">
     <use xlink:href="#MicrosoftYaHei-30"/>
     <use xlink:href="#MicrosoftYaHei-2e" x="58.642578"/>
     <use xlink:href="#MicrosoftYaHei-30" x="82.714844"/>
     <use xlink:href="#MicrosoftYaHei-39" x="141.357422"/>
    </g>
   </g>
   <g id="text_35">
    <!-- 0.19 -->
    <g style="fill: #262626" transform="translate(151.667406 311.805325) scale(0.07 -0.07)">
     <use xlink:href="#MicrosoftYaHei-30"/>
     <use xlink:href="#MicrosoftYaHei-2e" x="58.642578"/>
     <use xlink:href="#MicrosoftYaHei-31" x="82.714844"/>
     <use xlink:href="#MicrosoftYaHei-39" x="141.357422"/>
    </g>
   </g>
   <g id="text_36">
    <!-- 0.23 -->
    <g style="fill: #262626" transform="translate(225.902439 298.424032) scale(0.07 -0.07)">
     <use xlink:href="#MicrosoftYaHei-30"/>
     <use xlink:href="#MicrosoftYaHei-2e" x="58.642578"/>
     <use xlink:href="#MicrosoftYaHei-32" x="82.714844"/>
     <use xlink:href="#MicrosoftYaHei-33" x="141.357422"/>
    </g>
   </g>
   <g id="text_37">
    <!-- 0.16 -->
    <g style="fill: #262626" transform="translate(300.137472 321.721728) scale(0.07 -0.07)">
     <use xlink:href="#MicrosoftYaHei-30"/>
     <use xlink:href="#MicrosoftYaHei-2e" x="58.642578"/>
     <use xlink:href="#MicrosoftYaHei-31" x="82.714844"/>
     <use xlink:href="#MicrosoftYaHei-36" x="141.357422"/>
    </g>
   </g>
   <g id="text_38">
    <!-- 0.20 -->
    <g style="fill: #262626" transform="translate(374.372506 309.61019) scale(0.07 -0.07)">
     <use xlink:href="#MicrosoftYaHei-30"/>
     <use xlink:href="#MicrosoftYaHei-2e" x="58.642578"/>
     <use xlink:href="#MicrosoftYaHei-32" x="82.714844"/>
     <use xlink:href="#MicrosoftYaHei-30" x="141.357422"/>
    </g>
   </g>
   <g id="text_39">
    <!-- 0.24 -->
    <g style="fill: #262626" transform="translate(448.607539 295.993961) scale(0.07 -0.07)">
     <use xlink:href="#MicrosoftYaHei-30"/>
     <use xlink:href="#MicrosoftYaHei-2e" x="58.642578"/>
     <use xlink:href="#MicrosoftYaHei-32" x="82.714844"/>
     <use xlink:href="#MicrosoftYaHei-34" x="141.357422"/>
    </g>
   </g>
   <g id="text_40">
    <!-- 0.16 -->
    <g style="fill: #262626" transform="translate(522.842572 322.161477) scale(0.07 -0.07)">
     <use xlink:href="#MicrosoftYaHei-30"/>
     <use xlink:href="#MicrosoftYaHei-2e" x="58.642578"/>
     <use xlink:href="#MicrosoftYaHei-31" x="82.714844"/>
     <use xlink:href="#MicrosoftYaHei-36" x="141.357422"/>
    </g>
   </g>
   <g id="text_41">
    <!-- 0.21 -->
    <g style="fill: #262626" transform="translate(597.077605 306.008506) scale(0.07 -0.07)">
     <use xlink:href="#MicrosoftYaHei-30"/>
     <use xlink:href="#MicrosoftYaHei-2e" x="58.642578"/>
     <use xlink:href="#MicrosoftYaHei-32" x="82.714844"/>
     <use xlink:href="#MicrosoftYaHei-31" x="141.357422"/>
    </g>
   </g>
   <g id="text_42">
    <!-- 0.71 -->
    <g style="fill: #262626" transform="translate(164.039911 142.259598) scale(0.07 -0.07)">
     <defs>
      <path id="MicrosoftYaHei-37" d="M 3422 4463 
Q 2659 3131 2223 1998 
Q 1788 866 1684 0 
L 1047 0 
Q 1163 853 1594 1947 
Q 2025 3041 2747 4300 
L 347 4300 
L 347 4841 
L 3422 4841 
L 3422 4463 
z
" transform="scale(0.015625)"/>
     </defs>
     <use xlink:href="#MicrosoftYaHei-30"/>
     <use xlink:href="#MicrosoftYaHei-2e" x="58.642578"/>
     <use xlink:href="#MicrosoftYaHei-37" x="82.714844"/>
     <use xlink:href="#MicrosoftYaHei-31" x="141.357422"/>
    </g>
   </g>
   <g id="text_43">
    <!-- 0.63 -->
    <g style="fill: #262626" transform="translate(238.274945 169.293855) scale(0.07 -0.07)">
     <use xlink:href="#MicrosoftYaHei-30"/>
     <use xlink:href="#MicrosoftYaHei-2e" x="58.642578"/>
     <use xlink:href="#MicrosoftYaHei-36" x="82.714844"/>
     <use xlink:href="#MicrosoftYaHei-33" x="141.357422"/>
    </g>
   </g>
   <g id="text_44">
    <!-- 0.72 -->
    <g style="fill: #262626" transform="translate(312.509978 139.924693) scale(0.07 -0.07)">
     <use xlink:href="#MicrosoftYaHei-30"/>
     <use xlink:href="#MicrosoftYaHei-2e" x="58.642578"/>
     <use xlink:href="#MicrosoftYaHei-37" x="82.714844"/>
     <use xlink:href="#MicrosoftYaHei-32" x="141.357422"/>
    </g>
   </g>
   <g id="text_45">
    <!-- 0.66 -->
    <g style="fill: #262626" transform="translate(386.745011 159.049856) scale(0.07 -0.07)">
     <use xlink:href="#MicrosoftYaHei-30"/>
     <use xlink:href="#MicrosoftYaHei-2e" x="58.642578"/>
     <use xlink:href="#MicrosoftYaHei-36" x="82.714844"/>
     <use xlink:href="#MicrosoftYaHei-36" x="141.357422"/>
    </g>
   </g>
   <g id="text_46">
    <!-- 0.65 -->
    <g style="fill: #262626" transform="translate(460.980044 162.543565) scale(0.07 -0.07)">
     <defs>
      <path id="MicrosoftYaHei-35" d="M 3294 1494 
Q 3294 784 2823 350 
Q 2353 -84 1559 -84 
Q 878 -84 544 119 
L 544 744 
Q 1034 425 1544 425 
Q 2050 425 2361 704 
Q 2672 984 2672 1447 
Q 2672 1909 2348 2167 
Q 2025 2425 1434 2425 
Q 978 2425 613 2384 
L 791 4841 
L 3053 4841 
L 3053 4303 
L 1306 4303 
L 1206 2931 
L 1647 2950 
Q 2416 2950 2855 2567 
Q 3294 2184 3294 1494 
z
" transform="scale(0.015625)"/>
     </defs>
     <use xlink:href="#MicrosoftYaHei-30"/>
     <use xlink:href="#MicrosoftYaHei-2e" x="58.642578"/>
     <use xlink:href="#MicrosoftYaHei-36" x="82.714844"/>
     <use xlink:href="#MicrosoftYaHei-35" x="141.357422"/>
    </g>
   </g>
   <g id="text_47">
    <!-- 0.75 -->
    <g style="fill: #262626" transform="translate(535.215078 130.161308) scale(0.07 -0.07)">
     <use xlink:href="#MicrosoftYaHei-30"/>
     <use xlink:href="#MicrosoftYaHei-2e" x="58.642578"/>
     <use xlink:href="#MicrosoftYaHei-37" x="82.714844"/>
     <use xlink:href="#MicrosoftYaHei-35" x="141.357422"/>
    </g>
   </g>
   <g id="text_48">
    <!-- 0.63 -->
    <g style="fill: #262626" transform="translate(609.450111 168.511507) scale(0.07 -0.07)">
     <use xlink:href="#MicrosoftYaHei-30"/>
     <use xlink:href="#MicrosoftYaHei-2e" x="58.642578"/>
     <use xlink:href="#MicrosoftYaHei-36" x="82.714844"/>
     <use xlink:href="#MicrosoftYaHei-33" x="141.357422"/>
    </g>
   </g>
   <g id="legend_1">
    <g id="patch_42">
     <path d="M 594.864063 137.238438 
L 641 137.238438 
Q 643 137.238438 643 135.238438 
L 643 58.84 
Q 643 56.84 641 56.84 
L 594.864063 56.84 
Q 592.864063 56.84 592.864063 58.84 
L 592.864063 135.238438 
Q 592.864063 137.238438 594.864063 137.238438 
z
" style="fill: #eaeaf2; opacity: 0.8; stroke: #cccccc; stroke-linejoin: miter"/>
    </g>
    <g id="patch_43">
     <path d="M 596.864063 68.83375 
L 616.864063 68.83375 
L 616.864063 61.83375 
L 596.864063 61.83375 
z
" style="fill: url(#h942149b3db); stroke: #ffffff; stroke-linejoin: miter"/>
    </g>
    <g id="text_49">
     <!-- 1.0 -->
     <g style="fill: #262626" transform="translate(624.864063 68.83375) scale(0.1 -0.1)">
      <use xlink:href="#MicrosoftYaHei-31"/>
      <use xlink:href="#MicrosoftYaHei-2e" x="58.642578"/>
      <use xlink:href="#MicrosoftYaHei-30" x="82.714844"/>
     </g>
    </g>
    <g id="patch_44">
     <path d="M 596.864063 84.313438 
L 616.864063 84.313438 
L 616.864063 77.313438 
L 596.864063 77.313438 
z
" style="fill: url(#h9546a8ccac); stroke: #ffffff; stroke-linejoin: miter"/>
    </g>
    <g id="text_50">
     <!-- 2.0 -->
     <g style="fill: #262626" transform="translate(624.864063 84.313438) scale(0.1 -0.1)">
      <use xlink:href="#MicrosoftYaHei-32"/>
      <use xlink:href="#MicrosoftYaHei-2e" x="58.642578"/>
      <use xlink:href="#MicrosoftYaHei-30" x="82.714844"/>
     </g>
    </g>
    <g id="patch_45">
     <path d="M 596.864063 99.793125 
L 616.864063 99.793125 
L 616.864063 92.793125 
L 596.864063 92.793125 
z
" style="fill: url(#h23604cf603); stroke: #ffffff; stroke-linejoin: miter"/>
    </g>
    <g id="text_51">
     <!-- 3.0 -->
     <g style="fill: #262626" transform="translate(624.864063 99.793125) scale(0.1 -0.1)">
      <use xlink:href="#MicrosoftYaHei-33"/>
      <use xlink:href="#MicrosoftYaHei-2e" x="58.642578"/>
      <use xlink:href="#MicrosoftYaHei-30" x="82.714844"/>
     </g>
    </g>
    <g id="patch_46">
     <path d="M 596.864063 115.272812 
L 616.864063 115.272812 
L 616.864063 108.272812 
L 596.864063 108.272812 
z
" style="fill: url(#h08d69b31c5); stroke: #ffffff; stroke-linejoin: miter"/>
    </g>
    <g id="text_52">
     <!-- 4.0 -->
     <g style="fill: #262626" transform="translate(624.864063 115.272812) scale(0.1 -0.1)">
      <use xlink:href="#MicrosoftYaHei-34"/>
      <use xlink:href="#MicrosoftYaHei-2e" x="58.642578"/>
      <use xlink:href="#MicrosoftYaHei-30" x="82.714844"/>
     </g>
    </g>
    <g id="patch_47">
     <path d="M 596.864063 130.7525 
L 616.864063 130.7525 
L 616.864063 123.7525 
L 596.864063 123.7525 
z
" style="fill: url(#h4748570f0f); stroke: #ffffff; stroke-linejoin: miter"/>
    </g>
    <g id="text_53">
     <!-- 5.0 -->
     <g style="fill: #262626" transform="translate(624.864063 130.7525) scale(0.1 -0.1)">
      <use xlink:href="#MicrosoftYaHei-35"/>
      <use xlink:href="#MicrosoftYaHei-2e" x="58.642578"/>
      <use xlink:href="#MicrosoftYaHei-30" x="82.714844"/>
     </g>
    </g>
   </g>
  </g>
 </g>
 <defs>
  <clipPath id="p649001374d">
   <rect x="90" y="51.84" width="558" height="326.16"/>
  </clipPath>
 </defs>
 <defs>
  <pattern id="h942149b3db" patternUnits="userSpaceOnUse" x="0" y="0" width="72" height="72">
   <rect x="0" y="0" width="73" height="73" fill="#ffffff"/>
   <path d="M -36 36 
L 36 -36 
M -24 48 
L 48 -24 
M -12 60 
L 60 -12 
M 0 72 
L 72 0 
M 12 84 
L 84 12 
M 24 96 
L 96 24 
M 36 108 
L 108 36 
" style="fill: #ffffff; stroke: #ffffff; stroke-width: 1.0; stroke-linecap: butt; stroke-linejoin: miter"/>
  </pattern>
  <pattern id="h9546a8ccac" patternUnits="userSpaceOnUse" x="0" y="0" width="72" height="72">
   <rect x="0" y="0" width="73" height="73" fill="#ffffff"/>
   <path d="M 6 72 
L 6 0 
M 18 72 
L 18 0 
M 30 72 
L 30 0 
M 42 72 
L 42 0 
M 54 72 
L 54 0 
M 66 72 
L 66 0 
" style="fill: #ffffff; stroke: #ffffff; stroke-width: 1.0; stroke-linecap: butt; stroke-linejoin: miter"/>
  </pattern>
  <pattern id="h23604cf603" patternUnits="userSpaceOnUse" x="0" y="0" width="72" height="72">
   <rect x="0" y="0" width="73" height="73" fill="#ffffff"/>
   <path style="fill: #ffffff; stroke: #ffffff; stroke-width: 1.0; stroke-linecap: butt; stroke-linejoin: miter"/>
  </pattern>
  <pattern id="h08d69b31c5" patternUnits="userSpaceOnUse" x="0" y="0" width="72" height="72">
   <rect x="0" y="0" width="73" height="73" fill="#ffffff"/>
   <path d="M 0 73.2 
C 0.318244 73.2 0.623496 73.07356 0.848528 72.848528 
C 1.07356 72.623496 1.2 72.318244 1.2 72 
C 1.2 71.681756 1.07356 71.376504 0.848528 71.151472 
C 0.623496 70.92644 0.318244 70.8 0 70.8 
C -0.318244 70.8 -0.623496 70.92644 -0.848528 71.151472 
C -1.07356 71.376504 -1.2 71.681756 -1.2 72 
C -1.2 72.318244 -1.07356 72.623496 -0.848528 72.848528 
C -0.623496 73.07356 -0.318244 73.2 0 73.2 
z
M 12 73.2 
C 12.318244 73.2 12.623496 73.07356 12.848528 72.848528 
C 13.07356 72.623496 13.2 72.318244 13.2 72 
C 13.2 71.681756 13.07356 71.376504 12.848528 71.151472 
C 12.623496 70.92644 12.318244 70.8 12 70.8 
C 11.681756 70.8 11.376504 70.92644 11.151472 71.151472 
C 10.92644 71.376504 10.8 71.681756 10.8 72 
C 10.8 72.318244 10.92644 72.623496 11.151472 72.848528 
C 11.376504 73.07356 11.681756 73.2 12 73.2 
z
M 24 73.2 
C 24.318244 73.2 24.623496 73.07356 24.848528 72.848528 
C 25.07356 72.623496 25.2 72.318244 25.2 72 
C 25.2 71.681756 25.07356 71.376504 24.848528 71.151472 
C 24.623496 70.92644 24.318244 70.8 24 70.8 
C 23.681756 70.8 23.376504 70.92644 23.151472 71.151472 
C 22.92644 71.376504 22.8 71.681756 22.8 72 
C 22.8 72.318244 22.92644 72.623496 23.151472 72.848528 
C 23.376504 73.07356 23.681756 73.2 24 73.2 
z
M 36 73.2 
C 36.318244 73.2 36.623496 73.07356 36.848528 72.848528 
C 37.07356 72.623496 37.2 72.318244 37.2 72 
C 37.2 71.681756 37.07356 71.376504 36.848528 71.151472 
C 36.623496 70.92644 36.318244 70.8 36 70.8 
C 35.681756 70.8 35.376504 70.92644 35.151472 71.151472 
C 34.92644 71.376504 34.8 71.681756 34.8 72 
C 34.8 72.318244 34.92644 72.623496 35.151472 72.848528 
C 35.376504 73.07356 35.681756 73.2 36 73.2 
z
M 48 73.2 
C 48.318244 73.2 48.623496 73.07356 48.848528 72.848528 
C 49.07356 72.623496 49.2 72.318244 49.2 72 
C 49.2 71.681756 49.07356 71.376504 48.848528 71.151472 
C 48.623496 70.92644 48.318244 70.8 48 70.8 
C 47.681756 70.8 47.376504 70.92644 47.151472 71.151472 
C 46.92644 71.376504 46.8 71.681756 46.8 72 
C 46.8 72.318244 46.92644 72.623496 47.151472 72.848528 
C 47.376504 73.07356 47.681756 73.2 48 73.2 
z
M 60 73.2 
C 60.318244 73.2 60.623496 73.07356 60.848528 72.848528 
C 61.07356 72.623496 61.2 72.318244 61.2 72 
C 61.2 71.681756 61.07356 71.376504 60.848528 71.151472 
C 60.623496 70.92644 60.318244 70.8 60 70.8 
C 59.681756 70.8 59.376504 70.92644 59.151472 71.151472 
C 58.92644 71.376504 58.8 71.681756 58.8 72 
C 58.8 72.318244 58.92644 72.623496 59.151472 72.848528 
C 59.376504 73.07356 59.681756 73.2 60 73.2 
z
M 72 73.2 
C 72.318244 73.2 72.623496 73.07356 72.848528 72.848528 
C 73.07356 72.623496 73.2 72.318244 73.2 72 
C 73.2 71.681756 73.07356 71.376504 72.848528 71.151472 
C 72.623496 70.92644 72.318244 70.8 72 70.8 
C 71.681756 70.8 71.376504 70.92644 71.151472 71.151472 
C 70.92644 71.376504 70.8 71.681756 70.8 72 
C 70.8 72.318244 70.92644 72.623496 71.151472 72.848528 
C 71.376504 73.07356 71.681756 73.2 72 73.2 
z
M 6 61.2 
C 6.318244 61.2 6.623496 61.07356 6.848528 60.848528 
C 7.07356 60.623496 7.2 60.318244 7.2 60 
C 7.2 59.681756 7.07356 59.376504 6.848528 59.151472 
C 6.623496 58.92644 6.318244 58.8 6 58.8 
C 5.681756 58.8 5.376504 58.92644 5.151472 59.151472 
C 4.92644 59.376504 4.8 59.681756 4.8 60 
C 4.8 60.318244 4.92644 60.623496 5.151472 60.848528 
C 5.376504 61.07356 5.681756 61.2 6 61.2 
z
M 18 61.2 
C 18.318244 61.2 18.623496 61.07356 18.848528 60.848528 
C 19.07356 60.623496 19.2 60.318244 19.2 60 
C 19.2 59.681756 19.07356 59.376504 18.848528 59.151472 
C 18.623496 58.92644 18.318244 58.8 18 58.8 
C 17.681756 58.8 17.376504 58.92644 17.151472 59.151472 
C 16.92644 59.376504 16.8 59.681756 16.8 60 
C 16.8 60.318244 16.92644 60.623496 17.151472 60.848528 
C 17.376504 61.07356 17.681756 61.2 18 61.2 
z
M 30 61.2 
C 30.318244 61.2 30.623496 61.07356 30.848528 60.848528 
C 31.07356 60.623496 31.2 60.318244 31.2 60 
C 31.2 59.681756 31.07356 59.376504 30.848528 59.151472 
C 30.623496 58.92644 30.318244 58.8 30 58.8 
C 29.681756 58.8 29.376504 58.92644 29.151472 59.151472 
C 28.92644 59.376504 28.8 59.681756 28.8 60 
C 28.8 60.318244 28.92644 60.623496 29.151472 60.848528 
C 29.376504 61.07356 29.681756 61.2 30 61.2 
z
M 42 61.2 
C 42.318244 61.2 42.623496 61.07356 42.848528 60.848528 
C 43.07356 60.623496 43.2 60.318244 43.2 60 
C 43.2 59.681756 43.07356 59.376504 42.848528 59.151472 
C 42.623496 58.92644 42.318244 58.8 42 58.8 
C 41.681756 58.8 41.376504 58.92644 41.151472 59.151472 
C 40.92644 59.376504 40.8 59.681756 40.8 60 
C 40.8 60.318244 40.92644 60.623496 41.151472 60.848528 
C 41.376504 61.07356 41.681756 61.2 42 61.2 
z
M 54 61.2 
C 54.318244 61.2 54.623496 61.07356 54.848528 60.848528 
C 55.07356 60.623496 55.2 60.318244 55.2 60 
C 55.2 59.681756 55.07356 59.376504 54.848528 59.151472 
C 54.623496 58.92644 54.318244 58.8 54 58.8 
C 53.681756 58.8 53.376504 58.92644 53.151472 59.151472 
C 52.92644 59.376504 52.8 59.681756 52.8 60 
C 52.8 60.318244 52.92644 60.623496 53.151472 60.848528 
C 53.376504 61.07356 53.681756 61.2 54 61.2 
z
M 66 61.2 
C 66.318244 61.2 66.623496 61.07356 66.848528 60.848528 
C 67.07356 60.623496 67.2 60.318244 67.2 60 
C 67.2 59.681756 67.07356 59.376504 66.848528 59.151472 
C 66.623496 58.92644 66.318244 58.8 66 58.8 
C 65.681756 58.8 65.376504 58.92644 65.151472 59.151472 
C 64.92644 59.376504 64.8 59.681756 64.8 60 
C 64.8 60.318244 64.92644 60.623496 65.151472 60.848528 
C 65.376504 61.07356 65.681756 61.2 66 61.2 
z
M 0 49.2 
C 0.318244 49.2 0.623496 49.07356 0.848528 48.848528 
C 1.07356 48.623496 1.2 48.318244 1.2 48 
C 1.2 47.681756 1.07356 47.376504 0.848528 47.151472 
C 0.623496 46.92644 0.318244 46.8 0 46.8 
C -0.318244 46.8 -0.623496 46.92644 -0.848528 47.151472 
C -1.07356 47.376504 -1.2 47.681756 -1.2 48 
C -1.2 48.318244 -1.07356 48.623496 -0.848528 48.848528 
C -0.623496 49.07356 -0.318244 49.2 0 49.2 
z
M 12 49.2 
C 12.318244 49.2 12.623496 49.07356 12.848528 48.848528 
C 13.07356 48.623496 13.2 48.318244 13.2 48 
C 13.2 47.681756 13.07356 47.376504 12.848528 47.151472 
C 12.623496 46.92644 12.318244 46.8 12 46.8 
C 11.681756 46.8 11.376504 46.92644 11.151472 47.151472 
C 10.92644 47.376504 10.8 47.681756 10.8 48 
C 10.8 48.318244 10.92644 48.623496 11.151472 48.848528 
C 11.376504 49.07356 11.681756 49.2 12 49.2 
z
M 24 49.2 
C 24.318244 49.2 24.623496 49.07356 24.848528 48.848528 
C 25.07356 48.623496 25.2 48.318244 25.2 48 
C 25.2 47.681756 25.07356 47.376504 24.848528 47.151472 
C 24.623496 46.92644 24.318244 46.8 24 46.8 
C 23.681756 46.8 23.376504 46.92644 23.151472 47.151472 
C 22.92644 47.376504 22.8 47.681756 22.8 48 
C 22.8 48.318244 22.92644 48.623496 23.151472 48.848528 
C 23.376504 49.07356 23.681756 49.2 24 49.2 
z
M 36 49.2 
C 36.318244 49.2 36.623496 49.07356 36.848528 48.848528 
C 37.07356 48.623496 37.2 48.318244 37.2 48 
C 37.2 47.681756 37.07356 47.376504 36.848528 47.151472 
C 36.623496 46.92644 36.318244 46.8 36 46.8 
C 35.681756 46.8 35.376504 46.92644 35.151472 47.151472 
C 34.92644 47.376504 34.8 47.681756 34.8 48 
C 34.8 48.318244 34.92644 48.623496 35.151472 48.848528 
C 35.376504 49.07356 35.681756 49.2 36 49.2 
z
M 48 49.2 
C 48.318244 49.2 48.623496 49.07356 48.848528 48.848528 
C 49.07356 48.623496 49.2 48.318244 49.2 48 
C 49.2 47.681756 49.07356 47.376504 48.848528 47.151472 
C 48.623496 46.92644 48.318244 46.8 48 46.8 
C 47.681756 46.8 47.376504 46.92644 47.151472 47.151472 
C 46.92644 47.376504 46.8 47.681756 46.8 48 
C 46.8 48.318244 46.92644 48.623496 47.151472 48.848528 
C 47.376504 49.07356 47.681756 49.2 48 49.2 
z
M 60 49.2 
C 60.318244 49.2 60.623496 49.07356 60.848528 48.848528 
C 61.07356 48.623496 61.2 48.318244 61.2 48 
C 61.2 47.681756 61.07356 47.376504 60.848528 47.151472 
C 60.623496 46.92644 60.318244 46.8 60 46.8 
C 59.681756 46.8 59.376504 46.92644 59.151472 47.151472 
C 58.92644 47.376504 58.8 47.681756 58.8 48 
C 58.8 48.318244 58.92644 48.623496 59.151472 48.848528 
C 59.376504 49.07356 59.681756 49.2 60 49.2 
z
M 72 49.2 
C 72.318244 49.2 72.623496 49.07356 72.848528 48.848528 
C 73.07356 48.623496 73.2 48.318244 73.2 48 
C 73.2 47.681756 73.07356 47.376504 72.848528 47.151472 
C 72.623496 46.92644 72.318244 46.8 72 46.8 
C 71.681756 46.8 71.376504 46.92644 71.151472 47.151472 
C 70.92644 47.376504 70.8 47.681756 70.8 48 
C 70.8 48.318244 70.92644 48.623496 71.151472 48.848528 
C 71.376504 49.07356 71.681756 49.2 72 49.2 
z
M 6 37.2 
C 6.318244 37.2 6.623496 37.07356 6.848528 36.848528 
C 7.07356 36.623496 7.2 36.318244 7.2 36 
C 7.2 35.681756 7.07356 35.376504 6.848528 35.151472 
C 6.623496 34.92644 6.318244 34.8 6 34.8 
C 5.681756 34.8 5.376504 34.92644 5.151472 35.151472 
C 4.92644 35.376504 4.8 35.681756 4.8 36 
C 4.8 36.318244 4.92644 36.623496 5.151472 36.848528 
C 5.376504 37.07356 5.681756 37.2 6 37.2 
z
M 18 37.2 
C 18.318244 37.2 18.623496 37.07356 18.848528 36.848528 
C 19.07356 36.623496 19.2 36.318244 19.2 36 
C 19.2 35.681756 19.07356 35.376504 18.848528 35.151472 
C 18.623496 34.92644 18.318244 34.8 18 34.8 
C 17.681756 34.8 17.376504 34.92644 17.151472 35.151472 
C 16.92644 35.376504 16.8 35.681756 16.8 36 
C 16.8 36.318244 16.92644 36.623496 17.151472 36.848528 
C 17.376504 37.07356 17.681756 37.2 18 37.2 
z
M 30 37.2 
C 30.318244 37.2 30.623496 37.07356 30.848528 36.848528 
C 31.07356 36.623496 31.2 36.318244 31.2 36 
C 31.2 35.681756 31.07356 35.376504 30.848528 35.151472 
C 30.623496 34.92644 30.318244 34.8 30 34.8 
C 29.681756 34.8 29.376504 34.92644 29.151472 35.151472 
C 28.92644 35.376504 28.8 35.681756 28.8 36 
C 28.8 36.318244 28.92644 36.623496 29.151472 36.848528 
C 29.376504 37.07356 29.681756 37.2 30 37.2 
z
M 42 37.2 
C 42.318244 37.2 42.623496 37.07356 42.848528 36.848528 
C 43.07356 36.623496 43.2 36.318244 43.2 36 
C 43.2 35.681756 43.07356 35.376504 42.848528 35.151472 
C 42.623496 34.92644 42.318244 34.8 42 34.8 
C 41.681756 34.8 41.376504 34.92644 41.151472 35.151472 
C 40.92644 35.376504 40.8 35.681756 40.8 36 
C 40.8 36.318244 40.92644 36.623496 41.151472 36.848528 
C 41.376504 37.07356 41.681756 37.2 42 37.2 
z
M 54 37.2 
C 54.318244 37.2 54.623496 37.07356 54.848528 36.848528 
C 55.07356 36.623496 55.2 36.318244 55.2 36 
C 55.2 35.681756 55.07356 35.376504 54.848528 35.151472 
C 54.623496 34.92644 54.318244 34.8 54 34.8 
C 53.681756 34.8 53.376504 34.92644 53.151472 35.151472 
C 52.92644 35.376504 52.8 35.681756 52.8 36 
C 52.8 36.318244 52.92644 36.623496 53.151472 36.848528 
C 53.376504 37.07356 53.681756 37.2 54 37.2 
z
M 66 37.2 
C 66.318244 37.2 66.623496 37.07356 66.848528 36.848528 
C 67.07356 36.623496 67.2 36.318244 67.2 36 
C 67.2 35.681756 67.07356 35.376504 66.848528 35.151472 
C 66.623496 34.92644 66.318244 34.8 66 34.8 
C 65.681756 34.8 65.376504 34.92644 65.151472 35.151472 
C 64.92644 35.376504 64.8 35.681756 64.8 36 
C 64.8 36.318244 64.92644 36.623496 65.151472 36.848528 
C 65.376504 37.07356 65.681756 37.2 66 37.2 
z
M 0 25.2 
C 0.318244 25.2 0.623496 25.07356 0.848528 24.848528 
C 1.07356 24.623496 1.2 24.318244 1.2 24 
C 1.2 23.681756 1.07356 23.376504 0.848528 23.151472 
C 0.623496 22.92644 0.318244 22.8 0 22.8 
C -0.318244 22.8 -0.623496 22.92644 -0.848528 23.151472 
C -1.07356 23.376504 -1.2 23.681756 -1.2 24 
C -1.2 24.318244 -1.07356 24.623496 -0.848528 24.848528 
C -0.623496 25.07356 -0.318244 25.2 0 25.2 
z
M 12 25.2 
C 12.318244 25.2 12.623496 25.07356 12.848528 24.848528 
C 13.07356 24.623496 13.2 24.318244 13.2 24 
C 13.2 23.681756 13.07356 23.376504 12.848528 23.151472 
C 12.623496 22.92644 12.318244 22.8 12 22.8 
C 11.681756 22.8 11.376504 22.92644 11.151472 23.151472 
C 10.92644 23.376504 10.8 23.681756 10.8 24 
C 10.8 24.318244 10.92644 24.623496 11.151472 24.848528 
C 11.376504 25.07356 11.681756 25.2 12 25.2 
z
M 24 25.2 
C 24.318244 25.2 24.623496 25.07356 24.848528 24.848528 
C 25.07356 24.623496 25.2 24.318244 25.2 24 
C 25.2 23.681756 25.07356 23.376504 24.848528 23.151472 
C 24.623496 22.92644 24.318244 22.8 24 22.8 
C 23.681756 22.8 23.376504 22.92644 23.151472 23.151472 
C 22.92644 23.376504 22.8 23.681756 22.8 24 
C 22.8 24.318244 22.92644 24.623496 23.151472 24.848528 
C 23.376504 25.07356 23.681756 25.2 24 25.2 
z
M 36 25.2 
C 36.318244 25.2 36.623496 25.07356 36.848528 24.848528 
C 37.07356 24.623496 37.2 24.318244 37.2 24 
C 37.2 23.681756 37.07356 23.376504 36.848528 23.151472 
C 36.623496 22.92644 36.318244 22.8 36 22.8 
C 35.681756 22.8 35.376504 22.92644 35.151472 23.151472 
C 34.92644 23.376504 34.8 23.681756 34.8 24 
C 34.8 24.318244 34.92644 24.623496 35.151472 24.848528 
C 35.376504 25.07356 35.681756 25.2 36 25.2 
z
M 48 25.2 
C 48.318244 25.2 48.623496 25.07356 48.848528 24.848528 
C 49.07356 24.623496 49.2 24.318244 49.2 24 
C 49.2 23.681756 49.07356 23.376504 48.848528 23.151472 
C 48.623496 22.92644 48.318244 22.8 48 22.8 
C 47.681756 22.8 47.376504 22.92644 47.151472 23.151472 
C 46.92644 23.376504 46.8 23.681756 46.8 24 
C 46.8 24.318244 46.92644 24.623496 47.151472 24.848528 
C 47.376504 25.07356 47.681756 25.2 48 25.2 
z
M 60 25.2 
C 60.318244 25.2 60.623496 25.07356 60.848528 24.848528 
C 61.07356 24.623496 61.2 24.318244 61.2 24 
C 61.2 23.681756 61.07356 23.376504 60.848528 23.151472 
C 60.623496 22.92644 60.318244 22.8 60 22.8 
C 59.681756 22.8 59.376504 22.92644 59.151472 23.151472 
C 58.92644 23.376504 58.8 23.681756 58.8 24 
C 58.8 24.318244 58.92644 24.623496 59.151472 24.848528 
C 59.376504 25.07356 59.681756 25.2 60 25.2 
z
M 72 25.2 
C 72.318244 25.2 72.623496 25.07356 72.848528 24.848528 
C 73.07356 24.623496 73.2 24.318244 73.2 24 
C 73.2 23.681756 73.07356 23.376504 72.848528 23.151472 
C 72.623496 22.92644 72.318244 22.8 72 22.8 
C 71.681756 22.8 71.376504 22.92644 71.151472 23.151472 
C 70.92644 23.376504 70.8 23.681756 70.8 24 
C 70.8 24.318244 70.92644 24.623496 71.151472 24.848528 
C 71.376504 25.07356 71.681756 25.2 72 25.2 
z
M 6 13.2 
C 6.318244 13.2 6.623496 13.07356 6.848528 12.848528 
C 7.07356 12.623496 7.2 12.318244 7.2 12 
C 7.2 11.681756 7.07356 11.376504 6.848528 11.151472 
C 6.623496 10.92644 6.318244 10.8 6 10.8 
C 5.681756 10.8 5.376504 10.92644 5.151472 11.151472 
C 4.92644 11.376504 4.8 11.681756 4.8 12 
C 4.8 12.318244 4.92644 12.623496 5.151472 12.848528 
C 5.376504 13.07356 5.681756 13.2 6 13.2 
z
M 18 13.2 
C 18.318244 13.2 18.623496 13.07356 18.848528 12.848528 
C 19.07356 12.623496 19.2 12.318244 19.2 12 
C 19.2 11.681756 19.07356 11.376504 18.848528 11.151472 
C 18.623496 10.92644 18.318244 10.8 18 10.8 
C 17.681756 10.8 17.376504 10.92644 17.151472 11.151472 
C 16.92644 11.376504 16.8 11.681756 16.8 12 
C 16.8 12.318244 16.92644 12.623496 17.151472 12.848528 
C 17.376504 13.07356 17.681756 13.2 18 13.2 
z
M 30 13.2 
C 30.318244 13.2 30.623496 13.07356 30.848528 12.848528 
C 31.07356 12.623496 31.2 12.318244 31.2 12 
C 31.2 11.681756 31.07356 11.376504 30.848528 11.151472 
C 30.623496 10.92644 30.318244 10.8 30 10.8 
C 29.681756 10.8 29.376504 10.92644 29.151472 11.151472 
C 28.92644 11.376504 28.8 11.681756 28.8 12 
C 28.8 12.318244 28.92644 12.623496 29.151472 12.848528 
C 29.376504 13.07356 29.681756 13.2 30 13.2 
z
M 42 13.2 
C 42.318244 13.2 42.623496 13.07356 42.848528 12.848528 
C 43.07356 12.623496 43.2 12.318244 43.2 12 
C 43.2 11.681756 43.07356 11.376504 42.848528 11.151472 
C 42.623496 10.92644 42.318244 10.8 42 10.8 
C 41.681756 10.8 41.376504 10.92644 41.151472 11.151472 
C 40.92644 11.376504 40.8 11.681756 40.8 12 
C 40.8 12.318244 40.92644 12.623496 41.151472 12.848528 
C 41.376504 13.07356 41.681756 13.2 42 13.2 
z
M 54 13.2 
C 54.318244 13.2 54.623496 13.07356 54.848528 12.848528 
C 55.07356 12.623496 55.2 12.318244 55.2 12 
C 55.2 11.681756 55.07356 11.376504 54.848528 11.151472 
C 54.623496 10.92644 54.318244 10.8 54 10.8 
C 53.681756 10.8 53.376504 10.92644 53.151472 11.151472 
C 52.92644 11.376504 52.8 11.681756 52.8 12 
C 52.8 12.318244 52.92644 12.623496 53.151472 12.848528 
C 53.376504 13.07356 53.681756 13.2 54 13.2 
z
M 66 13.2 
C 66.318244 13.2 66.623496 13.07356 66.848528 12.848528 
C 67.07356 12.623496 67.2 12.318244 67.2 12 
C 67.2 11.681756 67.07356 11.376504 66.848528 11.151472 
C 66.623496 10.92644 66.318244 10.8 66 10.8 
C 65.681756 10.8 65.376504 10.92644 65.151472 11.151472 
C 64.92644 11.376504 64.8 11.681756 64.8 12 
C 64.8 12.318244 64.92644 12.623496 65.151472 12.848528 
C 65.376504 13.07356 65.681756 13.2 66 13.2 
z
M 0 1.2 
C 0.318244 1.2 0.623496 1.07356 0.848528 0.848528 
C 1.07356 0.623496 1.2 0.318244 1.2 0 
C 1.2 -0.318244 1.07356 -0.623496 0.848528 -0.848528 
C 0.623496 -1.07356 0.318244 -1.2 0 -1.2 
C -0.318244 -1.2 -0.623496 -1.07356 -0.848528 -0.848528 
C -1.07356 -0.623496 -1.2 -0.318244 -1.2 0 
C -1.2 0.318244 -1.07356 0.623496 -0.848528 0.848528 
C -0.623496 1.07356 -0.318244 1.2 0 1.2 
z
M 12 1.2 
C 12.318244 1.2 12.623496 1.07356 12.848528 0.848528 
C 13.07356 0.623496 13.2 0.318244 13.2 0 
C 13.2 -0.318244 13.07356 -0.623496 12.848528 -0.848528 
C 12.623496 -1.07356 12.318244 -1.2 12 -1.2 
C 11.681756 -1.2 11.376504 -1.07356 11.151472 -0.848528 
C 10.92644 -0.623496 10.8 -0.318244 10.8 0 
C 10.8 0.318244 10.92644 0.623496 11.151472 0.848528 
C 11.376504 1.07356 11.681756 1.2 12 1.2 
z
M 24 1.2 
C 24.318244 1.2 24.623496 1.07356 24.848528 0.848528 
C 25.07356 0.623496 25.2 0.318244 25.2 0 
C 25.2 -0.318244 25.07356 -0.623496 24.848528 -0.848528 
C 24.623496 -1.07356 24.318244 -1.2 24 -1.2 
C 23.681756 -1.2 23.376504 -1.07356 23.151472 -0.848528 
C 22.92644 -0.623496 22.8 -0.318244 22.8 0 
C 22.8 0.318244 22.92644 0.623496 23.151472 0.848528 
C 23.376504 1.07356 23.681756 1.2 24 1.2 
z
M 36 1.2 
C 36.318244 1.2 36.623496 1.07356 36.848528 0.848528 
C 37.07356 0.623496 37.2 0.318244 37.2 0 
C 37.2 -0.318244 37.07356 -0.623496 36.848528 -0.848528 
C 36.623496 -1.07356 36.318244 -1.2 36 -1.2 
C 35.681756 -1.2 35.376504 -1.07356 35.151472 -0.848528 
C 34.92644 -0.623496 34.8 -0.318244 34.8 0 
C 34.8 0.318244 34.92644 0.623496 35.151472 0.848528 
C 35.376504 1.07356 35.681756 1.2 36 1.2 
z
M 48 1.2 
C 48.318244 1.2 48.623496 1.07356 48.848528 0.848528 
C 49.07356 0.623496 49.2 0.318244 49.2 0 
C 49.2 -0.318244 49.07356 -0.623496 48.848528 -0.848528 
C 48.623496 -1.07356 48.318244 -1.2 48 -1.2 
C 47.681756 -1.2 47.376504 -1.07356 47.151472 -0.848528 
C 46.92644 -0.623496 46.8 -0.318244 46.8 0 
C 46.8 0.318244 46.92644 0.623496 47.151472 0.848528 
C 47.376504 1.07356 47.681756 1.2 48 1.2 
z
M 60 1.2 
C 60.318244 1.2 60.623496 1.07356 60.848528 0.848528 
C 61.07356 0.623496 61.2 0.318244 61.2 0 
C 61.2 -0.318244 61.07356 -0.623496 60.848528 -0.848528 
C 60.623496 -1.07356 60.318244 -1.2 60 -1.2 
C 59.681756 -1.2 59.376504 -1.07356 59.151472 -0.848528 
C 58.92644 -0.623496 58.8 -0.318244 58.8 0 
C 58.8 0.318244 58.92644 0.623496 59.151472 0.848528 
C 59.376504 1.07356 59.681756 1.2 60 1.2 
z
M 72 1.2 
C 72.318244 1.2 72.623496 1.07356 72.848528 0.848528 
C 73.07356 0.623496 73.2 0.318244 73.2 0 
C 73.2 -0.318244 73.07356 -0.623496 72.848528 -0.848528 
C 72.623496 -1.07356 72.318244 -1.2 72 -1.2 
C 71.681756 -1.2 71.376504 -1.07356 71.151472 -0.848528 
C 70.92644 -0.623496 70.8 -0.318244 70.8 0 
C 70.8 0.318244 70.92644 0.623496 71.151472 0.848528 
C 71.376504 1.07356 71.681756 1.2 72 1.2 
z
" style="fill: #ffffff; stroke: #ffffff; stroke-width: 1.0; stroke-linecap: butt; stroke-linejoin: miter"/>
  </pattern>
  <pattern id="h4748570f0f" patternUnits="userSpaceOnUse" x="0" y="0" width="72" height="72">
   <rect x="0" y="0" width="73" height="73" fill="#ffffff"/>
   <path style="fill: #ffffff; stroke: #ffffff; stroke-width: 1.0; stroke-linecap: butt; stroke-linejoin: miter"/>
  </pattern>
 </defs>
</svg>
