<?xml version="1.0" encoding="utf-8" standalone="no"?>
<!DOCTYPE svg PUBLIC "-//W3C//DTD SVG 1.1//EN"
  "http://www.w3.org/Graphics/SVG/1.1/DTD/svg11.dtd">
<svg xmlns:xlink="http://www.w3.org/1999/xlink" width="432pt" height="288pt" viewBox="0 0 432 288" xmlns="http://www.w3.org/2000/svg" version="1.1">
 <metadata>
  <rdf:RDF xmlns:dc="http://purl.org/dc/elements/1.1/" xmlns:cc="http://creativecommons.org/ns#" xmlns:rdf="http://www.w3.org/1999/02/22-rdf-syntax-ns#">
   <cc:Work>
    <dc:type rdf:resource="http://purl.org/dc/dcmitype/StillImage"/>
    <dc:date>2022-12-07T17:55:00.323239</dc:date>
    <dc:format>image/svg+xml</dc:format>
    <dc:creator>
     <cc:Agent>
      <dc:title>Matplotlib v3.5.2, https://matplotlib.org/</dc:title>
     </cc:Agent>
    </dc:creator>
   </cc:Work>
  </rdf:RDF>
 </metadata>
 <defs>
  <style type="text/css">*{stroke-linejoin: round; stroke-linecap: butt}</style>
 </defs>
 <g id="figure_1">
  <g id="patch_1">
   <path d="M 0 288 
L 432 288 
L 432 0 
L 0 0 
L 0 288 
z
" style="fill: none"/>
  </g>
  <g id="axes_1">
   <g id="patch_2">
    <path d="M 308.376 143.28 
C 308.376 127.160215 303.894635 111.353408 295.434446 97.632158 
C 286.974256 83.910909 274.863766 72.808035 260.461048 65.568616 
C 246.058329 58.329197 229.922664 55.234351 213.863508 56.631135 
C 197.804352 58.027918 182.44531 63.862092 169.508746 73.47941 
C 156.572183 83.096728 146.560447 96.123735 140.596256 111.09958 
C 134.632065 126.075424 132.947018 142.418569 135.730078 158.296291 
C 138.513137 174.174013 145.656232 188.969755 156.358334 201.024318 
C 167.060436 213.078882 180.905966 221.924168 196.342281 226.568266 
L 221.4 143.28 
L 308.376 143.28 
z
" style="fill: #92c6ff"/>
   </g>
   <g id="patch_3">
    <path d="M 196.342281 226.568266 
C 209.331199 230.476051 223.055947 231.291733 236.416287 228.949923 
C 249.776627 226.608113 262.40575 221.173105 273.291247 213.080595 
C 284.176744 204.988085 293.019753 194.460253 299.111378 182.341059 
C 305.203003 170.221864 308.375997 156.844041 308.376 143.280016 
L 221.4 143.28 
L 196.342281 226.568266 
z
" style="fill: #97f0aa"/>
   </g>
   <g id="matplotlib.axis_1"/>
   <g id="matplotlib.axis_2"/>
   <g id="text_1">
    <!-- 否 -->
    <g transform="translate(154.478996 69.299351)scale(0.1 -0.1)">
     <defs>
      <path id="AlibabaPuHuiTi-Regular-5426" d="M 2912 3539 
Q 2432 3149 1853 2806 
Q 1274 2464 582 2150 
L 326 2592 
Q 1229 2957 1913 3392 
Q 2598 3827 3098 4326 
L 678 4326 
L 678 4774 
L 5613 4774 
L 5613 4326 
L 3725 4326 
Q 3597 4179 3456 4035 
Q 3315 3891 3162 3750 
L 3366 3738 
L 3366 2150 
L 2912 2150 
L 2912 3539 
z
M 3802 3782 
Q 4000 3699 4291 3558 
Q 4582 3418 4889 3258 
Q 5197 3098 5478 2934 
Q 5760 2771 5939 2650 
L 5728 2163 
Q 5542 2317 5264 2493 
Q 4986 2669 4682 2841 
Q 4378 3014 4090 3158 
Q 3802 3302 3603 3386 
L 3802 3782 
z
M 1216 1920 
L 5082 1920 
L 5082 -582 
L 4614 -582 
L 4614 -218 
L 1664 -218 
L 1664 -582 
L 1216 -582 
L 1216 1920 
z
M 1664 1453 
L 1664 237 
L 4614 237 
L 4614 1453 
L 1664 1453 
z
" transform="scale(0.015625)"/>
     </defs>
     <use xlink:href="#AlibabaPuHuiTi-Regular-5426"/>
    </g>
   </g>
   <g id="text_2">
    <!-- 70.35% -->
    <g transform="translate(173.150404 104.199646)scale(0.1 -0.1)">
     <defs>
      <path id="AlibabaPuHuiTi-Regular-37" d="M 2784 3942 
L 346 3942 
L 346 4442 
L 3277 4442 
L 3277 3878 
L 1453 0 
L 864 0 
L 2784 3942 
z
" transform="scale(0.015625)"/>
      <path id="AlibabaPuHuiTi-Regular-30" d="M 1837 -64 
Q 1504 -64 1229 35 
Q 954 134 755 390 
Q 557 646 448 1091 
Q 339 1536 339 2221 
Q 339 2906 448 3347 
Q 557 3789 755 4048 
Q 954 4307 1229 4406 
Q 1504 4506 1837 4506 
Q 2170 4506 2448 4406 
Q 2726 4307 2924 4048 
Q 3123 3789 3232 3347 
Q 3341 2906 3341 2221 
Q 3341 1536 3232 1091 
Q 3123 646 2924 390 
Q 2726 134 2448 35 
Q 2170 -64 1837 -64 
z
M 1837 416 
Q 2074 416 2246 496 
Q 2419 576 2534 781 
Q 2650 986 2704 1334 
Q 2758 1683 2758 2221 
Q 2758 2752 2704 3101 
Q 2650 3450 2534 3654 
Q 2419 3859 2246 3939 
Q 2074 4019 1837 4019 
Q 1606 4019 1433 3939 
Q 1261 3859 1149 3654 
Q 1037 3450 982 3101 
Q 928 2752 928 2221 
Q 928 1683 982 1334 
Q 1037 986 1149 781 
Q 1261 576 1433 496 
Q 1606 416 1837 416 
z
" transform="scale(0.015625)"/>
      <path id="AlibabaPuHuiTi-Regular-2e" d="M 966 -38 
Q 742 -38 649 32 
Q 557 102 557 371 
Q 557 627 649 697 
Q 742 768 966 768 
Q 1184 768 1280 697 
Q 1376 627 1376 371 
Q 1376 102 1280 32 
Q 1184 -38 966 -38 
z
" transform="scale(0.015625)"/>
      <path id="AlibabaPuHuiTi-Regular-33" d="M 1446 -64 
Q 1178 -64 925 -45 
Q 672 -26 448 19 
L 448 525 
Q 704 461 944 438 
Q 1184 416 1440 416 
Q 1690 416 1904 454 
Q 2118 493 2272 589 
Q 2426 685 2515 841 
Q 2605 998 2605 1229 
Q 2605 1702 2285 1888 
Q 1965 2074 1331 2074 
L 979 2074 
L 979 2515 
L 1325 2515 
Q 1907 2515 2208 2729 
Q 2509 2944 2509 3309 
Q 2509 3699 2275 3865 
Q 2042 4032 1562 4032 
Q 1370 4032 1120 4000 
Q 870 3968 659 3904 
L 659 4378 
Q 826 4429 1078 4467 
Q 1331 4506 1587 4506 
Q 2304 4506 2672 4230 
Q 3040 3955 3040 3341 
Q 3040 2906 2829 2672 
Q 2618 2438 2253 2330 
L 2253 2291 
Q 2726 2208 2940 1936 
Q 3155 1664 3155 1222 
Q 3155 608 2742 272 
Q 2330 -64 1446 -64 
z
" transform="scale(0.015625)"/>
      <path id="AlibabaPuHuiTi-Regular-35" d="M 1466 -64 
Q 1197 -64 982 -45 
Q 768 -26 550 19 
L 550 525 
Q 800 461 1001 438 
Q 1203 416 1459 416 
Q 1734 416 1961 464 
Q 2189 512 2349 624 
Q 2509 736 2598 918 
Q 2688 1101 2688 1376 
Q 2688 1875 2397 2102 
Q 2106 2330 1414 2330 
Q 1235 2330 1004 2301 
Q 774 2272 563 2234 
L 864 4442 
L 2938 4442 
L 2938 3942 
L 1299 3942 
L 1114 2726 
Q 1235 2746 1356 2755 
Q 1478 2765 1632 2765 
Q 2406 2765 2822 2445 
Q 3238 2125 3238 1414 
Q 3238 1018 3113 739 
Q 2989 461 2758 281 
Q 2528 102 2198 19 
Q 1869 -64 1466 -64 
z
" transform="scale(0.015625)"/>
      <path id="AlibabaPuHuiTi-Regular-25" d="M 1344 2067 
Q 1133 2067 966 2124 
Q 800 2182 681 2320 
Q 563 2458 499 2691 
Q 435 2925 435 3283 
Q 435 3635 499 3872 
Q 563 4109 681 4249 
Q 800 4390 966 4448 
Q 1133 4506 1344 4506 
Q 1555 4506 1721 4448 
Q 1888 4390 2006 4249 
Q 2125 4109 2189 3872 
Q 2253 3635 2253 3283 
Q 2253 2925 2189 2691 
Q 2125 2458 2006 2320 
Q 1888 2182 1721 2124 
Q 1555 2067 1344 2067 
z
M 3648 4442 
L 4077 4442 
L 1587 0 
L 1165 0 
L 3648 4442 
z
M 1344 2400 
Q 1478 2400 1571 2441 
Q 1664 2483 1721 2582 
Q 1779 2682 1804 2851 
Q 1830 3021 1830 3283 
Q 1830 3539 1804 3708 
Q 1779 3878 1721 3977 
Q 1664 4077 1571 4115 
Q 1478 4154 1344 4154 
Q 1210 4154 1120 4115 
Q 1030 4077 972 3977 
Q 915 3878 889 3708 
Q 864 3539 864 3283 
Q 864 3021 889 2851 
Q 915 2682 972 2582 
Q 1030 2483 1120 2441 
Q 1210 2400 1344 2400 
z
M 3910 -64 
Q 3699 -64 3532 -6 
Q 3366 51 3244 188 
Q 3123 326 3059 560 
Q 2995 794 2995 1152 
Q 2995 1504 3059 1741 
Q 3123 1978 3244 2118 
Q 3366 2259 3532 2316 
Q 3699 2374 3910 2374 
Q 4122 2374 4288 2316 
Q 4454 2259 4572 2118 
Q 4691 1978 4755 1741 
Q 4819 1504 4819 1152 
Q 4819 794 4755 560 
Q 4691 326 4572 188 
Q 4454 51 4288 -6 
Q 4122 -64 3910 -64 
z
M 3910 269 
Q 4045 269 4137 310 
Q 4230 352 4288 451 
Q 4346 550 4368 720 
Q 4390 890 4390 1152 
Q 4390 1408 4368 1577 
Q 4346 1747 4288 1846 
Q 4230 1946 4137 1984 
Q 4045 2022 3910 2022 
Q 3776 2022 3686 1984 
Q 3597 1946 3539 1846 
Q 3482 1747 3456 1577 
Q 3430 1408 3430 1152 
Q 3430 890 3456 720 
Q 3482 550 3539 451 
Q 3597 352 3686 310 
Q 3776 269 3910 269 
z
" transform="scale(0.015625)"/>
     </defs>
     <use xlink:href="#AlibabaPuHuiTi-Regular-37"/>
     <use xlink:href="#AlibabaPuHuiTi-Regular-30" x="57.499985"/>
     <use xlink:href="#AlibabaPuHuiTi-Regular-2e" x="114.999969"/>
     <use xlink:href="#AlibabaPuHuiTi-Regular-33" x="145.199966"/>
     <use xlink:href="#AlibabaPuHuiTi-Regular-35" x="202.699951"/>
     <use xlink:href="#AlibabaPuHuiTi-Regular-25" x="260.199936"/>
    </g>
   </g>
   <g id="text_3">
    <!-- 是 -->
    <g transform="translate(278.480372 222.860654)scale(0.1 -0.1)">
     <defs>
      <path id="AlibabaPuHuiTi-Regular-662f" d="M 4992 2656 
L 1152 2656 
L 1152 4851 
L 4992 4851 
L 4992 2656 
z
M 1632 4461 
L 1632 3955 
L 4512 3955 
L 4512 4461 
L 1632 4461 
z
M 4512 3046 
L 4512 3558 
L 1632 3558 
L 1632 3046 
L 4512 3046 
z
M 3514 -70 
Q 4115 -96 4736 -89 
Q 5357 -83 5971 -51 
L 5856 -480 
Q 5274 -506 4691 -509 
Q 4109 -512 3526 -486 
Q 3168 -474 2880 -422 
Q 2592 -371 2349 -272 
Q 2106 -173 1907 -13 
Q 1709 147 1536 378 
Q 1389 64 1177 -201 
Q 966 -467 666 -723 
L 275 -416 
Q 525 -205 713 9 
Q 902 224 1040 457 
Q 1178 691 1274 956 
Q 1370 1222 1434 1536 
L 1907 1472 
Q 1869 1299 1824 1139 
Q 1779 979 1728 832 
Q 1952 474 2240 278 
Q 2528 83 2918 0 
L 2918 1766 
L 435 1766 
L 435 2170 
L 5786 2170 
L 5786 1766 
L 3392 1766 
L 3392 1101 
L 5331 1101 
L 5331 710 
L 3392 710 
L 3392 -64 
Q 3424 -64 3453 -67 
Q 3482 -70 3514 -70 
z
" transform="scale(0.015625)"/>
     </defs>
     <use xlink:href="#AlibabaPuHuiTi-Regular-662f"/>
    </g>
   </g>
   <g id="text_4">
    <!-- 29.65% -->
    <g transform="translate(235.419905 187.960357)scale(0.1 -0.1)">
     <defs>
      <path id="AlibabaPuHuiTi-Regular-32" d="M 365 608 
Q 1075 1165 1504 1555 
Q 1933 1946 2169 2240 
Q 2406 2534 2483 2768 
Q 2560 3002 2560 3238 
Q 2560 3475 2473 3628 
Q 2387 3782 2252 3872 
Q 2118 3962 1948 3994 
Q 1779 4026 1619 4026 
Q 1408 4026 1171 4003 
Q 934 3981 672 3910 
L 672 4403 
Q 896 4454 1149 4480 
Q 1402 4506 1683 4506 
Q 2010 4506 2272 4435 
Q 2534 4365 2723 4211 
Q 2912 4058 3011 3814 
Q 3110 3571 3110 3232 
Q 3110 2931 3020 2665 
Q 2931 2400 2720 2115 
Q 2509 1830 2150 1500 
Q 1792 1171 1254 742 
L 998 544 
L 998 486 
L 3290 486 
L 3290 0 
L 365 0 
L 365 608 
z
" transform="scale(0.015625)"/>
      <path id="AlibabaPuHuiTi-Regular-39" d="M 922 403 
Q 1344 403 1661 518 
Q 1978 634 2198 838 
Q 2419 1043 2544 1318 
Q 2669 1594 2701 1914 
L 2675 1914 
Q 2554 1779 2304 1664 
Q 2054 1549 1728 1549 
Q 1421 1549 1168 1632 
Q 915 1715 739 1884 
Q 563 2054 464 2320 
Q 365 2586 365 2950 
Q 365 3277 451 3561 
Q 538 3846 717 4054 
Q 896 4262 1171 4384 
Q 1446 4506 1818 4506 
Q 2125 4506 2390 4416 
Q 2656 4326 2854 4115 
Q 3053 3904 3168 3558 
Q 3283 3213 3283 2701 
Q 3283 2080 3148 1568 
Q 3014 1056 2726 691 
Q 2438 326 1990 124 
Q 1542 -77 915 -77 
L 922 403 
z
M 1747 1984 
Q 2266 1984 2506 2224 
Q 2746 2464 2746 2867 
Q 2746 3430 2509 3731 
Q 2272 4032 1818 4032 
Q 1363 4032 1132 3753 
Q 902 3475 902 2950 
Q 902 2451 1139 2217 
Q 1376 1984 1747 1984 
z
" transform="scale(0.015625)"/>
      <path id="AlibabaPuHuiTi-Regular-36" d="M 1837 -64 
Q 1530 -64 1264 22 
Q 998 109 796 313 
Q 595 518 480 860 
Q 365 1203 365 1722 
Q 365 2342 502 2854 
Q 640 3366 928 3734 
Q 1216 4102 1667 4304 
Q 2118 4506 2746 4506 
L 2739 4019 
Q 2330 4019 2010 3904 
Q 1690 3789 1466 3587 
Q 1242 3386 1114 3114 
Q 986 2842 960 2528 
L 979 2528 
Q 1107 2656 1356 2774 
Q 1606 2893 1933 2893 
Q 2554 2893 2918 2541 
Q 3283 2189 3283 1459 
Q 3283 1133 3196 854 
Q 3110 576 2934 371 
Q 2758 166 2483 51 
Q 2208 -64 1837 -64 
z
M 1830 416 
Q 2285 416 2521 675 
Q 2758 934 2758 1459 
Q 2758 1958 2521 2204 
Q 2285 2451 1907 2451 
Q 1389 2451 1152 2204 
Q 915 1958 915 1562 
Q 915 416 1830 416 
z
" transform="scale(0.015625)"/>
     </defs>
     <use xlink:href="#AlibabaPuHuiTi-Regular-32"/>
     <use xlink:href="#AlibabaPuHuiTi-Regular-39" x="57.499985"/>
     <use xlink:href="#AlibabaPuHuiTi-Regular-2e" x="114.999969"/>
     <use xlink:href="#AlibabaPuHuiTi-Regular-36" x="145.199966"/>
     <use xlink:href="#AlibabaPuHuiTi-Regular-35" x="202.699951"/>
     <use xlink:href="#AlibabaPuHuiTi-Regular-25" x="260.199936"/>
    </g>
   </g>
   <g id="legend_1">
    <g id="patch_4">
     <path d="M 281.279375 71.76 
L 323.12 71.76 
Q 325.12 71.76 325.12 69.76 
L 325.12 41.56 
Q 325.12 39.56 323.12 39.56 
L 281.279375 39.56 
Q 279.279375 39.56 279.279375 41.56 
L 279.279375 69.76 
Q 279.279375 71.76 281.279375 71.76 
z
" style="fill: #ffffff; opacity: 0.8; stroke: #cccccc; stroke-linejoin: miter"/>
    </g>
    <g id="patch_5">
     <path d="M 283.279375 51.16 
L 303.279375 51.16 
L 303.279375 44.16 
L 283.279375 44.16 
z
" style="fill: #92c6ff"/>
    </g>
    <g id="text_5">
     <!-- 否 -->
     <g transform="translate(311.279375 51.16)scale(0.1 -0.1)">
      <use xlink:href="#AlibabaPuHuiTi-Regular-5426"/>
     </g>
    </g>
    <g id="patch_6">
     <path d="M 283.279375 65.76 
L 303.279375 65.76 
L 303.279375 58.76 
L 283.279375 58.76 
z
" style="fill: #97f0aa"/>
    </g>
    <g id="text_6">
     <!-- 是 -->
     <g transform="translate(311.279375 65.76)scale(0.1 -0.1)">
      <use xlink:href="#AlibabaPuHuiTi-Regular-662f"/>
     </g>
    </g>
   </g>
  </g>
 </g>
</svg>
