<?xml version="1.0" encoding="utf-8" standalone="no"?>
<!DOCTYPE svg PUBLIC "-//W3C//DTD SVG 1.1//EN"
  "http://www.w3.org/Graphics/SVG/1.1/DTD/svg11.dtd">
<svg xmlns:xlink="http://www.w3.org/1999/xlink" width="432pt" height="288pt" viewBox="0 0 432 288" xmlns="http://www.w3.org/2000/svg" version="1.1">
 <metadata>
  <rdf:RDF xmlns:dc="http://purl.org/dc/elements/1.1/" xmlns:cc="http://creativecommons.org/ns#" xmlns:rdf="http://www.w3.org/1999/02/22-rdf-syntax-ns#">
   <cc:Work>
    <dc:type rdf:resource="http://purl.org/dc/dcmitype/StillImage"/>
    <dc:date>2022-12-08T17:47:00.433748</dc:date>
    <dc:format>image/svg+xml</dc:format>
    <dc:creator>
     <cc:Agent>
      <dc:title>Matplotlib v3.5.2, https://matplotlib.org/</dc:title>
     </cc:Agent>
    </dc:creator>
   </cc:Work>
  </rdf:RDF>
 </metadata>
 <defs>
  <style type="text/css">*{stroke-linejoin: round; stroke-linecap: butt}</style>
 </defs>
 <g id="figure_1">
  <g id="patch_1">
   <path d="M 0 288 
L 432 288 
L 432 0 
L 0 0 
L 0 288 
z
" style="fill: none"/>
  </g>
  <g id="axes_1">
   <g id="patch_2">
    <path d="M 54 252 
L 388.8 252 
L 388.8 34.56 
L 54 34.56 
z
" style="fill: #ffffff"/>
   </g>
   <g id="matplotlib.axis_1">
    <g id="xtick_1">
     <g id="line2d_1">
      <defs>
       <path id="m1b82ab5753" d="M 0 0 
L 0 3.5 
" style="stroke: #000000; stroke-width: 0.8"/>
      </defs>
      <g>
       <use xlink:href="#m1b82ab5753" x="87.48" y="252" style="stroke: #000000; stroke-width: 0.8"/>
      </g>
     </g>
     <g id="text_1">
      <!-- 腾讯网 -->
      <g transform="translate(72.719063 266.6)scale(0.1 -0.1)">
       <defs>
        <path id="AlibabaPuHuiTi-Regular-817e" d="M 5946 1523 
Q 5677 1664 5408 1840 
Q 5139 2016 4909 2214 
L 4794 1235 
L 5638 1235 
Q 5632 1165 5622 1005 
Q 5613 845 5600 662 
Q 5587 480 5574 320 
Q 5562 160 5555 90 
Q 5542 -83 5488 -204 
Q 5434 -326 5322 -403 
Q 5210 -480 5037 -518 
Q 4864 -557 4621 -570 
L 4301 -589 
L 4166 -211 
L 4595 -186 
Q 4755 -179 4860 -156 
Q 4966 -134 5027 -89 
Q 5088 -45 5117 22 
Q 5146 90 5158 186 
Q 5165 224 5171 320 
Q 5178 416 5187 521 
Q 5197 627 5206 726 
Q 5216 826 5222 864 
L 2886 864 
L 3014 1741 
L 3392 1722 
L 3309 1235 
L 4403 1235 
L 4493 1875 
L 2957 1875 
L 2957 1914 
Q 2694 1677 2355 1446 
L 2157 1754 
L 2157 64 
Q 2157 -102 2128 -214 
Q 2099 -326 2032 -396 
Q 1965 -467 1853 -505 
Q 1741 -544 1568 -557 
L 1338 -576 
L 1216 -186 
L 1472 -160 
Q 1670 -147 1724 -76 
Q 1779 -6 1779 198 
L 1779 1414 
L 1062 1414 
Q 1043 1018 998 736 
Q 954 454 886 233 
Q 819 13 732 -185 
Q 646 -384 538 -614 
L 173 -442 
Q 307 -173 412 67 
Q 518 307 588 617 
Q 659 928 694 1353 
Q 730 1779 730 2426 
L 730 4774 
L 2157 4774 
L 2157 1837 
Q 2522 2067 2784 2297 
Q 3046 2528 3232 2810 
L 2310 2810 
L 2310 3181 
L 3443 3181 
Q 3494 3290 3539 3414 
Q 3584 3539 3622 3674 
L 2451 3674 
L 2451 4051 
L 3136 4051 
Q 3078 4134 2998 4233 
Q 2918 4333 2838 4422 
Q 2758 4512 2681 4592 
Q 2605 4672 2547 4723 
L 2810 4954 
Q 2874 4896 2963 4809 
Q 3053 4723 3145 4627 
Q 3238 4531 3318 4435 
Q 3398 4339 3450 4275 
L 3238 4051 
L 3718 4051 
Q 3744 4173 3769 4313 
Q 3795 4454 3817 4598 
Q 3840 4742 3856 4883 
Q 3872 5024 3885 5146 
L 4288 5126 
Q 4269 4883 4233 4588 
Q 4198 4294 4147 4051 
L 4794 4051 
L 4589 4256 
Q 4672 4333 4765 4429 
Q 4858 4525 4950 4627 
Q 5043 4730 5120 4826 
Q 5197 4922 5254 4998 
L 5555 4787 
Q 5504 4717 5430 4624 
Q 5357 4531 5270 4432 
Q 5184 4333 5091 4233 
Q 4998 4134 4915 4051 
L 5766 4051 
L 5766 3674 
L 4058 3674 
Q 3974 3405 3885 3181 
L 5914 3181 
L 5914 2810 
L 4838 2810 
Q 5082 2541 5421 2291 
Q 5760 2042 6163 1875 
L 5946 1523 
z
M 1082 4352 
L 1082 3283 
L 1779 3283 
L 1779 4352 
L 1082 4352 
z
M 1779 1811 
L 1779 2880 
L 1082 2880 
L 1082 2195 
Q 1082 2093 1082 1997 
Q 1082 1901 1075 1811 
L 1779 1811 
z
M 4877 2240 
Q 4710 2381 4572 2525 
Q 4435 2669 4333 2810 
L 3699 2810 
Q 3514 2502 3283 2240 
L 4877 2240 
z
M 4813 179 
L 2400 179 
L 2400 531 
L 4813 531 
L 4813 179 
z
" transform="scale(0.015625)"/>
        <path id="AlibabaPuHuiTi-Regular-8baf" d="M 1408 3482 
Q 1338 3635 1229 3804 
Q 1120 3974 998 4140 
Q 877 4307 752 4454 
Q 627 4602 525 4710 
L 883 5011 
Q 986 4909 1114 4761 
Q 1242 4614 1366 4457 
Q 1491 4301 1603 4141 
Q 1715 3981 1792 3853 
L 1408 3482 
z
M 6163 851 
Q 6131 627 6102 480 
Q 6074 333 6042 192 
Q 5971 -109 5833 -288 
Q 5696 -467 5427 -467 
Q 5222 -467 5052 -310 
Q 4883 -154 4800 134 
Q 4710 442 4678 925 
Q 4646 1408 4646 1990 
L 4646 4307 
L 3373 4307 
L 3373 2579 
L 4461 2579 
L 4461 2138 
L 3373 2138 
L 3373 -589 
L 2918 -589 
L 2918 2138 
L 1907 2138 
L 1907 2579 
L 2918 2579 
L 2918 4307 
L 2035 4307 
L 2035 4781 
L 5107 4781 
L 5107 2048 
Q 5107 1766 5110 1555 
Q 5114 1344 5123 1177 
Q 5133 1011 5145 870 
Q 5158 730 5178 589 
Q 5203 365 5280 224 
Q 5357 83 5427 83 
Q 5517 83 5574 201 
Q 5632 320 5683 614 
Q 5696 704 5709 832 
Q 5722 960 5728 1069 
L 6163 851 
z
M 1542 384 
Q 1587 416 1689 493 
Q 1792 570 1907 656 
Q 2022 742 2124 819 
Q 2227 896 2272 934 
L 2400 461 
Q 2349 422 2217 336 
Q 2086 250 1936 147 
Q 1786 45 1648 -51 
Q 1510 -147 1446 -198 
Q 1376 -243 1289 -310 
Q 1203 -378 1146 -435 
L 883 -45 
Q 1011 64 1049 134 
Q 1088 205 1088 307 
L 1088 2650 
L 314 2650 
L 314 3130 
L 1542 3130 
L 1542 384 
z
" transform="scale(0.015625)"/>
        <path id="AlibabaPuHuiTi-Regular-7f51" d="M 5562 4787 
L 5562 275 
Q 5562 32 5523 -121 
Q 5485 -275 5379 -371 
Q 5274 -467 5088 -508 
Q 4902 -550 4608 -563 
L 4224 -589 
L 4064 -115 
L 4531 -90 
Q 4710 -83 4822 -60 
Q 4934 -38 4998 16 
Q 5062 70 5084 166 
Q 5107 262 5107 410 
L 5107 4339 
L 1165 4339 
L 1165 -576 
L 717 -576 
L 717 4787 
L 5562 4787 
z
M 2803 794 
Q 2739 992 2643 1229 
Q 2547 1466 2432 1728 
Q 2227 1312 2006 934 
Q 1786 557 1562 224 
L 1210 486 
Q 1472 870 1721 1308 
Q 1971 1747 2195 2234 
Q 2003 2637 1804 2995 
Q 1606 3354 1446 3597 
L 1786 3802 
Q 1920 3603 2083 3321 
Q 2246 3040 2413 2720 
Q 2547 3027 2665 3344 
Q 2784 3661 2886 3981 
L 3302 3834 
Q 3162 3418 3002 3014 
Q 2842 2611 2662 2221 
Q 2822 1894 2953 1596 
Q 3085 1299 3168 1075 
L 2803 794 
z
M 4691 358 
Q 4602 627 4442 979 
Q 4282 1331 4096 1702 
Q 3693 883 3174 128 
L 2822 384 
Q 3110 806 3366 1260 
Q 3622 1715 3846 2189 
Q 3667 2528 3494 2825 
Q 3322 3123 3174 3328 
L 3514 3571 
Q 3635 3405 3776 3171 
Q 3917 2938 4064 2669 
Q 4333 3302 4525 3917 
L 4934 3770 
Q 4806 3360 4656 2966 
Q 4506 2573 4326 2182 
Q 4550 1760 4745 1347 
Q 4941 934 5050 634 
L 4691 358 
z
" transform="scale(0.015625)"/>
       </defs>
       <use xlink:href="#AlibabaPuHuiTi-Regular-817e"/>
       <use xlink:href="#AlibabaPuHuiTi-Regular-8baf" x="98.399994"/>
       <use xlink:href="#AlibabaPuHuiTi-Regular-7f51" x="196.799988"/>
      </g>
     </g>
    </g>
    <g id="xtick_2">
     <g id="line2d_2">
      <g>
       <use xlink:href="#m1b82ab5753" x="154.44" y="252" style="stroke: #000000; stroke-width: 0.8"/>
      </g>
     </g>
     <g id="text_2">
      <!-- 新浪新闻 -->
      <g transform="translate(134.75875 266.6)scale(0.1 -0.1)">
       <defs>
        <path id="AlibabaPuHuiTi-Regular-65b0" d="M 2125 1523 
L 2125 83 
Q 2125 -58 2112 -160 
Q 2099 -262 2051 -332 
Q 2003 -403 1916 -448 
Q 1830 -493 1677 -512 
L 1325 -563 
L 1158 -115 
L 1446 -83 
Q 1530 -77 1574 -61 
Q 1619 -45 1641 -6 
Q 1664 32 1667 99 
Q 1670 166 1670 288 
L 1670 1523 
L 467 1523 
L 467 1946 
L 1670 1946 
L 1670 2650 
L 358 2650 
L 358 3059 
L 1146 3059 
Q 1107 3328 1056 3613 
Q 1005 3898 966 4090 
L 512 4090 
L 512 4506 
L 1728 4506 
Q 1709 4576 1683 4669 
Q 1658 4762 1632 4851 
Q 1606 4941 1584 5014 
Q 1562 5088 1549 5120 
L 1965 5197 
Q 1971 5178 1996 5094 
Q 2022 5011 2054 4902 
Q 2086 4794 2115 4685 
Q 2144 4576 2163 4506 
L 3232 4506 
L 3232 4090 
L 2778 4090 
Q 2758 3981 2736 3849 
Q 2714 3718 2688 3580 
Q 2662 3443 2633 3308 
Q 2605 3174 2579 3059 
L 3392 3059 
L 3392 2650 
L 2125 2650 
L 2125 1946 
L 3206 1946 
L 3206 1523 
L 2125 1523 
z
M 6035 2547 
L 5318 2547 
L 5318 -595 
L 4864 -595 
L 4864 2547 
L 4070 2547 
L 4070 1939 
Q 4070 1638 4051 1353 
Q 4032 1069 3961 761 
Q 3891 454 3744 102 
Q 3597 -250 3347 -678 
L 2899 -467 
Q 3130 -115 3274 176 
Q 3418 467 3494 742 
Q 3571 1018 3600 1306 
Q 3629 1594 3629 1939 
L 3629 4493 
L 3674 4493 
Q 3776 4499 4025 4531 
Q 4275 4563 4572 4617 
Q 4870 4672 5174 4752 
Q 5478 4832 5690 4928 
L 5830 4506 
Q 5619 4422 5366 4352 
Q 5114 4282 4867 4230 
Q 4621 4179 4406 4144 
Q 4192 4109 4070 4096 
L 4070 2989 
L 6035 2989 
L 6035 2547 
z
M 1389 4090 
Q 1408 3981 1430 3846 
Q 1453 3712 1475 3574 
Q 1498 3437 1517 3299 
Q 1536 3162 1549 3059 
L 2170 3059 
Q 2227 3283 2278 3571 
Q 2330 3859 2362 4090 
L 1389 4090 
z
M 2899 90 
Q 2765 390 2605 668 
Q 2445 947 2310 1133 
L 2643 1331 
Q 2694 1254 2774 1136 
Q 2854 1018 2937 877 
Q 3021 736 3097 595 
Q 3174 454 3232 333 
L 2899 90 
z
M 1357 1165 
Q 1286 992 1190 797 
Q 1094 602 985 406 
Q 877 211 765 35 
Q 653 -141 544 -275 
L 160 -77 
Q 269 58 387 234 
Q 506 410 618 595 
Q 730 781 826 966 
Q 922 1152 992 1306 
L 1357 1165 
z
" transform="scale(0.015625)"/>
        <path id="AlibabaPuHuiTi-Regular-6d6a" d="M 4531 710 
Q 4819 461 5180 265 
Q 5542 70 6022 -96 
L 5734 -531 
Q 5312 -352 4937 -128 
Q 4563 96 4243 390 
Q 3923 685 3667 1056 
Q 3411 1427 3232 1901 
L 2624 1901 
L 2624 51 
Q 2707 83 2864 144 
Q 3021 205 3187 269 
Q 3354 333 3501 393 
Q 3648 454 3718 486 
L 3776 19 
Q 3712 -6 3536 -76 
Q 3360 -147 3158 -224 
Q 2957 -301 2774 -368 
Q 2592 -435 2522 -461 
Q 2432 -493 2342 -534 
Q 2253 -576 2170 -627 
L 1978 -173 
Q 2086 -122 2128 -51 
Q 2170 19 2170 134 
L 2170 4499 
L 3507 4499 
Q 3456 4666 3401 4842 
Q 3347 5018 3296 5139 
L 3763 5222 
Q 3789 5165 3821 5075 
Q 3853 4986 3881 4883 
Q 3910 4781 3939 4681 
Q 3968 4582 3987 4499 
L 5299 4499 
L 5299 1901 
L 3686 1901 
Q 3802 1645 3933 1424 
Q 4064 1203 4230 1018 
Q 4378 1094 4547 1200 
Q 4717 1306 4886 1418 
Q 5056 1530 5206 1638 
Q 5357 1747 5459 1837 
L 5734 1491 
Q 5626 1402 5482 1299 
Q 5338 1197 5174 1091 
Q 5011 986 4844 886 
Q 4678 787 4531 710 
z
M 774 4864 
Q 883 4794 1040 4694 
Q 1197 4595 1357 4480 
Q 1517 4365 1661 4249 
Q 1805 4134 1901 4045 
L 1645 3610 
Q 1549 3718 1401 3843 
Q 1254 3968 1097 4089 
Q 941 4211 787 4313 
Q 634 4416 518 4486 
L 774 4864 
z
M 2624 4090 
L 2624 3405 
L 4845 3405 
L 4845 4090 
L 2624 4090 
z
M 493 3514 
Q 608 3437 768 3321 
Q 928 3206 1091 3075 
Q 1254 2944 1404 2813 
Q 1555 2682 1651 2579 
L 1376 2131 
Q 1280 2253 1133 2397 
Q 986 2541 822 2681 
Q 659 2822 499 2944 
Q 339 3066 224 3142 
L 493 3514 
z
M 2624 2323 
L 4845 2323 
L 4845 2995 
L 2624 2995 
L 2624 2323 
z
M 1421 1664 
L 1619 1587 
Q 1574 1376 1491 1081 
Q 1408 787 1305 480 
Q 1203 173 1094 -112 
Q 986 -397 896 -589 
L 435 -416 
Q 525 -230 637 51 
Q 749 333 854 640 
Q 960 947 1049 1244 
Q 1139 1542 1184 1760 
L 1421 1664 
z
" transform="scale(0.015625)"/>
        <path id="AlibabaPuHuiTi-Regular-95fb" d="M 1715 3840 
Q 1638 3955 1516 4096 
Q 1395 4237 1260 4374 
Q 1126 4512 998 4630 
Q 870 4749 774 4819 
L 1094 5165 
Q 1190 5094 1324 4979 
Q 1459 4864 1596 4736 
Q 1734 4608 1856 4483 
Q 1978 4358 2054 4262 
L 1715 3840 
z
M 5594 4781 
L 5594 166 
Q 5594 -58 5558 -202 
Q 5523 -346 5440 -435 
Q 5357 -525 5209 -563 
Q 5062 -602 4845 -614 
L 4557 -640 
L 4429 -186 
L 4749 -166 
Q 4992 -154 5072 -74 
Q 5152 6 5152 256 
L 5152 4326 
L 2272 4326 
L 2272 4781 
L 5594 4781 
z
M 691 4032 
L 1133 4019 
L 1133 -595 
L 691 -595 
L 691 4032 
z
M 4262 474 
L 4262 -262 
L 3846 -262 
L 3846 448 
L 1389 301 
L 1357 723 
L 1971 755 
L 1971 3270 
L 1517 3270 
L 1517 3680 
L 4755 3680 
L 4755 3270 
L 4262 3270 
L 4262 883 
L 4902 915 
L 4902 512 
L 4262 474 
z
M 2387 3270 
L 2387 2720 
L 3846 2720 
L 3846 3270 
L 2387 3270 
z
M 2387 1786 
L 3846 1786 
L 3846 2349 
L 2387 2349 
L 2387 1786 
z
M 3846 858 
L 3846 1408 
L 2387 1408 
L 2387 781 
L 3846 858 
z
" transform="scale(0.015625)"/>
       </defs>
       <use xlink:href="#AlibabaPuHuiTi-Regular-65b0"/>
       <use xlink:href="#AlibabaPuHuiTi-Regular-6d6a" x="98.399994"/>
       <use xlink:href="#AlibabaPuHuiTi-Regular-65b0" x="196.799988"/>
       <use xlink:href="#AlibabaPuHuiTi-Regular-95fb" x="295.199982"/>
      </g>
     </g>
    </g>
    <g id="xtick_3">
     <g id="line2d_3">
      <g>
       <use xlink:href="#m1b82ab5753" x="221.4" y="252" style="stroke: #000000; stroke-width: 0.8"/>
      </g>
     </g>
     <g id="text_3">
      <!-- 搜狐新闻 -->
      <g transform="translate(201.71875 266.6)scale(0.1 -0.1)">
       <defs>
        <path id="AlibabaPuHuiTi-Regular-641c" d="M 5837 -557 
Q 5267 -429 4790 -288 
Q 4314 -147 3891 58 
Q 3514 -128 3030 -278 
Q 2547 -429 1901 -582 
L 1690 -141 
Q 2259 -32 2681 77 
Q 3104 186 3437 320 
Q 3194 486 2970 688 
Q 2746 890 2541 1152 
L 2771 1312 
L 2246 1312 
L 2246 1709 
L 3654 1709 
L 3654 2227 
L 2298 2227 
L 2298 4512 
Q 2522 4563 2803 4649 
Q 3085 4736 3366 4845 
L 3526 4442 
Q 3302 4352 3088 4281 
Q 2874 4211 2707 4166 
L 2707 3616 
L 3443 3616 
L 3443 3232 
L 2707 3232 
L 2707 2643 
L 3654 2643 
L 3654 5126 
L 4102 5114 
L 4102 2643 
L 5101 2643 
L 5101 3232 
L 4320 3232 
L 4320 3616 
L 5101 3616 
L 5101 4205 
L 4294 4205 
L 4294 4608 
L 5517 4608 
L 5517 2227 
L 4102 2227 
L 4102 1709 
L 5370 1709 
L 5370 1325 
Q 5126 998 4883 748 
Q 4640 499 4333 307 
Q 4666 179 5072 80 
Q 5478 -19 6010 -115 
L 5837 -557 
z
M 2074 2234 
Q 1965 2176 1827 2109 
Q 1690 2042 1530 1965 
L 1530 77 
Q 1530 -102 1498 -220 
Q 1466 -339 1389 -409 
Q 1312 -480 1181 -515 
Q 1050 -550 851 -563 
L 589 -589 
L 461 -134 
L 742 -109 
Q 960 -90 1027 -22 
Q 1094 45 1094 230 
L 1094 1773 
Q 851 1664 624 1571 
Q 397 1478 243 1427 
L 186 1907 
Q 352 1965 592 2064 
Q 832 2163 1094 2272 
L 1094 3514 
L 384 3514 
L 384 3955 
L 1094 3955 
L 1094 5114 
L 1530 5101 
L 1530 3955 
L 2099 3955 
L 2099 3514 
L 1530 3514 
L 1530 2470 
Q 1677 2541 1801 2601 
Q 1926 2662 2016 2714 
L 2048 2445 
L 2074 2234 
z
M 2931 1312 
Q 3155 1050 3379 861 
Q 3603 672 3866 525 
Q 4134 672 4358 867 
Q 4582 1062 4806 1312 
L 2931 1312 
z
" transform="scale(0.015625)"/>
        <path id="AlibabaPuHuiTi-Regular-72d0" d="M 1530 3693 
Q 1645 3405 1721 3104 
Q 1798 2803 1843 2457 
Q 1888 2112 1907 1709 
Q 1926 1306 1926 813 
Q 1926 429 1891 189 
Q 1856 -51 1763 -188 
Q 1670 -326 1504 -384 
Q 1338 -442 1075 -467 
L 762 -499 
L 614 -45 
L 1011 -13 
Q 1171 0 1270 29 
Q 1370 58 1424 154 
Q 1478 250 1497 432 
Q 1517 614 1517 934 
Q 1517 1261 1507 1542 
Q 1498 1824 1472 2086 
Q 1248 1754 976 1507 
Q 704 1261 410 1024 
L 147 1421 
Q 301 1542 467 1683 
Q 634 1824 797 1981 
Q 960 2138 1113 2310 
Q 1267 2483 1389 2669 
Q 1350 2848 1305 3021 
Q 1261 3194 1190 3360 
Q 1030 3213 857 3075 
Q 685 2938 493 2790 
L 230 3213 
Q 435 3347 627 3497 
Q 819 3648 1005 3814 
Q 787 4243 454 4762 
L 800 4979 
Q 960 4749 1091 4541 
Q 1222 4333 1331 4128 
Q 1517 4320 1689 4521 
Q 1862 4723 2016 4941 
L 2330 4640 
Q 2131 4371 1936 4140 
Q 1741 3910 1530 3693 
z
M 4013 3078 
Q 4013 2387 3952 1683 
Q 3891 979 3661 294 
L 4384 474 
Q 4301 794 4208 1088 
Q 4115 1382 4032 1581 
L 4422 1702 
Q 4499 1517 4582 1280 
Q 4666 1043 4742 777 
Q 4819 512 4886 227 
Q 4954 -58 5005 -339 
L 4595 -512 
Q 4582 -397 4553 -262 
Q 4525 -128 4493 19 
Q 4371 -13 4198 -51 
Q 4026 -90 3862 -125 
Q 3699 -160 3568 -192 
Q 3437 -224 3405 -230 
Q 3334 -250 3260 -275 
Q 3187 -301 3078 -352 
L 2925 102 
Q 3059 147 3116 214 
Q 3174 282 3232 454 
Q 3334 755 3398 1011 
Q 3462 1267 3500 1539 
Q 3539 1811 3552 2131 
Q 3565 2451 3565 2893 
L 3565 4166 
Q 3411 4147 3264 4131 
Q 3117 4115 2976 4102 
L 2976 2618 
Q 2976 2163 2941 1760 
Q 2906 1357 2819 966 
Q 2733 576 2585 192 
Q 2438 -192 2214 -602 
L 1811 -339 
Q 2035 26 2172 358 
Q 2310 691 2387 1040 
Q 2464 1389 2493 1776 
Q 2522 2163 2522 2637 
L 2522 4525 
Q 2874 4550 3270 4595 
Q 3667 4640 4057 4697 
Q 4448 4755 4813 4825 
Q 5178 4896 5478 4973 
L 5606 4531 
Q 5478 4499 5337 4467 
Q 5197 4435 5050 4403 
Q 5069 3622 5142 2963 
Q 5216 2304 5357 1731 
Q 5498 1158 5696 659 
Q 5894 160 6163 -288 
L 5709 -525 
Q 5453 -38 5257 486 
Q 5062 1011 4928 1600 
Q 4794 2189 4720 2861 
Q 4646 3533 4627 4320 
L 4013 4224 
L 4013 3078 
z
" transform="scale(0.015625)"/>
       </defs>
       <use xlink:href="#AlibabaPuHuiTi-Regular-641c"/>
       <use xlink:href="#AlibabaPuHuiTi-Regular-72d0" x="98.399994"/>
       <use xlink:href="#AlibabaPuHuiTi-Regular-65b0" x="196.799988"/>
       <use xlink:href="#AlibabaPuHuiTi-Regular-95fb" x="295.199982"/>
      </g>
     </g>
    </g>
    <g id="xtick_4">
     <g id="line2d_4">
      <g>
       <use xlink:href="#m1b82ab5753" x="288.36" y="252" style="stroke: #000000; stroke-width: 0.8"/>
      </g>
     </g>
     <g id="text_4">
      <!-- 澎湃新闻 -->
      <g transform="translate(268.67875 266.6)scale(0.1 -0.1)">
       <defs>
        <path id="AlibabaPuHuiTi-Regular-6f8e" d="M 2682 4051 
L 1728 4051 
L 1728 4435 
L 2682 4435 
L 2682 5120 
L 3098 5107 
L 3098 4435 
L 4186 4435 
L 4186 4051 
L 3098 4051 
L 3098 3462 
L 4019 3462 
L 4019 3091 
L 1773 3091 
L 1773 3462 
L 2682 3462 
L 2682 4051 
z
M 4058 3507 
Q 4448 3821 4806 4217 
Q 5165 4614 5434 5018 
L 5773 4742 
Q 5638 4538 5468 4326 
Q 5299 4115 5110 3910 
Q 4922 3706 4726 3510 
Q 4531 3315 4346 3149 
L 4058 3507 
z
M 1395 3750 
Q 1318 3853 1193 3981 
Q 1069 4109 934 4230 
Q 800 4352 669 4457 
Q 538 4563 442 4627 
L 678 4960 
Q 774 4896 908 4797 
Q 1043 4698 1180 4589 
Q 1318 4480 1446 4368 
Q 1574 4256 1658 4166 
L 1395 3750 
z
M 1248 2285 
Q 1158 2400 1027 2534 
Q 896 2669 752 2800 
Q 608 2931 470 3043 
Q 333 3155 230 3226 
L 480 3584 
Q 582 3514 726 3405 
Q 870 3296 1020 3174 
Q 1171 3053 1305 2931 
Q 1440 2810 1530 2720 
L 1248 2285 
z
M 4032 1811 
Q 4429 2138 4800 2509 
Q 5171 2880 5466 3302 
L 5798 3021 
Q 5504 2598 5113 2204 
Q 4723 1811 4301 1446 
L 4032 1811 
z
M 3853 1427 
L 1901 1427 
L 1901 2707 
L 3853 2707 
L 3853 1427 
z
M 3456 2362 
L 2298 2362 
L 2298 1766 
L 3456 1766 
L 3456 2362 
z
M 1427 1741 
Q 1395 1510 1324 1200 
Q 1254 890 1164 563 
Q 1075 237 976 -67 
Q 877 -371 794 -576 
L 365 -448 
Q 448 -243 550 61 
Q 653 365 745 691 
Q 838 1018 912 1331 
Q 986 1645 1018 1869 
L 1427 1741 
z
M 6016 1382 
Q 5626 768 5117 259 
Q 4608 -250 4026 -678 
L 3738 -307 
Q 4320 77 4822 589 
Q 5325 1101 5677 1670 
L 6016 1382 
z
M 4102 19 
Q 3866 -19 3523 -70 
Q 3181 -122 2813 -170 
Q 2445 -218 2096 -262 
Q 1747 -307 1498 -333 
L 1395 77 
Q 1696 102 2105 147 
Q 2515 192 2938 250 
Q 2995 346 3065 483 
Q 3136 621 3203 765 
Q 3270 909 3324 1046 
Q 3379 1184 3418 1280 
L 3802 1146 
Q 3763 1062 3715 956 
Q 3667 851 3609 742 
Q 3552 634 3494 522 
Q 3437 410 3386 307 
Q 3590 339 3766 368 
Q 3942 397 4083 422 
L 4096 192 
L 4102 19 
z
M 2387 211 
Q 2291 474 2176 720 
Q 2061 966 1965 1120 
L 2304 1280 
Q 2400 1133 2518 896 
Q 2637 659 2733 435 
L 2387 211 
z
" transform="scale(0.015625)"/>
        <path id="AlibabaPuHuiTi-Regular-6e43" d="M 1504 3661 
Q 1427 3763 1305 3888 
Q 1184 4013 1049 4137 
Q 915 4262 787 4371 
Q 659 4480 563 4550 
L 832 4902 
Q 928 4838 1059 4732 
Q 1190 4627 1324 4512 
Q 1459 4397 1580 4278 
Q 1702 4160 1779 4077 
L 1504 3661 
z
M 2912 1171 
Q 2874 851 2806 601 
Q 2739 352 2636 131 
Q 2534 -90 2387 -294 
Q 2240 -499 2048 -730 
L 1651 -448 
Q 1837 -237 1974 -64 
Q 2112 109 2208 291 
Q 2304 474 2368 682 
Q 2432 890 2470 1171 
L 1664 1171 
L 1664 1600 
L 2509 1600 
Q 2522 1824 2528 2083 
Q 2534 2342 2534 2669 
L 1843 2669 
L 1843 3085 
L 2534 3085 
L 2534 4102 
Q 2387 4064 2240 4025 
Q 2093 3987 1946 3955 
L 1882 4384 
Q 2304 4486 2691 4608 
Q 3078 4730 3430 4896 
L 3558 4480 
Q 3424 4410 3277 4352 
Q 3130 4294 2970 4237 
L 2970 3085 
L 3622 3085 
L 3622 2669 
L 2970 2669 
L 2970 2624 
Q 2970 2323 2963 2073 
Q 2957 1824 2944 1600 
L 3725 1600 
L 3725 1171 
L 2912 1171 
z
M 5997 640 
L 4922 640 
L 4922 -614 
L 4474 -614 
L 4474 640 
L 3418 640 
L 3418 1056 
L 4474 1056 
L 4474 1862 
L 3699 1862 
L 3699 2278 
L 4474 2278 
L 4474 3059 
L 3699 3059 
L 3699 3475 
L 4474 3475 
L 4474 4237 
L 3686 4237 
L 3686 4666 
L 5843 4666 
L 5843 4237 
L 4922 4237 
L 4922 3475 
L 5747 3475 
L 5747 3059 
L 4922 3059 
L 4922 2278 
L 5747 2278 
L 5747 1862 
L 4922 1862 
L 4922 1056 
L 5997 1056 
L 5997 640 
z
M 531 3462 
Q 627 3398 764 3292 
Q 902 3187 1046 3068 
Q 1190 2950 1318 2832 
Q 1446 2714 1536 2624 
L 1254 2195 
Q 1171 2304 1046 2435 
Q 922 2566 781 2694 
Q 640 2822 505 2931 
Q 371 3040 269 3104 
L 531 3462 
z
M 1306 1843 
L 1498 1786 
Q 1466 1555 1389 1241 
Q 1312 928 1219 595 
Q 1126 262 1024 -42 
Q 922 -346 838 -557 
L 397 -422 
Q 486 -224 592 83 
Q 698 390 794 720 
Q 890 1050 966 1366 
Q 1043 1683 1082 1907 
L 1306 1843 
z
" transform="scale(0.015625)"/>
       </defs>
       <use xlink:href="#AlibabaPuHuiTi-Regular-6f8e"/>
       <use xlink:href="#AlibabaPuHuiTi-Regular-6e43" x="98.399994"/>
       <use xlink:href="#AlibabaPuHuiTi-Regular-65b0" x="196.799988"/>
       <use xlink:href="#AlibabaPuHuiTi-Regular-95fb" x="295.199982"/>
      </g>
     </g>
    </g>
    <g id="xtick_5">
     <g id="line2d_5">
      <g>
       <use xlink:href="#m1b82ab5753" x="355.32" y="252" style="stroke: #000000; stroke-width: 0.8"/>
      </g>
     </g>
     <g id="text_5">
      <!-- B站 -->
      <g transform="translate(347.299688 266.6)scale(0.1 -0.1)">
       <defs>
        <path id="AlibabaPuHuiTi-Regular-42" d="M 589 4442 
L 1869 4442 
Q 2304 4442 2592 4371 
Q 2880 4301 3049 4153 
Q 3219 4006 3289 3785 
Q 3360 3565 3360 3264 
Q 3360 2918 3213 2675 
Q 3066 2432 2714 2323 
L 2714 2298 
Q 2938 2253 3091 2160 
Q 3245 2067 3337 1932 
Q 3430 1798 3468 1632 
Q 3507 1466 3507 1267 
Q 3507 966 3436 729 
Q 3366 493 3193 329 
Q 3021 166 2729 83 
Q 2438 0 1997 0 
L 589 0 
L 589 4442 
z
M 1600 2496 
Q 1920 2496 2147 2528 
Q 2374 2560 2518 2643 
Q 2662 2726 2729 2870 
Q 2797 3014 2797 3232 
Q 2797 3475 2729 3619 
Q 2662 3763 2518 3836 
Q 2374 3910 2147 3932 
Q 1920 3955 1600 3955 
L 1165 3955 
L 1165 2496 
L 1600 2496 
z
M 1760 493 
Q 2099 493 2326 525 
Q 2554 557 2688 643 
Q 2822 730 2876 883 
Q 2931 1037 2931 1274 
Q 2931 1478 2873 1622 
Q 2816 1766 2681 1859 
Q 2547 1952 2323 1997 
Q 2099 2042 1760 2042 
L 1165 2042 
L 1165 493 
L 1760 493 
z
" transform="scale(0.015625)"/>
        <path id="AlibabaPuHuiTi-Regular-7ad9" d="M 4320 3616 
L 4320 2355 
L 5542 2355 
L 5542 -621 
L 5082 -621 
L 5082 -237 
L 3347 -237 
L 3347 -614 
L 2893 -614 
L 2893 2355 
L 3853 2355 
L 3853 5133 
L 4320 5114 
L 4320 4077 
L 5990 4077 
L 5990 3616 
L 4320 3616 
z
M 2899 3654 
L 397 3654 
L 397 4096 
L 1472 4096 
Q 1440 4230 1408 4364 
Q 1376 4499 1341 4620 
Q 1306 4742 1274 4848 
Q 1242 4954 1216 5030 
L 1670 5107 
Q 1696 5030 1728 4915 
Q 1760 4800 1795 4662 
Q 1830 4525 1865 4377 
Q 1901 4230 1933 4096 
L 2899 4096 
L 2899 3654 
z
M 2042 666 
Q 2253 717 2429 758 
Q 2605 800 2720 838 
L 2758 384 
Q 2637 346 2441 301 
Q 2246 256 2016 205 
Q 1786 154 1539 102 
Q 1293 51 1062 3 
Q 832 -45 640 -83 
Q 448 -122 333 -141 
L 205 301 
Q 307 314 457 339 
Q 608 365 787 400 
Q 966 435 1161 473 
Q 1357 512 1555 557 
Q 1645 826 1731 1203 
Q 1818 1581 1891 1977 
Q 1965 2374 2019 2742 
Q 2074 3110 2093 3360 
L 2534 3315 
Q 2509 3072 2457 2736 
Q 2406 2400 2339 2035 
Q 2272 1670 2195 1308 
Q 2118 947 2042 666 
z
M 1062 973 
Q 1030 1203 985 1507 
Q 941 1811 886 2121 
Q 832 2432 777 2726 
Q 723 3021 678 3238 
L 1088 3322 
Q 1133 3104 1190 2809 
Q 1248 2515 1302 2204 
Q 1357 1894 1408 1593 
Q 1459 1293 1491 1056 
L 1062 973 
z
M 5082 1888 
L 3347 1888 
L 3347 224 
L 5082 224 
L 5082 1888 
z
" transform="scale(0.015625)"/>
       </defs>
       <use xlink:href="#AlibabaPuHuiTi-Regular-42"/>
       <use xlink:href="#AlibabaPuHuiTi-Regular-7ad9" x="61.999985"/>
      </g>
     </g>
    </g>
   </g>
   <g id="matplotlib.axis_2">
    <g id="ytick_1">
     <g id="line2d_6">
      <defs>
       <path id="m92794f1230" d="M 0 0 
L -3.5 0 
" style="stroke: #000000; stroke-width: 0.8"/>
      </defs>
      <g>
       <use xlink:href="#m92794f1230" x="54" y="242.116364" style="stroke: #000000; stroke-width: 0.8"/>
      </g>
     </g>
     <g id="text_6">
      <!-- 0 -->
      <g transform="translate(41.25 245.916364)scale(0.1 -0.1)">
       <defs>
        <path id="AlibabaPuHuiTi-Regular-30" d="M 1837 -64 
Q 1504 -64 1229 35 
Q 954 134 755 390 
Q 557 646 448 1091 
Q 339 1536 339 2221 
Q 339 2906 448 3347 
Q 557 3789 755 4048 
Q 954 4307 1229 4406 
Q 1504 4506 1837 4506 
Q 2170 4506 2448 4406 
Q 2726 4307 2924 4048 
Q 3123 3789 3232 3347 
Q 3341 2906 3341 2221 
Q 3341 1536 3232 1091 
Q 3123 646 2924 390 
Q 2726 134 2448 35 
Q 2170 -64 1837 -64 
z
M 1837 416 
Q 2074 416 2246 496 
Q 2419 576 2534 781 
Q 2650 986 2704 1334 
Q 2758 1683 2758 2221 
Q 2758 2752 2704 3101 
Q 2650 3450 2534 3654 
Q 2419 3859 2246 3939 
Q 2074 4019 1837 4019 
Q 1606 4019 1433 3939 
Q 1261 3859 1149 3654 
Q 1037 3450 982 3101 
Q 928 2752 928 2221 
Q 928 1683 982 1334 
Q 1037 986 1149 781 
Q 1261 576 1433 496 
Q 1606 416 1837 416 
z
" transform="scale(0.015625)"/>
       </defs>
       <use xlink:href="#AlibabaPuHuiTi-Regular-30"/>
      </g>
     </g>
    </g>
    <g id="ytick_2">
     <g id="line2d_7">
      <g>
       <use xlink:href="#m92794f1230" x="54" y="197.190744" style="stroke: #000000; stroke-width: 0.8"/>
      </g>
     </g>
     <g id="text_7">
      <!-- 10 -->
      <g transform="translate(35.5 200.990744)scale(0.1 -0.1)">
       <defs>
        <path id="AlibabaPuHuiTi-Regular-31" d="M 1747 3917 
L 646 3706 
L 646 4173 
L 1946 4442 
L 2323 4442 
L 2323 0 
L 1747 0 
L 1747 3917 
z
" transform="scale(0.015625)"/>
       </defs>
       <use xlink:href="#AlibabaPuHuiTi-Regular-31"/>
       <use xlink:href="#AlibabaPuHuiTi-Regular-30" x="57.499985"/>
      </g>
     </g>
    </g>
    <g id="ytick_3">
     <g id="line2d_8">
      <g>
       <use xlink:href="#m92794f1230" x="54" y="152.265124" style="stroke: #000000; stroke-width: 0.8"/>
      </g>
     </g>
     <g id="text_8">
      <!-- 20 -->
      <g transform="translate(35.5 156.065124)scale(0.1 -0.1)">
       <defs>
        <path id="AlibabaPuHuiTi-Regular-32" d="M 365 608 
Q 1075 1165 1504 1555 
Q 1933 1946 2169 2240 
Q 2406 2534 2483 2768 
Q 2560 3002 2560 3238 
Q 2560 3475 2473 3628 
Q 2387 3782 2252 3872 
Q 2118 3962 1948 3994 
Q 1779 4026 1619 4026 
Q 1408 4026 1171 4003 
Q 934 3981 672 3910 
L 672 4403 
Q 896 4454 1149 4480 
Q 1402 4506 1683 4506 
Q 2010 4506 2272 4435 
Q 2534 4365 2723 4211 
Q 2912 4058 3011 3814 
Q 3110 3571 3110 3232 
Q 3110 2931 3020 2665 
Q 2931 2400 2720 2115 
Q 2509 1830 2150 1500 
Q 1792 1171 1254 742 
L 998 544 
L 998 486 
L 3290 486 
L 3290 0 
L 365 0 
L 365 608 
z
" transform="scale(0.015625)"/>
       </defs>
       <use xlink:href="#AlibabaPuHuiTi-Regular-32"/>
       <use xlink:href="#AlibabaPuHuiTi-Regular-30" x="57.499985"/>
      </g>
     </g>
    </g>
    <g id="ytick_4">
     <g id="line2d_9">
      <g>
       <use xlink:href="#m92794f1230" x="54" y="107.339504" style="stroke: #000000; stroke-width: 0.8"/>
      </g>
     </g>
     <g id="text_9">
      <!-- 30 -->
      <g transform="translate(35.5 111.139504)scale(0.1 -0.1)">
       <defs>
        <path id="AlibabaPuHuiTi-Regular-33" d="M 1446 -64 
Q 1178 -64 925 -45 
Q 672 -26 448 19 
L 448 525 
Q 704 461 944 438 
Q 1184 416 1440 416 
Q 1690 416 1904 454 
Q 2118 493 2272 589 
Q 2426 685 2515 841 
Q 2605 998 2605 1229 
Q 2605 1702 2285 1888 
Q 1965 2074 1331 2074 
L 979 2074 
L 979 2515 
L 1325 2515 
Q 1907 2515 2208 2729 
Q 2509 2944 2509 3309 
Q 2509 3699 2275 3865 
Q 2042 4032 1562 4032 
Q 1370 4032 1120 4000 
Q 870 3968 659 3904 
L 659 4378 
Q 826 4429 1078 4467 
Q 1331 4506 1587 4506 
Q 2304 4506 2672 4230 
Q 3040 3955 3040 3341 
Q 3040 2906 2829 2672 
Q 2618 2438 2253 2330 
L 2253 2291 
Q 2726 2208 2940 1936 
Q 3155 1664 3155 1222 
Q 3155 608 2742 272 
Q 2330 -64 1446 -64 
z
" transform="scale(0.015625)"/>
       </defs>
       <use xlink:href="#AlibabaPuHuiTi-Regular-33"/>
       <use xlink:href="#AlibabaPuHuiTi-Regular-30" x="57.499985"/>
      </g>
     </g>
    </g>
    <g id="ytick_5">
     <g id="line2d_10">
      <g>
       <use xlink:href="#m92794f1230" x="54" y="62.413884" style="stroke: #000000; stroke-width: 0.8"/>
      </g>
     </g>
     <g id="text_10">
      <!-- 40 -->
      <g transform="translate(35.5 66.213884)scale(0.1 -0.1)">
       <defs>
        <path id="AlibabaPuHuiTi-Regular-34" d="M 3386 1094 
L 2861 1094 
L 2861 0 
L 2323 0 
L 2323 1094 
L 224 1094 
L 224 1715 
L 2170 4442 
L 2861 4442 
L 2861 1581 
L 3386 1581 
L 3386 1094 
z
M 2323 1581 
L 2323 3853 
L 2285 3853 
L 710 1619 
L 710 1581 
L 2323 1581 
z
" transform="scale(0.015625)"/>
       </defs>
       <use xlink:href="#AlibabaPuHuiTi-Regular-34"/>
       <use xlink:href="#AlibabaPuHuiTi-Regular-30" x="57.499985"/>
      </g>
     </g>
    </g>
    <g id="text_11">
     <!-- 报道数量 -->
     <g transform="translate(29.5 162.96125)rotate(-90)scale(0.1 -0.1)">
      <defs>
       <path id="AlibabaPuHuiTi-Regular-62a5" d="M 1734 3936 
L 2458 3936 
L 2458 3501 
L 1734 3501 
L 1734 2381 
Q 1939 2445 2115 2502 
Q 2291 2560 2419 2611 
L 2438 2374 
L 2451 2170 
Q 2317 2118 2131 2057 
Q 1946 1997 1734 1926 
L 1734 173 
Q 1734 -38 1702 -172 
Q 1670 -307 1584 -390 
Q 1498 -474 1350 -512 
Q 1203 -550 973 -570 
L 672 -595 
L 525 -134 
L 858 -109 
Q 1114 -90 1200 -10 
Q 1286 70 1286 307 
L 1286 1779 
Q 998 1690 742 1613 
Q 486 1536 307 1485 
L 166 1939 
Q 378 1990 675 2070 
Q 973 2150 1286 2246 
L 1286 3501 
L 384 3501 
L 384 3936 
L 1286 3936 
L 1286 5101 
L 1734 5082 
L 1734 3936 
z
M 4742 666 
Q 4992 422 5299 217 
Q 5606 13 5997 -205 
L 5722 -608 
Q 5363 -403 5046 -169 
Q 4730 64 4454 339 
Q 4243 115 3977 -109 
Q 3712 -333 3379 -570 
L 3091 -237 
L 3091 -576 
L 2630 -576 
L 2630 4800 
L 5485 4800 
Q 5485 4768 5478 4627 
Q 5472 4486 5465 4320 
Q 5459 4154 5452 4003 
Q 5446 3853 5440 3802 
Q 5434 3622 5389 3510 
Q 5344 3398 5225 3328 
Q 5107 3258 4902 3222 
Q 4698 3187 4365 3162 
L 3968 3130 
L 3814 3552 
L 4301 3578 
Q 4512 3590 4643 3612 
Q 4774 3635 4844 3673 
Q 4915 3712 4944 3773 
Q 4973 3834 4979 3923 
Q 4986 3987 4995 4121 
Q 5005 4256 5011 4358 
L 3091 4358 
L 3091 2765 
L 5549 2765 
L 5549 2336 
Q 5427 1894 5248 1484 
Q 5069 1075 4742 666 
z
M 3091 -218 
Q 3763 256 4160 672 
Q 3923 966 3734 1315 
Q 3546 1664 3398 2086 
L 3795 2240 
Q 3930 1850 4086 1549 
Q 4243 1248 4435 998 
Q 4678 1318 4819 1644 
Q 4960 1971 5069 2342 
L 3091 2342 
L 3091 -218 
z
" transform="scale(0.015625)"/>
       <path id="AlibabaPuHuiTi-Regular-9053" d="M 3405 3526 
Q 3450 3648 3491 3785 
Q 3533 3923 3565 4051 
L 1901 4051 
L 1901 4461 
L 3008 4461 
Q 2925 4627 2819 4803 
Q 2714 4979 2637 5075 
L 3002 5293 
Q 3053 5229 3117 5129 
Q 3181 5030 3245 4924 
Q 3309 4819 3366 4720 
Q 3424 4621 3456 4557 
L 3315 4461 
L 4102 4461 
Q 4179 4550 4265 4665 
Q 4352 4781 4438 4896 
Q 4525 5011 4595 5120 
Q 4666 5229 4717 5318 
L 5133 5094 
Q 5056 4966 4928 4790 
Q 4800 4614 4672 4461 
L 5882 4461 
L 5882 4051 
L 4058 4051 
Q 4026 3923 3987 3785 
Q 3949 3648 3904 3526 
L 5357 3526 
L 5357 582 
L 2330 582 
L 2330 3526 
L 3405 3526 
z
M 1338 3501 
Q 1274 3648 1168 3827 
Q 1062 4006 944 4185 
Q 826 4365 707 4525 
Q 589 4685 499 4787 
L 890 5062 
Q 979 4960 1100 4803 
Q 1222 4646 1344 4473 
Q 1466 4301 1574 4131 
Q 1683 3962 1747 3840 
L 1338 3501 
z
M 4890 3162 
L 2797 3162 
L 2797 2669 
L 4890 2669 
L 4890 3162 
z
M 3123 38 
Q 3840 6 4579 12 
Q 5318 19 6035 51 
L 5958 -403 
Q 5242 -435 4506 -441 
Q 3770 -448 3053 -416 
Q 2739 -410 2499 -378 
Q 2259 -346 2060 -266 
Q 1862 -186 1683 -38 
Q 1504 109 1318 352 
Q 1229 243 1145 150 
Q 1062 58 972 -38 
Q 883 -134 780 -233 
Q 678 -333 550 -454 
L 288 -26 
Q 480 160 678 368 
Q 877 576 1082 819 
L 1082 2528 
L 339 2528 
L 339 3008 
L 1530 3008 
L 1530 832 
Q 1690 582 1850 432 
Q 2010 282 2195 198 
Q 2381 115 2608 83 
Q 2835 51 3123 38 
z
M 2797 1811 
L 4890 1811 
L 4890 2304 
L 2797 2304 
L 2797 1811 
z
M 4890 947 
L 4890 1453 
L 2797 1453 
L 2797 947 
L 4890 947 
z
" transform="scale(0.015625)"/>
       <path id="AlibabaPuHuiTi-Regular-6570" d="M 4819 947 
Q 5274 301 6061 -294 
L 5728 -640 
Q 5363 -346 5075 -54 
Q 4787 237 4563 544 
Q 4326 230 4006 -64 
Q 3686 -358 3251 -672 
L 2957 -314 
Q 3418 -6 3744 298 
Q 4070 602 4294 947 
Q 4045 1382 3894 1849 
Q 3744 2317 3661 2854 
Q 3610 2765 3555 2672 
Q 3501 2579 3443 2490 
L 3085 2720 
Q 3264 2970 3421 3274 
Q 3578 3578 3702 3898 
Q 3827 4218 3916 4534 
Q 4006 4851 4058 5120 
L 4506 5011 
Q 4454 4781 4387 4553 
Q 4320 4326 4237 4096 
L 5901 4096 
L 5901 3635 
L 5466 3635 
Q 5427 3200 5376 2822 
Q 5325 2445 5251 2118 
Q 5178 1792 5072 1501 
Q 4966 1210 4819 947 
z
M 198 2317 
Q 640 2534 985 2806 
Q 1331 3078 1600 3379 
L 397 3379 
L 397 3770 
L 1709 3770 
L 1709 5082 
L 2138 5056 
L 2138 3770 
L 3290 3770 
L 3290 3379 
L 2138 3379 
L 2138 2189 
L 1709 2189 
L 1709 2976 
Q 1466 2694 1149 2441 
Q 832 2189 429 1971 
L 198 2317 
z
M 3213 4774 
Q 3168 4672 3104 4550 
Q 3040 4429 2966 4304 
Q 2893 4179 2816 4064 
Q 2739 3949 2675 3866 
L 2355 4045 
Q 2413 4122 2483 4230 
Q 2554 4339 2621 4457 
Q 2688 4576 2749 4701 
Q 2810 4826 2854 4934 
L 3213 4774 
z
M 1037 3872 
Q 1005 3974 957 4099 
Q 909 4224 851 4345 
Q 794 4467 736 4576 
Q 678 4685 634 4768 
L 973 4896 
Q 1018 4826 1075 4717 
Q 1133 4608 1190 4483 
Q 1248 4358 1299 4230 
Q 1350 4102 1389 3994 
L 1037 3872 
z
M 3968 3456 
Q 4038 2848 4172 2345 
Q 4307 1843 4544 1395 
Q 4755 1856 4864 2397 
Q 4973 2938 5037 3635 
L 4045 3635 
L 3968 3456 
z
M 3014 2086 
Q 2829 2310 2621 2531 
Q 2413 2752 2208 2931 
L 2464 3168 
Q 2630 3040 2854 2819 
Q 3078 2598 3270 2381 
L 3014 2086 
z
M 2842 -275 
Q 2662 -166 2470 -67 
Q 2278 32 2080 134 
Q 1805 -70 1417 -256 
Q 1030 -442 467 -627 
L 243 -224 
Q 723 -83 1065 54 
Q 1408 192 1658 346 
Q 1165 582 704 755 
Q 794 902 883 1056 
Q 973 1210 1056 1363 
L 314 1363 
L 314 1747 
L 1248 1747 
Q 1306 1869 1354 1981 
Q 1402 2093 1440 2195 
L 1850 2061 
Q 1818 1978 1786 1901 
Q 1754 1824 1722 1747 
L 3053 1747 
L 3053 1382 
Q 2925 1114 2777 877 
Q 2630 640 2419 429 
Q 2560 358 2707 291 
Q 2854 224 3014 147 
L 2842 -275 
z
M 1286 909 
Q 1459 838 1638 764 
Q 1818 691 2016 602 
Q 2208 768 2339 953 
Q 2470 1139 2579 1363 
L 1536 1363 
Q 1478 1242 1414 1130 
Q 1350 1018 1286 909 
z
" transform="scale(0.015625)"/>
       <path id="AlibabaPuHuiTi-Regular-91cf" d="M 5261 3450 
L 1030 3450 
L 1030 4928 
L 5261 4928 
L 5261 3450 
z
M 1517 4614 
L 1517 4333 
L 4781 4333 
L 4781 4614 
L 1517 4614 
z
M 4781 3757 
L 4781 4045 
L 1517 4045 
L 1517 3757 
L 4781 3757 
z
M 5990 3149 
L 5990 2810 
L 301 2810 
L 301 3149 
L 5990 3149 
z
M 3379 -154 
L 5856 -154 
L 5856 -493 
L 435 -493 
L 435 -154 
L 2918 -154 
L 2918 218 
L 870 218 
L 870 557 
L 2918 557 
L 2918 928 
L 1024 928 
L 1024 2477 
L 5261 2477 
L 5261 928 
L 3379 928 
L 3379 557 
L 5421 557 
L 5421 218 
L 3379 218 
L 3379 -154 
z
M 1504 2170 
L 1504 1856 
L 2918 1856 
L 2918 2170 
L 1504 2170 
z
M 4781 2170 
L 3379 2170 
L 3379 1856 
L 4781 1856 
L 4781 2170 
z
M 2918 1242 
L 2918 1555 
L 1504 1555 
L 1504 1242 
L 2918 1242 
z
M 4781 1242 
L 4781 1555 
L 3379 1555 
L 3379 1242 
L 4781 1242 
z
" transform="scale(0.015625)"/>
      </defs>
      <use xlink:href="#AlibabaPuHuiTi-Regular-62a5"/>
      <use xlink:href="#AlibabaPuHuiTi-Regular-9053" x="98.399994"/>
      <use xlink:href="#AlibabaPuHuiTi-Regular-6570" x="196.799988"/>
      <use xlink:href="#AlibabaPuHuiTi-Regular-91cf" x="295.199982"/>
     </g>
    </g>
   </g>
   <g id="patch_3">
    <path d="M 70.74 237.623802 
L 104.22 237.623802 
L 104.22 224.146116 
L 70.74 224.146116 
L 70.74 237.623802 
z
" clip-path="url(#pc23490c4e0)" style="fill: #92c6ff; stroke: #000000; stroke-linejoin: miter"/>
   </g>
   <g id="line2d_11">
    <path d="M 87.48 237.623802 
L 87.48 242.116364 
" clip-path="url(#pc23490c4e0)" style="fill: none; stroke: #000000; stroke-linecap: square"/>
   </g>
   <g id="line2d_12">
    <path d="M 87.48 224.146116 
L 87.48 206.175868 
" clip-path="url(#pc23490c4e0)" style="fill: none; stroke: #000000; stroke-linecap: square"/>
   </g>
   <g id="line2d_13">
    <path d="M 79.11 242.116364 
L 95.85 242.116364 
" clip-path="url(#pc23490c4e0)" style="fill: none; stroke: #000000; stroke-linecap: square"/>
   </g>
   <g id="line2d_14">
    <path d="M 79.11 206.175868 
L 95.85 206.175868 
" clip-path="url(#pc23490c4e0)" style="fill: none; stroke: #000000; stroke-linecap: square"/>
   </g>
   <g id="line2d_15">
    <defs>
     <path id="m6fdf6e6739" d="M 0 3 
C 0.795609 3 1.55874 2.683901 2.12132 2.12132 
C 2.683901 1.55874 3 0.795609 3 0 
C 3 -0.795609 2.683901 -1.55874 2.12132 -2.12132 
C 1.55874 -2.683901 0.795609 -3 0 -3 
C -0.795609 -3 -1.55874 -2.683901 -2.12132 -2.12132 
C -2.683901 -1.55874 -3 -0.795609 -3 0 
C -3 0.795609 -2.683901 1.55874 -2.12132 2.12132 
C -1.55874 2.683901 -0.795609 3 0 3 
z
" style="stroke: #000000"/>
    </defs>
    <g clip-path="url(#pc23490c4e0)">
     <use xlink:href="#m6fdf6e6739" x="87.48" y="125.309752" style="fill-opacity: 0; stroke: #000000"/>
     <use xlink:href="#m6fdf6e6739" x="87.48" y="197.190744" style="fill-opacity: 0; stroke: #000000"/>
     <use xlink:href="#m6fdf6e6739" x="87.48" y="179.220496" style="fill-opacity: 0; stroke: #000000"/>
     <use xlink:href="#m6fdf6e6739" x="87.48" y="197.190744" style="fill-opacity: 0; stroke: #000000"/>
     <use xlink:href="#m6fdf6e6739" x="87.48" y="201.683306" style="fill-opacity: 0; stroke: #000000"/>
     <use xlink:href="#m6fdf6e6739" x="87.48" y="161.250248" style="fill-opacity: 0; stroke: #000000"/>
     <use xlink:href="#m6fdf6e6739" x="87.48" y="111.832066" style="fill-opacity: 0; stroke: #000000"/>
     <use xlink:href="#m6fdf6e6739" x="87.48" y="80.384132" style="fill-opacity: 0; stroke: #000000"/>
     <use xlink:href="#m6fdf6e6739" x="87.48" y="75.89157" style="fill-opacity: 0; stroke: #000000"/>
     <use xlink:href="#m6fdf6e6739" x="87.48" y="188.20562" style="fill-opacity: 0; stroke: #000000"/>
     <use xlink:href="#m6fdf6e6739" x="87.48" y="183.713058" style="fill-opacity: 0; stroke: #000000"/>
    </g>
   </g>
   <g id="patch_4">
    <path d="M 137.7 242.116364 
L 171.18 242.116364 
L 171.18 242.116364 
L 137.7 242.116364 
L 137.7 242.116364 
z
" clip-path="url(#pc23490c4e0)" style="fill: #92c6ff; stroke: #000000; stroke-linejoin: miter"/>
   </g>
   <g id="line2d_16">
    <path d="M 154.44 242.116364 
L 154.44 242.116364 
" clip-path="url(#pc23490c4e0)" style="fill: none; stroke: #000000; stroke-linecap: square"/>
   </g>
   <g id="line2d_17">
    <path d="M 154.44 242.116364 
L 154.44 242.116364 
" clip-path="url(#pc23490c4e0)" style="fill: none; stroke: #000000; stroke-linecap: square"/>
   </g>
   <g id="line2d_18">
    <path d="M 146.07 242.116364 
L 162.81 242.116364 
" clip-path="url(#pc23490c4e0)" style="fill: none; stroke: #000000; stroke-linecap: square"/>
   </g>
   <g id="line2d_19">
    <path d="M 146.07 242.116364 
L 162.81 242.116364 
" clip-path="url(#pc23490c4e0)" style="fill: none; stroke: #000000; stroke-linecap: square"/>
   </g>
   <g id="line2d_20">
    <g clip-path="url(#pc23490c4e0)">
     <use xlink:href="#m6fdf6e6739" x="154.44" y="237.623802" style="fill-opacity: 0; stroke: #000000"/>
     <use xlink:href="#m6fdf6e6739" x="154.44" y="233.13124" style="fill-opacity: 0; stroke: #000000"/>
     <use xlink:href="#m6fdf6e6739" x="154.44" y="237.623802" style="fill-opacity: 0; stroke: #000000"/>
     <use xlink:href="#m6fdf6e6739" x="154.44" y="237.623802" style="fill-opacity: 0; stroke: #000000"/>
     <use xlink:href="#m6fdf6e6739" x="154.44" y="237.623802" style="fill-opacity: 0; stroke: #000000"/>
     <use xlink:href="#m6fdf6e6739" x="154.44" y="228.638678" style="fill-opacity: 0; stroke: #000000"/>
     <use xlink:href="#m6fdf6e6739" x="154.44" y="237.623802" style="fill-opacity: 0; stroke: #000000"/>
     <use xlink:href="#m6fdf6e6739" x="154.44" y="228.638678" style="fill-opacity: 0; stroke: #000000"/>
     <use xlink:href="#m6fdf6e6739" x="154.44" y="237.623802" style="fill-opacity: 0; stroke: #000000"/>
     <use xlink:href="#m6fdf6e6739" x="154.44" y="233.13124" style="fill-opacity: 0; stroke: #000000"/>
     <use xlink:href="#m6fdf6e6739" x="154.44" y="237.623802" style="fill-opacity: 0; stroke: #000000"/>
     <use xlink:href="#m6fdf6e6739" x="154.44" y="237.623802" style="fill-opacity: 0; stroke: #000000"/>
     <use xlink:href="#m6fdf6e6739" x="154.44" y="237.623802" style="fill-opacity: 0; stroke: #000000"/>
     <use xlink:href="#m6fdf6e6739" x="154.44" y="237.623802" style="fill-opacity: 0; stroke: #000000"/>
     <use xlink:href="#m6fdf6e6739" x="154.44" y="237.623802" style="fill-opacity: 0; stroke: #000000"/>
     <use xlink:href="#m6fdf6e6739" x="154.44" y="215.160992" style="fill-opacity: 0; stroke: #000000"/>
     <use xlink:href="#m6fdf6e6739" x="154.44" y="233.13124" style="fill-opacity: 0; stroke: #000000"/>
     <use xlink:href="#m6fdf6e6739" x="154.44" y="237.623802" style="fill-opacity: 0; stroke: #000000"/>
     <use xlink:href="#m6fdf6e6739" x="154.44" y="224.146116" style="fill-opacity: 0; stroke: #000000"/>
     <use xlink:href="#m6fdf6e6739" x="154.44" y="224.146116" style="fill-opacity: 0; stroke: #000000"/>
     <use xlink:href="#m6fdf6e6739" x="154.44" y="237.623802" style="fill-opacity: 0; stroke: #000000"/>
     <use xlink:href="#m6fdf6e6739" x="154.44" y="228.638678" style="fill-opacity: 0; stroke: #000000"/>
    </g>
   </g>
   <g id="patch_5">
    <path d="M 204.66 242.116364 
L 238.14 242.116364 
L 238.14 242.116364 
L 204.66 242.116364 
L 204.66 242.116364 
z
" clip-path="url(#pc23490c4e0)" style="fill: #92c6ff; stroke: #000000; stroke-linejoin: miter"/>
   </g>
   <g id="line2d_21">
    <path d="M 221.4 242.116364 
L 221.4 242.116364 
" clip-path="url(#pc23490c4e0)" style="fill: none; stroke: #000000; stroke-linecap: square"/>
   </g>
   <g id="line2d_22">
    <path d="M 221.4 242.116364 
L 221.4 242.116364 
" clip-path="url(#pc23490c4e0)" style="fill: none; stroke: #000000; stroke-linecap: square"/>
   </g>
   <g id="line2d_23">
    <path d="M 213.03 242.116364 
L 229.77 242.116364 
" clip-path="url(#pc23490c4e0)" style="fill: none; stroke: #000000; stroke-linecap: square"/>
   </g>
   <g id="line2d_24">
    <path d="M 213.03 242.116364 
L 229.77 242.116364 
" clip-path="url(#pc23490c4e0)" style="fill: none; stroke: #000000; stroke-linecap: square"/>
   </g>
   <g id="line2d_25">
    <g clip-path="url(#pc23490c4e0)">
     <use xlink:href="#m6fdf6e6739" x="221.4" y="233.13124" style="fill-opacity: 0; stroke: #000000"/>
     <use xlink:href="#m6fdf6e6739" x="221.4" y="237.623802" style="fill-opacity: 0; stroke: #000000"/>
     <use xlink:href="#m6fdf6e6739" x="221.4" y="237.623802" style="fill-opacity: 0; stroke: #000000"/>
     <use xlink:href="#m6fdf6e6739" x="221.4" y="228.638678" style="fill-opacity: 0; stroke: #000000"/>
    </g>
   </g>
   <g id="patch_6">
    <path d="M 271.62 242.116364 
L 305.1 242.116364 
L 305.1 242.116364 
L 271.62 242.116364 
L 271.62 242.116364 
z
" clip-path="url(#pc23490c4e0)" style="fill: #92c6ff; stroke: #000000; stroke-linejoin: miter"/>
   </g>
   <g id="line2d_26">
    <path d="M 288.36 242.116364 
L 288.36 242.116364 
" clip-path="url(#pc23490c4e0)" style="fill: none; stroke: #000000; stroke-linecap: square"/>
   </g>
   <g id="line2d_27">
    <path d="M 288.36 242.116364 
L 288.36 242.116364 
" clip-path="url(#pc23490c4e0)" style="fill: none; stroke: #000000; stroke-linecap: square"/>
   </g>
   <g id="line2d_28">
    <path d="M 279.99 242.116364 
L 296.73 242.116364 
" clip-path="url(#pc23490c4e0)" style="fill: none; stroke: #000000; stroke-linecap: square"/>
   </g>
   <g id="line2d_29">
    <path d="M 279.99 242.116364 
L 296.73 242.116364 
" clip-path="url(#pc23490c4e0)" style="fill: none; stroke: #000000; stroke-linecap: square"/>
   </g>
   <g id="line2d_30"/>
   <g id="patch_7">
    <path d="M 338.58 242.116364 
L 372.06 242.116364 
L 372.06 242.116364 
L 338.58 242.116364 
L 338.58 242.116364 
z
" clip-path="url(#pc23490c4e0)" style="fill: #92c6ff; stroke: #000000; stroke-linejoin: miter"/>
   </g>
   <g id="line2d_31">
    <path d="M 355.32 242.116364 
L 355.32 242.116364 
" clip-path="url(#pc23490c4e0)" style="fill: none; stroke: #000000; stroke-linecap: square"/>
   </g>
   <g id="line2d_32">
    <path d="M 355.32 242.116364 
L 355.32 242.116364 
" clip-path="url(#pc23490c4e0)" style="fill: none; stroke: #000000; stroke-linecap: square"/>
   </g>
   <g id="line2d_33">
    <path d="M 346.95 242.116364 
L 363.69 242.116364 
" clip-path="url(#pc23490c4e0)" style="fill: none; stroke: #000000; stroke-linecap: square"/>
   </g>
   <g id="line2d_34">
    <path d="M 346.95 242.116364 
L 363.69 242.116364 
" clip-path="url(#pc23490c4e0)" style="fill: none; stroke: #000000; stroke-linecap: square"/>
   </g>
   <g id="line2d_35">
    <g clip-path="url(#pc23490c4e0)">
     <use xlink:href="#m6fdf6e6739" x="355.32" y="237.623802" style="fill-opacity: 0; stroke: #000000"/>
     <use xlink:href="#m6fdf6e6739" x="355.32" y="201.683306" style="fill-opacity: 0; stroke: #000000"/>
     <use xlink:href="#m6fdf6e6739" x="355.32" y="237.623802" style="fill-opacity: 0; stroke: #000000"/>
     <use xlink:href="#m6fdf6e6739" x="355.32" y="237.623802" style="fill-opacity: 0; stroke: #000000"/>
     <use xlink:href="#m6fdf6e6739" x="355.32" y="192.698182" style="fill-opacity: 0; stroke: #000000"/>
     <use xlink:href="#m6fdf6e6739" x="355.32" y="210.66843" style="fill-opacity: 0; stroke: #000000"/>
     <use xlink:href="#m6fdf6e6739" x="355.32" y="237.623802" style="fill-opacity: 0; stroke: #000000"/>
     <use xlink:href="#m6fdf6e6739" x="355.32" y="215.160992" style="fill-opacity: 0; stroke: #000000"/>
     <use xlink:href="#m6fdf6e6739" x="355.32" y="206.175868" style="fill-opacity: 0; stroke: #000000"/>
     <use xlink:href="#m6fdf6e6739" x="355.32" y="237.623802" style="fill-opacity: 0; stroke: #000000"/>
     <use xlink:href="#m6fdf6e6739" x="355.32" y="179.220496" style="fill-opacity: 0; stroke: #000000"/>
     <use xlink:href="#m6fdf6e6739" x="355.32" y="237.623802" style="fill-opacity: 0; stroke: #000000"/>
     <use xlink:href="#m6fdf6e6739" x="355.32" y="237.623802" style="fill-opacity: 0; stroke: #000000"/>
     <use xlink:href="#m6fdf6e6739" x="355.32" y="224.146116" style="fill-opacity: 0; stroke: #000000"/>
     <use xlink:href="#m6fdf6e6739" x="355.32" y="237.623802" style="fill-opacity: 0; stroke: #000000"/>
     <use xlink:href="#m6fdf6e6739" x="355.32" y="188.20562" style="fill-opacity: 0; stroke: #000000"/>
     <use xlink:href="#m6fdf6e6739" x="355.32" y="237.623802" style="fill-opacity: 0; stroke: #000000"/>
     <use xlink:href="#m6fdf6e6739" x="355.32" y="228.638678" style="fill-opacity: 0; stroke: #000000"/>
     <use xlink:href="#m6fdf6e6739" x="355.32" y="237.623802" style="fill-opacity: 0; stroke: #000000"/>
     <use xlink:href="#m6fdf6e6739" x="355.32" y="237.623802" style="fill-opacity: 0; stroke: #000000"/>
     <use xlink:href="#m6fdf6e6739" x="355.32" y="237.623802" style="fill-opacity: 0; stroke: #000000"/>
     <use xlink:href="#m6fdf6e6739" x="355.32" y="44.443636" style="fill-opacity: 0; stroke: #000000"/>
     <use xlink:href="#m6fdf6e6739" x="355.32" y="228.638678" style="fill-opacity: 0; stroke: #000000"/>
     <use xlink:href="#m6fdf6e6739" x="355.32" y="219.653554" style="fill-opacity: 0; stroke: #000000"/>
     <use xlink:href="#m6fdf6e6739" x="355.32" y="237.623802" style="fill-opacity: 0; stroke: #000000"/>
     <use xlink:href="#m6fdf6e6739" x="355.32" y="215.160992" style="fill-opacity: 0; stroke: #000000"/>
     <use xlink:href="#m6fdf6e6739" x="355.32" y="237.623802" style="fill-opacity: 0; stroke: #000000"/>
     <use xlink:href="#m6fdf6e6739" x="355.32" y="233.13124" style="fill-opacity: 0; stroke: #000000"/>
     <use xlink:href="#m6fdf6e6739" x="355.32" y="237.623802" style="fill-opacity: 0; stroke: #000000"/>
     <use xlink:href="#m6fdf6e6739" x="355.32" y="237.623802" style="fill-opacity: 0; stroke: #000000"/>
     <use xlink:href="#m6fdf6e6739" x="355.32" y="233.13124" style="fill-opacity: 0; stroke: #000000"/>
     <use xlink:href="#m6fdf6e6739" x="355.32" y="237.623802" style="fill-opacity: 0; stroke: #000000"/>
     <use xlink:href="#m6fdf6e6739" x="355.32" y="188.20562" style="fill-opacity: 0; stroke: #000000"/>
     <use xlink:href="#m6fdf6e6739" x="355.32" y="237.623802" style="fill-opacity: 0; stroke: #000000"/>
     <use xlink:href="#m6fdf6e6739" x="355.32" y="237.623802" style="fill-opacity: 0; stroke: #000000"/>
     <use xlink:href="#m6fdf6e6739" x="355.32" y="237.623802" style="fill-opacity: 0; stroke: #000000"/>
     <use xlink:href="#m6fdf6e6739" x="355.32" y="206.175868" style="fill-opacity: 0; stroke: #000000"/>
     <use xlink:href="#m6fdf6e6739" x="355.32" y="237.623802" style="fill-opacity: 0; stroke: #000000"/>
     <use xlink:href="#m6fdf6e6739" x="355.32" y="224.146116" style="fill-opacity: 0; stroke: #000000"/>
     <use xlink:href="#m6fdf6e6739" x="355.32" y="237.623802" style="fill-opacity: 0; stroke: #000000"/>
     <use xlink:href="#m6fdf6e6739" x="355.32" y="237.623802" style="fill-opacity: 0; stroke: #000000"/>
     <use xlink:href="#m6fdf6e6739" x="355.32" y="233.13124" style="fill-opacity: 0; stroke: #000000"/>
    </g>
   </g>
   <g id="line2d_36">
    <path d="M 70.74 228.638678 
L 104.22 228.638678 
" clip-path="url(#pc23490c4e0)" style="fill: none; stroke: #97f0aa; stroke-linecap: square"/>
   </g>
   <g id="line2d_37">
    <path d="M 137.7 242.116364 
L 171.18 242.116364 
" clip-path="url(#pc23490c4e0)" style="fill: none; stroke: #97f0aa; stroke-linecap: square"/>
   </g>
   <g id="line2d_38">
    <path d="M 204.66 242.116364 
L 238.14 242.116364 
" clip-path="url(#pc23490c4e0)" style="fill: none; stroke: #97f0aa; stroke-linecap: square"/>
   </g>
   <g id="line2d_39">
    <path d="M 271.62 242.116364 
L 305.1 242.116364 
" clip-path="url(#pc23490c4e0)" style="fill: none; stroke: #97f0aa; stroke-linecap: square"/>
   </g>
   <g id="line2d_40">
    <path d="M 338.58 242.116364 
L 372.06 242.116364 
" clip-path="url(#pc23490c4e0)" style="fill: none; stroke: #97f0aa; stroke-linecap: square"/>
   </g>
   <g id="patch_8">
    <path d="M 54 252 
L 54 34.56 
" style="fill: none; stroke: #000000; stroke-width: 0.8; stroke-linejoin: miter; stroke-linecap: square"/>
   </g>
   <g id="patch_9">
    <path d="M 388.8 252 
L 388.8 34.56 
" style="fill: none; stroke: #000000; stroke-width: 0.8; stroke-linejoin: miter; stroke-linecap: square"/>
   </g>
   <g id="patch_10">
    <path d="M 54 252 
L 388.8 252 
" style="fill: none; stroke: #000000; stroke-width: 0.8; stroke-linejoin: miter; stroke-linecap: square"/>
   </g>
   <g id="patch_11">
    <path d="M 54 34.56 
L 388.8 34.56 
" style="fill: none; stroke: #000000; stroke-width: 0.8; stroke-linejoin: miter; stroke-linecap: square"/>
   </g>
  </g>
 </g>
 <defs>
  <clipPath id="pc23490c4e0">
   <rect x="54" y="34.56" width="334.8" height="217.44"/>
  </clipPath>
 </defs>
</svg>
