<?xml version="1.0" encoding="utf-8" standalone="no"?>
<!DOCTYPE svg PUBLIC "-//W3C//DTD SVG 1.1//EN"
  "http://www.w3.org/Graphics/SVG/1.1/DTD/svg11.dtd">
<svg xmlns:xlink="http://www.w3.org/1999/xlink" width="360pt" height="288pt" viewBox="0 0 360 288" xmlns="http://www.w3.org/2000/svg" version="1.1">
 <metadata>
  <rdf:RDF xmlns:dc="http://purl.org/dc/elements/1.1/" xmlns:cc="http://creativecommons.org/ns#" xmlns:rdf="http://www.w3.org/1999/02/22-rdf-syntax-ns#">
   <cc:Work>
    <dc:type rdf:resource="http://purl.org/dc/dcmitype/StillImage"/>
    <dc:date>2022-12-08T15:47:22.579946</dc:date>
    <dc:format>image/svg+xml</dc:format>
    <dc:creator>
     <cc:Agent>
      <dc:title>Matplotlib v3.5.2, https://matplotlib.org/</dc:title>
     </cc:Agent>
    </dc:creator>
   </cc:Work>
  </rdf:RDF>
 </metadata>
 <defs>
  <style type="text/css">*{stroke-linejoin: round; stroke-linecap: butt}</style>
 </defs>
 <g id="figure_1">
  <g id="patch_1">
   <path d="M 0 288 
L 360 288 
L 360 0 
L 0 0 
L 0 288 
z
" style="fill: none"/>
  </g>
  <g id="axes_1">
   <g id="patch_2">
    <path d="M 45 252 
L 324 252 
L 324 34.56 
L 45 34.56 
z
" style="fill: #ffffff"/>
   </g>
   <g id="matplotlib.axis_1">
    <g id="xtick_1">
     <g id="line2d_1">
      <defs>
       <path id="m1a0aa1d868" d="M 0 0 
L 0 3.5 
" style="stroke: #000000; stroke-width: 0.8"/>
      </defs>
      <g>
       <use xlink:href="#m1a0aa1d868" x="184.5" y="252" style="stroke: #000000; stroke-width: 0.8"/>
      </g>
     </g>
     <g id="text_1">
      <!-- 预计来路 -->
      <g transform="translate(164.81875 266.6)scale(0.1 -0.1)">
       <defs>
        <path id="AlibabaPuHuiTi-Regular-9884" d="M 2086 1338 
Q 2195 1594 2281 1853 
Q 2368 2112 2419 2381 
L 1766 2381 
L 1766 154 
Q 1766 -51 1740 -172 
Q 1715 -294 1641 -364 
Q 1568 -435 1443 -467 
Q 1318 -499 1126 -518 
L 730 -557 
L 563 -102 
Q 646 -96 723 -90 
Q 794 -83 861 -80 
Q 928 -77 973 -70 
Q 1088 -58 1158 -42 
Q 1229 -26 1264 12 
Q 1299 51 1308 118 
Q 1318 186 1318 307 
L 1318 2381 
L 294 2381 
L 294 2822 
L 1517 2822 
Q 1312 3130 1117 3370 
Q 922 3610 723 3834 
L 1018 4058 
Q 1114 3955 1216 3836 
Q 1318 3718 1427 3584 
Q 1510 3680 1596 3795 
Q 1683 3910 1763 4022 
Q 1843 4134 1910 4236 
Q 1978 4339 2029 4416 
L 493 4416 
L 493 4838 
L 2547 4838 
L 2547 4365 
Q 2490 4288 2387 4141 
Q 2285 3994 2163 3830 
Q 2042 3667 1920 3507 
Q 1798 3347 1702 3245 
Q 1754 3174 1802 3110 
Q 1850 3046 1894 2982 
L 1696 2822 
L 2848 2822 
L 2848 2394 
Q 2810 2163 2714 1868 
Q 2618 1574 2470 1210 
L 2086 1338 
z
M 5984 4838 
L 5984 4397 
L 4582 4397 
Q 4550 4243 4515 4044 
Q 4480 3846 4442 3661 
L 5619 3661 
L 5619 858 
L 5158 858 
L 5158 3251 
L 3507 3251 
L 3507 851 
L 3053 851 
L 3053 3661 
L 3942 3661 
Q 3987 3846 4022 4041 
Q 4058 4237 4090 4397 
L 2758 4397 
L 2758 4838 
L 5984 4838 
z
M 4518 1843 
Q 4518 1389 4460 1049 
Q 4403 710 4214 428 
Q 4026 147 3674 -112 
Q 3322 -371 2726 -666 
L 2438 -314 
Q 3002 -38 3328 192 
Q 3654 422 3820 675 
Q 3987 928 4032 1229 
Q 4077 1530 4077 1946 
L 4077 2906 
L 4518 2880 
L 4518 1843 
z
M 4646 870 
Q 4960 640 5299 365 
Q 5638 90 5984 -243 
L 5734 -640 
Q 5434 -294 5069 0 
Q 4704 294 4378 544 
L 4646 870 
z
" transform="scale(0.015625)"/>
        <path id="AlibabaPuHuiTi-Regular-8ba1" d="M 1792 3635 
Q 1709 3776 1597 3933 
Q 1485 4090 1360 4250 
Q 1235 4410 1107 4560 
Q 979 4710 864 4838 
L 1203 5126 
Q 1318 5018 1452 4867 
Q 1587 4717 1718 4557 
Q 1850 4397 1965 4243 
Q 2080 4090 2157 3968 
L 1792 3635 
z
M 6016 2509 
L 4326 2509 
L 4326 -608 
L 3827 -608 
L 3827 2509 
L 2253 2509 
L 2253 2995 
L 3827 2995 
L 3827 5088 
L 4326 5069 
L 4326 2995 
L 6016 2995 
L 6016 2509 
z
M 1722 461 
Q 1766 493 1856 557 
Q 1946 621 2058 704 
Q 2170 787 2291 876 
Q 2413 966 2521 1046 
Q 2630 1126 2716 1193 
Q 2803 1261 2848 1293 
L 3021 819 
Q 2944 762 2752 627 
Q 2560 493 2349 342 
Q 2138 192 1952 57 
Q 1766 -77 1696 -128 
Q 1606 -192 1504 -278 
Q 1402 -365 1325 -448 
L 1018 -90 
Q 1146 19 1184 96 
Q 1222 173 1222 294 
L 1222 2669 
L 326 2669 
L 326 3149 
L 1722 3149 
L 1722 461 
z
" transform="scale(0.015625)"/>
        <path id="AlibabaPuHuiTi-Regular-6765" d="M 3578 1933 
Q 4032 1421 4659 989 
Q 5286 557 6074 224 
L 5786 -237 
Q 5018 160 4413 592 
Q 3808 1024 3373 1542 
L 3373 -608 
L 2906 -608 
L 2906 1536 
Q 2694 1280 2448 1046 
Q 2202 813 1907 595 
Q 1613 378 1264 166 
Q 915 -45 499 -256 
L 218 198 
Q 1011 563 1632 988 
Q 2253 1414 2707 1933 
L 422 1933 
L 422 2394 
L 2906 2394 
L 2906 3968 
L 666 3968 
L 666 4416 
L 2906 4416 
L 2906 5178 
L 3373 5158 
L 3373 4416 
L 5619 4416 
L 5619 3968 
L 3373 3968 
L 3373 2394 
L 5862 2394 
L 5862 1933 
L 3578 1933 
z
M 3917 2765 
Q 4019 2861 4144 3005 
Q 4269 3149 4393 3302 
Q 4518 3456 4627 3609 
Q 4736 3763 4806 3878 
L 5165 3603 
Q 5088 3482 4982 3334 
Q 4877 3187 4755 3033 
Q 4634 2880 4506 2733 
Q 4378 2586 4256 2464 
L 3917 2765 
z
M 1434 3866 
Q 1523 3776 1648 3638 
Q 1773 3501 1897 3353 
Q 2022 3206 2137 3059 
Q 2253 2912 2323 2803 
L 1965 2451 
Q 1894 2579 1785 2736 
Q 1677 2893 1552 3049 
Q 1427 3206 1305 3344 
Q 1184 3482 1094 3571 
L 1434 3866 
z
" transform="scale(0.015625)"/>
        <path id="AlibabaPuHuiTi-Regular-8def" d="M 4550 2906 
Q 4838 2720 5196 2569 
Q 5555 2419 5997 2291 
L 5805 1882 
Q 5370 2042 4979 2227 
Q 4589 2413 4243 2656 
Q 3642 2208 2707 1856 
L 2470 2272 
Q 2893 2419 3241 2582 
Q 3590 2746 3878 2938 
Q 3482 3283 3194 3731 
Q 2989 3488 2758 3258 
L 2496 3603 
Q 2835 3949 3139 4381 
Q 3443 4813 3622 5254 
L 4070 5165 
Q 3949 4890 3802 4621 
L 5491 4621 
L 5491 4198 
Q 5306 3821 5082 3504 
Q 4858 3187 4550 2906 
z
M 2643 301 
L 2650 102 
Q 2419 64 2092 13 
Q 1766 -38 1424 -89 
Q 1082 -141 758 -189 
Q 435 -237 218 -269 
L 160 179 
L 550 230 
L 550 2470 
L 947 2458 
L 947 282 
Q 1088 301 1225 323 
Q 1363 346 1510 365 
L 1510 2944 
L 640 2944 
L 640 4845 
L 2413 4845 
L 2413 2944 
L 1920 2944 
L 1920 1984 
L 2605 1984 
L 2605 1568 
L 1920 1568 
L 1920 429 
L 2637 550 
L 2643 301 
z
M 1043 3373 
L 2010 3373 
L 2010 4410 
L 1043 4410 
L 1043 3373 
z
M 3469 4090 
Q 3622 3814 3798 3587 
Q 3974 3360 4192 3174 
Q 4448 3386 4653 3642 
Q 4858 3898 5030 4205 
L 3546 4205 
L 3469 4090 
z
M 2938 1741 
L 5344 1741 
L 5344 -557 
L 4915 -557 
L 4915 -198 
L 3360 -198 
L 3360 -557 
L 2938 -557 
L 2938 1741 
z
M 3360 1325 
L 3360 211 
L 4915 211 
L 4915 1325 
L 3360 1325 
z
" transform="scale(0.015625)"/>
       </defs>
       <use xlink:href="#AlibabaPuHuiTi-Regular-9884"/>
       <use xlink:href="#AlibabaPuHuiTi-Regular-8ba1" x="98.399994"/>
       <use xlink:href="#AlibabaPuHuiTi-Regular-6765" x="196.799988"/>
       <use xlink:href="#AlibabaPuHuiTi-Regular-8def" x="295.199982"/>
      </g>
     </g>
    </g>
   </g>
   <g id="matplotlib.axis_2">
    <g id="ytick_1">
     <g id="line2d_2">
      <defs>
       <path id="m56acb8632b" d="M 0 0 
L -3.5 0 
" style="stroke: #000000; stroke-width: 0.8"/>
      </defs>
      <g>
       <use xlink:href="#m56acb8632b" x="45" y="242.116364" style="stroke: #000000; stroke-width: 0.8"/>
      </g>
     </g>
     <g id="text_2">
      <!-- 0 -->
      <g transform="translate(32.25 245.916364)scale(0.1 -0.1)">
       <defs>
        <path id="AlibabaPuHuiTi-Regular-30" d="M 1837 -64 
Q 1504 -64 1229 35 
Q 954 134 755 390 
Q 557 646 448 1091 
Q 339 1536 339 2221 
Q 339 2906 448 3347 
Q 557 3789 755 4048 
Q 954 4307 1229 4406 
Q 1504 4506 1837 4506 
Q 2170 4506 2448 4406 
Q 2726 4307 2924 4048 
Q 3123 3789 3232 3347 
Q 3341 2906 3341 2221 
Q 3341 1536 3232 1091 
Q 3123 646 2924 390 
Q 2726 134 2448 35 
Q 2170 -64 1837 -64 
z
M 1837 416 
Q 2074 416 2246 496 
Q 2419 576 2534 781 
Q 2650 986 2704 1334 
Q 2758 1683 2758 2221 
Q 2758 2752 2704 3101 
Q 2650 3450 2534 3654 
Q 2419 3859 2246 3939 
Q 2074 4019 1837 4019 
Q 1606 4019 1433 3939 
Q 1261 3859 1149 3654 
Q 1037 3450 982 3101 
Q 928 2752 928 2221 
Q 928 1683 982 1334 
Q 1037 986 1149 781 
Q 1261 576 1433 496 
Q 1606 416 1837 416 
z
" transform="scale(0.015625)"/>
       </defs>
       <use xlink:href="#AlibabaPuHuiTi-Regular-30"/>
      </g>
     </g>
    </g>
    <g id="ytick_2">
     <g id="line2d_3">
      <g>
       <use xlink:href="#m56acb8632b" x="45" y="216.773706" style="stroke: #000000; stroke-width: 0.8"/>
      </g>
     </g>
     <g id="text_3">
      <!-- 20 -->
      <g transform="translate(26.5 220.573706)scale(0.1 -0.1)">
       <defs>
        <path id="AlibabaPuHuiTi-Regular-32" d="M 365 608 
Q 1075 1165 1504 1555 
Q 1933 1946 2169 2240 
Q 2406 2534 2483 2768 
Q 2560 3002 2560 3238 
Q 2560 3475 2473 3628 
Q 2387 3782 2252 3872 
Q 2118 3962 1948 3994 
Q 1779 4026 1619 4026 
Q 1408 4026 1171 4003 
Q 934 3981 672 3910 
L 672 4403 
Q 896 4454 1149 4480 
Q 1402 4506 1683 4506 
Q 2010 4506 2272 4435 
Q 2534 4365 2723 4211 
Q 2912 4058 3011 3814 
Q 3110 3571 3110 3232 
Q 3110 2931 3020 2665 
Q 2931 2400 2720 2115 
Q 2509 1830 2150 1500 
Q 1792 1171 1254 742 
L 998 544 
L 998 486 
L 3290 486 
L 3290 0 
L 365 0 
L 365 608 
z
" transform="scale(0.015625)"/>
       </defs>
       <use xlink:href="#AlibabaPuHuiTi-Regular-32"/>
       <use xlink:href="#AlibabaPuHuiTi-Regular-30" x="57.499985"/>
      </g>
     </g>
    </g>
    <g id="ytick_3">
     <g id="line2d_4">
      <g>
       <use xlink:href="#m56acb8632b" x="45" y="191.431049" style="stroke: #000000; stroke-width: 0.8"/>
      </g>
     </g>
     <g id="text_4">
      <!-- 40 -->
      <g transform="translate(26.5 195.231049)scale(0.1 -0.1)">
       <defs>
        <path id="AlibabaPuHuiTi-Regular-34" d="M 3386 1094 
L 2861 1094 
L 2861 0 
L 2323 0 
L 2323 1094 
L 224 1094 
L 224 1715 
L 2170 4442 
L 2861 4442 
L 2861 1581 
L 3386 1581 
L 3386 1094 
z
M 2323 1581 
L 2323 3853 
L 2285 3853 
L 710 1619 
L 710 1581 
L 2323 1581 
z
" transform="scale(0.015625)"/>
       </defs>
       <use xlink:href="#AlibabaPuHuiTi-Regular-34"/>
       <use xlink:href="#AlibabaPuHuiTi-Regular-30" x="57.499985"/>
      </g>
     </g>
    </g>
    <g id="ytick_4">
     <g id="line2d_5">
      <g>
       <use xlink:href="#m56acb8632b" x="45" y="166.088392" style="stroke: #000000; stroke-width: 0.8"/>
      </g>
     </g>
     <g id="text_5">
      <!-- 60 -->
      <g transform="translate(26.5 169.888392)scale(0.1 -0.1)">
       <defs>
        <path id="AlibabaPuHuiTi-Regular-36" d="M 1837 -64 
Q 1530 -64 1264 22 
Q 998 109 796 313 
Q 595 518 480 860 
Q 365 1203 365 1722 
Q 365 2342 502 2854 
Q 640 3366 928 3734 
Q 1216 4102 1667 4304 
Q 2118 4506 2746 4506 
L 2739 4019 
Q 2330 4019 2010 3904 
Q 1690 3789 1466 3587 
Q 1242 3386 1114 3114 
Q 986 2842 960 2528 
L 979 2528 
Q 1107 2656 1356 2774 
Q 1606 2893 1933 2893 
Q 2554 2893 2918 2541 
Q 3283 2189 3283 1459 
Q 3283 1133 3196 854 
Q 3110 576 2934 371 
Q 2758 166 2483 51 
Q 2208 -64 1837 -64 
z
M 1830 416 
Q 2285 416 2521 675 
Q 2758 934 2758 1459 
Q 2758 1958 2521 2204 
Q 2285 2451 1907 2451 
Q 1389 2451 1152 2204 
Q 915 1958 915 1562 
Q 915 416 1830 416 
z
" transform="scale(0.015625)"/>
       </defs>
       <use xlink:href="#AlibabaPuHuiTi-Regular-36"/>
       <use xlink:href="#AlibabaPuHuiTi-Regular-30" x="57.499985"/>
      </g>
     </g>
    </g>
    <g id="ytick_5">
     <g id="line2d_6">
      <g>
       <use xlink:href="#m56acb8632b" x="45" y="140.745734" style="stroke: #000000; stroke-width: 0.8"/>
      </g>
     </g>
     <g id="text_6">
      <!-- 80 -->
      <g transform="translate(26.5 144.545734)scale(0.1 -0.1)">
       <defs>
        <path id="AlibabaPuHuiTi-Regular-38" d="M 1837 -64 
Q 1120 -64 720 237 
Q 320 538 320 1178 
Q 320 1434 390 1622 
Q 461 1811 573 1942 
Q 685 2074 825 2154 
Q 966 2234 1107 2285 
L 1107 2310 
Q 826 2438 646 2672 
Q 467 2906 467 3322 
Q 467 3584 547 3801 
Q 627 4019 793 4176 
Q 960 4333 1219 4419 
Q 1478 4506 1837 4506 
Q 2195 4506 2454 4419 
Q 2714 4333 2880 4176 
Q 3046 4019 3126 3801 
Q 3206 3584 3206 3322 
Q 3206 2918 3049 2678 
Q 2893 2438 2566 2310 
L 2566 2285 
Q 2726 2234 2870 2154 
Q 3014 2074 3123 1939 
Q 3232 1805 3293 1616 
Q 3354 1427 3354 1171 
Q 3354 531 2957 233 
Q 2560 -64 1837 -64 
z
M 1837 2496 
Q 2074 2496 2237 2557 
Q 2400 2618 2499 2726 
Q 2598 2835 2643 2976 
Q 2688 3117 2688 3283 
Q 2688 3648 2477 3846 
Q 2266 4045 1837 4045 
Q 986 4045 986 3283 
Q 986 3117 1024 2976 
Q 1062 2835 1161 2726 
Q 1261 2618 1424 2557 
Q 1587 2496 1837 2496 
z
M 1837 403 
Q 2362 403 2592 617 
Q 2822 832 2822 1197 
Q 2822 1651 2579 1862 
Q 2336 2074 1837 2074 
Q 1338 2074 1098 1862 
Q 858 1651 858 1197 
Q 858 832 1085 617 
Q 1312 403 1837 403 
z
" transform="scale(0.015625)"/>
       </defs>
       <use xlink:href="#AlibabaPuHuiTi-Regular-38"/>
       <use xlink:href="#AlibabaPuHuiTi-Regular-30" x="57.499985"/>
      </g>
     </g>
    </g>
    <g id="ytick_6">
     <g id="line2d_7">
      <g>
       <use xlink:href="#m56acb8632b" x="45" y="115.403077" style="stroke: #000000; stroke-width: 0.8"/>
      </g>
     </g>
     <g id="text_7">
      <!-- 100 -->
      <g transform="translate(20.75 119.203077)scale(0.1 -0.1)">
       <defs>
        <path id="AlibabaPuHuiTi-Regular-31" d="M 1747 3917 
L 646 3706 
L 646 4173 
L 1946 4442 
L 2323 4442 
L 2323 0 
L 1747 0 
L 1747 3917 
z
" transform="scale(0.015625)"/>
       </defs>
       <use xlink:href="#AlibabaPuHuiTi-Regular-31"/>
       <use xlink:href="#AlibabaPuHuiTi-Regular-30" x="57.499985"/>
       <use xlink:href="#AlibabaPuHuiTi-Regular-30" x="114.999969"/>
      </g>
     </g>
    </g>
    <g id="ytick_7">
     <g id="line2d_8">
      <g>
       <use xlink:href="#m56acb8632b" x="45" y="90.06042" style="stroke: #000000; stroke-width: 0.8"/>
      </g>
     </g>
     <g id="text_8">
      <!-- 120 -->
      <g transform="translate(20.75 93.86042)scale(0.1 -0.1)">
       <use xlink:href="#AlibabaPuHuiTi-Regular-31"/>
       <use xlink:href="#AlibabaPuHuiTi-Regular-32" x="57.499985"/>
       <use xlink:href="#AlibabaPuHuiTi-Regular-30" x="114.999969"/>
      </g>
     </g>
    </g>
    <g id="ytick_8">
     <g id="line2d_9">
      <g>
       <use xlink:href="#m56acb8632b" x="45" y="64.717762" style="stroke: #000000; stroke-width: 0.8"/>
      </g>
     </g>
     <g id="text_9">
      <!-- 140 -->
      <g transform="translate(20.75 68.517762)scale(0.1 -0.1)">
       <use xlink:href="#AlibabaPuHuiTi-Regular-31"/>
       <use xlink:href="#AlibabaPuHuiTi-Regular-34" x="57.499985"/>
       <use xlink:href="#AlibabaPuHuiTi-Regular-30" x="114.999969"/>
      </g>
     </g>
    </g>
    <g id="ytick_9">
     <g id="line2d_10">
      <g>
       <use xlink:href="#m56acb8632b" x="45" y="39.375105" style="stroke: #000000; stroke-width: 0.8"/>
      </g>
     </g>
     <g id="text_10">
      <!-- 160 -->
      <g transform="translate(20.75 43.175105)scale(0.1 -0.1)">
       <use xlink:href="#AlibabaPuHuiTi-Regular-31"/>
       <use xlink:href="#AlibabaPuHuiTi-Regular-36" x="57.499985"/>
       <use xlink:href="#AlibabaPuHuiTi-Regular-30" x="114.999969"/>
      </g>
     </g>
    </g>
    <g id="text_11">
     <!-- IP数量 -->
     <g transform="translate(14.75 157.476094)rotate(-90)scale(0.1 -0.1)">
      <defs>
       <path id="AlibabaPuHuiTi-Regular-49" d="M 589 4442 
L 1165 4442 
L 1165 0 
L 589 0 
L 589 4442 
z
" transform="scale(0.015625)"/>
       <path id="AlibabaPuHuiTi-Regular-50" d="M 589 4442 
L 1824 4442 
Q 2291 4442 2604 4358 
Q 2918 4275 3107 4102 
Q 3296 3930 3373 3661 
Q 3450 3392 3450 3021 
Q 3450 2630 3357 2355 
Q 3264 2080 3069 1907 
Q 2874 1734 2563 1654 
Q 2253 1574 1824 1574 
L 1165 1574 
L 1165 0 
L 589 0 
L 589 4442 
z
M 1773 2054 
Q 2080 2054 2291 2099 
Q 2502 2144 2627 2256 
Q 2752 2368 2806 2553 
Q 2861 2739 2861 3021 
Q 2861 3277 2806 3453 
Q 2752 3629 2627 3737 
Q 2502 3846 2291 3894 
Q 2080 3942 1773 3942 
L 1165 3942 
L 1165 2054 
L 1773 2054 
z
" transform="scale(0.015625)"/>
       <path id="AlibabaPuHuiTi-Regular-6570" d="M 4819 947 
Q 5274 301 6061 -294 
L 5728 -640 
Q 5363 -346 5075 -54 
Q 4787 237 4563 544 
Q 4326 230 4006 -64 
Q 3686 -358 3251 -672 
L 2957 -314 
Q 3418 -6 3744 298 
Q 4070 602 4294 947 
Q 4045 1382 3894 1849 
Q 3744 2317 3661 2854 
Q 3610 2765 3555 2672 
Q 3501 2579 3443 2490 
L 3085 2720 
Q 3264 2970 3421 3274 
Q 3578 3578 3702 3898 
Q 3827 4218 3916 4534 
Q 4006 4851 4058 5120 
L 4506 5011 
Q 4454 4781 4387 4553 
Q 4320 4326 4237 4096 
L 5901 4096 
L 5901 3635 
L 5466 3635 
Q 5427 3200 5376 2822 
Q 5325 2445 5251 2118 
Q 5178 1792 5072 1501 
Q 4966 1210 4819 947 
z
M 198 2317 
Q 640 2534 985 2806 
Q 1331 3078 1600 3379 
L 397 3379 
L 397 3770 
L 1709 3770 
L 1709 5082 
L 2138 5056 
L 2138 3770 
L 3290 3770 
L 3290 3379 
L 2138 3379 
L 2138 2189 
L 1709 2189 
L 1709 2976 
Q 1466 2694 1149 2441 
Q 832 2189 429 1971 
L 198 2317 
z
M 3213 4774 
Q 3168 4672 3104 4550 
Q 3040 4429 2966 4304 
Q 2893 4179 2816 4064 
Q 2739 3949 2675 3866 
L 2355 4045 
Q 2413 4122 2483 4230 
Q 2554 4339 2621 4457 
Q 2688 4576 2749 4701 
Q 2810 4826 2854 4934 
L 3213 4774 
z
M 1037 3872 
Q 1005 3974 957 4099 
Q 909 4224 851 4345 
Q 794 4467 736 4576 
Q 678 4685 634 4768 
L 973 4896 
Q 1018 4826 1075 4717 
Q 1133 4608 1190 4483 
Q 1248 4358 1299 4230 
Q 1350 4102 1389 3994 
L 1037 3872 
z
M 3968 3456 
Q 4038 2848 4172 2345 
Q 4307 1843 4544 1395 
Q 4755 1856 4864 2397 
Q 4973 2938 5037 3635 
L 4045 3635 
L 3968 3456 
z
M 3014 2086 
Q 2829 2310 2621 2531 
Q 2413 2752 2208 2931 
L 2464 3168 
Q 2630 3040 2854 2819 
Q 3078 2598 3270 2381 
L 3014 2086 
z
M 2842 -275 
Q 2662 -166 2470 -67 
Q 2278 32 2080 134 
Q 1805 -70 1417 -256 
Q 1030 -442 467 -627 
L 243 -224 
Q 723 -83 1065 54 
Q 1408 192 1658 346 
Q 1165 582 704 755 
Q 794 902 883 1056 
Q 973 1210 1056 1363 
L 314 1363 
L 314 1747 
L 1248 1747 
Q 1306 1869 1354 1981 
Q 1402 2093 1440 2195 
L 1850 2061 
Q 1818 1978 1786 1901 
Q 1754 1824 1722 1747 
L 3053 1747 
L 3053 1382 
Q 2925 1114 2777 877 
Q 2630 640 2419 429 
Q 2560 358 2707 291 
Q 2854 224 3014 147 
L 2842 -275 
z
M 1286 909 
Q 1459 838 1638 764 
Q 1818 691 2016 602 
Q 2208 768 2339 953 
Q 2470 1139 2579 1363 
L 1536 1363 
Q 1478 1242 1414 1130 
Q 1350 1018 1286 909 
z
" transform="scale(0.015625)"/>
       <path id="AlibabaPuHuiTi-Regular-91cf" d="M 5261 3450 
L 1030 3450 
L 1030 4928 
L 5261 4928 
L 5261 3450 
z
M 1517 4614 
L 1517 4333 
L 4781 4333 
L 4781 4614 
L 1517 4614 
z
M 4781 3757 
L 4781 4045 
L 1517 4045 
L 1517 3757 
L 4781 3757 
z
M 5990 3149 
L 5990 2810 
L 301 2810 
L 301 3149 
L 5990 3149 
z
M 3379 -154 
L 5856 -154 
L 5856 -493 
L 435 -493 
L 435 -154 
L 2918 -154 
L 2918 218 
L 870 218 
L 870 557 
L 2918 557 
L 2918 928 
L 1024 928 
L 1024 2477 
L 5261 2477 
L 5261 928 
L 3379 928 
L 3379 557 
L 5421 557 
L 5421 218 
L 3379 218 
L 3379 -154 
z
M 1504 2170 
L 1504 1856 
L 2918 1856 
L 2918 2170 
L 1504 2170 
z
M 4781 2170 
L 3379 2170 
L 3379 1856 
L 4781 1856 
L 4781 2170 
z
M 2918 1242 
L 2918 1555 
L 1504 1555 
L 1504 1242 
L 2918 1242 
z
M 4781 1242 
L 4781 1555 
L 3379 1555 
L 3379 1242 
L 4781 1242 
z
" transform="scale(0.015625)"/>
      </defs>
      <use xlink:href="#AlibabaPuHuiTi-Regular-49"/>
      <use xlink:href="#AlibabaPuHuiTi-Regular-50" x="27.399994"/>
      <use xlink:href="#AlibabaPuHuiTi-Regular-6570" x="87.099991"/>
      <use xlink:href="#AlibabaPuHuiTi-Regular-91cf" x="185.499985"/>
     </g>
    </g>
   </g>
   <g id="patch_3">
    <path d="M 163.575 242.116364 
L 205.425 242.116364 
L 205.425 233.246434 
L 163.575 233.246434 
L 163.575 242.116364 
z
" clip-path="url(#p127920c5ed)" style="fill: #92c6ff; stroke: #000000; stroke-linejoin: miter"/>
   </g>
   <g id="line2d_11">
    <path d="M 184.5 242.116364 
L 184.5 242.116364 
" clip-path="url(#p127920c5ed)" style="fill: none; stroke: #000000; stroke-linecap: square"/>
   </g>
   <g id="line2d_12">
    <path d="M 184.5 233.246434 
L 184.5 221.208671 
" clip-path="url(#p127920c5ed)" style="fill: none; stroke: #000000; stroke-linecap: square"/>
   </g>
   <g id="line2d_13">
    <path d="M 174.0375 242.116364 
L 194.9625 242.116364 
" clip-path="url(#p127920c5ed)" style="fill: none; stroke: #000000; stroke-linecap: square"/>
   </g>
   <g id="line2d_14">
    <path d="M 174.0375 221.208671 
L 194.9625 221.208671 
" clip-path="url(#p127920c5ed)" style="fill: none; stroke: #000000; stroke-linecap: square"/>
   </g>
   <g id="line2d_15">
    <defs>
     <path id="mdbb0910f8d" d="M 0 3 
C 0.795609 3 1.55874 2.683901 2.12132 2.12132 
C 2.683901 1.55874 3 0.795609 3 0 
C 3 -0.795609 2.683901 -1.55874 2.12132 -2.12132 
C 1.55874 -2.683901 0.795609 -3 0 -3 
C -0.795609 -3 -1.55874 -2.683901 -2.12132 -2.12132 
C -2.683901 -1.55874 -3 -0.795609 -3 0 
C -3 0.795609 -2.683901 1.55874 -2.12132 2.12132 
C -1.55874 2.683901 -0.795609 3 0 3 
z
" style="stroke: #000000"/>
    </defs>
    <g clip-path="url(#p127920c5ed)">
     <use xlink:href="#mdbb0910f8d" x="184.5" y="44.443636" style="fill-opacity: 0; stroke: #000000"/>
     <use xlink:href="#mdbb0910f8d" x="184.5" y="52.046434" style="fill-opacity: 0; stroke: #000000"/>
     <use xlink:href="#mdbb0910f8d" x="184.5" y="128.707972" style="fill-opacity: 0; stroke: #000000"/>
     <use xlink:href="#mdbb0910f8d" x="184.5" y="152.783497" style="fill-opacity: 0; stroke: #000000"/>
     <use xlink:href="#mdbb0910f8d" x="184.5" y="152.783497" style="fill-opacity: 0; stroke: #000000"/>
     <use xlink:href="#mdbb0910f8d" x="184.5" y="152.783497" style="fill-opacity: 0; stroke: #000000"/>
     <use xlink:href="#mdbb0910f8d" x="184.5" y="159.752727" style="fill-opacity: 0; stroke: #000000"/>
     <use xlink:href="#mdbb0910f8d" x="184.5" y="174.324755" style="fill-opacity: 0; stroke: #000000"/>
     <use xlink:href="#mdbb0910f8d" x="184.5" y="180.66042" style="fill-opacity: 0; stroke: #000000"/>
     <use xlink:href="#mdbb0910f8d" x="184.5" y="188.263217" style="fill-opacity: 0; stroke: #000000"/>
     <use xlink:href="#mdbb0910f8d" x="184.5" y="188.896783" style="fill-opacity: 0; stroke: #000000"/>
     <use xlink:href="#mdbb0910f8d" x="184.5" y="197.133147" style="fill-opacity: 0; stroke: #000000"/>
     <use xlink:href="#mdbb0910f8d" x="184.5" y="206.636643" style="fill-opacity: 0; stroke: #000000"/>
     <use xlink:href="#mdbb0910f8d" x="184.5" y="209.170909" style="fill-opacity: 0; stroke: #000000"/>
     <use xlink:href="#mdbb0910f8d" x="184.5" y="218.040839" style="fill-opacity: 0; stroke: #000000"/>
    </g>
   </g>
   <g id="line2d_16">
    <path d="M 163.575 242.116364 
L 205.425 242.116364 
" clip-path="url(#p127920c5ed)" style="fill: none; stroke: #97f0aa; stroke-linecap: square"/>
   </g>
   <g id="patch_4">
    <path d="M 45 252 
L 45 34.56 
" style="fill: none; stroke: #000000; stroke-width: 0.8; stroke-linejoin: miter; stroke-linecap: square"/>
   </g>
   <g id="patch_5">
    <path d="M 324 252 
L 324 34.56 
" style="fill: none; stroke: #000000; stroke-width: 0.8; stroke-linejoin: miter; stroke-linecap: square"/>
   </g>
   <g id="patch_6">
    <path d="M 45 252 
L 324 252 
" style="fill: none; stroke: #000000; stroke-width: 0.8; stroke-linejoin: miter; stroke-linecap: square"/>
   </g>
   <g id="patch_7">
    <path d="M 45 34.56 
L 324 34.56 
" style="fill: none; stroke: #000000; stroke-width: 0.8; stroke-linejoin: miter; stroke-linecap: square"/>
   </g>
  </g>
 </g>
 <defs>
  <clipPath id="p127920c5ed">
   <rect x="45" y="34.56" width="279" height="217.44"/>
  </clipPath>
 </defs>
</svg>
