<?xml version="1.0" encoding="utf-8"?>
<!-- Generator: Adobe Illustrator 26.0.0, SVG Export Plug-In . SVG Version: 6.00 Build 0)  -->
<svg version="1.1" id="图层_1" xmlns="http://www.w3.org/2000/svg" xmlns:xlink="http://www.w3.org/1999/xlink" x="0px" y="0px"
	 viewBox="0 0 292.4 270.8" style="enable-background:new 0 0 292.4 270.8;" xml:space="preserve">
<style type="text/css">
	.st0{fill:none;}
	.st1{fill:#92C6FF;}
	.st2{fill:#97F0AA;}
	.st3{opacity:0.8;fill:#FFFFFF;stroke:#CCCCCC;enable-background:new    ;}
</style>
<g id="figure_1">
	<g id="patch_1">
		<path class="st0" d="M-62.2,334.2h360v-360h-360V334.2z"/>
	</g>
	<g id="axes_1">
		<g id="patch_2">
			<path class="st1" d="M231,153.3c0-18-4.5-35.6-13-51.5c-8.5-15.8-20.8-29.3-35.8-39.2c-15-9.9-32.2-16-50.1-17.6
				c-17.9-1.6-35.9,1.2-52.4,8.2l42.5,100.1H231z"/>
		</g>
		<g id="patch_3">
			<path class="st2" d="M79.8,53.3C61.7,61,46,73.4,34.5,89.3S15.8,123.9,14,143.4c-1.8,19.6,1.8,39.2,10.3,57s21.6,32.8,38,43.6
				s35.4,17,55,17.9c19.6,0.9,39.1-3.5,56.4-12.8c17.3-9.3,31.8-23.1,41.8-40S231,173,231,153.3l-108.7,0L79.8,53.3z"/>
		</g>
		<g id="matplotlib.axis_1">
		</g>
		<g id="matplotlib.axis_2">
		</g>
		<g id="text_1">
			<g transform="translate(250.487007 82.160533)scale(0.1 -0.1)">
				<g>
					<path id="AlibabaPuHuiTi-Regular-672a" d="M-565.5,293.7c2.3-3.1,4.8-6.1,7.7-9.1c2.9-3,6-5.9,9.2-8.8
						c3.3-2.8,6.8-5.5,10.5-8.1c3.7-2.5,7.5-4.9,11.4-7l-5.3-7c-7.9,5-15,10.3-21.2,16c-6.2,5.7-11.4,11.5-15.8,17.4v-38.6h-7.5V287
						c-3.9-5.9-8.8-11.6-14.6-17c-5.8-5.4-13-10.7-21.7-16.1l-5.5,6.6c8.8,5,16.3,10.2,22.5,15.8c6.2,5.5,11.5,11.3,16,17.5h-34v7
						h37.4v16h-31.2v7.2h31.2v14.5l7.5-0.3v-14.2h31.3v-7.2H-569v-16h37.5v-7H-565.5z"/>
				</g>
				<g>
					<path id="AlibabaPuHuiTi-Regular-642d" d="M-480.5,321.9h-10.9v6.4h10.9v10.2l7-0.3v-9.9h19.7v10.2l7-0.3v-9.9h14.3v-6.4h-14.3
						v-8.6h-7v8.6h-19.7v-8.6h-7V321.9z M-490.6,296.1c-1.3-0.7-2.7-1.4-4.4-2.2c-1.6-0.8-3.4-1.6-5.3-2.5v-31.8
						c0-1.9-0.2-3.5-0.5-4.8c-0.3-1.2-0.9-2.2-1.7-3c-0.8-0.8-1.9-1.4-3.2-1.8c-1.4-0.4-3.1-0.7-5.2-0.8l-4.2-0.4l-2.1,7.4l4.4,0.4
						c2.2,0.2,3.7,0.7,4.5,1.4c0.8,0.7,1.2,2.1,1.2,4v26.1c-2.2-1-4.3-2-6.3-2.9c-2-0.9-3.8-1.6-5.2-2.1l-2.8,6.4
						c1.9,0.6,4.1,1.4,6.6,2.5c2.5,1.1,5.1,2.3,7.8,3.5v18.2h-10.5v7.2h10.5v16.6l6.9-0.3V321h10.1v-7.2h-10.1v-14.9
						c1.6,0.7,3.1,1.4,4.5,2.1c1.4,0.7,2.6,1.3,3.7,1.9l0.8-3.6L-490.6,296.1z M-459.8,316.6c3.2-4.6,7.4-9,12.8-13.2
						c5.3-4.2,11.3-7.7,18-10.6l-3.9-6.2c-6.6,3.5-12.6,7.2-18,11.2c-5.4,4-9.5,8.4-12.5,13.2c-1.6-2.2-3.4-4.5-5.5-6.8
						c-2.1-2.4-4.4-4.7-6.8-6.9c-2.5-2.2-5.1-4.4-7.9-6.5c-2.8-2.1-5.6-3.9-8.4-5.5l-4.3,6c3,1.5,5.9,3.3,8.8,5.3
						c2.9,2,5.6,4.1,8.2,6.3c2.5,2.2,4.9,4.5,7,6.8c2.1,2.3,3.9,4.6,5.2,6.8H-459.8z M-448.9,294.9v-6.2H-478v6.2H-448.9z
						 M-485.1,280.8h43.4v-32.6h-6.9v5.6h-29.5v-5.5h-7V280.8z M-478.1,274.3v-14.5h29.5v14.5H-478.1z"/>
				</g>
				<g>
					<path id="AlibabaPuHuiTi-Regular-5efa" d="M-369.1,310.6h-22.5v5.8h22.5v8.1h-18.7v5.7h18.7v8.4l6.7-0.2v-8.2h21.2v-13.8h8.4
						v-5.8h-8.4v-13.9h-21.2v-7.9h23.8V283h-23.8v-7.8h27.3v-5.8h-27.3v-9.2h-6.7v9.2h-24.1v5.8h24.1v7.8h-19.4v5.8h19.4v7.9h-18.8
						v5.8h18.8V310.6z M-372.5,257.6c6.7-0.1,13.4-0.2,20.2-0.2c6.8,0,13.7,0.1,20.6,0.4l-1.2-6.8c-6.5-0.1-13.1-0.2-19.9-0.2
						c-6.8,0-13.4,0.1-19.9,0.2c-6.7,0.1-12.7,1-18.1,2.7c-5.4,1.7-10.1,4.8-14.2,9.3c-1.6-2.5-3.4-5.1-5.5-7.6
						c-2-2.5-4.3-5.2-6.8-8l-5.3,5.4c2.7,2.5,5.2,5.1,7.3,7.8c2.2,2.6,4.1,5.4,5.9,8.2c-1.7,2.7-3.3,5.7-4.8,9.1
						c-1.4,3.4-2.7,7.3-3.9,11.6l5.4,1.9c1-3.4,2-6.5,3.1-9.2c1.1-2.7,2.3-5.2,3.5-7.3c1.5,3.3,2.8,6.8,3.9,10.5
						c1.1,3.6,2,7.5,2.7,11.7h-17.3v6.3c2.9,3.2,5.8,6.6,8.5,10.2c2.7,3.6,5.3,7.3,7.8,11.1h-18v6.3h25.9v-6.4
						c-2.5-3.8-5.1-7.5-7.8-11c-2.7-3.5-5.5-6.9-8.5-10.1h16.1v-6.1c-0.9-5.8-2.1-11-3.5-15.6c-1.4-4.6-3.2-9-5.5-13.2
						c1.8-2.1,3.7-3.9,5.8-5.2c2.1-1.4,4.3-2.4,6.8-3.2c2.4-0.8,5-1.4,7.8-1.7C-378.7,257.8-375.7,257.6-372.5,257.6z M-362.4,316.4
						h14.9v8.1h-14.9V316.4z M-347.5,310.6h-14.9v-8.1h14.9V310.6z"/>
				</g>
				<g>
					<path id="AlibabaPuHuiTi-Regular-5b98" d="M-237.5,327.7V310h-7.8v10.9h-64V310h-7.9v17.7h36.8c-0.5,1.7-1.1,3.4-1.6,5.1
						c-0.5,1.7-1.1,3.1-1.6,4.3l7.7,2c0.5-1.5,1.2-3.3,1.9-5.4c0.7-2.1,1.4-4.1,1.9-6H-237.5z M-299.3,277.8h53.4v-30.1h-7.7v5.2
						h-45.7v-5.7h-7.7v63.9h58.4v-23.4h-50.7V277.8z M-299.3,304.6v-10.2h42.9v10.2H-299.3z M-299.3,271.1v-11.5h45.7v11.5H-299.3z"
						/>
				</g>
				<g>
					<path id="AlibabaPuHuiTi-Regular-7f51" d="M-141.4,332.5V262c0-2.5-0.2-4.6-0.6-6.2c-0.4-1.6-1.1-2.9-2.2-3.9
						c-1.1-1-2.6-1.7-4.5-2.1c-1.9-0.4-4.4-0.7-7.5-0.9l-6-0.4l-2.5,7.4l7.3,0.4c1.9,0.1,3.4,0.2,4.5,0.5c1.2,0.2,2.1,0.6,2.8,1.2
						c0.7,0.6,1.1,1.3,1.3,2.3c0.2,1,0.4,2.3,0.4,3.8v61.4h-61.6v-76.8h-7v83.8H-141.4z M-184.5,270.1c-0.7,2.1-1.5,4.3-2.5,6.8
						s-2.1,5.1-3.3,7.8c-2.1-4.3-4.4-8.5-6.7-12.4c-2.3-3.9-4.6-7.6-6.9-11.1l-5.5,4.1c2.7,4,5.4,8.3,8,12.8
						c2.6,4.6,5.1,9.4,7.4,14.5c-2,4.2-4,8.2-6.1,11.9c-2.1,3.7-3.9,6.9-5.6,9.4l5.3,3.2c1.4-2.1,2.9-4.6,4.6-7.5
						c1.7-2.9,3.4-6.1,5.2-9.4c1.4,3.2,2.7,6.4,3.9,9.8c1.2,3.3,2.4,6.6,3.5,10l6.5-2.3c-1.5-4.3-3-8.6-4.7-12.8
						c-1.7-4.2-3.4-8.3-5.3-12.4c1.7-3.4,3.2-6.7,4.5-9.8c1.4-3.1,2.5-5.8,3.4-8.1L-184.5,270.1z M-155,263.3
						c-0.9,2.8-2.2,6-3.9,9.7c-1.7,3.7-3.5,7.4-5.4,11.3c-4.2-8.5-9-16.7-14.4-24.6l-5.5,4c3,4.4,5.8,9,8.5,13.7
						c2.7,4.7,5.2,9.6,7.5,14.5c-1.9,3.5-3.7,6.8-5.5,9.9c-1.8,3.1-3.5,5.7-5,7.9l5.3,3.8c1.3-1.7,2.6-3.8,4.1-6.2
						c1.5-2.4,3-5,4.5-7.8c2.8,6.6,5.2,13.1,7.2,19.5l6.4-2.3c-1.3-4.3-2.8-8.5-4.3-12.6c-1.6-4.1-3.3-8.2-5.2-12.2
						c2.3-4.4,4.5-8.7,6.5-13c2-4.3,3.6-8,4.8-11.1L-155,263.3z"/>
				</g>
			</g>
		</g>
		<g id="text_2">
			<g transform="translate(203.378069 127.496654)scale(0.1 -0.1)">
				<g>
					<path id="AlibabaPuHuiTi-Regular-33" d="M-599.3,256.7c-2.8,0-5.5,0.1-8.1,0.3c-2.6,0.2-5.1,0.5-7.5,1v7.9
						c2.7-0.7,5.2-1.1,7.8-1.4c2.5-0.2,5.1-0.3,7.8-0.3c2.6,0,5,0.2,7.2,0.6c2.2,0.4,4.1,1.1,5.8,2.1c1.6,1,2.9,2.3,3.8,3.9
						c0.9,1.6,1.4,3.7,1.4,6.1c0,4.9-1.7,8.4-5,10.3c-3.3,1.9-8.3,2.9-14.9,2.9h-5.5v6.9h5.4c6.1,0,10.7,1.1,13.8,3.3
						c3.1,2.2,4.7,5.3,4.7,9.1c0,4.1-1.2,7-3.7,8.7c-2.4,1.7-6.1,2.6-11.1,2.6c-2,0-4.3-0.2-6.9-0.5c-2.6-0.3-5-0.8-7.2-1.5v7.4
						c1.7,0.5,3.9,1,6.5,1.4c2.6,0.4,5.3,0.6,8,0.6c7.5,0,13.1-1.4,17-4.3c3.8-2.9,5.8-7.5,5.8-13.9c0-4.5-1.1-8-3.3-10.5
						c-2.2-2.4-5.2-4.2-9-5.3v-0.6c4.9-0.9,8.5-2.7,10.7-5.5c2.2-2.8,3.4-6.6,3.4-11.2c0-6.4-2.2-11.3-6.5-14.8
						C-583.4,258.4-590.1,256.7-599.3,256.7z"/>
				</g>
				<g>
					<path id="AlibabaPuHuiTi-Regular-31" d="M-537.1,318.9l-17.2-3.3v7.3l20.3,4.2h5.9v-69.4h-9V318.9z"/>
				</g>
				<g>
					<path id="AlibabaPuHuiTi-Regular-2e" d="M-491.8,257.1c-2.3,0-4,0.4-5,1.1c-1,0.7-1.4,2.5-1.4,5.3c0,2.7,0.5,4.4,1.4,5.1
						c1,0.7,2.6,1.1,5,1.1c2.3,0,3.9-0.4,4.9-1.1c1-0.7,1.5-2.4,1.5-5.1c0-2.8-0.5-4.6-1.5-5.3S-489.6,257.1-491.8,257.1z"/>
				</g>
				<g>
					<path id="AlibabaPuHuiTi-Regular-34" d="M-423.8,274.8h-8.2v-17.1h-8.4v17.1h-32.8v9.7l30.4,42.6h10.8v-44.7h8.2V274.8z
						 M-440.4,282.4v35.5h-0.6l-24.6-34.9v-0.6H-440.4z"/>
				</g>
				<g>
					<path id="AlibabaPuHuiTi-Regular-30" d="M-390.5,256.7c-3.5,0-6.6,0.5-9.5,1.5s-5.3,2.9-7.4,5.5c-2.1,2.7-3.7,6.3-4.8,11
						s-1.7,10.5-1.7,17.7s0.6,13,1.7,17.6c1.1,4.6,2.7,8.3,4.8,11c2.1,2.7,4.5,4.6,7.4,5.6c2.9,1,6,1.6,9.5,1.6s6.7-0.5,9.5-1.6
						c2.9-1,5.4-2.9,7.4-5.6c2.1-2.7,3.7-6.3,4.8-11c1.1-4.6,1.7-10.5,1.7-17.6s-0.6-13-1.7-17.7s-2.7-8.3-4.8-11
						c-2.1-2.7-4.5-4.5-7.4-5.5S-387,256.7-390.5,256.7z M-390.5,264.2c2.5,0,4.6,0.4,6.4,1.2c1.8,0.8,3.3,2.3,4.5,4.5
						c1.2,2.1,2.1,5,2.7,8.6c0.6,3.6,0.8,8.3,0.8,13.9c0,5.5-0.3,10.1-0.8,13.8s-1.4,6.5-2.7,8.6c-1.2,2.1-2.7,3.6-4.5,4.5
						c-1.8,0.8-3.9,1.2-6.4,1.2c-2.4,0-4.5-0.4-6.3-1.2c-1.8-0.8-3.3-2.3-4.4-4.5c-1.2-2.1-2-5-2.6-8.6c-0.6-3.6-0.8-8.2-0.8-13.8
						c0-5.6,0.3-10.2,0.8-13.9c0.6-3.6,1.4-6.5,2.6-8.6s2.6-3.6,4.4-4.5C-395,264.6-392.9,264.2-390.5,264.2z"/>
				</g>
				<g>
					<path id="AlibabaPuHuiTi-Regular-25" d="M-340.7,290c-2.2,0-4.2,0.3-5.9,0.9c-1.7,0.6-3.2,1.6-4.5,3.1
						c-1.2,1.4-2.2,3.4-2.8,5.8c-0.7,2.4-1,5.5-1,9.2c0,3.7,0.3,6.7,1,9.2s1.6,4.4,2.8,5.9c1.2,1.5,2.7,2.5,4.5,3.1
						c1.7,0.6,3.7,0.9,5.9,0.9s4.2-0.3,5.9-0.9c1.7-0.6,3.2-1.6,4.5-3.1c1.2-1.5,2.2-3.4,2.9-5.9s1-5.5,1-9.2c0-3.7-0.3-6.8-1-9.2
						c-0.7-2.4-1.6-4.4-2.9-5.8c-1.2-1.4-2.7-2.5-4.5-3.1C-336.6,290.3-338.5,290-340.7,290z M-304.7,327.1h6.7l-38.9-69.4h-6.6
						L-304.7,327.1z M-340.7,295.2c1.4,0,2.6,0.2,3.5,0.6c1,0.4,1.8,1.2,2.3,2.2c0.6,1,1,2.4,1.3,4.2c0.3,1.8,0.4,4,0.4,6.8
						c0,2.7-0.1,4.9-0.4,6.6c-0.3,1.8-0.7,3.2-1.3,4.2c-0.6,1-1.4,1.8-2.3,2.2c-1,0.4-2.2,0.6-3.5,0.6s-2.6-0.2-3.5-0.6
						c-0.9-0.4-1.7-1.1-2.3-2.2c-0.6-1-1-2.4-1.3-4.2c-0.3-1.8-0.4-4-0.4-6.6c0-2.7,0.1-5,0.4-6.8c0.3-1.8,0.7-3.2,1.3-4.2
						c0.6-1,1.4-1.8,2.3-2.2C-343.3,295.4-342.1,295.2-340.7,295.2z M-300.6,256.7c-2.2,0-4.2,0.3-5.9,0.9c-1.7,0.6-3.2,1.6-4.5,3
						c-1.3,1.4-2.2,3.4-2.9,5.8s-1,5.5-1,9.2c0,3.7,0.3,6.7,1,9.2s1.6,4.4,2.9,5.9c1.3,1.5,2.8,2.5,4.5,3.1c1.7,0.6,3.7,0.9,5.9,0.9
						c2.2,0,4.2-0.3,5.9-0.9c1.7-0.6,3.2-1.6,4.4-3.1c1.2-1.5,2.2-3.4,2.9-5.9s1-5.5,1-9.2c0-3.7-0.3-6.8-1-9.2s-1.6-4.4-2.9-5.8
						c-1.2-1.4-2.7-2.4-4.4-3C-296.4,257-298.4,256.7-300.6,256.7z M-300.6,261.9c1.4,0,2.6,0.2,3.5,0.6c1,0.4,1.8,1.2,2.4,2.2
						s1,2.4,1.2,4.2s0.3,4,0.3,6.8c0,2.7-0.1,4.9-0.3,6.6c-0.2,1.8-0.6,3.2-1.2,4.2c-0.6,1-1.4,1.8-2.4,2.2c-1,0.4-2.1,0.6-3.5,0.6
						c-1.4,0-2.6-0.2-3.5-0.6c-0.9-0.4-1.7-1.1-2.3-2.2c-0.6-1-1-2.4-1.3-4.2c-0.3-1.8-0.4-4-0.4-6.6c0-2.7,0.1-5,0.4-6.8
						s0.7-3.2,1.3-4.2c0.6-1,1.4-1.8,2.3-2.2C-303.2,262.1-302,261.9-300.6,261.9z"/>
				</g>
			</g>
		</g>
		<g id="text_3">
			<g transform="translate(79.150502 281.639473)scale(0.1 -0.1)">
				<g>
					<path id="AlibabaPuHuiTi-Regular-642d_00000167388243942916331590000001237394147179316903_" d="M-578.9,321.9h-10.9v6.4h10.9
						v10.2l7-0.3v-9.9h19.7v10.2l7-0.3v-9.9h14.3v-6.4h-14.3v-8.6h-7v8.6h-19.7v-8.6h-7V321.9z M-589,296.1
						c-1.3-0.7-2.7-1.4-4.4-2.2c-1.6-0.8-3.4-1.6-5.3-2.5v-31.8c0-1.9-0.2-3.5-0.5-4.8c-0.3-1.2-0.9-2.2-1.7-3
						c-0.8-0.8-1.9-1.4-3.2-1.8c-1.4-0.4-3.1-0.7-5.2-0.8l-4.2-0.4l-2.1,7.4l4.4,0.4c2.2,0.2,3.7,0.7,4.5,1.4c0.8,0.7,1.2,2.1,1.2,4
						v26.1c-2.2-1-4.3-2-6.3-2.9c-2-0.9-3.8-1.6-5.2-2.1l-2.8,6.4c1.9,0.6,4.1,1.4,6.6,2.5c2.5,1.1,5.1,2.3,7.8,3.5v18.2h-10.5v7.2
						h10.5v16.6l6.9-0.3V321h10.1v-7.2h-10.1v-14.9c1.6,0.7,3.1,1.4,4.5,2.1c1.4,0.7,2.6,1.3,3.7,1.9l0.8-3.6L-589,296.1z
						 M-558.2,316.6c3.2-4.6,7.4-9,12.8-13.2c5.3-4.2,11.3-7.7,18-10.6l-3.9-6.2c-6.6,3.5-12.6,7.2-18,11.2
						c-5.4,4-9.5,8.4-12.5,13.2c-1.6-2.2-3.4-4.5-5.5-6.8c-2.1-2.4-4.4-4.7-6.8-6.9c-2.5-2.2-5.1-4.4-7.9-6.5
						c-2.8-2.1-5.6-3.9-8.4-5.5l-4.3,6c3,1.5,5.9,3.3,8.8,5.3c2.9,2,5.6,4.1,8.2,6.3c2.5,2.2,4.9,4.5,7,6.8c2.1,2.3,3.9,4.6,5.2,6.8
						H-558.2z M-547.3,294.9v-6.2h-29.1v6.2H-547.3z M-583.5,280.8h43.4v-32.6h-6.9v5.6h-29.5v-5.5h-7V280.8z M-576.5,274.3v-14.5
						h29.5v14.5H-576.5z"/>
				</g>
				<g>
					<path id="AlibabaPuHuiTi-Regular-5efa_00000010280687899526789450000009155500877552825764_" d="M-467.5,310.6H-490v5.8h22.5
						v8.1h-18.7v5.7h18.7v8.4l6.7-0.2v-8.2h21.2v-13.8h8.4v-5.8h-8.4v-13.9h-21.2v-7.9h23.8V283h-23.8v-7.8h27.3v-5.8h-27.3v-9.2
						h-6.7v9.2h-24.1v5.8h24.1v7.8h-19.4v5.8h19.4v7.9h-18.8v5.8h18.8V310.6z M-470.9,257.6c6.7-0.1,13.4-0.2,20.2-0.2
						s13.7,0.1,20.6,0.4l-1.2-6.8c-6.5-0.1-13.1-0.2-19.9-0.2s-13.4,0.1-19.9,0.2c-6.7,0.1-12.7,1-18.1,2.7
						c-5.4,1.7-10.1,4.8-14.2,9.3c-1.6-2.5-3.4-5.1-5.5-7.6c-2-2.5-4.3-5.2-6.8-8l-5.3,5.4c2.7,2.5,5.2,5.1,7.3,7.8
						c2.2,2.6,4.1,5.4,5.9,8.2c-1.7,2.7-3.3,5.7-4.8,9.1c-1.4,3.4-2.7,7.3-3.9,11.6l5.4,1.9c1-3.4,2-6.5,3.1-9.2
						c1.1-2.7,2.3-5.2,3.5-7.3c1.5,3.3,2.8,6.8,3.9,10.5c1.1,3.6,2,7.5,2.7,11.7h-17.3v6.3c2.9,3.2,5.8,6.6,8.5,10.2
						c2.7,3.6,5.3,7.3,7.8,11.1h-18v6.3h25.9v-6.4c-2.5-3.8-5.1-7.5-7.8-11s-5.5-6.9-8.5-10.1h16.1v-6.1c-0.9-5.8-2.1-11-3.5-15.6
						c-1.4-4.6-3.2-9-5.5-13.2c1.8-2.1,3.7-3.9,5.8-5.2c2.1-1.4,4.3-2.4,6.8-3.2c2.4-0.8,5-1.4,7.8-1.7
						C-477.1,257.8-474.1,257.6-470.9,257.6z M-460.8,316.4h14.9v8.1h-14.9V316.4z M-445.9,310.6h-14.9v-8.1h14.9V310.6z"/>
				</g>
				<g>
					<path id="AlibabaPuHuiTi-Regular-5b98_00000121997386011812860740000001144007113002680473_" d="M-335.9,327.7V310h-7.8v10.9
						h-64V310h-7.9v17.7h36.8c-0.5,1.7-1.1,3.4-1.6,5.1c-0.5,1.7-1.1,3.1-1.6,4.3l7.7,2c0.5-1.5,1.2-3.3,1.9-5.4
						c0.7-2.1,1.4-4.1,1.9-6H-335.9z M-397.7,277.8h53.4v-30.1h-7.7v5.2h-45.7v-5.7h-7.7v63.9h58.4v-23.4h-50.7V277.8z
						 M-397.7,304.6v-10.2h42.9v10.2H-397.7z M-397.7,271.1v-11.5h45.7v11.5H-397.7z"/>
				</g>
				<g>
					<path id="AlibabaPuHuiTi-Regular-7f51_00000000200988947042559540000005269056403529094538_" d="M-239.8,332.5V262
						c0-2.5-0.2-4.6-0.6-6.2c-0.4-1.6-1.1-2.9-2.2-3.9c-1.1-1-2.6-1.7-4.5-2.1c-1.9-0.4-4.4-0.7-7.5-0.9l-6-0.4l-2.5,7.4l7.3,0.4
						c1.9,0.1,3.4,0.2,4.5,0.5c1.2,0.2,2.1,0.6,2.8,1.2c0.7,0.6,1.1,1.3,1.3,2.3c0.2,1,0.4,2.3,0.4,3.8v61.4h-61.6v-76.8h-7v83.8
						H-239.8z M-282.9,270.1c-0.7,2.1-1.5,4.3-2.5,6.8s-2.1,5.1-3.3,7.8c-2.1-4.3-4.4-8.5-6.7-12.4c-2.3-3.9-4.6-7.6-6.9-11.1
						l-5.5,4.1c2.7,4,5.4,8.3,8,12.8c2.6,4.6,5.1,9.4,7.4,14.5c-2,4.2-4,8.2-6.1,11.9c-2.1,3.7-3.9,6.9-5.6,9.4l5.3,3.2
						c1.4-2.1,2.9-4.6,4.6-7.5c1.7-2.9,3.4-6.1,5.2-9.4c1.4,3.2,2.7,6.4,3.9,9.8c1.2,3.3,2.4,6.6,3.5,10l6.5-2.3
						c-1.5-4.3-3-8.6-4.7-12.8c-1.7-4.2-3.4-8.3-5.3-12.4c1.7-3.4,3.2-6.7,4.5-9.8c1.4-3.1,2.5-5.8,3.4-8.1L-282.9,270.1z
						 M-253.4,263.3c-0.9,2.8-2.2,6-3.9,9.7c-1.7,3.7-3.5,7.4-5.4,11.3c-4.2-8.5-9-16.7-14.4-24.6l-5.5,4c3,4.4,5.8,9,8.5,13.7
						c2.7,4.7,5.2,9.6,7.5,14.5c-1.9,3.5-3.7,6.8-5.5,9.9c-1.8,3.1-3.5,5.7-5,7.9l5.3,3.8c1.3-1.7,2.6-3.8,4.1-6.2
						c1.5-2.4,3-5,4.5-7.8c2.8,6.6,5.2,13.1,7.2,19.5l6.4-2.3c-1.3-4.3-2.8-8.5-4.3-12.6c-1.6-4.1-3.3-8.2-5.2-12.2
						c2.3-4.4,4.5-8.7,6.5-13c2-4.3,3.6-8,4.8-11.1L-253.4,263.3z"/>
				</g>
			</g>
		</g>
		<g id="text_4">
			<g transform="translate(131.392248 236.303349)scale(0.1 -0.1)">
				<g>
					<path id="AlibabaPuHuiTi-Regular-36" d="M-593.2,256.7c-3.2,0-6.2,0.4-9,1.3c-2.8,0.9-5.2,2.4-7.3,4.5c-2.1,2.1-3.7,5-4.9,8.5
						c-1.2,3.6-1.8,8.1-1.8,13.5c0,6.5,0.7,12.4,2.1,17.7c1.4,5.3,3.7,9.9,6.7,13.8s6.8,6.8,11.5,8.9c4.7,2.1,10.3,3.2,16.9,3.2
						l-0.1-7.6c-4.3,0-8.1-0.6-11.4-1.8c-3.3-1.2-6.2-2.8-8.5-5c-2.3-2.1-4.2-4.6-5.5-7.4c-1.3-2.8-2.1-5.9-2.4-9.2h0.3
						c1.3,1.3,3.3,2.6,5.9,3.8c2.6,1.2,5.6,1.9,9,1.9c6.5,0,11.6-1.8,15.4-5.5c3.8-3.7,5.7-9.3,5.7-16.9c0-3.4-0.5-6.5-1.4-9.5
						c-0.9-2.9-2.3-5.4-4.1-7.5c-1.8-2.1-4.2-3.8-7-5C-586,257.3-589.3,256.7-593.2,256.7z M-593.3,264.2c4.7,0,8.3,1.3,10.8,4
						c2.5,2.7,3.7,6.8,3.7,12.2c0,5.2-1.2,9.1-3.7,11.6c-2.5,2.6-5.7,3.9-9.6,3.9c-5.4,0-9.3-1.3-11.8-3.9c-2.5-2.6-3.7-5.9-3.7-10
						C-607.6,270.1-602.9,264.2-593.3,264.2z"/>
				</g>
				<g>
					<path id="AlibabaPuHuiTi-Regular-38" d="M-535.7,256.7c-7.5,0-13.3,1.6-17.5,4.7c-4.2,3.1-6.2,8-6.2,14.7c0,2.7,0.4,5,1.1,6.9
						c0.7,2,1.7,3.6,2.9,5c1.2,1.4,2.5,2.5,3.9,3.3c1.5,0.8,2.9,1.5,4.4,2v0.4c-2.9,1.3-5.3,3.2-7.2,5.7c-1.9,2.4-2.8,5.8-2.8,10.2
						c0,2.7,0.4,5.2,1.2,7.5c0.8,2.3,2.1,4.2,3.8,5.9c1.7,1.6,4,2.9,6.7,3.8c2.7,0.9,5.9,1.4,9.7,1.4c3.7,0,6.9-0.5,9.6-1.4
						c2.7-0.9,4.9-2.2,6.7-3.8c1.7-1.6,3-3.6,3.8-5.9c0.8-2.3,1.2-4.8,1.2-7.5c0-4.2-0.8-7.6-2.5-10.1c-1.6-2.5-4.1-4.4-7.5-5.8
						v-0.4c1.7-0.5,3.2-1.2,4.8-2s2.8-2,4-3.4c1.1-1.4,2-3.1,2.7-5c0.6-2,1-4.3,1-7c0-6.7-2.1-11.6-6.2-14.7
						C-522.3,258.2-528.2,256.7-535.7,256.7z M-535.7,296.7c2.5,0,4.6,0.3,6.2,1c1.7,0.6,3.1,1.5,4.1,2.6c1,1.1,1.8,2.4,2.2,3.9
						s0.7,3.1,0.7,4.8c0,3.8-1.1,6.7-3.3,8.8c-2.2,2.1-5.5,3.1-10,3.1c-8.9,0-13.3-4-13.3-11.9c0-1.7,0.2-3.3,0.6-4.8
						c0.4-1.5,1.1-2.8,2.1-3.9c1-1.1,2.4-2,4.1-2.6C-540.5,297-538.3,296.7-535.7,296.7z M-535.7,264c5.5,0,9.4,1.1,11.8,3.3
						c2.4,2.2,3.6,5.3,3.6,9.1c0,4.7-1.3,8.2-3.8,10.4c-2.5,2.2-6.4,3.3-11.6,3.3c-5.2,0-9-1.1-11.5-3.3c-2.5-2.2-3.8-5.7-3.8-10.4
						c0-3.8,1.2-6.8,3.5-9.1C-545.1,265.1-541.2,264-535.7,264z"/>
				</g>
				<g>
					<path id="AlibabaPuHuiTi-Regular-2e_00000049905687492472388590000018197281145254835624_" d="M-491.8,257.1
						c-2.3,0-4,0.4-5,1.1c-1,0.7-1.4,2.5-1.4,5.3c0,2.7,0.5,4.4,1.4,5.1c1,0.7,2.6,1.1,5,1.1c2.3,0,3.9-0.4,4.9-1.1
						c1-0.7,1.5-2.4,1.5-5.1c0-2.8-0.5-4.6-1.5-5.3S-489.6,257.1-491.8,257.1z"/>
				</g>
				<g>
					<path id="AlibabaPuHuiTi-Regular-36_00000163755160339874890030000012585931029621101196_" d="M-448,256.7
						c-3.2,0-6.2,0.4-9,1.3c-2.8,0.9-5.2,2.4-7.3,4.5c-2.1,2.1-3.7,5-4.9,8.5c-1.2,3.6-1.8,8.1-1.8,13.5c0,6.5,0.7,12.4,2.1,17.7
						c1.4,5.3,3.7,9.9,6.7,13.8s6.8,6.8,11.5,8.9c4.7,2.1,10.3,3.2,16.9,3.2l-0.1-7.6c-4.3,0-8.1-0.6-11.4-1.8
						c-3.3-1.2-6.2-2.8-8.5-5c-2.3-2.1-4.2-4.6-5.5-7.4c-1.3-2.8-2.1-5.9-2.4-9.2h0.3c1.3,1.3,3.3,2.6,5.9,3.8
						c2.6,1.2,5.6,1.9,9,1.9c6.5,0,11.6-1.8,15.4-5.5c3.8-3.7,5.7-9.3,5.7-16.9c0-3.4-0.5-6.5-1.4-9.5c-0.9-2.9-2.3-5.4-4.1-7.5
						c-1.8-2.1-4.2-3.8-7-5C-440.8,257.3-444.1,256.7-448,256.7z M-448.1,264.2c4.7,0,8.3,1.3,10.8,4c2.5,2.7,3.7,6.8,3.7,12.2
						c0,5.2-1.2,9.1-3.7,11.6c-2.5,2.6-5.7,3.9-9.6,3.9c-5.4,0-9.3-1.3-11.8-3.9c-2.5-2.6-3.7-5.9-3.7-10
						C-462.4,270.1-457.7,264.2-448.1,264.2z"/>
				</g>
				<g>
					<path id="AlibabaPuHuiTi-Regular-30_00000026851325701602748420000007052106354232751529_" d="M-390.5,256.7
						c-3.5,0-6.6,0.5-9.5,1.5s-5.3,2.9-7.4,5.5c-2.1,2.7-3.7,6.3-4.8,11s-1.7,10.5-1.7,17.7s0.6,13,1.7,17.6c1.1,4.6,2.7,8.3,4.8,11
						c2.1,2.7,4.5,4.6,7.4,5.6c2.9,1,6,1.6,9.5,1.6s6.7-0.5,9.5-1.6c2.9-1,5.4-2.9,7.4-5.6c2.1-2.7,3.7-6.3,4.8-11
						c1.1-4.6,1.7-10.5,1.7-17.6s-0.6-13-1.7-17.7s-2.7-8.3-4.8-11c-2.1-2.7-4.5-4.5-7.4-5.5S-387,256.7-390.5,256.7z M-390.5,264.2
						c2.5,0,4.6,0.4,6.4,1.2c1.8,0.8,3.3,2.3,4.5,4.5c1.2,2.1,2.1,5,2.7,8.6c0.6,3.6,0.8,8.3,0.8,13.9c0,5.5-0.3,10.1-0.8,13.8
						s-1.4,6.5-2.7,8.6c-1.2,2.1-2.7,3.6-4.5,4.5c-1.8,0.8-3.9,1.2-6.4,1.2c-2.4,0-4.5-0.4-6.3-1.2c-1.8-0.8-3.3-2.3-4.4-4.5
						c-1.2-2.1-2-5-2.6-8.6c-0.6-3.6-0.8-8.2-0.8-13.8c0-5.6,0.3-10.2,0.8-13.9c0.6-3.6,1.4-6.5,2.6-8.6s2.6-3.6,4.4-4.5
						C-395,264.6-392.9,264.2-390.5,264.2z"/>
				</g>
				<g>
					<path id="AlibabaPuHuiTi-Regular-25_00000166658069938587715970000018192646516576779932_" d="M-340.7,290
						c-2.2,0-4.2,0.3-5.9,0.9c-1.7,0.6-3.2,1.6-4.5,3.1c-1.2,1.4-2.2,3.4-2.8,5.8c-0.7,2.4-1,5.5-1,9.2c0,3.7,0.3,6.7,1,9.2
						s1.6,4.4,2.8,5.9c1.2,1.5,2.7,2.5,4.5,3.1c1.7,0.6,3.7,0.9,5.9,0.9s4.2-0.3,5.9-0.9c1.7-0.6,3.2-1.6,4.5-3.1
						c1.2-1.5,2.2-3.4,2.9-5.9s1-5.5,1-9.2c0-3.7-0.3-6.8-1-9.2c-0.7-2.4-1.6-4.4-2.9-5.8c-1.2-1.4-2.7-2.5-4.5-3.1
						C-336.6,290.3-338.5,290-340.7,290z M-304.7,327.1h6.7l-38.9-69.4h-6.6L-304.7,327.1z M-340.7,295.2c1.4,0,2.6,0.2,3.5,0.6
						c1,0.4,1.8,1.2,2.3,2.2c0.6,1,1,2.4,1.3,4.2c0.3,1.8,0.4,4,0.4,6.8c0,2.7-0.1,4.9-0.4,6.6c-0.3,1.8-0.7,3.2-1.3,4.2
						c-0.6,1-1.4,1.8-2.3,2.2c-1,0.4-2.2,0.6-3.5,0.6s-2.6-0.2-3.5-0.6c-0.9-0.4-1.7-1.1-2.3-2.2c-0.6-1-1-2.4-1.3-4.2
						c-0.3-1.8-0.4-4-0.4-6.6c0-2.7,0.1-5,0.4-6.8c0.3-1.8,0.7-3.2,1.3-4.2c0.6-1,1.4-1.8,2.3-2.2
						C-343.3,295.4-342.1,295.2-340.7,295.2z M-300.6,256.7c-2.2,0-4.2,0.3-5.9,0.9c-1.7,0.6-3.2,1.6-4.5,3
						c-1.3,1.4-2.2,3.4-2.9,5.8s-1,5.5-1,9.2c0,3.7,0.3,6.7,1,9.2s1.6,4.4,2.9,5.9c1.3,1.5,2.8,2.5,4.5,3.1c1.7,0.6,3.7,0.9,5.9,0.9
						c2.2,0,4.2-0.3,5.9-0.9c1.7-0.6,3.2-1.6,4.4-3.1c1.2-1.5,2.2-3.4,2.9-5.9s1-5.5,1-9.2c0-3.7-0.3-6.8-1-9.2s-1.6-4.4-2.9-5.8
						c-1.2-1.4-2.7-2.4-4.4-3C-296.4,257-298.4,256.7-300.6,256.7z M-300.6,261.9c1.4,0,2.6,0.2,3.5,0.6c1,0.4,1.8,1.2,2.4,2.2
						s1,2.4,1.2,4.2s0.3,4,0.3,6.8c0,2.7-0.1,4.9-0.3,6.6c-0.2,1.8-0.6,3.2-1.2,4.2c-0.6,1-1.4,1.8-2.4,2.2c-1,0.4-2.1,0.6-3.5,0.6
						c-1.4,0-2.6-0.2-3.5-0.6c-0.9-0.4-1.7-1.1-2.3-2.2c-0.6-1-1-2.4-1.3-4.2c-0.3-1.8-0.4-4-0.4-6.6c0-2.7,0.1-5,0.4-6.8
						s0.7-3.2,1.3-4.2c0.6-1,1.4-1.8,2.3-2.2C-303.2,262.1-302,261.9-300.6,261.9z"/>
				</g>
			</g>
		</g>
		<g id="legend_1">
			<g id="patch_4">
				<path class="st3" d="M202.8,38.5H284c1.3,0,2-0.7,2-2V8.3c0-1.3-0.7-2-2-2h-81.2c-1.3,0-2,0.7-2,2v28.2
					C200.8,37.9,201.5,38.5,202.8,38.5z"/>
			</g>
			<g id="patch_5">
				<path class="st1" d="M204.8,17.9h20v-7h-20V17.9z"/>
			</g>
			<g id="text_5">
				<g transform="translate(85.6 59.8)scale(0.1 -0.1)">
					<g>
						<path id="AlibabaPuHuiTi-Regular-672a_00000071529452717914928000000014542059713555068081_" d="M1528.9,454.7
							c2.3-3.1,4.8-6.1,7.7-9.1c2.9-3,6-5.9,9.2-8.8c3.3-2.8,6.8-5.5,10.5-8.1c3.7-2.5,7.5-4.9,11.4-7l-5.3-7
							c-7.9,5-15,10.3-21.2,16s-11.4,11.5-15.8,17.4v-38.6h-7.5V448c-3.9-5.9-8.8-11.6-14.6-17c-5.8-5.4-13-10.7-21.7-16.1l-5.5,6.6
							c8.8,5,16.3,10.2,22.5,15.8s11.5,11.3,16,17.5h-34v7h37.4v16h-31.2v7.2h31.2v14.5l7.5-0.3v-14.2h31.3v-7.2h-31.3v-16h37.5v-7
							H1528.9z"/>
					</g>
					<g>
						<path id="AlibabaPuHuiTi-Regular-642d_00000134250783275103492850000005773946421082906036_" d="M1613.8,482.9h-10.9v6.4h10.9
							v10.2l7-0.3v-9.9h19.7v10.2l7-0.3v-9.9h14.3v-6.4h-14.3v-8.6h-7v8.6h-19.7v-8.6h-7V482.9z M1603.8,457.1
							c-1.3-0.7-2.7-1.4-4.4-2.2s-3.4-1.6-5.3-2.5v-31.8c0-1.9-0.2-3.5-0.5-4.8c-0.3-1.2-0.9-2.2-1.7-3c-0.8-0.8-1.9-1.4-3.2-1.8
							c-1.4-0.4-3.1-0.7-5.2-0.8l-4.2-0.4l-2.1,7.4l4.4,0.4c2.2,0.2,3.7,0.7,4.5,1.4c0.8,0.7,1.2,2.1,1.2,4v26.1
							c-2.2-1-4.3-2-6.3-2.9c-2-0.9-3.8-1.6-5.2-2.1l-2.8,6.4c1.9,0.6,4.1,1.4,6.6,2.5c2.5,1.1,5.1,2.3,7.8,3.5v18.2h-10.5v7.2h10.5
							v16.6l6.9-0.3V482h10.1v-7.2h-10.1v-14.9c1.6,0.7,3.1,1.4,4.5,2.1c1.4,0.7,2.6,1.3,3.7,1.9l0.8-3.6L1603.8,457.1z
							 M1634.6,477.6c3.2-4.6,7.4-9,12.8-13.2s11.3-7.7,18-10.6l-3.9-6.2c-6.6,3.5-12.6,7.2-18,11.2c-5.4,4-9.5,8.4-12.5,13.2
							c-1.6-2.2-3.4-4.5-5.5-6.8c-2.1-2.4-4.4-4.7-6.8-6.9c-2.5-2.2-5.1-4.4-7.9-6.5c-2.8-2.1-5.6-3.9-8.4-5.5l-4.3,6
							c3,1.5,5.9,3.3,8.8,5.3c2.9,2,5.6,4.1,8.2,6.3c2.5,2.2,4.9,4.5,7,6.8c2.1,2.3,3.9,4.6,5.2,6.8H1634.6z M1645.4,455.9v-6.2
							h-29.1v6.2H1645.4z M1609.3,441.8h43.4v-32.6h-6.9v5.6h-29.5v-5.5h-7V441.8z M1616.3,435.3v-14.5h29.5v14.5H1616.3z"/>
					</g>
					<g>
						<path id="AlibabaPuHuiTi-Regular-5efa_00000035496647433089289610000013086532345989702540_" d="M1725.2,471.6h-22.5v5.8h22.5
							v8.1h-18.7v5.7h18.7v8.4l6.7-0.2v-8.2h21.2v-13.8h8.4v-5.8h-8.4v-13.9H1732v-7.9h23.8V444H1732v-7.8h27.3v-5.8H1732v-9.2h-6.7
							v9.2h-24.1v5.8h24.1v7.8h-19.4v5.8h19.4v7.9h-18.8v5.8h18.8V471.6z M1721.8,418.6c6.7-0.1,13.4-0.2,20.2-0.2
							c6.8,0,13.7,0.1,20.6,0.4l-1.2-6.8c-6.5-0.1-13.1-0.2-19.9-0.2c-6.8,0-13.4,0.1-19.9,0.2c-6.7,0.1-12.7,1-18.1,2.7
							c-5.4,1.7-10.1,4.8-14.2,9.3c-1.6-2.5-3.4-5.1-5.5-7.6c-2-2.5-4.3-5.2-6.8-8l-5.3,5.4c2.7,2.5,5.2,5.1,7.3,7.8
							c2.2,2.6,4.1,5.4,5.9,8.2c-1.7,2.7-3.3,5.7-4.8,9.1c-1.4,3.4-2.7,7.3-3.9,11.6l5.4,1.9c1-3.4,2-6.5,3.1-9.2
							c1.1-2.7,2.3-5.2,3.5-7.3c1.5,3.3,2.8,6.8,3.9,10.5c1.1,3.6,2,7.5,2.7,11.7h-17.3v6.3c2.9,3.2,5.8,6.6,8.5,10.2
							c2.7,3.6,5.3,7.3,7.8,11.1h-18v6.3h25.9v-6.4c-2.5-3.8-5.1-7.5-7.8-11c-2.7-3.5-5.5-6.9-8.5-10.1h16.1v-6.1
							c-0.9-5.8-2.1-11-3.5-15.6c-1.4-4.6-3.2-9-5.5-13.2c1.8-2.1,3.7-3.9,5.8-5.2c2.1-1.4,4.3-2.4,6.8-3.2c2.4-0.8,5-1.4,7.8-1.7
							C1715.7,418.8,1718.6,418.6,1721.8,418.6z M1732,477.4h14.9v8.1H1732V477.4z M1746.8,471.6H1732v-8.1h14.9V471.6z"/>
					</g>
					<g>
						<path id="AlibabaPuHuiTi-Regular-5b98_00000152241875805899684530000011049534771880605116_" d="M1856.9,488.7V471h-7.8v10.9
							h-64V471h-7.9v17.7h36.8c-0.5,1.7-1.1,3.4-1.6,5.1c-0.5,1.7-1.1,3.1-1.6,4.3l7.7,2c0.5-1.5,1.2-3.3,1.9-5.4
							c0.7-2.1,1.4-4.1,1.9-6H1856.9z M1795.1,438.8h53.4v-30.1h-7.7v5.2h-45.7v-5.7h-7.7v63.9h58.4v-23.4h-50.7V438.8z
							 M1795.1,465.6v-10.2h42.9v10.2H1795.1z M1795.1,432.1v-11.5h45.7v11.5H1795.1z"/>
					</g>
					<g>
						<path id="AlibabaPuHuiTi-Regular-7f51_00000072970581037142983260000012065797380289957538_" d="M1953,493.5V423
							c0-2.5-0.2-4.6-0.6-6.2c-0.4-1.6-1.1-2.9-2.2-3.9c-1.1-1-2.6-1.7-4.5-2.1c-1.9-0.4-4.4-0.7-7.5-0.9l-6-0.4l-2.5,7.4l7.3,0.4
							c1.9,0.1,3.4,0.2,4.5,0.5c1.2,0.2,2.1,0.6,2.8,1.2s1.1,1.3,1.3,2.3c0.2,1,0.4,2.3,0.4,3.8v61.4h-61.6v-76.8h-7v83.8H1953z
							 M1909.8,431.1c-0.7,2.1-1.5,4.3-2.5,6.8s-2.1,5.1-3.3,7.8c-2.1-4.3-4.4-8.5-6.7-12.4c-2.3-3.9-4.6-7.6-6.9-11.1l-5.5,4.1
							c2.7,4,5.4,8.3,8,12.8c2.6,4.6,5.1,9.4,7.4,14.5c-2,4.2-4,8.2-6.1,11.9c-2.1,3.7-3.9,6.9-5.6,9.4l5.3,3.2
							c1.4-2.1,2.9-4.6,4.6-7.5c1.7-2.9,3.4-6.1,5.2-9.4c1.4,3.2,2.7,6.4,3.9,9.8c1.2,3.3,2.4,6.6,3.5,10l6.5-2.3
							c-1.5-4.3-3-8.6-4.7-12.8c-1.7-4.2-3.4-8.3-5.3-12.4c1.7-3.4,3.2-6.7,4.5-9.8c1.4-3.1,2.5-5.8,3.4-8.1L1909.8,431.1z
							 M1939.3,424.3c-0.9,2.8-2.2,6-3.9,9.7s-3.5,7.4-5.4,11.3c-4.2-8.5-9-16.7-14.4-24.6l-5.5,4c3,4.4,5.8,9,8.5,13.7
							c2.7,4.7,5.2,9.6,7.5,14.5c-1.9,3.5-3.7,6.8-5.5,9.9c-1.8,3.1-3.5,5.7-5,7.9l5.3,3.8c1.3-1.7,2.6-3.8,4.1-6.2
							c1.5-2.4,3-5,4.5-7.8c2.8,6.6,5.2,13.1,7.2,19.5l6.4-2.3c-1.3-4.3-2.8-8.5-4.3-12.6c-1.6-4.1-3.3-8.2-5.2-12.2
							c2.3-4.4,4.5-8.7,6.5-13c2-4.3,3.6-8,4.8-11.1L1939.3,424.3z"/>
					</g>
				</g>
			</g>
			<g id="patch_6">
				<path class="st2" d="M204.8,32.5h20v-7h-20V32.5z"/>
			</g>
			<g id="text_6">
				<g transform="translate(85.6 74.4)scale(0.1 -0.1)">
					<g>
						<path id="AlibabaPuHuiTi-Regular-642d_00000109740483617999506110000016252071778117870744_" d="M1515.4,482.9h-10.9v6.4h10.9
							v10.2l7-0.3v-9.9h19.7v10.2l7-0.3v-9.9h14.3v-6.4h-14.3v-8.6h-7v8.6h-19.7v-8.6h-7V482.9z M1505.4,457.1
							c-1.3-0.7-2.7-1.4-4.4-2.2c-1.6-0.8-3.4-1.6-5.3-2.5v-31.8c0-1.9-0.2-3.5-0.5-4.8c-0.3-1.2-0.9-2.2-1.7-3
							c-0.8-0.8-1.9-1.4-3.2-1.8c-1.4-0.4-3.1-0.7-5.2-0.8l-4.2-0.4l-2.1,7.4l4.4,0.4c2.2,0.2,3.7,0.7,4.5,1.4
							c0.8,0.7,1.2,2.1,1.2,4v26.1c-2.2-1-4.3-2-6.3-2.9c-2-0.9-3.8-1.6-5.2-2.1l-2.8,6.4c1.9,0.6,4.1,1.4,6.6,2.5
							c2.5,1.1,5.1,2.3,7.8,3.5v18.2h-10.5v7.2h10.5v16.6l6.9-0.3V482h10.1v-7.2h-10.1v-14.9c1.6,0.7,3.1,1.4,4.5,2.1
							c1.4,0.7,2.6,1.3,3.7,1.9l0.8-3.6L1505.4,457.1z M1536.2,477.6c3.2-4.6,7.4-9,12.8-13.2c5.3-4.2,11.3-7.7,18-10.6l-3.9-6.2
							c-6.6,3.5-12.6,7.2-18,11.2c-5.4,4-9.5,8.4-12.5,13.2c-1.6-2.2-3.4-4.5-5.5-6.8c-2.1-2.4-4.4-4.7-6.8-6.9
							c-2.5-2.2-5.1-4.4-7.9-6.5c-2.8-2.1-5.6-3.9-8.4-5.5l-4.3,6c3,1.5,5.9,3.3,8.8,5.3c2.9,2,5.6,4.1,8.2,6.3
							c2.5,2.2,4.9,4.5,7,6.8c2.1,2.3,3.9,4.6,5.2,6.8H1536.2z M1547,455.9v-6.2h-29.1v6.2H1547z M1510.9,441.8h43.4v-32.6h-6.9v5.6
							h-29.5v-5.5h-7V441.8z M1517.9,435.3v-14.5h29.5v14.5H1517.9z"/>
					</g>
					<g>
						<path id="AlibabaPuHuiTi-Regular-5efa_00000063613070062098308340000009290485566110091696_" d="M1626.8,471.6h-22.5v5.8h22.5
							v8.1h-18.7v5.7h18.7v8.4l6.7-0.2v-8.2h21.2v-13.8h8.4v-5.8h-8.4v-13.9h-21.2v-7.9h23.8V444h-23.8v-7.8h27.3v-5.8h-27.3v-9.2
							h-6.7v9.2h-24.1v5.8h24.1v7.8h-19.4v5.8h19.4v7.9h-18.8v5.8h18.8V471.6z M1623.4,418.6c6.7-0.1,13.4-0.2,20.2-0.2
							s13.7,0.1,20.6,0.4l-1.2-6.8c-6.5-0.1-13.1-0.2-19.9-0.2s-13.4,0.1-19.9,0.2c-6.7,0.1-12.7,1-18.1,2.7
							c-5.4,1.7-10.1,4.8-14.2,9.3c-1.6-2.5-3.4-5.1-5.5-7.6c-2-2.5-4.3-5.2-6.8-8l-5.3,5.4c2.7,2.5,5.2,5.1,7.3,7.8
							c2.2,2.6,4.1,5.4,5.9,8.2c-1.7,2.7-3.3,5.7-4.8,9.1c-1.4,3.4-2.7,7.3-3.9,11.6l5.4,1.9c1-3.4,2-6.5,3.1-9.2
							c1.1-2.7,2.3-5.2,3.5-7.3c1.5,3.3,2.8,6.8,3.9,10.5c1.1,3.6,2,7.5,2.7,11.7h-17.3v6.3c2.9,3.2,5.8,6.6,8.5,10.2
							c2.7,3.6,5.3,7.3,7.8,11.1h-18v6.3h25.9v-6.4c-2.5-3.8-5.1-7.5-7.8-11s-5.5-6.9-8.5-10.1h16.1v-6.1c-0.9-5.8-2.1-11-3.5-15.6
							c-1.4-4.6-3.2-9-5.5-13.2c1.8-2.1,3.7-3.9,5.8-5.2c2.1-1.4,4.3-2.4,6.8-3.2c2.4-0.8,5-1.4,7.8-1.7
							C1617.3,418.8,1620.2,418.6,1623.4,418.6z M1633.6,477.4h14.9v8.1h-14.9V477.4z M1648.4,471.6h-14.9v-8.1h14.9V471.6z"/>
					</g>
					<g>
						<path id="AlibabaPuHuiTi-Regular-5b98_00000156577962209452611280000016088135684163845509_" d="M1758.5,488.7V471h-7.8v10.9
							h-64V471h-7.9v17.7h36.8c-0.5,1.7-1.1,3.4-1.6,5.1c-0.5,1.7-1.1,3.1-1.6,4.3l7.7,2c0.5-1.5,1.2-3.3,1.9-5.4
							c0.7-2.1,1.4-4.1,1.9-6H1758.5z M1696.7,438.8h53.4v-30.1h-7.7v5.2h-45.7v-5.7h-7.7v63.9h58.4v-23.4h-50.7V438.8z
							 M1696.7,465.6v-10.2h42.9v10.2H1696.7z M1696.7,432.1v-11.5h45.7v11.5H1696.7z"/>
					</g>
					<g>
						<path id="AlibabaPuHuiTi-Regular-7f51_00000134228548848805449580000001029997480338602930_" d="M1854.6,493.5V423
							c0-2.5-0.2-4.6-0.6-6.2c-0.4-1.6-1.1-2.9-2.2-3.9c-1.1-1-2.6-1.7-4.5-2.1c-1.9-0.4-4.4-0.7-7.5-0.9l-6-0.4l-2.5,7.4l7.3,0.4
							c1.9,0.1,3.4,0.2,4.5,0.5c1.2,0.2,2.1,0.6,2.8,1.2c0.7,0.6,1.1,1.3,1.3,2.3c0.2,1,0.4,2.3,0.4,3.8v61.4h-61.6v-76.8h-7v83.8
							H1854.6z M1811.4,431.1c-0.7,2.1-1.5,4.3-2.5,6.8s-2.1,5.1-3.3,7.8c-2.1-4.3-4.4-8.5-6.7-12.4c-2.3-3.9-4.6-7.6-6.9-11.1
							l-5.5,4.1c2.7,4,5.4,8.3,8,12.8c2.6,4.6,5.1,9.4,7.4,14.5c-2,4.2-4,8.2-6.1,11.9c-2.1,3.7-3.9,6.9-5.6,9.4l5.3,3.2
							c1.4-2.1,2.9-4.6,4.6-7.5c1.7-2.9,3.4-6.1,5.2-9.4c1.4,3.2,2.7,6.4,3.9,9.8c1.2,3.3,2.4,6.6,3.5,10l6.5-2.3
							c-1.5-4.3-3-8.6-4.7-12.8c-1.7-4.2-3.4-8.3-5.3-12.4c1.7-3.4,3.2-6.7,4.5-9.8c1.4-3.1,2.5-5.8,3.4-8.1L1811.4,431.1z
							 M1840.9,424.3c-0.9,2.8-2.2,6-3.9,9.7c-1.7,3.7-3.5,7.4-5.4,11.3c-4.2-8.5-9-16.7-14.4-24.6l-5.5,4c3,4.4,5.8,9,8.5,13.7
							c2.7,4.7,5.2,9.6,7.5,14.5c-1.9,3.5-3.7,6.8-5.5,9.9c-1.8,3.1-3.5,5.7-5,7.9l5.3,3.8c1.3-1.7,2.6-3.8,4.1-6.2
							c1.5-2.4,3-5,4.5-7.8c2.8,6.6,5.2,13.1,7.2,19.5l6.4-2.3c-1.3-4.3-2.8-8.5-4.3-12.6c-1.6-4.1-3.3-8.2-5.2-12.2
							c2.3-4.4,4.5-8.7,6.5-13c2-4.3,3.6-8,4.8-11.1L1840.9,424.3z"/>
					</g>
				</g>
			</g>
		</g>
	</g>
</g>
</svg>
