<?xml version="1.0" encoding="utf-8" standalone="no"?>
<!DOCTYPE svg PUBLIC "-//W3C//DTD SVG 1.1//EN"
  "http://www.w3.org/Graphics/SVG/1.1/DTD/svg11.dtd">
<svg xmlns:xlink="http://www.w3.org/1999/xlink" width="432pt" height="252pt" viewBox="0 0 432 252" xmlns="http://www.w3.org/2000/svg" version="1.1">
 <metadata>
  <rdf:RDF xmlns:dc="http://purl.org/dc/elements/1.1/" xmlns:cc="http://creativecommons.org/ns#" xmlns:rdf="http://www.w3.org/1999/02/22-rdf-syntax-ns#">
   <cc:Work>
    <dc:type rdf:resource="http://purl.org/dc/dcmitype/StillImage"/>
    <dc:date>2022-12-14T17:17:35.267190</dc:date>
    <dc:format>image/svg+xml</dc:format>
    <dc:creator>
     <cc:Agent>
      <dc:title>Matplotlib v3.5.2, https://matplotlib.org/</dc:title>
     </cc:Agent>
    </dc:creator>
   </cc:Work>
  </rdf:RDF>
 </metadata>
 <defs>
  <style type="text/css">*{stroke-linejoin: round; stroke-linecap: butt}</style>
 </defs>
 <g id="figure_1">
  <g id="patch_1">
   <path d="M 0 252 
L 432 252 
L 432 0 
L 0 0 
L 0 252 
z
" style="fill: none"/>
  </g>
  <g id="axes_1">
   <g id="patch_2">
    <path d="M 54 220.5 
L 388.8 220.5 
L 388.8 30.24 
L 54 30.24 
z
" style="fill: #ffffff"/>
   </g>
   <g id="matplotlib.axis_1">
    <g id="xtick_1">
     <g id="line2d_1">
      <defs>
       <path id="me19da4c06d" d="M 0 0 
L 0 3.5 
" style="stroke: #000000; stroke-width: 0.8"/>
      </defs>
      <g>
       <use xlink:href="#me19da4c06d" x="77.914286" y="220.5" style="stroke: #000000; stroke-width: 0.8"/>
      </g>
     </g>
     <g id="text_1">
      <!-- 预计来路 -->
      <g transform="translate(58.233036 235.1)scale(0.1 -0.1)">
       <defs>
        <path id="AlibabaPuHuiTi-Regular-9884" d="M 2086 1338 
Q 2195 1594 2281 1853 
Q 2368 2112 2419 2381 
L 1766 2381 
L 1766 154 
Q 1766 -51 1740 -172 
Q 1715 -294 1641 -364 
Q 1568 -435 1443 -467 
Q 1318 -499 1126 -518 
L 730 -557 
L 563 -102 
Q 646 -96 723 -90 
Q 794 -83 861 -80 
Q 928 -77 973 -70 
Q 1088 -58 1158 -42 
Q 1229 -26 1264 12 
Q 1299 51 1308 118 
Q 1318 186 1318 307 
L 1318 2381 
L 294 2381 
L 294 2822 
L 1517 2822 
Q 1312 3130 1117 3370 
Q 922 3610 723 3834 
L 1018 4058 
Q 1114 3955 1216 3836 
Q 1318 3718 1427 3584 
Q 1510 3680 1596 3795 
Q 1683 3910 1763 4022 
Q 1843 4134 1910 4236 
Q 1978 4339 2029 4416 
L 493 4416 
L 493 4838 
L 2547 4838 
L 2547 4365 
Q 2490 4288 2387 4141 
Q 2285 3994 2163 3830 
Q 2042 3667 1920 3507 
Q 1798 3347 1702 3245 
Q 1754 3174 1802 3110 
Q 1850 3046 1894 2982 
L 1696 2822 
L 2848 2822 
L 2848 2394 
Q 2810 2163 2714 1868 
Q 2618 1574 2470 1210 
L 2086 1338 
z
M 5984 4838 
L 5984 4397 
L 4582 4397 
Q 4550 4243 4515 4044 
Q 4480 3846 4442 3661 
L 5619 3661 
L 5619 858 
L 5158 858 
L 5158 3251 
L 3507 3251 
L 3507 851 
L 3053 851 
L 3053 3661 
L 3942 3661 
Q 3987 3846 4022 4041 
Q 4058 4237 4090 4397 
L 2758 4397 
L 2758 4838 
L 5984 4838 
z
M 4518 1843 
Q 4518 1389 4460 1049 
Q 4403 710 4214 428 
Q 4026 147 3674 -112 
Q 3322 -371 2726 -666 
L 2438 -314 
Q 3002 -38 3328 192 
Q 3654 422 3820 675 
Q 3987 928 4032 1229 
Q 4077 1530 4077 1946 
L 4077 2906 
L 4518 2880 
L 4518 1843 
z
M 4646 870 
Q 4960 640 5299 365 
Q 5638 90 5984 -243 
L 5734 -640 
Q 5434 -294 5069 0 
Q 4704 294 4378 544 
L 4646 870 
z
" transform="scale(0.015625)"/>
        <path id="AlibabaPuHuiTi-Regular-8ba1" d="M 1792 3635 
Q 1709 3776 1597 3933 
Q 1485 4090 1360 4250 
Q 1235 4410 1107 4560 
Q 979 4710 864 4838 
L 1203 5126 
Q 1318 5018 1452 4867 
Q 1587 4717 1718 4557 
Q 1850 4397 1965 4243 
Q 2080 4090 2157 3968 
L 1792 3635 
z
M 6016 2509 
L 4326 2509 
L 4326 -608 
L 3827 -608 
L 3827 2509 
L 2253 2509 
L 2253 2995 
L 3827 2995 
L 3827 5088 
L 4326 5069 
L 4326 2995 
L 6016 2995 
L 6016 2509 
z
M 1722 461 
Q 1766 493 1856 557 
Q 1946 621 2058 704 
Q 2170 787 2291 876 
Q 2413 966 2521 1046 
Q 2630 1126 2716 1193 
Q 2803 1261 2848 1293 
L 3021 819 
Q 2944 762 2752 627 
Q 2560 493 2349 342 
Q 2138 192 1952 57 
Q 1766 -77 1696 -128 
Q 1606 -192 1504 -278 
Q 1402 -365 1325 -448 
L 1018 -90 
Q 1146 19 1184 96 
Q 1222 173 1222 294 
L 1222 2669 
L 326 2669 
L 326 3149 
L 1722 3149 
L 1722 461 
z
" transform="scale(0.015625)"/>
        <path id="AlibabaPuHuiTi-Regular-6765" d="M 3578 1933 
Q 4032 1421 4659 989 
Q 5286 557 6074 224 
L 5786 -237 
Q 5018 160 4413 592 
Q 3808 1024 3373 1542 
L 3373 -608 
L 2906 -608 
L 2906 1536 
Q 2694 1280 2448 1046 
Q 2202 813 1907 595 
Q 1613 378 1264 166 
Q 915 -45 499 -256 
L 218 198 
Q 1011 563 1632 988 
Q 2253 1414 2707 1933 
L 422 1933 
L 422 2394 
L 2906 2394 
L 2906 3968 
L 666 3968 
L 666 4416 
L 2906 4416 
L 2906 5178 
L 3373 5158 
L 3373 4416 
L 5619 4416 
L 5619 3968 
L 3373 3968 
L 3373 2394 
L 5862 2394 
L 5862 1933 
L 3578 1933 
z
M 3917 2765 
Q 4019 2861 4144 3005 
Q 4269 3149 4393 3302 
Q 4518 3456 4627 3609 
Q 4736 3763 4806 3878 
L 5165 3603 
Q 5088 3482 4982 3334 
Q 4877 3187 4755 3033 
Q 4634 2880 4506 2733 
Q 4378 2586 4256 2464 
L 3917 2765 
z
M 1434 3866 
Q 1523 3776 1648 3638 
Q 1773 3501 1897 3353 
Q 2022 3206 2137 3059 
Q 2253 2912 2323 2803 
L 1965 2451 
Q 1894 2579 1785 2736 
Q 1677 2893 1552 3049 
Q 1427 3206 1305 3344 
Q 1184 3482 1094 3571 
L 1434 3866 
z
" transform="scale(0.015625)"/>
        <path id="AlibabaPuHuiTi-Regular-8def" d="M 4550 2906 
Q 4838 2720 5196 2569 
Q 5555 2419 5997 2291 
L 5805 1882 
Q 5370 2042 4979 2227 
Q 4589 2413 4243 2656 
Q 3642 2208 2707 1856 
L 2470 2272 
Q 2893 2419 3241 2582 
Q 3590 2746 3878 2938 
Q 3482 3283 3194 3731 
Q 2989 3488 2758 3258 
L 2496 3603 
Q 2835 3949 3139 4381 
Q 3443 4813 3622 5254 
L 4070 5165 
Q 3949 4890 3802 4621 
L 5491 4621 
L 5491 4198 
Q 5306 3821 5082 3504 
Q 4858 3187 4550 2906 
z
M 2643 301 
L 2650 102 
Q 2419 64 2092 13 
Q 1766 -38 1424 -89 
Q 1082 -141 758 -189 
Q 435 -237 218 -269 
L 160 179 
L 550 230 
L 550 2470 
L 947 2458 
L 947 282 
Q 1088 301 1225 323 
Q 1363 346 1510 365 
L 1510 2944 
L 640 2944 
L 640 4845 
L 2413 4845 
L 2413 2944 
L 1920 2944 
L 1920 1984 
L 2605 1984 
L 2605 1568 
L 1920 1568 
L 1920 429 
L 2637 550 
L 2643 301 
z
M 1043 3373 
L 2010 3373 
L 2010 4410 
L 1043 4410 
L 1043 3373 
z
M 3469 4090 
Q 3622 3814 3798 3587 
Q 3974 3360 4192 3174 
Q 4448 3386 4653 3642 
Q 4858 3898 5030 4205 
L 3546 4205 
L 3469 4090 
z
M 2938 1741 
L 5344 1741 
L 5344 -557 
L 4915 -557 
L 4915 -198 
L 3360 -198 
L 3360 -557 
L 2938 -557 
L 2938 1741 
z
M 3360 1325 
L 3360 211 
L 4915 211 
L 4915 1325 
L 3360 1325 
z
" transform="scale(0.015625)"/>
       </defs>
       <use xlink:href="#AlibabaPuHuiTi-Regular-9884"/>
       <use xlink:href="#AlibabaPuHuiTi-Regular-8ba1" x="98.399994"/>
       <use xlink:href="#AlibabaPuHuiTi-Regular-6765" x="196.799988"/>
       <use xlink:href="#AlibabaPuHuiTi-Regular-8def" x="295.199982"/>
      </g>
     </g>
    </g>
    <g id="xtick_2">
     <g id="line2d_2">
      <g>
       <use xlink:href="#me19da4c06d" x="125.742857" y="220.5" style="stroke: #000000; stroke-width: 0.8"/>
      </g>
     </g>
     <g id="text_2">
      <!-- 百度权重 -->
      <g transform="translate(106.061607 235.1)scale(0.1 -0.1)">
       <defs>
        <path id="AlibabaPuHuiTi-Regular-767e" d="M 3379 4333 
Q 3334 4134 3273 3900 
Q 3213 3667 3149 3469 
L 5165 3469 
L 5165 -640 
L 4691 -640 
L 4691 -218 
L 1638 -218 
L 1638 -646 
L 1165 -646 
L 1165 3469 
L 2586 3469 
Q 2656 3661 2720 3897 
Q 2784 4134 2829 4333 
L 333 4333 
L 333 4794 
L 5958 4794 
L 5958 4333 
L 3379 4333 
z
M 4691 3008 
L 1638 3008 
L 1638 1875 
L 4691 1875 
L 4691 3008 
z
M 4691 250 
L 4691 1421 
L 1638 1421 
L 1638 250 
L 4691 250 
z
" transform="scale(0.015625)"/>
        <path id="AlibabaPuHuiTi-Regular-5ea6" d="M 1382 2483 
Q 1382 1869 1334 1427 
Q 1286 986 1193 630 
Q 1101 275 960 -35 
Q 819 -346 634 -698 
L 192 -474 
Q 403 -115 540 189 
Q 678 493 764 832 
Q 851 1171 886 1593 
Q 922 2016 922 2624 
L 922 4493 
L 3251 4493 
Q 3200 4659 3145 4822 
Q 3091 4986 3046 5094 
L 3520 5184 
Q 3571 5069 3638 4870 
Q 3706 4672 3763 4493 
L 5837 4493 
L 5837 4070 
L 1382 4070 
L 1382 2483 
z
M 2381 2086 
L 2381 3008 
L 1542 3008 
L 1542 3411 
L 2381 3411 
L 2381 3891 
L 2835 3878 
L 2835 3411 
L 4320 3411 
L 4320 3891 
L 4781 3878 
L 4781 3411 
L 5818 3411 
L 5818 3008 
L 4781 3008 
L 4781 2086 
L 2381 2086 
z
M 2835 3008 
L 2835 2483 
L 4320 2483 
L 4320 3008 
L 2835 3008 
z
M 5818 -595 
Q 5114 -474 4541 -339 
Q 3968 -205 3482 0 
Q 3040 -186 2505 -346 
Q 1971 -506 1306 -653 
L 1094 -224 
Q 1670 -122 2137 -6 
Q 2605 109 2989 250 
Q 2746 397 2515 576 
Q 2285 755 2067 986 
L 2400 1248 
Q 2650 979 2906 790 
Q 3162 602 3469 454 
Q 3814 621 4080 822 
Q 4346 1024 4557 1267 
L 1626 1267 
L 1626 1670 
L 5184 1670 
L 5184 1261 
Q 4941 954 4649 707 
Q 4358 461 3987 250 
Q 4371 128 4854 35 
Q 5338 -58 5990 -147 
L 5818 -595 
z
" transform="scale(0.015625)"/>
        <path id="AlibabaPuHuiTi-Regular-6743" d="M 2566 1510 
Q 2496 1626 2393 1763 
Q 2291 1901 2179 2038 
Q 2067 2176 1961 2301 
Q 1856 2426 1773 2509 
L 1773 -640 
L 1312 -640 
L 1312 2374 
Q 1126 1958 908 1584 
Q 691 1210 467 915 
L 102 1229 
Q 269 1434 441 1696 
Q 614 1958 777 2249 
Q 941 2541 1075 2854 
Q 1210 3168 1299 3469 
L 416 3469 
L 416 3942 
L 1312 3942 
L 1312 5178 
L 1773 5165 
L 1773 3942 
L 2643 3942 
L 2643 3469 
L 1773 3469 
L 1773 2624 
L 2003 2861 
Q 2086 2784 2208 2659 
Q 2330 2534 2458 2390 
Q 2586 2246 2701 2105 
Q 2816 1965 2893 1862 
L 2566 1510 
z
M 4448 1318 
Q 4755 941 5161 576 
Q 5568 211 6106 -179 
L 5741 -608 
Q 4755 147 4134 915 
Q 3795 512 3363 125 
Q 2931 -262 2368 -666 
L 2016 -256 
Q 2618 141 3066 515 
Q 3514 890 3853 1293 
Q 3411 1920 3168 2598 
Q 2925 3277 2816 4077 
L 3258 4154 
Q 3373 3430 3581 2835 
Q 3789 2240 4160 1702 
Q 4512 2227 4726 2835 
Q 4941 3443 5082 4218 
L 2560 4218 
L 2560 4672 
L 5568 4672 
L 5568 4224 
Q 5402 3341 5139 2640 
Q 4877 1939 4448 1318 
z
" transform="scale(0.015625)"/>
        <path id="AlibabaPuHuiTi-Regular-91cd" d="M 3392 3590 
L 3392 3142 
L 5274 3142 
L 5274 1197 
L 3392 1197 
L 3392 762 
L 5491 762 
L 5491 390 
L 3392 390 
L 3392 -70 
L 5894 -70 
L 5894 -454 
L 422 -454 
L 422 -70 
L 2925 -70 
L 2925 390 
L 832 390 
L 832 762 
L 2925 762 
L 2925 1197 
L 1050 1197 
L 1050 3142 
L 2925 3142 
L 2925 3590 
L 288 3590 
L 288 3962 
L 2925 3962 
L 2925 4454 
Q 2342 4429 1804 4416 
Q 1267 4403 858 4397 
L 832 4806 
Q 1146 4813 1523 4822 
Q 1901 4832 2307 4848 
Q 2714 4864 3133 4883 
Q 3552 4902 3955 4921 
Q 4358 4941 4723 4960 
Q 5088 4979 5389 5005 
L 5453 4589 
Q 5050 4557 4512 4531 
Q 3974 4506 3392 4474 
L 3392 3962 
L 6035 3962 
L 6035 3590 
L 3392 3590 
z
M 1510 2778 
L 1510 2349 
L 2925 2349 
L 2925 2778 
L 1510 2778 
z
M 3392 2778 
L 3392 2349 
L 4800 2349 
L 4800 2778 
L 3392 2778 
z
M 2925 1568 
L 2925 1997 
L 1510 1997 
L 1510 1568 
L 2925 1568 
z
M 4800 1568 
L 4800 1997 
L 3392 1997 
L 3392 1568 
L 4800 1568 
z
" transform="scale(0.015625)"/>
       </defs>
       <use xlink:href="#AlibabaPuHuiTi-Regular-767e"/>
       <use xlink:href="#AlibabaPuHuiTi-Regular-5ea6" x="98.399994"/>
       <use xlink:href="#AlibabaPuHuiTi-Regular-6743" x="196.799988"/>
       <use xlink:href="#AlibabaPuHuiTi-Regular-91cd" x="295.199982"/>
      </g>
     </g>
    </g>
    <g id="xtick_3">
     <g id="line2d_3">
      <g>
       <use xlink:href="#me19da4c06d" x="173.571429" y="220.5" style="stroke: #000000; stroke-width: 0.8"/>
      </g>
     </g>
     <g id="text_3">
      <!-- 腾讯网 -->
      <g transform="translate(158.810491 235.1)scale(0.1 -0.1)">
       <defs>
        <path id="AlibabaPuHuiTi-Regular-817e" d="M 5946 1523 
Q 5677 1664 5408 1840 
Q 5139 2016 4909 2214 
L 4794 1235 
L 5638 1235 
Q 5632 1165 5622 1005 
Q 5613 845 5600 662 
Q 5587 480 5574 320 
Q 5562 160 5555 90 
Q 5542 -83 5488 -204 
Q 5434 -326 5322 -403 
Q 5210 -480 5037 -518 
Q 4864 -557 4621 -570 
L 4301 -589 
L 4166 -211 
L 4595 -186 
Q 4755 -179 4860 -156 
Q 4966 -134 5027 -89 
Q 5088 -45 5117 22 
Q 5146 90 5158 186 
Q 5165 224 5171 320 
Q 5178 416 5187 521 
Q 5197 627 5206 726 
Q 5216 826 5222 864 
L 2886 864 
L 3014 1741 
L 3392 1722 
L 3309 1235 
L 4403 1235 
L 4493 1875 
L 2957 1875 
L 2957 1914 
Q 2694 1677 2355 1446 
L 2157 1754 
L 2157 64 
Q 2157 -102 2128 -214 
Q 2099 -326 2032 -396 
Q 1965 -467 1853 -505 
Q 1741 -544 1568 -557 
L 1338 -576 
L 1216 -186 
L 1472 -160 
Q 1670 -147 1724 -76 
Q 1779 -6 1779 198 
L 1779 1414 
L 1062 1414 
Q 1043 1018 998 736 
Q 954 454 886 233 
Q 819 13 732 -185 
Q 646 -384 538 -614 
L 173 -442 
Q 307 -173 412 67 
Q 518 307 588 617 
Q 659 928 694 1353 
Q 730 1779 730 2426 
L 730 4774 
L 2157 4774 
L 2157 1837 
Q 2522 2067 2784 2297 
Q 3046 2528 3232 2810 
L 2310 2810 
L 2310 3181 
L 3443 3181 
Q 3494 3290 3539 3414 
Q 3584 3539 3622 3674 
L 2451 3674 
L 2451 4051 
L 3136 4051 
Q 3078 4134 2998 4233 
Q 2918 4333 2838 4422 
Q 2758 4512 2681 4592 
Q 2605 4672 2547 4723 
L 2810 4954 
Q 2874 4896 2963 4809 
Q 3053 4723 3145 4627 
Q 3238 4531 3318 4435 
Q 3398 4339 3450 4275 
L 3238 4051 
L 3718 4051 
Q 3744 4173 3769 4313 
Q 3795 4454 3817 4598 
Q 3840 4742 3856 4883 
Q 3872 5024 3885 5146 
L 4288 5126 
Q 4269 4883 4233 4588 
Q 4198 4294 4147 4051 
L 4794 4051 
L 4589 4256 
Q 4672 4333 4765 4429 
Q 4858 4525 4950 4627 
Q 5043 4730 5120 4826 
Q 5197 4922 5254 4998 
L 5555 4787 
Q 5504 4717 5430 4624 
Q 5357 4531 5270 4432 
Q 5184 4333 5091 4233 
Q 4998 4134 4915 4051 
L 5766 4051 
L 5766 3674 
L 4058 3674 
Q 3974 3405 3885 3181 
L 5914 3181 
L 5914 2810 
L 4838 2810 
Q 5082 2541 5421 2291 
Q 5760 2042 6163 1875 
L 5946 1523 
z
M 1082 4352 
L 1082 3283 
L 1779 3283 
L 1779 4352 
L 1082 4352 
z
M 1779 1811 
L 1779 2880 
L 1082 2880 
L 1082 2195 
Q 1082 2093 1082 1997 
Q 1082 1901 1075 1811 
L 1779 1811 
z
M 4877 2240 
Q 4710 2381 4572 2525 
Q 4435 2669 4333 2810 
L 3699 2810 
Q 3514 2502 3283 2240 
L 4877 2240 
z
M 4813 179 
L 2400 179 
L 2400 531 
L 4813 531 
L 4813 179 
z
" transform="scale(0.015625)"/>
        <path id="AlibabaPuHuiTi-Regular-8baf" d="M 1408 3482 
Q 1338 3635 1229 3804 
Q 1120 3974 998 4140 
Q 877 4307 752 4454 
Q 627 4602 525 4710 
L 883 5011 
Q 986 4909 1114 4761 
Q 1242 4614 1366 4457 
Q 1491 4301 1603 4141 
Q 1715 3981 1792 3853 
L 1408 3482 
z
M 6163 851 
Q 6131 627 6102 480 
Q 6074 333 6042 192 
Q 5971 -109 5833 -288 
Q 5696 -467 5427 -467 
Q 5222 -467 5052 -310 
Q 4883 -154 4800 134 
Q 4710 442 4678 925 
Q 4646 1408 4646 1990 
L 4646 4307 
L 3373 4307 
L 3373 2579 
L 4461 2579 
L 4461 2138 
L 3373 2138 
L 3373 -589 
L 2918 -589 
L 2918 2138 
L 1907 2138 
L 1907 2579 
L 2918 2579 
L 2918 4307 
L 2035 4307 
L 2035 4781 
L 5107 4781 
L 5107 2048 
Q 5107 1766 5110 1555 
Q 5114 1344 5123 1177 
Q 5133 1011 5145 870 
Q 5158 730 5178 589 
Q 5203 365 5280 224 
Q 5357 83 5427 83 
Q 5517 83 5574 201 
Q 5632 320 5683 614 
Q 5696 704 5709 832 
Q 5722 960 5728 1069 
L 6163 851 
z
M 1542 384 
Q 1587 416 1689 493 
Q 1792 570 1907 656 
Q 2022 742 2124 819 
Q 2227 896 2272 934 
L 2400 461 
Q 2349 422 2217 336 
Q 2086 250 1936 147 
Q 1786 45 1648 -51 
Q 1510 -147 1446 -198 
Q 1376 -243 1289 -310 
Q 1203 -378 1146 -435 
L 883 -45 
Q 1011 64 1049 134 
Q 1088 205 1088 307 
L 1088 2650 
L 314 2650 
L 314 3130 
L 1542 3130 
L 1542 384 
z
" transform="scale(0.015625)"/>
        <path id="AlibabaPuHuiTi-Regular-7f51" d="M 5562 4787 
L 5562 275 
Q 5562 32 5523 -121 
Q 5485 -275 5379 -371 
Q 5274 -467 5088 -508 
Q 4902 -550 4608 -563 
L 4224 -589 
L 4064 -115 
L 4531 -90 
Q 4710 -83 4822 -60 
Q 4934 -38 4998 16 
Q 5062 70 5084 166 
Q 5107 262 5107 410 
L 5107 4339 
L 1165 4339 
L 1165 -576 
L 717 -576 
L 717 4787 
L 5562 4787 
z
M 2803 794 
Q 2739 992 2643 1229 
Q 2547 1466 2432 1728 
Q 2227 1312 2006 934 
Q 1786 557 1562 224 
L 1210 486 
Q 1472 870 1721 1308 
Q 1971 1747 2195 2234 
Q 2003 2637 1804 2995 
Q 1606 3354 1446 3597 
L 1786 3802 
Q 1920 3603 2083 3321 
Q 2246 3040 2413 2720 
Q 2547 3027 2665 3344 
Q 2784 3661 2886 3981 
L 3302 3834 
Q 3162 3418 3002 3014 
Q 2842 2611 2662 2221 
Q 2822 1894 2953 1596 
Q 3085 1299 3168 1075 
L 2803 794 
z
M 4691 358 
Q 4602 627 4442 979 
Q 4282 1331 4096 1702 
Q 3693 883 3174 128 
L 2822 384 
Q 3110 806 3366 1260 
Q 3622 1715 3846 2189 
Q 3667 2528 3494 2825 
Q 3322 3123 3174 3328 
L 3514 3571 
Q 3635 3405 3776 3171 
Q 3917 2938 4064 2669 
Q 4333 3302 4525 3917 
L 4934 3770 
Q 4806 3360 4656 2966 
Q 4506 2573 4326 2182 
Q 4550 1760 4745 1347 
Q 4941 934 5050 634 
L 4691 358 
z
" transform="scale(0.015625)"/>
       </defs>
       <use xlink:href="#AlibabaPuHuiTi-Regular-817e"/>
       <use xlink:href="#AlibabaPuHuiTi-Regular-8baf" x="98.399994"/>
       <use xlink:href="#AlibabaPuHuiTi-Regular-7f51" x="196.799988"/>
      </g>
     </g>
    </g>
    <g id="xtick_4">
     <g id="line2d_4">
      <g>
       <use xlink:href="#me19da4c06d" x="221.4" y="220.5" style="stroke: #000000; stroke-width: 0.8"/>
      </g>
     </g>
     <g id="text_4">
      <!-- 新浪新闻 -->
      <g transform="translate(201.71875 235.1)scale(0.1 -0.1)">
       <defs>
        <path id="AlibabaPuHuiTi-Regular-65b0" d="M 2125 1523 
L 2125 83 
Q 2125 -58 2112 -160 
Q 2099 -262 2051 -332 
Q 2003 -403 1916 -448 
Q 1830 -493 1677 -512 
L 1325 -563 
L 1158 -115 
L 1446 -83 
Q 1530 -77 1574 -61 
Q 1619 -45 1641 -6 
Q 1664 32 1667 99 
Q 1670 166 1670 288 
L 1670 1523 
L 467 1523 
L 467 1946 
L 1670 1946 
L 1670 2650 
L 358 2650 
L 358 3059 
L 1146 3059 
Q 1107 3328 1056 3613 
Q 1005 3898 966 4090 
L 512 4090 
L 512 4506 
L 1728 4506 
Q 1709 4576 1683 4669 
Q 1658 4762 1632 4851 
Q 1606 4941 1584 5014 
Q 1562 5088 1549 5120 
L 1965 5197 
Q 1971 5178 1996 5094 
Q 2022 5011 2054 4902 
Q 2086 4794 2115 4685 
Q 2144 4576 2163 4506 
L 3232 4506 
L 3232 4090 
L 2778 4090 
Q 2758 3981 2736 3849 
Q 2714 3718 2688 3580 
Q 2662 3443 2633 3308 
Q 2605 3174 2579 3059 
L 3392 3059 
L 3392 2650 
L 2125 2650 
L 2125 1946 
L 3206 1946 
L 3206 1523 
L 2125 1523 
z
M 6035 2547 
L 5318 2547 
L 5318 -595 
L 4864 -595 
L 4864 2547 
L 4070 2547 
L 4070 1939 
Q 4070 1638 4051 1353 
Q 4032 1069 3961 761 
Q 3891 454 3744 102 
Q 3597 -250 3347 -678 
L 2899 -467 
Q 3130 -115 3274 176 
Q 3418 467 3494 742 
Q 3571 1018 3600 1306 
Q 3629 1594 3629 1939 
L 3629 4493 
L 3674 4493 
Q 3776 4499 4025 4531 
Q 4275 4563 4572 4617 
Q 4870 4672 5174 4752 
Q 5478 4832 5690 4928 
L 5830 4506 
Q 5619 4422 5366 4352 
Q 5114 4282 4867 4230 
Q 4621 4179 4406 4144 
Q 4192 4109 4070 4096 
L 4070 2989 
L 6035 2989 
L 6035 2547 
z
M 1389 4090 
Q 1408 3981 1430 3846 
Q 1453 3712 1475 3574 
Q 1498 3437 1517 3299 
Q 1536 3162 1549 3059 
L 2170 3059 
Q 2227 3283 2278 3571 
Q 2330 3859 2362 4090 
L 1389 4090 
z
M 2899 90 
Q 2765 390 2605 668 
Q 2445 947 2310 1133 
L 2643 1331 
Q 2694 1254 2774 1136 
Q 2854 1018 2937 877 
Q 3021 736 3097 595 
Q 3174 454 3232 333 
L 2899 90 
z
M 1357 1165 
Q 1286 992 1190 797 
Q 1094 602 985 406 
Q 877 211 765 35 
Q 653 -141 544 -275 
L 160 -77 
Q 269 58 387 234 
Q 506 410 618 595 
Q 730 781 826 966 
Q 922 1152 992 1306 
L 1357 1165 
z
" transform="scale(0.015625)"/>
        <path id="AlibabaPuHuiTi-Regular-6d6a" d="M 4531 710 
Q 4819 461 5180 265 
Q 5542 70 6022 -96 
L 5734 -531 
Q 5312 -352 4937 -128 
Q 4563 96 4243 390 
Q 3923 685 3667 1056 
Q 3411 1427 3232 1901 
L 2624 1901 
L 2624 51 
Q 2707 83 2864 144 
Q 3021 205 3187 269 
Q 3354 333 3501 393 
Q 3648 454 3718 486 
L 3776 19 
Q 3712 -6 3536 -76 
Q 3360 -147 3158 -224 
Q 2957 -301 2774 -368 
Q 2592 -435 2522 -461 
Q 2432 -493 2342 -534 
Q 2253 -576 2170 -627 
L 1978 -173 
Q 2086 -122 2128 -51 
Q 2170 19 2170 134 
L 2170 4499 
L 3507 4499 
Q 3456 4666 3401 4842 
Q 3347 5018 3296 5139 
L 3763 5222 
Q 3789 5165 3821 5075 
Q 3853 4986 3881 4883 
Q 3910 4781 3939 4681 
Q 3968 4582 3987 4499 
L 5299 4499 
L 5299 1901 
L 3686 1901 
Q 3802 1645 3933 1424 
Q 4064 1203 4230 1018 
Q 4378 1094 4547 1200 
Q 4717 1306 4886 1418 
Q 5056 1530 5206 1638 
Q 5357 1747 5459 1837 
L 5734 1491 
Q 5626 1402 5482 1299 
Q 5338 1197 5174 1091 
Q 5011 986 4844 886 
Q 4678 787 4531 710 
z
M 774 4864 
Q 883 4794 1040 4694 
Q 1197 4595 1357 4480 
Q 1517 4365 1661 4249 
Q 1805 4134 1901 4045 
L 1645 3610 
Q 1549 3718 1401 3843 
Q 1254 3968 1097 4089 
Q 941 4211 787 4313 
Q 634 4416 518 4486 
L 774 4864 
z
M 2624 4090 
L 2624 3405 
L 4845 3405 
L 4845 4090 
L 2624 4090 
z
M 493 3514 
Q 608 3437 768 3321 
Q 928 3206 1091 3075 
Q 1254 2944 1404 2813 
Q 1555 2682 1651 2579 
L 1376 2131 
Q 1280 2253 1133 2397 
Q 986 2541 822 2681 
Q 659 2822 499 2944 
Q 339 3066 224 3142 
L 493 3514 
z
M 2624 2323 
L 4845 2323 
L 4845 2995 
L 2624 2995 
L 2624 2323 
z
M 1421 1664 
L 1619 1587 
Q 1574 1376 1491 1081 
Q 1408 787 1305 480 
Q 1203 173 1094 -112 
Q 986 -397 896 -589 
L 435 -416 
Q 525 -230 637 51 
Q 749 333 854 640 
Q 960 947 1049 1244 
Q 1139 1542 1184 1760 
L 1421 1664 
z
" transform="scale(0.015625)"/>
        <path id="AlibabaPuHuiTi-Regular-95fb" d="M 1715 3840 
Q 1638 3955 1516 4096 
Q 1395 4237 1260 4374 
Q 1126 4512 998 4630 
Q 870 4749 774 4819 
L 1094 5165 
Q 1190 5094 1324 4979 
Q 1459 4864 1596 4736 
Q 1734 4608 1856 4483 
Q 1978 4358 2054 4262 
L 1715 3840 
z
M 5594 4781 
L 5594 166 
Q 5594 -58 5558 -202 
Q 5523 -346 5440 -435 
Q 5357 -525 5209 -563 
Q 5062 -602 4845 -614 
L 4557 -640 
L 4429 -186 
L 4749 -166 
Q 4992 -154 5072 -74 
Q 5152 6 5152 256 
L 5152 4326 
L 2272 4326 
L 2272 4781 
L 5594 4781 
z
M 691 4032 
L 1133 4019 
L 1133 -595 
L 691 -595 
L 691 4032 
z
M 4262 474 
L 4262 -262 
L 3846 -262 
L 3846 448 
L 1389 301 
L 1357 723 
L 1971 755 
L 1971 3270 
L 1517 3270 
L 1517 3680 
L 4755 3680 
L 4755 3270 
L 4262 3270 
L 4262 883 
L 4902 915 
L 4902 512 
L 4262 474 
z
M 2387 3270 
L 2387 2720 
L 3846 2720 
L 3846 3270 
L 2387 3270 
z
M 2387 1786 
L 3846 1786 
L 3846 2349 
L 2387 2349 
L 2387 1786 
z
M 3846 858 
L 3846 1408 
L 2387 1408 
L 2387 781 
L 3846 858 
z
" transform="scale(0.015625)"/>
       </defs>
       <use xlink:href="#AlibabaPuHuiTi-Regular-65b0"/>
       <use xlink:href="#AlibabaPuHuiTi-Regular-6d6a" x="98.399994"/>
       <use xlink:href="#AlibabaPuHuiTi-Regular-65b0" x="196.799988"/>
       <use xlink:href="#AlibabaPuHuiTi-Regular-95fb" x="295.199982"/>
      </g>
     </g>
    </g>
    <g id="xtick_5">
     <g id="line2d_5">
      <g>
       <use xlink:href="#me19da4c06d" x="269.228571" y="220.5" style="stroke: #000000; stroke-width: 0.8"/>
      </g>
     </g>
     <g id="text_5">
      <!-- 搜狐新闻 -->
      <g transform="translate(249.547321 235.1)scale(0.1 -0.1)">
       <defs>
        <path id="AlibabaPuHuiTi-Regular-641c" d="M 5837 -557 
Q 5267 -429 4790 -288 
Q 4314 -147 3891 58 
Q 3514 -128 3030 -278 
Q 2547 -429 1901 -582 
L 1690 -141 
Q 2259 -32 2681 77 
Q 3104 186 3437 320 
Q 3194 486 2970 688 
Q 2746 890 2541 1152 
L 2771 1312 
L 2246 1312 
L 2246 1709 
L 3654 1709 
L 3654 2227 
L 2298 2227 
L 2298 4512 
Q 2522 4563 2803 4649 
Q 3085 4736 3366 4845 
L 3526 4442 
Q 3302 4352 3088 4281 
Q 2874 4211 2707 4166 
L 2707 3616 
L 3443 3616 
L 3443 3232 
L 2707 3232 
L 2707 2643 
L 3654 2643 
L 3654 5126 
L 4102 5114 
L 4102 2643 
L 5101 2643 
L 5101 3232 
L 4320 3232 
L 4320 3616 
L 5101 3616 
L 5101 4205 
L 4294 4205 
L 4294 4608 
L 5517 4608 
L 5517 2227 
L 4102 2227 
L 4102 1709 
L 5370 1709 
L 5370 1325 
Q 5126 998 4883 748 
Q 4640 499 4333 307 
Q 4666 179 5072 80 
Q 5478 -19 6010 -115 
L 5837 -557 
z
M 2074 2234 
Q 1965 2176 1827 2109 
Q 1690 2042 1530 1965 
L 1530 77 
Q 1530 -102 1498 -220 
Q 1466 -339 1389 -409 
Q 1312 -480 1181 -515 
Q 1050 -550 851 -563 
L 589 -589 
L 461 -134 
L 742 -109 
Q 960 -90 1027 -22 
Q 1094 45 1094 230 
L 1094 1773 
Q 851 1664 624 1571 
Q 397 1478 243 1427 
L 186 1907 
Q 352 1965 592 2064 
Q 832 2163 1094 2272 
L 1094 3514 
L 384 3514 
L 384 3955 
L 1094 3955 
L 1094 5114 
L 1530 5101 
L 1530 3955 
L 2099 3955 
L 2099 3514 
L 1530 3514 
L 1530 2470 
Q 1677 2541 1801 2601 
Q 1926 2662 2016 2714 
L 2048 2445 
L 2074 2234 
z
M 2931 1312 
Q 3155 1050 3379 861 
Q 3603 672 3866 525 
Q 4134 672 4358 867 
Q 4582 1062 4806 1312 
L 2931 1312 
z
" transform="scale(0.015625)"/>
        <path id="AlibabaPuHuiTi-Regular-72d0" d="M 1530 3693 
Q 1645 3405 1721 3104 
Q 1798 2803 1843 2457 
Q 1888 2112 1907 1709 
Q 1926 1306 1926 813 
Q 1926 429 1891 189 
Q 1856 -51 1763 -188 
Q 1670 -326 1504 -384 
Q 1338 -442 1075 -467 
L 762 -499 
L 614 -45 
L 1011 -13 
Q 1171 0 1270 29 
Q 1370 58 1424 154 
Q 1478 250 1497 432 
Q 1517 614 1517 934 
Q 1517 1261 1507 1542 
Q 1498 1824 1472 2086 
Q 1248 1754 976 1507 
Q 704 1261 410 1024 
L 147 1421 
Q 301 1542 467 1683 
Q 634 1824 797 1981 
Q 960 2138 1113 2310 
Q 1267 2483 1389 2669 
Q 1350 2848 1305 3021 
Q 1261 3194 1190 3360 
Q 1030 3213 857 3075 
Q 685 2938 493 2790 
L 230 3213 
Q 435 3347 627 3497 
Q 819 3648 1005 3814 
Q 787 4243 454 4762 
L 800 4979 
Q 960 4749 1091 4541 
Q 1222 4333 1331 4128 
Q 1517 4320 1689 4521 
Q 1862 4723 2016 4941 
L 2330 4640 
Q 2131 4371 1936 4140 
Q 1741 3910 1530 3693 
z
M 4013 3078 
Q 4013 2387 3952 1683 
Q 3891 979 3661 294 
L 4384 474 
Q 4301 794 4208 1088 
Q 4115 1382 4032 1581 
L 4422 1702 
Q 4499 1517 4582 1280 
Q 4666 1043 4742 777 
Q 4819 512 4886 227 
Q 4954 -58 5005 -339 
L 4595 -512 
Q 4582 -397 4553 -262 
Q 4525 -128 4493 19 
Q 4371 -13 4198 -51 
Q 4026 -90 3862 -125 
Q 3699 -160 3568 -192 
Q 3437 -224 3405 -230 
Q 3334 -250 3260 -275 
Q 3187 -301 3078 -352 
L 2925 102 
Q 3059 147 3116 214 
Q 3174 282 3232 454 
Q 3334 755 3398 1011 
Q 3462 1267 3500 1539 
Q 3539 1811 3552 2131 
Q 3565 2451 3565 2893 
L 3565 4166 
Q 3411 4147 3264 4131 
Q 3117 4115 2976 4102 
L 2976 2618 
Q 2976 2163 2941 1760 
Q 2906 1357 2819 966 
Q 2733 576 2585 192 
Q 2438 -192 2214 -602 
L 1811 -339 
Q 2035 26 2172 358 
Q 2310 691 2387 1040 
Q 2464 1389 2493 1776 
Q 2522 2163 2522 2637 
L 2522 4525 
Q 2874 4550 3270 4595 
Q 3667 4640 4057 4697 
Q 4448 4755 4813 4825 
Q 5178 4896 5478 4973 
L 5606 4531 
Q 5478 4499 5337 4467 
Q 5197 4435 5050 4403 
Q 5069 3622 5142 2963 
Q 5216 2304 5357 1731 
Q 5498 1158 5696 659 
Q 5894 160 6163 -288 
L 5709 -525 
Q 5453 -38 5257 486 
Q 5062 1011 4928 1600 
Q 4794 2189 4720 2861 
Q 4646 3533 4627 4320 
L 4013 4224 
L 4013 3078 
z
" transform="scale(0.015625)"/>
       </defs>
       <use xlink:href="#AlibabaPuHuiTi-Regular-641c"/>
       <use xlink:href="#AlibabaPuHuiTi-Regular-72d0" x="98.399994"/>
       <use xlink:href="#AlibabaPuHuiTi-Regular-65b0" x="196.799988"/>
       <use xlink:href="#AlibabaPuHuiTi-Regular-95fb" x="295.199982"/>
      </g>
     </g>
    </g>
    <g id="xtick_6">
     <g id="line2d_6">
      <g>
       <use xlink:href="#me19da4c06d" x="317.057143" y="220.5" style="stroke: #000000; stroke-width: 0.8"/>
      </g>
     </g>
     <g id="text_6">
      <!-- B站 -->
      <g transform="translate(309.03683 235.1)scale(0.1 -0.1)">
       <defs>
        <path id="AlibabaPuHuiTi-Regular-42" d="M 589 4442 
L 1869 4442 
Q 2304 4442 2592 4371 
Q 2880 4301 3049 4153 
Q 3219 4006 3289 3785 
Q 3360 3565 3360 3264 
Q 3360 2918 3213 2675 
Q 3066 2432 2714 2323 
L 2714 2298 
Q 2938 2253 3091 2160 
Q 3245 2067 3337 1932 
Q 3430 1798 3468 1632 
Q 3507 1466 3507 1267 
Q 3507 966 3436 729 
Q 3366 493 3193 329 
Q 3021 166 2729 83 
Q 2438 0 1997 0 
L 589 0 
L 589 4442 
z
M 1600 2496 
Q 1920 2496 2147 2528 
Q 2374 2560 2518 2643 
Q 2662 2726 2729 2870 
Q 2797 3014 2797 3232 
Q 2797 3475 2729 3619 
Q 2662 3763 2518 3836 
Q 2374 3910 2147 3932 
Q 1920 3955 1600 3955 
L 1165 3955 
L 1165 2496 
L 1600 2496 
z
M 1760 493 
Q 2099 493 2326 525 
Q 2554 557 2688 643 
Q 2822 730 2876 883 
Q 2931 1037 2931 1274 
Q 2931 1478 2873 1622 
Q 2816 1766 2681 1859 
Q 2547 1952 2323 1997 
Q 2099 2042 1760 2042 
L 1165 2042 
L 1165 493 
L 1760 493 
z
" transform="scale(0.015625)"/>
        <path id="AlibabaPuHuiTi-Regular-7ad9" d="M 4320 3616 
L 4320 2355 
L 5542 2355 
L 5542 -621 
L 5082 -621 
L 5082 -237 
L 3347 -237 
L 3347 -614 
L 2893 -614 
L 2893 2355 
L 3853 2355 
L 3853 5133 
L 4320 5114 
L 4320 4077 
L 5990 4077 
L 5990 3616 
L 4320 3616 
z
M 2899 3654 
L 397 3654 
L 397 4096 
L 1472 4096 
Q 1440 4230 1408 4364 
Q 1376 4499 1341 4620 
Q 1306 4742 1274 4848 
Q 1242 4954 1216 5030 
L 1670 5107 
Q 1696 5030 1728 4915 
Q 1760 4800 1795 4662 
Q 1830 4525 1865 4377 
Q 1901 4230 1933 4096 
L 2899 4096 
L 2899 3654 
z
M 2042 666 
Q 2253 717 2429 758 
Q 2605 800 2720 838 
L 2758 384 
Q 2637 346 2441 301 
Q 2246 256 2016 205 
Q 1786 154 1539 102 
Q 1293 51 1062 3 
Q 832 -45 640 -83 
Q 448 -122 333 -141 
L 205 301 
Q 307 314 457 339 
Q 608 365 787 400 
Q 966 435 1161 473 
Q 1357 512 1555 557 
Q 1645 826 1731 1203 
Q 1818 1581 1891 1977 
Q 1965 2374 2019 2742 
Q 2074 3110 2093 3360 
L 2534 3315 
Q 2509 3072 2457 2736 
Q 2406 2400 2339 2035 
Q 2272 1670 2195 1308 
Q 2118 947 2042 666 
z
M 1062 973 
Q 1030 1203 985 1507 
Q 941 1811 886 2121 
Q 832 2432 777 2726 
Q 723 3021 678 3238 
L 1088 3322 
Q 1133 3104 1190 2809 
Q 1248 2515 1302 2204 
Q 1357 1894 1408 1593 
Q 1459 1293 1491 1056 
L 1062 973 
z
M 5082 1888 
L 3347 1888 
L 3347 224 
L 5082 224 
L 5082 1888 
z
" transform="scale(0.015625)"/>
       </defs>
       <use xlink:href="#AlibabaPuHuiTi-Regular-42"/>
       <use xlink:href="#AlibabaPuHuiTi-Regular-7ad9" x="61.999985"/>
      </g>
     </g>
    </g>
    <g id="xtick_7">
     <g id="line2d_7">
      <g>
       <use xlink:href="#me19da4c06d" x="364.885714" y="220.5" style="stroke: #000000; stroke-width: 0.8"/>
      </g>
     </g>
     <g id="text_7">
      <!-- 综合评价值 -->
      <g transform="translate(340.284152 235.1)scale(0.1 -0.1)">
       <defs>
        <path id="AlibabaPuHuiTi-Regular-7efc" d="M 2912 3168 
L 2477 3168 
L 2477 4397 
L 3917 4397 
Q 3866 4576 3798 4758 
Q 3731 4941 3693 5050 
L 4141 5133 
Q 4160 5082 4192 4995 
Q 4224 4909 4256 4809 
Q 4288 4710 4323 4601 
Q 4358 4493 4390 4397 
L 5798 4397 
L 5798 3168 
L 5363 3168 
L 5363 3955 
L 2912 3955 
L 2912 3168 
z
M 653 2810 
Q 602 2803 528 2793 
Q 454 2784 365 2758 
L 256 3238 
Q 346 3270 397 3308 
Q 448 3347 499 3424 
Q 717 3744 944 4182 
Q 1171 4621 1357 5107 
L 1786 4966 
Q 1702 4755 1590 4515 
Q 1478 4275 1356 4044 
Q 1235 3814 1120 3619 
Q 1005 3424 922 3296 
Q 979 3296 1072 3302 
Q 1165 3309 1270 3315 
Q 1376 3322 1485 3328 
Q 1594 3334 1677 3341 
Q 1786 3539 1882 3718 
Q 1978 3898 2048 4051 
L 2438 3872 
Q 2310 3610 2144 3299 
Q 1978 2989 1798 2691 
Q 1619 2394 1456 2134 
Q 1293 1875 1178 1715 
Q 1261 1728 1424 1753 
Q 1587 1779 1750 1808 
Q 1914 1837 2045 1859 
Q 2176 1882 2202 1888 
L 2208 1414 
Q 2157 1402 1971 1373 
Q 1786 1344 1568 1309 
Q 1350 1274 1158 1242 
Q 966 1210 896 1197 
Q 806 1184 707 1165 
Q 608 1146 499 1114 
L 403 1613 
Q 531 1658 601 1696 
Q 672 1734 730 1818 
Q 858 2003 1034 2278 
Q 1210 2554 1395 2861 
Q 1299 2854 1184 2848 
Q 1069 2842 963 2835 
Q 858 2829 774 2822 
Q 691 2816 653 2810 
z
M 3014 2752 
L 3014 3187 
L 5267 3187 
L 5267 2752 
L 3014 2752 
z
M 4384 1587 
L 4384 51 
Q 4384 -141 4345 -259 
Q 4307 -378 4220 -448 
Q 4134 -518 3996 -553 
Q 3859 -589 3654 -608 
L 3424 -634 
L 3264 -166 
L 3488 -141 
Q 3622 -128 3705 -109 
Q 3789 -90 3837 -51 
Q 3885 -13 3901 57 
Q 3917 128 3917 256 
L 3917 1587 
L 2470 1587 
L 2470 2022 
L 5958 2022 
L 5958 1587 
L 4384 1587 
z
M 3430 1088 
Q 3366 928 3270 733 
Q 3174 538 3052 326 
Q 2931 115 2793 -96 
Q 2656 -307 2515 -493 
L 2131 -237 
Q 2272 -64 2409 134 
Q 2547 333 2665 531 
Q 2784 730 2880 922 
Q 2976 1114 3046 1280 
L 3430 1088 
z
M 5075 1280 
Q 5178 1152 5309 963 
Q 5440 774 5565 569 
Q 5690 365 5798 166 
Q 5907 -32 5978 -179 
L 5594 -448 
Q 5523 -269 5414 -57 
Q 5306 154 5184 362 
Q 5062 570 4944 752 
Q 4826 934 4730 1050 
L 5075 1280 
z
M 2336 179 
Q 2125 134 1856 83 
Q 1587 32 1302 -19 
Q 1018 -70 749 -115 
Q 480 -160 269 -192 
L 218 269 
Q 429 294 704 342 
Q 979 390 1267 444 
Q 1555 499 1827 556 
Q 2099 614 2310 666 
L 2330 346 
L 2336 179 
z
" transform="scale(0.015625)"/>
        <path id="AlibabaPuHuiTi-Regular-5408" d="M 3373 5075 
Q 3635 4691 3961 4374 
Q 4288 4058 4649 3805 
Q 5011 3552 5388 3347 
Q 5766 3142 6125 2976 
L 5862 2496 
Q 4902 2957 4230 3504 
Q 3558 4051 3136 4608 
Q 2694 4000 1987 3465 
Q 1280 2931 410 2502 
L 147 2982 
Q 1184 3456 1846 3974 
Q 2509 4493 2906 5075 
L 3373 5075 
z
M 4666 3123 
L 4666 2675 
L 1613 2675 
L 1613 3123 
L 4666 3123 
z
M 1184 1862 
L 5107 1862 
L 5107 -589 
L 4614 -589 
L 4614 -256 
L 1677 -256 
L 1677 -589 
L 1184 -589 
L 1184 1862 
z
M 1677 1434 
L 1677 192 
L 4614 192 
L 4614 1434 
L 1677 1434 
z
" transform="scale(0.015625)"/>
        <path id="AlibabaPuHuiTi-Regular-8bc4" d="M 1555 3590 
Q 1466 3750 1363 3913 
Q 1261 4077 1152 4230 
Q 1043 4384 937 4521 
Q 832 4659 742 4768 
L 1114 5030 
Q 1197 4928 1309 4787 
Q 1421 4646 1533 4489 
Q 1645 4333 1747 4182 
Q 1850 4032 1920 3910 
L 1555 3590 
z
M 6054 1472 
L 4230 1472 
L 4230 -634 
L 3750 -634 
L 3750 1472 
L 1958 1472 
L 1958 1933 
L 3750 1933 
L 3750 4307 
L 2317 4307 
L 2317 4768 
L 5715 4768 
L 5715 4307 
L 4230 4307 
L 4230 1933 
L 6054 1933 
L 6054 1472 
z
M 4602 2515 
Q 4806 2835 4998 3216 
Q 5190 3597 5299 3936 
L 5696 3776 
Q 5645 3635 5568 3456 
Q 5491 3277 5398 3085 
Q 5306 2893 5203 2701 
Q 5101 2509 4998 2336 
L 4602 2515 
z
M 2707 3904 
Q 2771 3789 2864 3613 
Q 2957 3437 3053 3241 
Q 3149 3046 3238 2854 
Q 3328 2662 3392 2515 
L 3002 2298 
Q 2944 2451 2857 2649 
Q 2771 2848 2678 3049 
Q 2586 3251 2490 3430 
Q 2394 3610 2317 3731 
L 2707 3904 
z
M 2227 1024 
L 2445 602 
Q 2381 550 2243 438 
Q 2106 326 1955 204 
Q 1805 83 1673 -22 
Q 1542 -128 1485 -173 
Q 1421 -224 1341 -301 
Q 1261 -378 1197 -448 
L 890 -83 
Q 1062 70 1062 307 
L 1062 2675 
L 288 2675 
L 288 3149 
L 1536 3149 
L 1536 429 
L 2227 1024 
z
" transform="scale(0.015625)"/>
        <path id="AlibabaPuHuiTi-Regular-4ef7" d="M 4045 5133 
Q 4365 4397 4896 3789 
Q 5427 3181 6112 2797 
L 5824 2387 
Q 5165 2829 4675 3373 
Q 4186 3917 3834 4608 
Q 3674 4275 3507 3984 
Q 3341 3693 3133 3424 
Q 2925 3155 2659 2899 
Q 2394 2643 2035 2374 
L 1728 2726 
Q 2086 2982 2368 3260 
Q 2650 3539 2874 3843 
Q 3098 4147 3267 4470 
Q 3437 4794 3578 5133 
L 4045 5133 
z
M 2144 4986 
Q 2022 4634 1884 4304 
Q 1747 3974 1594 3661 
L 1594 -614 
L 1126 -614 
L 1126 2816 
Q 813 2323 467 1869 
L 115 2150 
Q 352 2438 582 2780 
Q 813 3123 1017 3500 
Q 1222 3878 1392 4275 
Q 1562 4672 1683 5075 
L 2144 4986 
z
M 2854 2816 
L 3322 2790 
L 3322 1933 
Q 3322 1440 3270 1091 
Q 3219 742 3091 454 
Q 2963 166 2745 -99 
Q 2528 -365 2202 -691 
L 1830 -397 
Q 2144 -109 2342 131 
Q 2541 371 2656 630 
Q 2771 890 2812 1197 
Q 2854 1504 2854 1920 
L 2854 2816 
z
M 4429 2803 
L 4909 2778 
L 4909 -608 
L 4429 -608 
L 4429 2803 
z
" transform="scale(0.015625)"/>
        <path id="AlibabaPuHuiTi-Regular-503c" d="M 6029 45 
L 6029 -378 
L 1747 -378 
L 1747 45 
L 2310 45 
L 2310 3597 
L 3616 3597 
L 3616 4186 
L 2048 4186 
L 2048 4595 
L 3616 4595 
L 3616 5152 
L 4096 5133 
L 4096 4595 
L 5792 4595 
L 5792 4186 
L 4096 4186 
L 4096 3597 
L 5408 3597 
L 5408 45 
L 6029 45 
z
M 1875 5056 
Q 1786 4710 1683 4390 
Q 1581 4070 1459 3763 
L 1459 -595 
L 998 -595 
L 998 2752 
Q 762 2310 493 1901 
L 179 2310 
Q 582 2867 889 3600 
Q 1197 4333 1395 5133 
L 1875 5056 
z
M 2784 3187 
L 2784 2694 
L 4928 2694 
L 4928 3187 
L 2784 3187 
z
M 4928 2323 
L 2784 2323 
L 2784 1830 
L 4928 1830 
L 4928 2323 
z
M 2784 1459 
L 2784 954 
L 4928 954 
L 4928 1459 
L 2784 1459 
z
M 2784 45 
L 4928 45 
L 4928 582 
L 2784 582 
L 2784 45 
z
" transform="scale(0.015625)"/>
       </defs>
       <use xlink:href="#AlibabaPuHuiTi-Regular-7efc"/>
       <use xlink:href="#AlibabaPuHuiTi-Regular-5408" x="98.399994"/>
       <use xlink:href="#AlibabaPuHuiTi-Regular-8bc4" x="196.799988"/>
       <use xlink:href="#AlibabaPuHuiTi-Regular-4ef7" x="295.199982"/>
       <use xlink:href="#AlibabaPuHuiTi-Regular-503c" x="393.599976"/>
      </g>
     </g>
    </g>
    <g id="text_8">
     <!-- 指标名 -->
     <g transform="translate(206.639062 248.7)scale(0.1 -0.1)">
      <defs>
       <path id="AlibabaPuHuiTi-Regular-6307" d="M 1670 3987 
L 2400 3987 
L 2400 3533 
L 1670 3533 
L 1670 2400 
Q 1837 2458 1990 2512 
Q 2144 2566 2259 2618 
L 2310 2413 
L 2368 2163 
Q 2234 2106 2054 2038 
Q 1875 1971 1670 1901 
L 1670 102 
Q 1670 -83 1635 -195 
Q 1600 -307 1513 -371 
Q 1427 -435 1286 -467 
Q 1146 -499 934 -518 
L 634 -550 
L 480 -102 
L 800 -77 
Q 922 -64 995 -48 
Q 1069 -32 1110 0 
Q 1152 32 1168 93 
Q 1184 154 1184 250 
L 1184 1741 
Q 947 1664 732 1600 
Q 518 1536 358 1498 
L 256 1965 
Q 435 2010 675 2080 
Q 915 2150 1184 2240 
L 1184 3533 
L 410 3533 
L 410 3987 
L 1184 3987 
L 1184 5114 
L 1670 5094 
L 1670 3987 
z
M 5888 3821 
Q 5882 3744 5869 3638 
Q 5856 3533 5830 3386 
Q 5798 3206 5756 3094 
Q 5715 2982 5632 2915 
Q 5549 2848 5421 2819 
Q 5293 2790 5094 2778 
Q 4666 2752 4211 2752 
Q 3757 2752 3328 2778 
Q 3123 2790 2985 2825 
Q 2848 2861 2758 2944 
Q 2669 3027 2630 3164 
Q 2592 3302 2592 3514 
L 2592 5088 
L 3053 5069 
L 3053 4192 
Q 3322 4250 3645 4330 
Q 3968 4410 4294 4499 
Q 4621 4589 4928 4678 
Q 5235 4768 5472 4845 
L 5594 4403 
Q 5338 4326 5018 4236 
Q 4698 4147 4358 4060 
Q 4019 3974 3683 3897 
Q 3347 3821 3053 3757 
L 3053 3597 
Q 3053 3366 3129 3289 
Q 3206 3213 3437 3200 
Q 3795 3174 4182 3174 
Q 4570 3174 4928 3200 
Q 5062 3206 5148 3225 
Q 5235 3245 5286 3286 
Q 5338 3328 5360 3398 
Q 5382 3469 5402 3584 
Q 5414 3680 5424 3779 
Q 5434 3878 5440 3968 
L 5888 3821 
z
M 2605 2278 
L 5498 2278 
L 5498 -621 
L 5024 -621 
L 5024 -314 
L 3059 -314 
L 3059 -634 
L 2605 -634 
L 2605 2278 
z
M 3059 1862 
L 3059 1171 
L 5024 1171 
L 5024 1862 
L 3059 1862 
z
M 5024 102 
L 5024 762 
L 3059 762 
L 3059 102 
L 5024 102 
z
" transform="scale(0.015625)"/>
       <path id="AlibabaPuHuiTi-Regular-6807" d="M 2298 1587 
Q 2253 1670 2182 1772 
Q 2112 1875 2032 1980 
Q 1952 2086 1869 2188 
Q 1786 2291 1709 2381 
L 1709 -730 
L 1235 -730 
L 1235 2419 
Q 1069 2010 877 1645 
Q 685 1280 480 973 
L 109 1235 
Q 269 1453 425 1718 
Q 582 1984 726 2272 
Q 870 2560 995 2851 
Q 1120 3142 1210 3418 
L 390 3418 
L 390 3872 
L 1235 3872 
L 1235 5056 
L 1709 5037 
L 1709 3872 
L 2451 3872 
L 2451 3418 
L 1709 3418 
L 1709 2662 
L 1869 2810 
Q 1946 2739 2045 2627 
Q 2144 2515 2249 2390 
Q 2355 2266 2451 2144 
Q 2547 2022 2605 1939 
L 2298 1587 
z
M 5645 4192 
L 2733 4192 
L 2733 4659 
L 5645 4659 
L 5645 4192 
z
M 4390 2624 
L 4390 51 
Q 4390 -141 4348 -265 
Q 4307 -390 4211 -467 
Q 4115 -544 3955 -582 
Q 3795 -621 3558 -640 
L 3251 -666 
L 3085 -173 
L 3456 -147 
Q 3597 -141 3680 -118 
Q 3763 -96 3808 -51 
Q 3853 -6 3869 67 
Q 3885 141 3885 256 
L 3885 2624 
L 2413 2624 
L 2413 3091 
L 5971 3091 
L 5971 2624 
L 4390 2624 
z
M 3520 1971 
Q 3328 1440 3081 896 
Q 2835 352 2470 -205 
L 2022 13 
Q 2195 262 2348 534 
Q 2502 806 2636 1084 
Q 2771 1363 2883 1628 
Q 2995 1894 3085 2138 
L 3520 1971 
z
M 5114 2125 
Q 5229 1939 5369 1667 
Q 5510 1395 5654 1104 
Q 5798 813 5923 531 
Q 6048 250 6125 51 
L 5690 -211 
Q 5619 13 5500 310 
Q 5382 608 5241 905 
Q 5101 1203 4960 1475 
Q 4819 1747 4710 1920 
L 5114 2125 
z
" transform="scale(0.015625)"/>
       <path id="AlibabaPuHuiTi-Regular-540d" d="M 5408 2010 
L 5408 -582 
L 4934 -582 
L 4934 -218 
L 2054 -218 
L 2054 -582 
L 1581 -582 
L 1581 1510 
Q 1299 1408 1004 1309 
Q 710 1210 390 1114 
L 160 1549 
Q 986 1779 1674 2048 
Q 2362 2317 2928 2624 
Q 3494 2931 3948 3283 
Q 4403 3635 4762 4032 
L 2419 4032 
Q 2336 3942 2253 3862 
Q 2170 3782 2080 3693 
Q 2195 3616 2320 3520 
Q 2445 3424 2566 3328 
Q 2688 3232 2797 3142 
Q 2906 3053 2982 2982 
L 2656 2592 
Q 2579 2688 2467 2793 
Q 2355 2899 2227 3004 
Q 2099 3110 1968 3209 
Q 1837 3309 1722 3386 
Q 1523 3219 1312 3065 
Q 1101 2912 877 2765 
L 582 3162 
Q 902 3360 1222 3613 
Q 1542 3866 1830 4138 
Q 2118 4410 2364 4685 
Q 2611 4960 2790 5210 
L 3226 5018 
Q 3040 4749 2822 4480 
L 5395 4480 
L 5395 4032 
Q 4883 3411 4233 2918 
Q 3584 2426 2739 2010 
L 5408 2010 
z
M 4934 218 
L 4934 1555 
L 2054 1555 
L 2054 218 
L 4934 218 
z
" transform="scale(0.015625)"/>
      </defs>
      <use xlink:href="#AlibabaPuHuiTi-Regular-6307"/>
      <use xlink:href="#AlibabaPuHuiTi-Regular-6807" x="98.399994"/>
      <use xlink:href="#AlibabaPuHuiTi-Regular-540d" x="196.799988"/>
     </g>
    </g>
   </g>
   <g id="matplotlib.axis_2">
    <g id="ytick_1">
     <g id="line2d_8">
      <defs>
       <path id="m202ece75d9" d="M 0 0 
L -3.5 0 
" style="stroke: #000000; stroke-width: 0.8"/>
      </defs>
      <g>
       <use xlink:href="#m202ece75d9" x="54" y="211.851818" style="stroke: #000000; stroke-width: 0.8"/>
      </g>
     </g>
     <g id="text_9">
      <!-- 0.0 -->
      <g transform="translate(32.479687 215.651818)scale(0.1 -0.1)">
       <defs>
        <path id="AlibabaPuHuiTi-Regular-30" d="M 1837 -64 
Q 1504 -64 1229 35 
Q 954 134 755 390 
Q 557 646 448 1091 
Q 339 1536 339 2221 
Q 339 2906 448 3347 
Q 557 3789 755 4048 
Q 954 4307 1229 4406 
Q 1504 4506 1837 4506 
Q 2170 4506 2448 4406 
Q 2726 4307 2924 4048 
Q 3123 3789 3232 3347 
Q 3341 2906 3341 2221 
Q 3341 1536 3232 1091 
Q 3123 646 2924 390 
Q 2726 134 2448 35 
Q 2170 -64 1837 -64 
z
M 1837 416 
Q 2074 416 2246 496 
Q 2419 576 2534 781 
Q 2650 986 2704 1334 
Q 2758 1683 2758 2221 
Q 2758 2752 2704 3101 
Q 2650 3450 2534 3654 
Q 2419 3859 2246 3939 
Q 2074 4019 1837 4019 
Q 1606 4019 1433 3939 
Q 1261 3859 1149 3654 
Q 1037 3450 982 3101 
Q 928 2752 928 2221 
Q 928 1683 982 1334 
Q 1037 986 1149 781 
Q 1261 576 1433 496 
Q 1606 416 1837 416 
z
" transform="scale(0.015625)"/>
        <path id="AlibabaPuHuiTi-Regular-2e" d="M 966 -38 
Q 742 -38 649 32 
Q 557 102 557 371 
Q 557 627 649 697 
Q 742 768 966 768 
Q 1184 768 1280 697 
Q 1376 627 1376 371 
Q 1376 102 1280 32 
Q 1184 -38 966 -38 
z
" transform="scale(0.015625)"/>
       </defs>
       <use xlink:href="#AlibabaPuHuiTi-Regular-30"/>
       <use xlink:href="#AlibabaPuHuiTi-Regular-2e" x="57.499985"/>
       <use xlink:href="#AlibabaPuHuiTi-Regular-30" x="87.699982"/>
      </g>
     </g>
    </g>
    <g id="ytick_2">
     <g id="line2d_9">
      <g>
       <use xlink:href="#m202ece75d9" x="54" y="177.259091" style="stroke: #000000; stroke-width: 0.8"/>
      </g>
     </g>
     <g id="text_10">
      <!-- 0.2 -->
      <g transform="translate(32.479687 181.059091)scale(0.1 -0.1)">
       <defs>
        <path id="AlibabaPuHuiTi-Regular-32" d="M 365 608 
Q 1075 1165 1504 1555 
Q 1933 1946 2169 2240 
Q 2406 2534 2483 2768 
Q 2560 3002 2560 3238 
Q 2560 3475 2473 3628 
Q 2387 3782 2252 3872 
Q 2118 3962 1948 3994 
Q 1779 4026 1619 4026 
Q 1408 4026 1171 4003 
Q 934 3981 672 3910 
L 672 4403 
Q 896 4454 1149 4480 
Q 1402 4506 1683 4506 
Q 2010 4506 2272 4435 
Q 2534 4365 2723 4211 
Q 2912 4058 3011 3814 
Q 3110 3571 3110 3232 
Q 3110 2931 3020 2665 
Q 2931 2400 2720 2115 
Q 2509 1830 2150 1500 
Q 1792 1171 1254 742 
L 998 544 
L 998 486 
L 3290 486 
L 3290 0 
L 365 0 
L 365 608 
z
" transform="scale(0.015625)"/>
       </defs>
       <use xlink:href="#AlibabaPuHuiTi-Regular-30"/>
       <use xlink:href="#AlibabaPuHuiTi-Regular-2e" x="57.499985"/>
       <use xlink:href="#AlibabaPuHuiTi-Regular-32" x="87.699982"/>
      </g>
     </g>
    </g>
    <g id="ytick_3">
     <g id="line2d_10">
      <g>
       <use xlink:href="#m202ece75d9" x="54" y="142.666364" style="stroke: #000000; stroke-width: 0.8"/>
      </g>
     </g>
     <g id="text_11">
      <!-- 0.4 -->
      <g transform="translate(32.479687 146.466364)scale(0.1 -0.1)">
       <defs>
        <path id="AlibabaPuHuiTi-Regular-34" d="M 3386 1094 
L 2861 1094 
L 2861 0 
L 2323 0 
L 2323 1094 
L 224 1094 
L 224 1715 
L 2170 4442 
L 2861 4442 
L 2861 1581 
L 3386 1581 
L 3386 1094 
z
M 2323 1581 
L 2323 3853 
L 2285 3853 
L 710 1619 
L 710 1581 
L 2323 1581 
z
" transform="scale(0.015625)"/>
       </defs>
       <use xlink:href="#AlibabaPuHuiTi-Regular-30"/>
       <use xlink:href="#AlibabaPuHuiTi-Regular-2e" x="57.499985"/>
       <use xlink:href="#AlibabaPuHuiTi-Regular-34" x="87.699982"/>
      </g>
     </g>
    </g>
    <g id="ytick_4">
     <g id="line2d_11">
      <g>
       <use xlink:href="#m202ece75d9" x="54" y="108.073636" style="stroke: #000000; stroke-width: 0.8"/>
      </g>
     </g>
     <g id="text_12">
      <!-- 0.6 -->
      <g transform="translate(32.479687 111.873636)scale(0.1 -0.1)">
       <defs>
        <path id="AlibabaPuHuiTi-Regular-36" d="M 1837 -64 
Q 1530 -64 1264 22 
Q 998 109 796 313 
Q 595 518 480 860 
Q 365 1203 365 1722 
Q 365 2342 502 2854 
Q 640 3366 928 3734 
Q 1216 4102 1667 4304 
Q 2118 4506 2746 4506 
L 2739 4019 
Q 2330 4019 2010 3904 
Q 1690 3789 1466 3587 
Q 1242 3386 1114 3114 
Q 986 2842 960 2528 
L 979 2528 
Q 1107 2656 1356 2774 
Q 1606 2893 1933 2893 
Q 2554 2893 2918 2541 
Q 3283 2189 3283 1459 
Q 3283 1133 3196 854 
Q 3110 576 2934 371 
Q 2758 166 2483 51 
Q 2208 -64 1837 -64 
z
M 1830 416 
Q 2285 416 2521 675 
Q 2758 934 2758 1459 
Q 2758 1958 2521 2204 
Q 2285 2451 1907 2451 
Q 1389 2451 1152 2204 
Q 915 1958 915 1562 
Q 915 416 1830 416 
z
" transform="scale(0.015625)"/>
       </defs>
       <use xlink:href="#AlibabaPuHuiTi-Regular-30"/>
       <use xlink:href="#AlibabaPuHuiTi-Regular-2e" x="57.499985"/>
       <use xlink:href="#AlibabaPuHuiTi-Regular-36" x="87.699982"/>
      </g>
     </g>
    </g>
    <g id="ytick_5">
     <g id="line2d_12">
      <g>
       <use xlink:href="#m202ece75d9" x="54" y="73.480909" style="stroke: #000000; stroke-width: 0.8"/>
      </g>
     </g>
     <g id="text_13">
      <!-- 0.8 -->
      <g transform="translate(32.479687 77.280909)scale(0.1 -0.1)">
       <defs>
        <path id="AlibabaPuHuiTi-Regular-38" d="M 1837 -64 
Q 1120 -64 720 237 
Q 320 538 320 1178 
Q 320 1434 390 1622 
Q 461 1811 573 1942 
Q 685 2074 825 2154 
Q 966 2234 1107 2285 
L 1107 2310 
Q 826 2438 646 2672 
Q 467 2906 467 3322 
Q 467 3584 547 3801 
Q 627 4019 793 4176 
Q 960 4333 1219 4419 
Q 1478 4506 1837 4506 
Q 2195 4506 2454 4419 
Q 2714 4333 2880 4176 
Q 3046 4019 3126 3801 
Q 3206 3584 3206 3322 
Q 3206 2918 3049 2678 
Q 2893 2438 2566 2310 
L 2566 2285 
Q 2726 2234 2870 2154 
Q 3014 2074 3123 1939 
Q 3232 1805 3293 1616 
Q 3354 1427 3354 1171 
Q 3354 531 2957 233 
Q 2560 -64 1837 -64 
z
M 1837 2496 
Q 2074 2496 2237 2557 
Q 2400 2618 2499 2726 
Q 2598 2835 2643 2976 
Q 2688 3117 2688 3283 
Q 2688 3648 2477 3846 
Q 2266 4045 1837 4045 
Q 986 4045 986 3283 
Q 986 3117 1024 2976 
Q 1062 2835 1161 2726 
Q 1261 2618 1424 2557 
Q 1587 2496 1837 2496 
z
M 1837 403 
Q 2362 403 2592 617 
Q 2822 832 2822 1197 
Q 2822 1651 2579 1862 
Q 2336 2074 1837 2074 
Q 1338 2074 1098 1862 
Q 858 1651 858 1197 
Q 858 832 1085 617 
Q 1312 403 1837 403 
z
" transform="scale(0.015625)"/>
       </defs>
       <use xlink:href="#AlibabaPuHuiTi-Regular-30"/>
       <use xlink:href="#AlibabaPuHuiTi-Regular-2e" x="57.499985"/>
       <use xlink:href="#AlibabaPuHuiTi-Regular-38" x="87.699982"/>
      </g>
     </g>
    </g>
    <g id="ytick_6">
     <g id="line2d_13">
      <g>
       <use xlink:href="#m202ece75d9" x="54" y="38.888182" style="stroke: #000000; stroke-width: 0.8"/>
      </g>
     </g>
     <g id="text_14">
      <!-- 1.0 -->
      <g transform="translate(32.479687 42.688182)scale(0.1 -0.1)">
       <defs>
        <path id="AlibabaPuHuiTi-Regular-31" d="M 1747 3917 
L 646 3706 
L 646 4173 
L 1946 4442 
L 2323 4442 
L 2323 0 
L 1747 0 
L 1747 3917 
z
" transform="scale(0.015625)"/>
       </defs>
       <use xlink:href="#AlibabaPuHuiTi-Regular-31"/>
       <use xlink:href="#AlibabaPuHuiTi-Regular-2e" x="57.499985"/>
       <use xlink:href="#AlibabaPuHuiTi-Regular-30" x="87.699982"/>
      </g>
     </g>
    </g>
    <g id="text_15">
     <!-- 归一化后的指标值 -->
     <g transform="translate(26.479687 164.7325)rotate(-90)scale(0.1 -0.1)">
      <defs>
       <path id="AlibabaPuHuiTi-Regular-5f52" d="M 1984 5088 
L 2470 5069 
L 2470 2707 
Q 2470 2221 2444 1843 
Q 2419 1466 2352 1162 
Q 2285 858 2179 608 
Q 2074 358 1910 131 
Q 1747 -96 1523 -317 
Q 1299 -538 1005 -787 
L 544 -480 
Q 845 -256 1072 -57 
Q 1299 141 1459 342 
Q 1619 544 1721 768 
Q 1824 992 1881 1273 
Q 1939 1555 1961 1907 
Q 1984 2259 1984 2720 
L 1984 5088 
z
M 5568 4614 
L 5568 -595 
L 5069 -595 
L 5069 -205 
L 2618 -205 
L 2618 269 
L 5069 269 
L 5069 2074 
L 2944 2074 
L 2944 2547 
L 5069 2547 
L 5069 4134 
L 2842 4134 
L 2842 4614 
L 5568 4614 
z
M 1139 762 
L 672 762 
L 672 4602 
L 1139 4582 
L 1139 762 
z
" transform="scale(0.015625)"/>
       <path id="AlibabaPuHuiTi-Regular-4e00" d="M 5978 2208 
L 320 2208 
L 320 2752 
L 5978 2752 
L 5978 2208 
z
" transform="scale(0.015625)"/>
       <path id="AlibabaPuHuiTi-Regular-5316" d="M 2400 4954 
Q 2266 4563 2106 4208 
Q 1946 3853 1760 3520 
L 1760 -608 
L 1261 -608 
L 1261 2720 
Q 1082 2464 890 2224 
Q 698 1984 493 1747 
L 173 2106 
Q 442 2419 698 2777 
Q 954 3136 1181 3520 
Q 1408 3904 1597 4304 
Q 1786 4704 1926 5107 
L 2400 4954 
z
M 5933 1152 
Q 5926 960 5904 733 
Q 5882 506 5843 320 
Q 5805 122 5750 -12 
Q 5696 -147 5600 -230 
Q 5504 -314 5347 -355 
Q 5190 -397 4954 -403 
Q 4480 -422 4006 -403 
Q 3763 -397 3600 -355 
Q 3437 -314 3331 -221 
Q 3226 -128 3181 29 
Q 3136 186 3136 429 
L 3136 1536 
Q 2893 1370 2646 1213 
Q 2400 1056 2131 909 
L 1875 1331 
Q 2522 1702 3136 2150 
L 3136 5107 
L 3642 5075 
L 3642 2534 
Q 4589 3302 5414 4269 
L 5779 3910 
Q 5280 3347 4758 2848 
Q 4237 2349 3642 1901 
L 3642 544 
Q 3642 410 3667 323 
Q 3693 237 3750 185 
Q 3808 134 3901 112 
Q 3994 90 4128 83 
Q 4493 64 4864 83 
Q 5011 90 5100 109 
Q 5190 128 5244 176 
Q 5299 224 5328 301 
Q 5357 378 5382 499 
Q 5414 666 5430 877 
Q 5446 1088 5459 1312 
L 5933 1152 
z
" transform="scale(0.015625)"/>
       <path id="AlibabaPuHuiTi-Regular-540e" d="M 5888 3302 
L 5888 2861 
L 1562 2861 
Q 1562 2291 1507 1852 
Q 1453 1414 1334 1030 
Q 1216 646 1027 281 
Q 838 -83 563 -493 
L 166 -288 
Q 435 102 617 448 
Q 800 794 905 1171 
Q 1011 1549 1056 1997 
Q 1101 2445 1101 3040 
L 1101 4627 
Q 2118 4640 3174 4717 
Q 4230 4794 5286 4973 
L 5408 4499 
Q 4934 4429 4432 4371 
Q 3930 4314 3430 4275 
Q 2931 4237 2457 4211 
Q 1984 4186 1562 4173 
L 1562 3302 
L 5888 3302 
z
M 1978 1965 
L 5312 1965 
L 5312 -614 
L 4838 -614 
L 4838 -192 
L 2451 -192 
L 2451 -614 
L 1978 -614 
L 1978 1965 
z
M 2451 1530 
L 2451 243 
L 4838 243 
L 4838 1530 
L 2451 1530 
z
" transform="scale(0.015625)"/>
       <path id="AlibabaPuHuiTi-Regular-7684" d="M 5696 4141 
Q 5683 3354 5664 2624 
Q 5658 2310 5648 1984 
Q 5638 1658 5628 1344 
Q 5619 1030 5609 755 
Q 5600 480 5587 269 
Q 5574 64 5536 -70 
Q 5498 -205 5411 -291 
Q 5325 -378 5187 -419 
Q 5050 -461 4838 -480 
L 4288 -525 
L 4134 -38 
L 4755 0 
Q 4915 13 4998 89 
Q 5082 166 5101 416 
Q 5120 755 5136 1200 
Q 5152 1645 5165 2102 
Q 5178 2560 5184 2979 
Q 5190 3398 5197 3686 
L 3738 3680 
Q 3648 3469 3552 3264 
Q 3456 3059 3347 2854 
L 2912 3085 
Q 3194 3558 3421 4137 
Q 3648 4717 3789 5280 
L 4256 5184 
Q 4179 4915 4096 4656 
Q 4013 4397 3917 4141 
L 5696 4141 
z
M 2125 5114 
Q 2074 4902 2003 4649 
Q 1933 4397 1837 4128 
L 2829 4128 
L 2829 -378 
L 646 -378 
L 646 4128 
L 1306 4128 
Q 1402 4384 1472 4659 
Q 1542 4934 1606 5222 
L 2125 5114 
z
M 2381 3667 
L 1094 3667 
L 1094 2150 
L 2381 2150 
L 2381 3667 
z
M 4275 1139 
Q 4051 1600 3811 1993 
Q 3571 2387 3386 2656 
L 3763 2912 
Q 3981 2624 4227 2230 
Q 4474 1837 4685 1414 
L 4275 1139 
z
M 2381 70 
L 2381 1683 
L 1094 1683 
L 1094 70 
L 2381 70 
z
" transform="scale(0.015625)"/>
      </defs>
      <use xlink:href="#AlibabaPuHuiTi-Regular-5f52"/>
      <use xlink:href="#AlibabaPuHuiTi-Regular-4e00" x="98.399994"/>
      <use xlink:href="#AlibabaPuHuiTi-Regular-5316" x="196.799988"/>
      <use xlink:href="#AlibabaPuHuiTi-Regular-540e" x="295.199982"/>
      <use xlink:href="#AlibabaPuHuiTi-Regular-7684" x="393.599976"/>
      <use xlink:href="#AlibabaPuHuiTi-Regular-6307" x="491.999969"/>
      <use xlink:href="#AlibabaPuHuiTi-Regular-6807" x="590.399963"/>
      <use xlink:href="#AlibabaPuHuiTi-Regular-503c" x="688.799957"/>
     </g>
    </g>
   </g>
   <g id="patch_3">
    <path d="M 65.957143 211.851818 
L 89.871429 211.851818 
L 89.871429 211.659743 
L 65.957143 211.659743 
L 65.957143 211.851818 
z
" clip-path="url(#p6a42903cbb)" style="fill: #92c6ff; stroke: #000000; stroke-linejoin: miter"/>
   </g>
   <g id="line2d_14">
    <path d="M 77.914286 211.851818 
L 77.914286 211.851818 
" clip-path="url(#p6a42903cbb)" style="fill: none; stroke: #000000; stroke-linecap: square"/>
   </g>
   <g id="line2d_15">
    <path d="M 77.914286 211.659743 
L 77.914286 211.403643 
" clip-path="url(#p6a42903cbb)" style="fill: none; stroke: #000000; stroke-linecap: square"/>
   </g>
   <g id="line2d_16">
    <path d="M 71.935714 211.851818 
L 83.892857 211.851818 
" clip-path="url(#p6a42903cbb)" style="fill: none; stroke: #000000; stroke-linecap: square"/>
   </g>
   <g id="line2d_17">
    <path d="M 71.935714 211.403643 
L 83.892857 211.403643 
" clip-path="url(#p6a42903cbb)" style="fill: none; stroke: #000000; stroke-linecap: square"/>
   </g>
   <g id="line2d_18">
    <defs>
     <path id="m543112f243" d="M 0 3 
C 0.795609 3 1.55874 2.683901 2.12132 2.12132 
C 2.683901 1.55874 3 0.795609 3 0 
C 3 -0.795609 2.683901 -1.55874 2.12132 -2.12132 
C 1.55874 -2.683901 0.795609 -3 0 -3 
C -0.795609 -3 -1.55874 -2.683901 -2.12132 -2.12132 
C -2.683901 -1.55874 -3 -0.795609 -3 0 
C -3 0.795609 -2.683901 1.55874 -2.12132 2.12132 
C -1.55874 2.683901 -0.795609 3 0 3 
z
" style="stroke: #000000"/>
    </defs>
    <g clip-path="url(#p6a42903cbb)">
     <use xlink:href="#m543112f243" x="77.914286" y="211.051505" style="fill-opacity: 0; stroke: #000000"/>
     <use xlink:href="#m543112f243" x="77.914286" y="210.635342" style="fill-opacity: 0; stroke: #000000"/>
     <use xlink:href="#m543112f243" x="77.914286" y="209.130754" style="fill-opacity: 0; stroke: #000000"/>
     <use xlink:href="#m543112f243" x="77.914286" y="211.339618" style="fill-opacity: 0; stroke: #000000"/>
     <use xlink:href="#m543112f243" x="77.914286" y="207.338053" style="fill-opacity: 0; stroke: #000000"/>
     <use xlink:href="#m543112f243" x="77.914286" y="207.338053" style="fill-opacity: 0; stroke: #000000"/>
     <use xlink:href="#m543112f243" x="77.914286" y="209.578929" style="fill-opacity: 0; stroke: #000000"/>
     <use xlink:href="#m543112f243" x="77.914286" y="211.019493" style="fill-opacity: 0; stroke: #000000"/>
     <use xlink:href="#m543112f243" x="77.914286" y="38.888182" style="fill-opacity: 0; stroke: #000000"/>
     <use xlink:href="#m543112f243" x="77.914286" y="211.307605" style="fill-opacity: 0; stroke: #000000"/>
     <use xlink:href="#m543112f243" x="77.914286" y="202.248063" style="fill-opacity: 0; stroke: #000000"/>
     <use xlink:href="#m543112f243" x="77.914286" y="210.187167" style="fill-opacity: 0; stroke: #000000"/>
     <use xlink:href="#m543112f243" x="77.914286" y="207.338053" style="fill-opacity: 0; stroke: #000000"/>
     <use xlink:href="#m543112f243" x="77.914286" y="211.11553" style="fill-opacity: 0; stroke: #000000"/>
     <use xlink:href="#m543112f243" x="77.914286" y="207.690191" style="fill-opacity: 0; stroke: #000000"/>
     <use xlink:href="#m543112f243" x="77.914286" y="210.98748" style="fill-opacity: 0; stroke: #000000"/>
     <use xlink:href="#m543112f243" x="77.914286" y="208.746604" style="fill-opacity: 0; stroke: #000000"/>
     <use xlink:href="#m543112f243" x="77.914286" y="210.85943" style="fill-opacity: 0; stroke: #000000"/>
     <use xlink:href="#m543112f243" x="77.914286" y="211.211568" style="fill-opacity: 0; stroke: #000000"/>
     <use xlink:href="#m543112f243" x="77.914286" y="210.795405" style="fill-opacity: 0; stroke: #000000"/>
     <use xlink:href="#m543112f243" x="77.914286" y="210.891443" style="fill-opacity: 0; stroke: #000000"/>
     <use xlink:href="#m543112f243" x="77.914286" y="206.121577" style="fill-opacity: 0; stroke: #000000"/>
     <use xlink:href="#m543112f243" x="77.914286" y="210.059117" style="fill-opacity: 0; stroke: #000000"/>
     <use xlink:href="#m543112f243" x="77.914286" y="211.339618" style="fill-opacity: 0; stroke: #000000"/>
     <use xlink:href="#m543112f243" x="77.914286" y="210.98748" style="fill-opacity: 0; stroke: #000000"/>
     <use xlink:href="#m543112f243" x="77.914286" y="209.162767" style="fill-opacity: 0; stroke: #000000"/>
     <use xlink:href="#m543112f243" x="77.914286" y="208.426479" style="fill-opacity: 0; stroke: #000000"/>
     <use xlink:href="#m543112f243" x="77.914286" y="201.863912" style="fill-opacity: 0; stroke: #000000"/>
     <use xlink:href="#m543112f243" x="77.914286" y="211.307605" style="fill-opacity: 0; stroke: #000000"/>
     <use xlink:href="#m543112f243" x="77.914286" y="211.339618" style="fill-opacity: 0; stroke: #000000"/>
    </g>
   </g>
   <g id="patch_4">
    <path d="M 113.785714 211.851818 
L 137.7 211.851818 
L 137.7 211.851818 
L 113.785714 211.851818 
L 113.785714 211.851818 
z
" clip-path="url(#p6a42903cbb)" style="fill: #92c6ff; stroke: #000000; stroke-linejoin: miter"/>
   </g>
   <g id="line2d_19">
    <path d="M 125.742857 211.851818 
L 125.742857 211.851818 
" clip-path="url(#p6a42903cbb)" style="fill: none; stroke: #000000; stroke-linecap: square"/>
   </g>
   <g id="line2d_20">
    <path d="M 125.742857 211.851818 
L 125.742857 211.851818 
" clip-path="url(#p6a42903cbb)" style="fill: none; stroke: #000000; stroke-linecap: square"/>
   </g>
   <g id="line2d_21">
    <path d="M 119.764286 211.851818 
L 131.721429 211.851818 
" clip-path="url(#p6a42903cbb)" style="fill: none; stroke: #000000; stroke-linecap: square"/>
   </g>
   <g id="line2d_22">
    <path d="M 119.764286 211.851818 
L 131.721429 211.851818 
" clip-path="url(#p6a42903cbb)" style="fill: none; stroke: #000000; stroke-linecap: square"/>
   </g>
   <g id="line2d_23">
    <g clip-path="url(#p6a42903cbb)">
     <use xlink:href="#m543112f243" x="125.742857" y="38.888182" style="fill-opacity: 0; stroke: #000000"/>
     <use xlink:href="#m543112f243" x="125.742857" y="154.197273" style="fill-opacity: 0; stroke: #000000"/>
     <use xlink:href="#m543112f243" x="125.742857" y="183.024545" style="fill-opacity: 0; stroke: #000000"/>
     <use xlink:href="#m543112f243" x="125.742857" y="154.197273" style="fill-opacity: 0; stroke: #000000"/>
    </g>
   </g>
   <g id="patch_5">
    <path d="M 161.614286 207.177125 
L 185.528571 207.177125 
L 185.528571 193.153047 
L 161.614286 193.153047 
L 161.614286 207.177125 
z
" clip-path="url(#p6a42903cbb)" style="fill: #92c6ff; stroke: #000000; stroke-linejoin: miter"/>
   </g>
   <g id="line2d_24">
    <path d="M 173.571429 207.177125 
L 173.571429 211.851818 
" clip-path="url(#p6a42903cbb)" style="fill: none; stroke: #000000; stroke-linecap: square"/>
   </g>
   <g id="line2d_25">
    <path d="M 173.571429 193.153047 
L 173.571429 174.454275 
" clip-path="url(#p6a42903cbb)" style="fill: none; stroke: #000000; stroke-linecap: square"/>
   </g>
   <g id="line2d_26">
    <path d="M 167.592857 211.851818 
L 179.55 211.851818 
" clip-path="url(#p6a42903cbb)" style="fill: none; stroke: #000000; stroke-linecap: square"/>
   </g>
   <g id="line2d_27">
    <path d="M 167.592857 174.454275 
L 179.55 174.454275 
" clip-path="url(#p6a42903cbb)" style="fill: none; stroke: #000000; stroke-linecap: square"/>
   </g>
   <g id="line2d_28">
    <g clip-path="url(#p6a42903cbb)">
     <use xlink:href="#m543112f243" x="173.571429" y="43.562875" style="fill-opacity: 0; stroke: #000000"/>
     <use xlink:href="#m543112f243" x="173.571429" y="165.104889" style="fill-opacity: 0; stroke: #000000"/>
     <use xlink:href="#m543112f243" x="173.571429" y="76.285725" style="fill-opacity: 0; stroke: #000000"/>
     <use xlink:href="#m543112f243" x="173.571429" y="169.779582" style="fill-opacity: 0; stroke: #000000"/>
     <use xlink:href="#m543112f243" x="173.571429" y="90.309803" style="fill-opacity: 0; stroke: #000000"/>
     <use xlink:href="#m543112f243" x="173.571429" y="38.888182" style="fill-opacity: 0; stroke: #000000"/>
     <use xlink:href="#m543112f243" x="173.571429" y="151.080811" style="fill-opacity: 0; stroke: #000000"/>
     <use xlink:href="#m543112f243" x="173.571429" y="127.707346" style="fill-opacity: 0; stroke: #000000"/>
     <use xlink:href="#m543112f243" x="173.571429" y="155.755504" style="fill-opacity: 0; stroke: #000000"/>
     <use xlink:href="#m543112f243" x="173.571429" y="165.104889" style="fill-opacity: 0; stroke: #000000"/>
     <use xlink:href="#m543112f243" x="173.571429" y="146.406118" style="fill-opacity: 0; stroke: #000000"/>
    </g>
   </g>
   <g id="patch_6">
    <path d="M 209.442857 211.851818 
L 233.357143 211.851818 
L 233.357143 211.851818 
L 209.442857 211.851818 
L 209.442857 211.851818 
z
" clip-path="url(#p6a42903cbb)" style="fill: #92c6ff; stroke: #000000; stroke-linejoin: miter"/>
   </g>
   <g id="line2d_29">
    <path d="M 221.4 211.851818 
L 221.4 211.851818 
" clip-path="url(#p6a42903cbb)" style="fill: none; stroke: #000000; stroke-linecap: square"/>
   </g>
   <g id="line2d_30">
    <path d="M 221.4 211.851818 
L 221.4 211.851818 
" clip-path="url(#p6a42903cbb)" style="fill: none; stroke: #000000; stroke-linecap: square"/>
   </g>
   <g id="line2d_31">
    <path d="M 215.421429 211.851818 
L 227.378571 211.851818 
" clip-path="url(#p6a42903cbb)" style="fill: none; stroke: #000000; stroke-linecap: square"/>
   </g>
   <g id="line2d_32">
    <path d="M 215.421429 211.851818 
L 227.378571 211.851818 
" clip-path="url(#p6a42903cbb)" style="fill: none; stroke: #000000; stroke-linecap: square"/>
   </g>
   <g id="line2d_33">
    <g clip-path="url(#p6a42903cbb)">
     <use xlink:href="#m543112f243" x="221.4" y="96.542727" style="fill-opacity: 0; stroke: #000000"/>
     <use xlink:href="#m543112f243" x="221.4" y="96.542727" style="fill-opacity: 0; stroke: #000000"/>
     <use xlink:href="#m543112f243" x="221.4" y="183.024545" style="fill-opacity: 0; stroke: #000000"/>
     <use xlink:href="#m543112f243" x="221.4" y="38.888182" style="fill-opacity: 0; stroke: #000000"/>
     <use xlink:href="#m543112f243" x="221.4" y="183.024545" style="fill-opacity: 0; stroke: #000000"/>
     <use xlink:href="#m543112f243" x="221.4" y="183.024545" style="fill-opacity: 0; stroke: #000000"/>
     <use xlink:href="#m543112f243" x="221.4" y="183.024545" style="fill-opacity: 0; stroke: #000000"/>
     <use xlink:href="#m543112f243" x="221.4" y="154.197273" style="fill-opacity: 0; stroke: #000000"/>
     <use xlink:href="#m543112f243" x="221.4" y="183.024545" style="fill-opacity: 0; stroke: #000000"/>
     <use xlink:href="#m543112f243" x="221.4" y="183.024545" style="fill-opacity: 0; stroke: #000000"/>
     <use xlink:href="#m543112f243" x="221.4" y="183.024545" style="fill-opacity: 0; stroke: #000000"/>
     <use xlink:href="#m543112f243" x="221.4" y="125.37" style="fill-opacity: 0; stroke: #000000"/>
     <use xlink:href="#m543112f243" x="221.4" y="154.197273" style="fill-opacity: 0; stroke: #000000"/>
     <use xlink:href="#m543112f243" x="221.4" y="183.024545" style="fill-opacity: 0; stroke: #000000"/>
     <use xlink:href="#m543112f243" x="221.4" y="183.024545" style="fill-opacity: 0; stroke: #000000"/>
     <use xlink:href="#m543112f243" x="221.4" y="125.37" style="fill-opacity: 0; stroke: #000000"/>
     <use xlink:href="#m543112f243" x="221.4" y="183.024545" style="fill-opacity: 0; stroke: #000000"/>
     <use xlink:href="#m543112f243" x="221.4" y="125.37" style="fill-opacity: 0; stroke: #000000"/>
     <use xlink:href="#m543112f243" x="221.4" y="183.024545" style="fill-opacity: 0; stroke: #000000"/>
     <use xlink:href="#m543112f243" x="221.4" y="183.024545" style="fill-opacity: 0; stroke: #000000"/>
     <use xlink:href="#m543112f243" x="221.4" y="154.197273" style="fill-opacity: 0; stroke: #000000"/>
     <use xlink:href="#m543112f243" x="221.4" y="183.024545" style="fill-opacity: 0; stroke: #000000"/>
    </g>
   </g>
   <g id="patch_7">
    <path d="M 257.271429 211.851818 
L 281.185714 211.851818 
L 281.185714 211.851818 
L 257.271429 211.851818 
L 257.271429 211.851818 
z
" clip-path="url(#p6a42903cbb)" style="fill: #92c6ff; stroke: #000000; stroke-linejoin: miter"/>
   </g>
   <g id="line2d_34">
    <path d="M 269.228571 211.851818 
L 269.228571 211.851818 
" clip-path="url(#p6a42903cbb)" style="fill: none; stroke: #000000; stroke-linecap: square"/>
   </g>
   <g id="line2d_35">
    <path d="M 269.228571 211.851818 
L 269.228571 211.851818 
" clip-path="url(#p6a42903cbb)" style="fill: none; stroke: #000000; stroke-linecap: square"/>
   </g>
   <g id="line2d_36">
    <path d="M 263.25 211.851818 
L 275.207143 211.851818 
" clip-path="url(#p6a42903cbb)" style="fill: none; stroke: #000000; stroke-linecap: square"/>
   </g>
   <g id="line2d_37">
    <path d="M 263.25 211.851818 
L 275.207143 211.851818 
" clip-path="url(#p6a42903cbb)" style="fill: none; stroke: #000000; stroke-linecap: square"/>
   </g>
   <g id="line2d_38">
    <g clip-path="url(#p6a42903cbb)">
     <use xlink:href="#m543112f243" x="269.228571" y="154.197273" style="fill-opacity: 0; stroke: #000000"/>
     <use xlink:href="#m543112f243" x="269.228571" y="96.542727" style="fill-opacity: 0; stroke: #000000"/>
     <use xlink:href="#m543112f243" x="269.228571" y="154.197273" style="fill-opacity: 0; stroke: #000000"/>
     <use xlink:href="#m543112f243" x="269.228571" y="38.888182" style="fill-opacity: 0; stroke: #000000"/>
    </g>
   </g>
   <g id="patch_8">
    <path d="M 305.1 211.851818 
L 329.014286 211.851818 
L 329.014286 211.851818 
L 305.1 211.851818 
L 305.1 211.851818 
z
" clip-path="url(#p6a42903cbb)" style="fill: #92c6ff; stroke: #000000; stroke-linejoin: miter"/>
   </g>
   <g id="line2d_39">
    <path d="M 317.057143 211.851818 
L 317.057143 211.851818 
" clip-path="url(#p6a42903cbb)" style="fill: none; stroke: #000000; stroke-linecap: square"/>
   </g>
   <g id="line2d_40">
    <path d="M 317.057143 211.851818 
L 317.057143 211.851818 
" clip-path="url(#p6a42903cbb)" style="fill: none; stroke: #000000; stroke-linecap: square"/>
   </g>
   <g id="line2d_41">
    <path d="M 311.078571 211.851818 
L 323.035714 211.851818 
" clip-path="url(#p6a42903cbb)" style="fill: none; stroke: #000000; stroke-linecap: square"/>
   </g>
   <g id="line2d_42">
    <path d="M 311.078571 211.851818 
L 323.035714 211.851818 
" clip-path="url(#p6a42903cbb)" style="fill: none; stroke: #000000; stroke-linecap: square"/>
   </g>
   <g id="line2d_43">
    <g clip-path="url(#p6a42903cbb)">
     <use xlink:href="#m543112f243" x="317.057143" y="207.920826" style="fill-opacity: 0; stroke: #000000"/>
     <use xlink:href="#m543112f243" x="317.057143" y="196.127851" style="fill-opacity: 0; stroke: #000000"/>
     <use xlink:href="#m543112f243" x="317.057143" y="207.920826" style="fill-opacity: 0; stroke: #000000"/>
     <use xlink:href="#m543112f243" x="317.057143" y="207.920826" style="fill-opacity: 0; stroke: #000000"/>
     <use xlink:href="#m543112f243" x="317.057143" y="180.403884" style="fill-opacity: 0; stroke: #000000"/>
     <use xlink:href="#m543112f243" x="317.057143" y="207.920826" style="fill-opacity: 0; stroke: #000000"/>
     <use xlink:href="#m543112f243" x="317.057143" y="207.920826" style="fill-opacity: 0; stroke: #000000"/>
     <use xlink:href="#m543112f243" x="317.057143" y="207.920826" style="fill-opacity: 0; stroke: #000000"/>
     <use xlink:href="#m543112f243" x="317.057143" y="207.920826" style="fill-opacity: 0; stroke: #000000"/>
     <use xlink:href="#m543112f243" x="317.057143" y="207.920826" style="fill-opacity: 0; stroke: #000000"/>
     <use xlink:href="#m543112f243" x="317.057143" y="207.920826" style="fill-opacity: 0; stroke: #000000"/>
     <use xlink:href="#m543112f243" x="317.057143" y="168.610909" style="fill-opacity: 0; stroke: #000000"/>
     <use xlink:href="#m543112f243" x="317.057143" y="164.679917" style="fill-opacity: 0; stroke: #000000"/>
     <use xlink:href="#m543112f243" x="317.057143" y="207.920826" style="fill-opacity: 0; stroke: #000000"/>
     <use xlink:href="#m543112f243" x="317.057143" y="200.058843" style="fill-opacity: 0; stroke: #000000"/>
     <use xlink:href="#m543112f243" x="317.057143" y="207.920826" style="fill-opacity: 0; stroke: #000000"/>
     <use xlink:href="#m543112f243" x="317.057143" y="176.472893" style="fill-opacity: 0; stroke: #000000"/>
     <use xlink:href="#m543112f243" x="317.057143" y="164.679917" style="fill-opacity: 0; stroke: #000000"/>
     <use xlink:href="#m543112f243" x="317.057143" y="188.265868" style="fill-opacity: 0; stroke: #000000"/>
     <use xlink:href="#m543112f243" x="317.057143" y="207.920826" style="fill-opacity: 0; stroke: #000000"/>
     <use xlink:href="#m543112f243" x="317.057143" y="196.127851" style="fill-opacity: 0; stroke: #000000"/>
     <use xlink:href="#m543112f243" x="317.057143" y="38.888182" style="fill-opacity: 0; stroke: #000000"/>
     <use xlink:href="#m543112f243" x="317.057143" y="207.920826" style="fill-opacity: 0; stroke: #000000"/>
     <use xlink:href="#m543112f243" x="317.057143" y="180.403884" style="fill-opacity: 0; stroke: #000000"/>
     <use xlink:href="#m543112f243" x="317.057143" y="207.920826" style="fill-opacity: 0; stroke: #000000"/>
     <use xlink:href="#m543112f243" x="317.057143" y="203.989835" style="fill-opacity: 0; stroke: #000000"/>
     <use xlink:href="#m543112f243" x="317.057143" y="207.920826" style="fill-opacity: 0; stroke: #000000"/>
     <use xlink:href="#m543112f243" x="317.057143" y="207.920826" style="fill-opacity: 0; stroke: #000000"/>
     <use xlink:href="#m543112f243" x="317.057143" y="184.334876" style="fill-opacity: 0; stroke: #000000"/>
     <use xlink:href="#m543112f243" x="317.057143" y="203.989835" style="fill-opacity: 0; stroke: #000000"/>
     <use xlink:href="#m543112f243" x="317.057143" y="192.19686" style="fill-opacity: 0; stroke: #000000"/>
     <use xlink:href="#m543112f243" x="317.057143" y="203.989835" style="fill-opacity: 0; stroke: #000000"/>
     <use xlink:href="#m543112f243" x="317.057143" y="156.817934" style="fill-opacity: 0; stroke: #000000"/>
     <use xlink:href="#m543112f243" x="317.057143" y="207.920826" style="fill-opacity: 0; stroke: #000000"/>
     <use xlink:href="#m543112f243" x="317.057143" y="207.920826" style="fill-opacity: 0; stroke: #000000"/>
     <use xlink:href="#m543112f243" x="317.057143" y="207.920826" style="fill-opacity: 0; stroke: #000000"/>
     <use xlink:href="#m543112f243" x="317.057143" y="207.920826" style="fill-opacity: 0; stroke: #000000"/>
     <use xlink:href="#m543112f243" x="317.057143" y="207.920826" style="fill-opacity: 0; stroke: #000000"/>
     <use xlink:href="#m543112f243" x="317.057143" y="200.058843" style="fill-opacity: 0; stroke: #000000"/>
     <use xlink:href="#m543112f243" x="317.057143" y="188.265868" style="fill-opacity: 0; stroke: #000000"/>
     <use xlink:href="#m543112f243" x="317.057143" y="207.920826" style="fill-opacity: 0; stroke: #000000"/>
     <use xlink:href="#m543112f243" x="317.057143" y="207.920826" style="fill-opacity: 0; stroke: #000000"/>
    </g>
   </g>
   <g id="patch_9">
    <path d="M 352.928571 211.704198 
L 376.842857 211.704198 
L 376.842857 210.766866 
L 352.928571 210.766866 
L 352.928571 211.704198 
z
" clip-path="url(#p6a42903cbb)" style="fill: #92c6ff; stroke: #000000; stroke-linejoin: miter"/>
   </g>
   <g id="line2d_44">
    <path d="M 364.885714 211.704198 
L 364.885714 211.851818 
" clip-path="url(#p6a42903cbb)" style="fill: none; stroke: #000000; stroke-linecap: square"/>
   </g>
   <g id="line2d_45">
    <path d="M 364.885714 210.766866 
L 364.885714 209.392394 
" clip-path="url(#p6a42903cbb)" style="fill: none; stroke: #000000; stroke-linecap: square"/>
   </g>
   <g id="line2d_46">
    <path d="M 358.907143 211.851818 
L 370.864286 211.851818 
" clip-path="url(#p6a42903cbb)" style="fill: none; stroke: #000000; stroke-linecap: square"/>
   </g>
   <g id="line2d_47">
    <path d="M 358.907143 209.392394 
L 370.864286 209.392394 
" clip-path="url(#p6a42903cbb)" style="fill: none; stroke: #000000; stroke-linecap: square"/>
   </g>
   <g id="line2d_48">
    <g clip-path="url(#p6a42903cbb)">
     <use xlink:href="#m543112f243" x="364.885714" y="202.036228" style="fill-opacity: 0; stroke: #000000"/>
     <use xlink:href="#m543112f243" x="364.885714" y="200.389856" style="fill-opacity: 0; stroke: #000000"/>
     <use xlink:href="#m543112f243" x="364.885714" y="208.883105" style="fill-opacity: 0; stroke: #000000"/>
     <use xlink:href="#m543112f243" x="364.885714" y="209.33407" style="fill-opacity: 0; stroke: #000000"/>
     <use xlink:href="#m543112f243" x="364.885714" y="198.515416" style="fill-opacity: 0; stroke: #000000"/>
     <use xlink:href="#m543112f243" x="364.885714" y="188.867912" style="fill-opacity: 0; stroke: #000000"/>
     <use xlink:href="#m543112f243" x="364.885714" y="207.772915" style="fill-opacity: 0; stroke: #000000"/>
     <use xlink:href="#m543112f243" x="364.885714" y="206.930717" style="fill-opacity: 0; stroke: #000000"/>
     <use xlink:href="#m543112f243" x="364.885714" y="38.888182" style="fill-opacity: 0; stroke: #000000"/>
     <use xlink:href="#m543112f243" x="364.885714" y="207.722388" style="fill-opacity: 0; stroke: #000000"/>
     <use xlink:href="#m543112f243" x="364.885714" y="178.202511" style="fill-opacity: 0; stroke: #000000"/>
     <use xlink:href="#m543112f243" x="364.885714" y="207.064669" style="fill-opacity: 0; stroke: #000000"/>
     <use xlink:href="#m543112f243" x="364.885714" y="203.694895" style="fill-opacity: 0; stroke: #000000"/>
     <use xlink:href="#m543112f243" x="364.885714" y="208.88075" style="fill-opacity: 0; stroke: #000000"/>
     <use xlink:href="#m543112f243" x="364.885714" y="205.776086" style="fill-opacity: 0; stroke: #000000"/>
     <use xlink:href="#m543112f243" x="364.885714" y="209.022187" style="fill-opacity: 0; stroke: #000000"/>
     <use xlink:href="#m543112f243" x="364.885714" y="205.875492" style="fill-opacity: 0; stroke: #000000"/>
     <use xlink:href="#m543112f243" x="364.885714" y="191.112455" style="fill-opacity: 0; stroke: #000000"/>
     <use xlink:href="#m543112f243" x="364.885714" y="208.137853" style="fill-opacity: 0; stroke: #000000"/>
     <use xlink:href="#m543112f243" x="364.885714" y="204.188483" style="fill-opacity: 0; stroke: #000000"/>
     <use xlink:href="#m543112f243" x="364.885714" y="171.37717" style="fill-opacity: 0; stroke: #000000"/>
     <use xlink:href="#m543112f243" x="364.885714" y="208.289574" style="fill-opacity: 0; stroke: #000000"/>
     <use xlink:href="#m543112f243" x="364.885714" y="204.874156" style="fill-opacity: 0; stroke: #000000"/>
     <use xlink:href="#m543112f243" x="364.885714" y="209.284159" style="fill-opacity: 0; stroke: #000000"/>
     <use xlink:href="#m543112f243" x="364.885714" y="205.912572" style="fill-opacity: 0; stroke: #000000"/>
     <use xlink:href="#m543112f243" x="364.885714" y="195.197696" style="fill-opacity: 0; stroke: #000000"/>
     <use xlink:href="#m543112f243" x="364.885714" y="191.567712" style="fill-opacity: 0; stroke: #000000"/>
     <use xlink:href="#m543112f243" x="364.885714" y="147.581096" style="fill-opacity: 0; stroke: #000000"/>
     <use xlink:href="#m543112f243" x="364.885714" y="207.795782" style="fill-opacity: 0; stroke: #000000"/>
     <use xlink:href="#m543112f243" x="364.885714" y="178.899549" style="fill-opacity: 0; stroke: #000000"/>
     <use xlink:href="#m543112f243" x="364.885714" y="207.242765" style="fill-opacity: 0; stroke: #000000"/>
    </g>
   </g>
   <g id="line2d_49">
    <path d="M 65.957143 211.851818 
L 89.871429 211.851818 
" clip-path="url(#p6a42903cbb)" style="fill: none; stroke: #97f0aa; stroke-linecap: square"/>
   </g>
   <g id="line2d_50">
    <path d="M 113.785714 211.851818 
L 137.7 211.851818 
" clip-path="url(#p6a42903cbb)" style="fill: none; stroke: #97f0aa; stroke-linecap: square"/>
   </g>
   <g id="line2d_51">
    <path d="M 161.614286 197.82774 
L 185.528571 197.82774 
" clip-path="url(#p6a42903cbb)" style="fill: none; stroke: #97f0aa; stroke-linecap: square"/>
   </g>
   <g id="line2d_52">
    <path d="M 209.442857 211.851818 
L 233.357143 211.851818 
" clip-path="url(#p6a42903cbb)" style="fill: none; stroke: #97f0aa; stroke-linecap: square"/>
   </g>
   <g id="line2d_53">
    <path d="M 257.271429 211.851818 
L 281.185714 211.851818 
" clip-path="url(#p6a42903cbb)" style="fill: none; stroke: #97f0aa; stroke-linecap: square"/>
   </g>
   <g id="line2d_54">
    <path d="M 305.1 211.851818 
L 329.014286 211.851818 
" clip-path="url(#p6a42903cbb)" style="fill: none; stroke: #97f0aa; stroke-linecap: square"/>
   </g>
   <g id="line2d_55">
    <path d="M 352.928571 211.542551 
L 376.842857 211.542551 
" clip-path="url(#p6a42903cbb)" style="fill: none; stroke: #97f0aa; stroke-linecap: square"/>
   </g>
   <g id="patch_10">
    <path d="M 54 220.5 
L 54 30.24 
" style="fill: none; stroke: #000000; stroke-width: 0.8; stroke-linejoin: miter; stroke-linecap: square"/>
   </g>
   <g id="patch_11">
    <path d="M 388.8 220.5 
L 388.8 30.24 
" style="fill: none; stroke: #000000; stroke-width: 0.8; stroke-linejoin: miter; stroke-linecap: square"/>
   </g>
   <g id="patch_12">
    <path d="M 54 220.5 
L 388.8 220.5 
" style="fill: none; stroke: #000000; stroke-width: 0.8; stroke-linejoin: miter; stroke-linecap: square"/>
   </g>
   <g id="patch_13">
    <path d="M 54 30.24 
L 388.8 30.24 
" style="fill: none; stroke: #000000; stroke-width: 0.8; stroke-linejoin: miter; stroke-linecap: square"/>
   </g>
  </g>
 </g>
 <defs>
  <clipPath id="p6a42903cbb">
   <rect x="54" y="30.24" width="334.8" height="190.26"/>
  </clipPath>
 </defs>
</svg>
